v 0.340486 -0.493666 1.70715
v 0.862443 -0.324941 1.14364
v 0.62535 0.171841 0.983456
v 0.0327316 0.150977 1.5
v 0.380591 0.568807 0.621246
v -0.282688 0.662545 1.03322
v 0.173095 0.790138 0.114647
v -0.550088 0.947774 0.380372
v 0.0344499 0.80214 -0.459216
v -0.728759 0.96324 -0.359163
v -0.0142356 0.602984 -1.01298
v -0.7915 0.706589 -1.07279
v 0.0313961 0.235265 -1.45043
v -0.731813 0.229167 -1.63997
v 0.280473 -0.544871 1.63623
v 0.802431 -0.376146 1.07272
v 0.862443 -0.324941 1.14364
v 0.340486 -0.493666 1.70715
v 0.802431 -0.376146 1.07272
v 0.571937 0.10617 0.919524
v 0.62535 0.171841 0.983456
v 0.862443 -0.324941 1.14364
v -0.0206815 0.0853055 1.43607
v 0.280473 -0.544871 1.63623
v 0.340486 -0.493666 1.70715
v 0.0327316 0.150977 1.5
v 0.341443 0.48 0.578424
v 0.380591 0.568807 0.621246
v -0.321836 0.573738 0.990402
v -0.282688 0.662545 1.03322
v 0.146039 0.688432 0.10135
v 0.173095 0.790138 0.114647
v -0.577143 0.846068 0.367075
v -0.550088 0.947774 0.380372
v 0.0154751 0.699734 -0.439067
v 0.0344499 0.80214 -0.459216
v -0.747734 0.860834 -0.339015
v -0.728759 0.96324 -0.359163
v -0.0303729 0.512185 -0.960554
v -0.0142356 0.602984 -1.01298
v -0.807637 0.61579 -1.02037
v -0.7915 0.706589 -1.07279
v 0.0154752 0.154338 -1.38372
v 0.0313961 0.235265 -1.45043
v 0.0154752 0.154338 -1.38372
v -0.747734 0.14824 -1.57326
v -0.731813 0.229167 -1.63997
v 0.0313961 0.235265 -1.45043
v -0.747734 0.14824 -1.57326
v -0.731813 0.229167 -1.63997
v 0.280473 -0.544871 1.63623
v -0.0206815 0.0853055 1.43607
v 0.571937 0.10617 0.919524
v 0.802431 -0.376146 1.07272
v -0.321836 0.573738 0.990402
v 0.341443 0.48 0.578424
v -0.577143 0.846068 0.367075
v 0.146039 0.688432 0.10135
v -0.747734 0.860834 -0.339015
v 0.0154751 0.699734 -0.439067
v -0.807637 0.61579 -1.02037
v -0.0303729 0.512185 -0.960554
v -0.747734 0.14824 -1.57326
v 0.0154752 0.154338 -1.38372
vt 1.654135 0.992795 0
vt 1.535434 1.010377 0
vt 1.534786 0.938014 0
vt 1.649662 0.937149 0
vt 1.535150 0.870377 0
vt 1.647565 0.873581 0
vt 1.532950 0.798388 0
vt 1.649443 0.799733 0
vt 1.535064 0.742670 0
vt 1.649627 0.742907 0
vt 1.536089 0.679010 0
vt 1.650242 0.678612 0
vt 1.537258 0.619240 0
vt 1.650926 0.619264 0
vt 1.654610 1.008835 0
vt 1.535909 0.994337 0
vt 1.535434 1.010377 0
vt 1.654135 0.992795 0
vt 1.535909 0.994337 0
vt 1.535771 0.924405 0
vt 1.534786 0.938014 0
vt 1.535434 1.010377 0
vt 1.650647 0.923540 0
vt 1.654610 1.008835 0
vt 1.654135 0.992795 0
vt 1.649662 0.937149 0
vt 1.536632 0.862504 0
vt 1.535150 0.870377 0
vt 1.649048 0.865707 0
vt 1.647565 0.873581 0
vt 1.534635 0.797101 0
vt 1.532950 0.798388 0
vt 1.651127 0.798446 0
vt 1.649443 0.799733 0
vt 1.536625 0.747818 0
vt 1.535064 0.742670 0
vt 1.651188 0.748055 0
vt 1.649627 0.742907 0
vt 1.537221 0.689462 0
vt 1.536089 0.679010 0
vt 1.651374 0.689064 0
vt 1.650242 0.678612 0
vt 1.537905 0.631661 0
vt 1.537258 0.619240 0
vt 1.537905 0.631661 0
vt 1.651572 0.631685 0
vt 1.650926 0.619264 0
vt 1.537258 0.619240 0
vt 1.651572 0.631685 0
vt 1.650926 0.619264 0
vt 1.654610 1.008835 0
vt 1.650647 0.923540 0
vt 1.535771 0.924405 0
vt 1.535909 0.994337 0
vt 1.649048 0.865707 0
vt 1.536632 0.862504 0
vt 1.651127 0.798446 0
vt 1.534635 0.797101 0
vt 1.651188 0.748055 0
vt 1.536625 0.747818 0
vt 1.651374 0.689064 0
vt 1.537221 0.689462 0
vt 1.651572 0.631685 0
vt 1.537905 0.631661 0
vn 0.564833 0.484575 0.667945
vn 0.564506 0.484821 0.668043
vn 0.528386 0.569723 0.629463
vn 0.482398 0.656463 0.579956
vn 0.393524 0.800894 0.45134
vn 0.350619 0.860928 0.368604
vn 0.273837 0.943735 0.18541
vn 0.240972 0.967051 0.0821326
vn 0.188957 0.973793 -0.126581
vn 0.171212 0.956872 -0.234697
vn 0.151777 0.88771 -0.434666
vn 0.151835 0.833755 -0.530847
vn 0.149906 0.764275 -0.627225
vn 0.149722 0.76413 -0.627447
vn 0.489317 -0.849098 0.199
vn 0.489318 -0.849097 0.199001
vn 0.489317 -0.849098 0.199
vn 0.489317 -0.849098 0.199
vn 0.708547 0.115568 -0.696136
vn 0.7692 -0.00354711 -0.638998
vn 0.742177 0.0559061 -0.667868
vn 0.714193 0.118415 -0.689859
vn -0.740899 -0.0583372 0.669078
vn -0.712841 -0.121254 0.690764
vn -0.708369 -0.115889 0.696264
vn -0.768947 0.0030417 0.639305
vn 0.857754 -0.139552 -0.494756
vn 0.829088 -0.100249 -0.550057
vn -0.827992 0.0988504 0.551957
vn -0.856816 0.13817 0.496766
vn 0.930362 -0.208017 -0.301921
vn 0.908452 -0.193201 -0.37066
vn -0.907587 0.192657 0.373053
vn -0.929671 0.207508 0.304389
vn 0.975971 -0.198515 -0.0898488
vn 0.964164 -0.210439 -0.161565
vn -0.963651 0.210838 0.164083
vn -0.975642 0.198956 0.0924037
vn 0.988612 -0.108702 0.104072
vn 0.987651 -0.150601 0.0431803
vn -0.98765 0.150624 -0.043137
vn -0.988674 0.109854 -0.102249
vn 0.985229 -0.0623615 0.159481
vn 0.984012 -0.0701225 0.163715
vn 0.188748 -0.646485 -0.739209
vn 0.188748 -0.646485 -0.739209
vn 0.188748 -0.646485 -0.739209
vn 0.188748 -0.646486 -0.739209
vn -0.983976 0.0698971 -0.16403
vn -0.985434 0.0639854 -0.157562
vn -0.565729 -0.482703 -0.668542
vn -0.483666 -0.654315 -0.581325
vn -0.530006 -0.56657 -0.630946
vn -0.565729 -0.482703 -0.668542
vn -0.350805 -0.860702 -0.368955
vn -0.393722 -0.800576 -0.451731
vn -0.241113 -0.966979 -0.0825604
vn -0.27399 -0.943593 -0.18591
vn -0.17129 -0.956966 0.234257
vn -0.189038 -0.973846 0.126049
vn -0.151965 -0.832187 0.533265
vn -0.1518 -0.886731 0.436653
vn -0.150085 -0.762888 0.62887
vn -0.150085 -0.762888 0.62887
g Ball_Wood_piece14
usemtl Ball_Wood_Pieces
f 2/2/2 3/3/3 1/1/1
f 3/3/3 4/4/4 1/1/1
f 3/3/3 5/5/5 4/4/4
f 5/5/5 6/6/6 4/4/4
f 5/5/5 7/7/7 6/6/6
f 7/7/7 8/8/8 6/6/6
f 7/7/7 9/9/9 8/8/8
f 9/9/9 10/10/10 8/8/8
f 9/9/9 11/11/11 10/10/10
f 11/11/11 12/12/12 10/10/10
f 11/11/11 13/13/13 12/12/12
f 13/13/13 14/14/14 12/12/12
f 16/16/16 17/17/17 15/15/15
f 18/18/18 15/15/15 17/17/17
f 20/20/20 21/21/21 19/19/19
f 22/22/22 19/19/19 21/21/21
f 24/24/24 25/25/25 23/23/23
f 26/26/26 23/23/23 25/25/25
f 27/27/27 28/28/28 20/20/20
f 21/21/21 20/20/20 28/28/28
f 23/23/23 26/26/26 29/29/29
f 30/30/30 29/29/29 26/26/26
f 31/31/31 32/32/32 27/27/27
f 28/28/28 27/27/27 32/32/32
f 29/29/29 30/30/30 33/33/33
f 34/34/34 33/33/33 30/30/30
f 35/35/35 36/36/36 31/31/31
f 32/32/32 31/31/31 36/36/36
f 33/33/33 34/34/34 37/37/37
f 38/38/38 37/37/37 34/34/34
f 39/39/39 40/40/40 35/35/35
f 36/36/36 35/35/35 40/40/40
f 37/37/37 38/38/38 41/41/41
f 42/42/42 41/41/41 38/38/38
f 43/43/43 44/44/44 39/39/39
f 40/40/40 39/39/39 44/44/44
f 46/46/46 47/47/47 45/45/45
f 48/48/48 45/45/45 47/47/47
f 41/41/41 42/42/42 49/49/49
f 50/50/50 49/49/49 42/42/42
f 52/52/52 53/53/53 51/51/51
f 53/53/53 54/54/54 51/51/51
f 55/55/55 56/56/56 52/52/52
f 56/56/56 53/53/53 52/52/52
f 57/57/57 58/58/58 55/55/55
f 58/58/58 56/56/56 55/55/55
f 59/59/59 60/60/60 57/57/57
f 60/60/60 58/58/58 57/57/57
f 61/61/61 62/62/62 59/59/59
f 62/62/62 60/60/60 59/59/59
f 63/63/63 64/64/64 61/61/61
f 64/64/64 62/62/62 61/61/61
