v 0.182812 0.152138 -0.512923
v -0.39741 0.0156082 -0.0815953
v 0.397832 0.0147239 0.179722
v -0.0165574 -0.167889 0.500918
v 0.196044 -0.0334628 -0.553648
v -0.380022 -0.166367 -0.135112
v -0.39741 0.0156082 -0.0815953
v 0.182812 0.152138 -0.512923
v 0.416081 -0.166366 0.123558
v 0.196044 -0.0334628 -0.553648
v 0.182812 0.152138 -0.512923
v 0.397832 0.0147239 0.179722
v -0.380022 -0.166367 -0.135112
v 0.00637075 -0.34332 0.430353
v -0.0165574 -0.167889 0.500918
v -0.39741 0.0156082 -0.0815953
v 0.00637075 -0.34332 0.430353
v 0.416081 -0.166366 0.123558
v 0.397832 0.0147239 0.179722
v -0.0165574 -0.167889 0.500918
v 0.196044 -0.0334628 -0.553648
v 0.416081 -0.166366 0.123558
v 0.00637075 -0.34332 0.430353
v -0.380022 -0.166367 -0.135112
vt 1.532692 0.562745 0
vt 1.636265 0.420190 0
vt 1.700276 0.617197 0
vt 1.785166 0.512894 0
vt 1.237512 0.260891 0
vt 1.483823 0.375765 0
vt 1.484382 0.744265 0
vt 1.231685 0.628441 0
vt 1.452148 0.385270 0
vt 1.729895 0.271657 0
vt 1.736532 0.657009 0
vt 1.450968 0.771657 0
vt 1.483823 0.375765 0
vt 1.722387 0.244265 0
vt 1.731684 0.610869 0
vt 1.484382 0.744265 0
vt 1.245204 0.277205 0
vt 1.452148 0.385270 0
vt 1.450968 0.771657 0
vt 1.236532 0.661743 0
vt 1.532692 0.562745 0
vt 1.700276 0.617197 0
vt 1.785166 0.512894 0
vt 1.636265 0.420190 0
vn 0.100704 0.993947 -0.0439026
vn 0.0751553 0.996829 0.0261326
vn 0.0751553 0.996829 0.0261326
vn 0.0416681 0.992372 0.116028
vn -0.572787 0.0421508 -0.81862
vn -0.565765 0.0627406 -0.822176
vn -0.572787 0.0421508 -0.81862
vn -0.579417 0.0218963 -0.814737
vn 0.962334 -0.0838044 -0.258631
vn 0.958329 -0.109129 -0.264001
vn 0.962334 -0.0838044 -0.258631
vn 0.96563 -0.0588331 -0.253176
vn -0.871008 0.0164848 0.490992
vn -0.868189 -0.0225806 0.49572
vn -0.871008 0.0164848 0.490992
vn -0.87246 0.0549328 0.485588
vn 0.603409 -0.0960528 0.791626
vn 0.597477 -0.072992 0.798557
vn 0.603409 -0.0960528 0.791626
vn 0.608825 -0.118434 0.784414
vn -0.0752571 -0.99683 -0.0258003
vn 0.0490567 -0.99879 0.00348044
vn -0.0752571 -0.99683 -0.0258003
vn -0.163548 -0.985438 -0.0465152
g Ball_Stone_piece08
usemtl Ball_Stone_Pieces_Outside
f 2/2/2 3/3/3 1/1/1
f 4/4/4 3/3/3 2/2/2
usemtl Ball_Stone_Pieces_Inside
f 6/6/6 7/7/7 5/5/5
f 8/8/8 5/5/5 7/7/7
f 10/10/10 11/11/11 9/9/9
f 12/12/12 9/9/9 11/11/11
f 14/14/14 15/15/15 13/13/13
f 16/16/16 13/13/13 15/15/15
f 18/18/18 19/19/19 17/17/17
f 20/20/20 17/17/17 19/19/19
f 22/22/22 23/23/23 21/21/21
f 23/23/23 24/24/24 21/21/21
