v -0.616921 1.35659 0.460774
v -0.92296 0.90619 0.791754
v -0.467277 0.801086 0.803866
v -0.00678029 1.00338 0.473046
v 0.961352 0.177569 -0.52529
v 0.908311 -0.202338 -0.282185
v 1.02111 -0.206125 -1.09265
v 0.857567 -0.678487 0.0104946
v 0.93252 -0.714256 -0.549491
v 0.472543 -1.33852 0.0896928
v 0.707297 -1.20075 -0.30929
v -0.670225 0.363151 1.07386
v -0.0599089 0.397043 0.831571
v -0.939036 -0.113685 1.16855
v -0.38638 -0.121412 1.0036
v 0.18463 -0.0713221 0.667203
v -0.929417 -0.899135 1.00302
v -0.141777 -0.619812 0.834995
v 0.406806 -0.591659 0.470554
v -0.4326 -1.22009 0.715222
v 0.0931288 -1.34762 0.330139
v -0.923272 0.405097 1.10085
v 0.654654 -0.171078 0.22485
v 0.776909 0.387059 -0.129636
v 0.459607 0.743494 0.291196
v -0.92296 0.90619 0.791754
v -0.616921 1.35659 0.460774
v -0.467277 0.801086 0.803866
v -0.00678029 1.00338 0.473046
v 0.908311 -0.202338 -0.282185
v 0.961352 0.177569 -0.52529
v 1.02111 -0.206125 -1.09265
v 0.857567 -0.678487 0.0104946
v 0.93252 -0.714256 -0.549491
v 0.472543 -1.33852 0.0896928
v 0.707297 -1.20075 -0.30929
v -0.670225 0.363151 1.07386
v -0.0599089 0.397043 0.831571
v -0.939036 -0.113685 1.16855
v -0.38638 -0.121412 1.0036
v 0.18463 -0.0713221 0.667203
v -0.929417 -0.899135 1.00302
v -0.141777 -0.619812 0.834995
v 0.406806 -0.591659 0.470554
v -0.4326 -1.22009 0.715222
v 0.0931288 -1.34762 0.330139
v -0.923272 0.405097 1.10085
v 0.654654 -0.171078 0.22485
v 0.776909 0.387059 -0.129636
v 0.459607 0.743494 0.291196
vt 1.480458 0.700482 0
vt 1.534986 0.665566 0
vt 1.548088 0.714017 0
vt 1.520589 0.768624 0
vt 1.603924 0.933116 0
vt 1.656609 0.911383 0
vt 1.658829 0.993085 0
vt 1.712161 0.877316 0
vt 1.728361 0.928768 0
vt 1.788462 0.829631 0
vt 1.785577 0.879363 0
vt 1.598004 0.689939 0
vt 1.592233 0.755800 0
vt 1.646148 0.662653 0
vt 1.646777 0.720674 0
vt 1.641006 0.788745 0
vt 1.726937 0.664096 0
vt 1.700048 0.748987 0
vt 1.699637 0.816460 0
vt 1.766150 0.718931 0
vt 1.788298 0.784149 0
vt 1.594091 0.664336 0
vt 1.652218 0.854496 0
vt 1.581099 0.885405 0
vt 1.547862 0.823954 0
vt 1.534986 0.665566 0
vt 1.480458 0.700482 0
vt 1.548088 0.714017 0
vt 1.520589 0.768624 0
vt 1.656609 0.911383 0
vt 1.603924 0.933116 0
vt 1.658829 0.993085 0
vt 1.712161 0.877316 0
vt 1.728361 0.928768 0
vt 1.788462 0.829631 0
vt 1.785577 0.879363 0
vt 1.598004 0.689939 0
vt 1.592233 0.755800 0
vt 1.646148 0.662653 0
vt 1.646777 0.720674 0
vt 1.641006 0.788745 0
vt 1.726937 0.664096 0
vt 1.700048 0.748987 0
vt 1.699637 0.816460 0
vt 1.766150 0.718931 0
vt 1.788298 0.784149 0
vt 1.594091 0.664336 0
vt 1.652218 0.854496 0
vt 1.581099 0.885405 0
vt 1.547862 0.823954 0
vn -0.409776 0.848222 0.335564
vn -0.421845 0.791867 0.441581
vn -0.336631 0.872054 0.355248
vn -0.253545 0.939006 0.232342
vn 0.396256 0.831677 -0.388966
vn 0.372941 0.852999 -0.365113
vn 0.4507 0.764276 -0.461251
vn 0.537062 0.837774 -0.0984836
vn 0.529525 0.731476 -0.429589
vn 0.614242 0.762792 0.202126
vn 0.737779 0.638404 -0.219366
vn -0.129131 0.861336 0.49135
vn -0.00183441 0.956619 0.291337
vn 0.178253 0.774813 0.60654
vn 0.225067 0.823613 0.520583
vn 0.241689 0.94266 0.230171
vn 0.332848 0.718908 0.610232
vn 0.414869 0.779347 0.469577
vn 0.450203 0.845323 0.287658
vn 0.494783 0.70134 0.51314
vn 0.549288 0.732694 0.401799
vn -0.242686 0.814112 0.527566
vn 0.252744 0.967363 -0.0181318
vn 0.266998 0.944328 -0.192243
vn 0.136229 0.987947 0.0734963
vn 0.421845 -0.791867 -0.441581
vn 0.409776 -0.848222 -0.335564
vn 0.336631 -0.872054 -0.355248
vn 0.253545 -0.939006 -0.232342
vn -0.372941 -0.852999 0.365113
vn -0.396256 -0.831677 0.388966
vn -0.4507 -0.764276 0.461251
vn -0.537062 -0.837774 0.0984836
vn -0.529525 -0.731476 0.429589
vn -0.614242 -0.762792 -0.202126
vn -0.737779 -0.638404 0.219366
vn 0.129131 -0.861336 -0.49135
vn 0.00183441 -0.956619 -0.291337
vn -0.178253 -0.774813 -0.60654
vn -0.225067 -0.823613 -0.520583
vn -0.241689 -0.94266 -0.230171
vn -0.332848 -0.718908 -0.610232
vn -0.414869 -0.779347 -0.469577
vn -0.450203 -0.845323 -0.287658
vn -0.494783 -0.70134 -0.51314
vn -0.549288 -0.732694 -0.401799
vn 0.242686 -0.814112 -0.527566
vn -0.252744 -0.967363 0.0181318
vn -0.266998 -0.944328 0.192243
vn -0.136229 -0.987947 -0.0734963
g Ball_Paper_piece06
usemtl Ball_Paper_Pieces
f 2/2/2 3/3/3 1/1/1
f 3/3/3 4/4/4 1/1/1
f 6/6/6 7/7/7 5/5/5
f 8/8/8 9/9/9 6/6/6
f 9/9/9 7/7/7 6/6/6
f 10/10/10 11/11/11 8/8/8
f 11/11/11 9/9/9 8/8/8
f 12/12/12 13/13/13 3/3/3
f 14/14/14 15/15/15 12/12/12
f 15/15/15 13/13/13 12/12/12
f 15/15/15 16/16/16 13/13/13
f 17/17/17 15/15/15 14/14/14
f 17/17/17 18/18/18 15/15/15
f 18/18/18 16/16/16 15/15/15
f 18/18/18 19/19/19 16/16/16
f 20/20/20 18/18/18 17/17/17
f 20/20/20 21/21/21 18/18/18
f 21/21/21 19/19/19 18/18/18
f 21/21/21 10/10/10 19/19/19
f 12/12/12 22/22/22 14/14/14
f 3/3/3 2/2/2 12/12/12
f 2/2/2 22/22/22 12/12/12
f 8/8/8 19/19/19 10/10/10
f 6/6/6 23/23/23 8/8/8
f 23/23/23 19/19/19 8/8/8
f 23/23/23 16/16/16 19/19/19
f 5/5/5 24/24/24 6/6/6
f 24/24/24 23/23/23 6/6/6
f 24/24/24 25/25/25 23/23/23
f 25/25/25 16/16/16 23/23/23
f 25/25/25 13/13/13 16/16/16
f 4/4/4 13/13/13 25/25/25
f 4/4/4 3/3/3 13/13/13
f 27/27/27 28/28/28 26/26/26
f 27/27/27 29/29/29 28/28/28
f 31/31/31 32/32/32 30/30/30
f 30/30/30 34/34/34 33/33/33
f 30/30/30 32/32/32 34/34/34
f 33/33/33 36/36/36 35/35/35
f 33/33/33 34/34/34 36/36/36
f 28/28/28 38/38/38 37/37/37
f 37/37/37 40/40/40 39/39/39
f 37/37/37 38/38/38 40/40/40
f 38/38/38 41/41/41 40/40/40
f 39/39/39 40/40/40 42/42/42
f 40/40/40 43/43/43 42/42/42
f 40/40/40 41/41/41 43/43/43
f 41/41/41 44/44/44 43/43/43
f 42/42/42 43/43/43 45/45/45
f 43/43/43 46/46/46 45/45/45
f 43/43/43 44/44/44 46/46/46
f 44/44/44 35/35/35 46/46/46
f 39/39/39 47/47/47 37/37/37
f 37/37/37 26/26/26 28/28/28
f 37/37/37 47/47/47 26/26/26
f 35/35/35 44/44/44 33/33/33
f 33/33/33 48/48/48 30/30/30
f 33/33/33 44/44/44 48/48/48
f 44/44/44 41/41/41 48/48/48
f 30/30/30 49/49/49 31/31/31
f 30/30/30 48/48/48 49/49/49
f 48/48/48 50/50/50 49/49/49
f 48/48/48 41/41/41 50/50/50
f 41/41/41 38/38/38 50/50/50
f 50/50/50 38/38/38 29/29/29
f 38/38/38 28/28/28 29/29/29
