v 1.16623 -0.409516 -0.919919
v 0.562122 0.0772699 -0.791297
v 0.621191 0.157196 -0.495071
v 1.27507 -0.264826 -0.381991
v 0.557993 0.239427 -0.188178
v 1.1621 -0.11783 0.166606
v 0.378019 0.30914 0.0719938
v 0.840383 0.00678684 0.631684
v 0.103679 0.359197 0.235661
v 0.358899 0.0900533 0.942439
v -0.20905 0.376466 0.288958
v -0.20905 0.119292 1.05156
v -0.52058 0.360428 0.229103
v -0.776999 0.0900529 0.942439
v -0.776679 0.316863 0.0565205
v -1.24999 0.00833802 0.639537
v -0.220906 0.324439 -0.52761
v -0.20905 0.376466 0.288958
v 0.103679 0.359197 0.235661
v -0.52058 0.360428 0.229103
v -0.776679 0.316863 0.0565205
v -0.940764 0.250939 -0.206412
v -1.00105 0.172495 -0.499171
v -0.942324 0.0949603 -0.788232
v 1.21614 -0.350023 -0.359162
v 1.10765 -0.491182 -0.885974
v 1.16623 -0.409516 -0.919919
v 1.27507 -0.264826 -0.381991
v 1.10765 -0.208864 0.16765
v 1.1621 -0.11783 0.166606
v 0.79871 -0.0891958 0.614259
v 0.840383 0.00678684 0.631684
v 0.336345 -0.00923603 0.912674
v 0.358899 0.0900533 0.942439
v -0.20905 0.0188421 1.01746
v -0.20905 0.119292 1.05156
v -0.754446 -0.00923614 0.912674
v -0.776999 0.0900529 0.942439
v -1.21681 -0.0891965 0.614259
v -1.24999 0.00833802 0.639537
v 1.10765 -0.491182 -0.885974
v 0.503544 -0.00439572 -0.757351
v 0.562122 0.0772699 -0.791297
v 1.16623 -0.409516 -0.919919
v 0.503544 -0.00439572 -0.757351
v 0.562256 0.0719991 -0.472243
v 0.621191 0.157196 -0.495071
v 0.562122 0.0772699 -0.791297
v 0.503544 0.148394 -0.187134
v 0.557993 0.239427 -0.188178
v 0.336346 0.213158 0.054569
v 0.378019 0.30914 0.0719938
v 0.0861159 0.256432 0.21607
v 0.103679 0.359197 0.235661
v -0.754446 0.213157 0.0545689
v -1.21681 -0.0891965 0.614259
v -1.24999 0.00833802 0.639537
v -0.776679 0.316863 0.0565205
v 0.0861159 0.256432 0.21607
v -0.20905 0.220193 -0.511951
v -0.220906 0.324439 -0.52761
v 0.103679 0.359197 0.235661
v -0.921644 0.148393 -0.187134
v -0.754446 0.213157 0.0545689
v -0.776679 0.316863 0.0565205
v -0.940764 0.250939 -0.206412
v -0.980356 0.0719985 -0.472243
v -1.00105 0.172495 -0.499171
v -0.20905 0.220193 -0.511951
v -0.921644 -0.0043961 -0.757351
v -0.942324 0.0949603 -0.788232
v -0.220906 0.324439 -0.52761
v -0.921644 -0.0043961 -0.757351
v -0.980356 0.0719985 -0.472243
v -1.00105 0.172495 -0.499171
v -0.942324 0.0949603 -0.788232
v 1.21614 -0.350023 -0.359162
v 0.562256 0.0719991 -0.472243
v 0.503544 -0.00439572 -0.757351
v 1.10765 -0.491182 -0.885974
v 1.10765 -0.208864 0.16765
v 0.503544 0.148394 -0.187134
v 0.79871 -0.0891958 0.614259
v 0.336346 0.213158 0.054569
v 0.336345 -0.00923603 0.912674
v 0.0861159 0.256432 0.21607
v 0.336345 -0.00923603 0.912674
v -0.20905 0.0188421 1.01746
v -0.20905 0.220193 -0.511951
v 0.0861159 0.256432 0.21607
v -0.754446 -0.00923614 0.912674
v -0.754446 0.213157 0.0545689
v -0.921644 0.148393 -0.187134
v -0.980356 0.0719985 -0.472243
v -0.921644 -0.0043961 -0.757351
v -1.21681 -0.0891965 0.614259
vt 1.098721 1.001248 0
vt 1.199202 0.998531 0
vt 1.198475 0.943082 0
vt 1.100370 0.942098 0
vt 1.200019 0.888540 0
vt 1.097153 0.891533 0
vt 1.203269 0.840968 0
vt 1.096439 0.844136 0
vt 1.207132 0.782896 0
vt 1.094973 0.785901 0
vt 1.204281 0.733281 0
vt 1.097684 0.738155 0
vt 1.202921 0.696071 0
vt 1.101766 0.696335 0
vt 1.205969 0.656730 0
vt 1.104103 0.651543 0
vt 1.112041 0.850092 0
vt 0.996137 0.824491 0
vt 0.982623 0.869637 0
vt 1.021871 0.777444 0
vt 1.057263 0.737837 0
vt 1.097452 0.711200 0
vt 1.134022 0.698601 0
vt 1.162902 0.703719 0
vt 1.112040 0.935672 0
vt 1.110321 0.991692 0
vt 1.098721 1.001248 0
vt 1.100370 0.942098 0
vt 1.107935 0.891239 0
vt 1.097153 0.891533 0
vt 1.104691 0.849042 0
vt 1.096439 0.844136 0
vt 1.099439 0.794280 0
vt 1.094973 0.785901 0
vt 1.097684 0.747754 0
vt 1.097684 0.738155 0
vt 1.097300 0.704715 0
vt 1.101766 0.696335 0
vt 1.097533 0.658659 0
vt 1.104103 0.651543 0
vt 1.110321 0.991692 0
vt 1.210801 0.988975 0
vt 1.199202 0.998531 0
vt 1.098721 1.001248 0
vt 1.210801 0.988975 0
vt 1.210145 0.936655 0
vt 1.198475 0.943082 0
vt 1.199202 0.998531 0
vt 1.210801 0.888246 0
vt 1.200019 0.888540 0
vt 1.211521 0.845873 0
vt 1.203269 0.840968 0
vt 1.210610 0.788412 0
vt 1.207132 0.782896 0
vt 1.201567 0.657279 0
vt 1.097533 0.658659 0
vt 1.104103 0.651543 0
vt 1.205969 0.656730 0
vt 1.125735 0.718535 0
vt 1.249738 0.500000 0
vt 1.234691 0.497206 0
vt 1.112204 0.707807 0
vt 1.271778 0.430438 0
vt 1.125735 0.757939 0
vt 1.111417 0.751169 0
vt 1.256832 0.428571 0
vt 1.271778 0.500000 0
vt 1.256832 0.500000 0
vt 1.249738 0.500000 0
vt 1.271778 0.569562 0
vt 1.256843 0.570531 0
vt 1.234691 0.497206 0
vt 1.271778 0.569562 0
vt 1.271778 0.500000 0
vt 1.256832 0.500000 0
vt 1.256843 0.570531 0
vt 1.112040 0.935672 0
vt 1.210145 0.936655 0
vt 1.210801 0.988975 0
vt 1.110321 0.991692 0
vt 1.107935 0.891239 0
vt 1.210801 0.888246 0
vt 1.104691 0.849042 0
vt 1.211521 0.845873 0
vt 1.099439 0.794280 0
vt 1.210610 0.788412 0
vt 0.829785 0.812484 0
vt 0.851291 0.732724 0
vt 1.109018 0.851184 0
vt 0.986891 0.868376 0
vt 0.896343 0.650359 0
vt 1.056324 0.741435 0
vt 1.093682 0.713581 0
vt 1.129296 0.701311 0
vt 1.157745 0.706494 0
vt 0.958082 0.577929 0
vn 0.552492 0.770219 -0.318614
vn 0.552882 0.770172 -0.318051
vn 0.555021 0.789123 -0.263127
vn 0.555387 0.809504 -0.190391
vn 0.532515 0.844546 -0.0563045
vn 0.503889 0.863689 0.0117147
vn 0.428949 0.894119 0.128659
vn 0.374835 0.909254 0.180987
vn 0.216519 0.956745 0.194317
vn 0.18938 0.938583 0.288438
vn 0.0351126 0.981229 0.189622
vn -0.0237074 0.947303 0.319461
vn -0.134466 0.975904 0.171844
vn -0.233064 0.934345 0.269594
vn -0.243676 0.965512 0.0916978
vn -0.310055 0.921041 0.23569
vn -0.107624 0.983786 -0.143462
vn 0.0351126 0.981229 0.189622
vn 0.216519 0.956745 0.194317
vn -0.134466 0.975904 0.171844
vn -0.243676 0.965512 0.0916978
vn -0.178727 0.967446 -0.179177
vn -0.193822 0.947706 -0.253549
vn -0.193117 0.937152 -0.290606
vn 0.826903 -0.554686 0.0924964
vn 0.810559 -0.585572 -0.0100143
vn 0.815738 -0.578312 -0.0112456
vn 0.830158 -0.521262 0.197798
vn 0.788585 -0.467078 0.399963
vn 0.746573 -0.440823 0.498301
vn 0.626976 -0.394202 0.671942
vn 0.549211 -0.374113 0.747266
vn 0.369916 -0.342879 0.863479
vn 0.268237 -0.332028 0.904326
vn 0.0565386 -0.320924 0.945416
vn -0.0535738 -0.320977 0.945571
vn -0.265446 -0.33168 0.905277
vn -0.363877 -0.347981 0.864004
vn -0.46049 -0.357603 0.812446
vn -0.456374 -0.365511 0.811249
vn -0.323989 -0.155497 -0.933194
vn -0.323989 -0.155498 -0.933194
vn -0.323989 -0.155497 -0.933194
vn -0.323988 -0.155497 -0.933195
vn -0.815968 0.578012 0.00989127
vn -0.83008 0.520792 -0.199355
vn -0.827246 0.553231 -0.0979759
vn -0.811724 0.584025 0.00428328
vn -0.744786 0.439714 -0.501942
vn -0.787169 0.46619 -0.403772
vn -0.54778 0.336279 -0.766064
vn -0.615872 0.391513 -0.683681
vn -0.495837 0.243648 -0.833535
vn -0.465202 0.294151 -0.834903
vn -0.738189 -0.113293 -0.665013
vn -0.745979 -0.0825183 -0.660837
vn -0.738189 -0.113293 -0.665013
vn -0.72967 -0.143855 -0.668497
vn 0.923587 -0.0181864 -0.382958
vn 0.924796 0.0484977 -0.37736
vn 0.923587 -0.0181864 -0.382958
vn 0.918413 -0.0832278 -0.38677
vn -0.877201 -0.124273 0.463761
vn -0.785859 -0.179617 0.591746
vn -0.816244 -0.116116 0.565917
vn -0.932979 -0.109498 0.34287
vn -0.962637 -0.135398 0.234515
vn -0.962638 -0.135397 0.234514
vn 0.370942 -0.1502 -0.916429
vn 0.375407 -0.202951 -0.904368
vn 0.370942 -0.1502 -0.916429
vn 0.365438 -0.0974856 -0.925717
vn -0.962181 -0.237692 -0.13308
vn -0.962637 -0.234514 -0.135398
vn -0.962181 -0.237692 -0.13308
vn -0.961716 -0.240822 -0.130792
vn -0.555416 -0.796826 0.237868
vn -0.554789 -0.815725 0.16371
vn -0.552208 -0.769849 0.319997
vn -0.552208 -0.76985 0.319996
vn -0.522142 -0.852301 0.0308315
vn -0.492278 -0.869631 -0.0374686
vn -0.409376 -0.900258 -0.148145
vn -0.354823 -0.913242 -0.200226
vn -0.0353178 -0.971298 -0.235229
vn 0.464148 -0.759201 -0.456269
vn -0.0353178 -0.971298 -0.235229
vn -0.0553637 -0.985989 -0.157352
vn 0.0760603 -0.994953 -0.0654519
vn 0.464148 -0.759201 -0.456269
vn 0.200029 -0.948455 -0.245809
vn 0.0601689 -0.986305 -0.153566
vn 0.18024 -0.966689 0.181732
vn 0.195091 -0.947366 0.253846
vn 0.194944 -0.936617 0.291111
vn 0.312802 -0.919442 -0.23829
g Ball_Wood_piece07
usemtl Ball_Wood_Pieces
f 2/2/2 3/3/3 1/1/1
f 3/3/3 4/4/4 1/1/1
f 3/3/3 5/5/5 4/4/4
f 5/5/5 6/6/6 4/4/4
f 5/5/5 7/7/7 6/6/6
f 7/7/7 8/8/8 6/6/6
f 7/7/7 9/9/9 8/8/8
f 9/9/9 10/10/10 8/8/8
f 9/9/9 11/11/11 10/10/10
f 11/11/11 12/12/12 10/10/10
f 11/11/11 13/13/13 12/12/12
f 13/13/13 14/14/14 12/12/12
f 13/13/13 15/15/15 14/14/14
f 15/15/15 16/16/16 14/14/14
f 18/18/18 19/19/19 17/17/17
f 20/20/20 18/18/18 17/17/17
f 21/21/21 20/20/20 17/17/17
f 22/22/22 21/21/21 17/17/17
f 23/23/23 22/22/22 17/17/17
f 24/24/24 23/23/23 17/17/17
f 26/26/26 27/27/27 25/25/25
f 28/28/28 25/25/25 27/27/27
f 25/25/25 28/28/28 29/29/29
f 30/30/30 29/29/29 28/28/28
f 29/29/29 30/30/30 31/31/31
f 32/32/32 31/31/31 30/30/30
f 31/31/31 32/32/32 33/33/33
f 34/34/34 33/33/33 32/32/32
f 33/33/33 34/34/34 35/35/35
f 36/36/36 35/35/35 34/34/34
f 35/35/35 36/36/36 37/37/37
f 38/38/38 37/37/37 36/36/36
f 37/37/37 38/38/38 39/39/39
f 40/40/40 39/39/39 38/38/38
f 42/42/42 43/43/43 41/41/41
f 44/44/44 41/41/41 43/43/43
f 46/46/46 47/47/47 45/45/45
f 48/48/48 45/45/45 47/47/47
f 49/49/49 50/50/50 46/46/46
f 47/47/47 46/46/46 50/50/50
f 51/51/51 52/52/52 49/49/49
f 50/50/50 49/49/49 52/52/52
f 53/53/53 54/54/54 51/51/51
f 52/52/52 51/51/51 54/54/54
f 56/56/56 57/57/57 55/55/55
f 58/58/58 55/55/55 57/57/57
f 60/60/60 61/61/61 59/59/59
f 62/62/62 59/59/59 61/61/61
f 64/64/64 65/65/65 63/63/63
f 66/66/66 63/63/63 65/65/65
f 63/63/63 66/66/66 67/67/67
f 68/68/68 67/67/67 66/66/66
f 70/70/70 71/71/71 69/69/69
f 72/72/72 69/69/69 71/71/71
f 74/74/74 75/75/75 73/73/73
f 76/76/76 73/73/73 75/75/75
f 78/78/78 79/79/79 77/77/77
f 79/79/79 80/80/80 77/77/77
f 82/82/82 78/78/78 81/81/81
f 78/78/78 77/77/77 81/81/81
f 84/84/84 82/82/82 83/83/83
f 82/82/82 81/81/81 83/83/83
f 86/86/86 84/84/84 85/85/85
f 84/84/84 83/83/83 85/85/85
f 88/88/88 89/89/89 87/87/87
f 89/89/89 90/90/90 87/87/87
f 91/91/91 92/92/92 88/88/88
f 92/92/92 89/89/89 88/88/88
f 92/92/92 93/93/93 89/89/89
f 93/93/93 94/94/94 89/89/89
f 94/94/94 95/95/95 89/89/89
f 96/96/96 92/92/92 91/91/91
