v -0.955687 0.916128 0.443678
v -0.918028 0.611115 0.827136
v -0.601504 0.563693 0.831955
v -0.253672 1.07143 -0.564562
v -0.329465 0.951409 -0.0156034
v 0.0887832 0.925128 -0.557405
v -0.12976 0.656073 0.488692
v 0.278322 0.660878 -0.0375975
v 0.582151 0.563219 -0.59328
v 0.0086371 0.210479 0.844227
v 0.412588 0.15816 0.459094
v 0.799145 0.110288 -0.0355754
v 0.475024 -0.049406 0.662376
v -0.918028 0.611115 0.827136
v -0.955687 0.916128 0.443678
v -0.601504 0.563693 0.831955
v -0.329465 0.951409 -0.0156034
v -0.253672 1.07143 -0.564562
v 0.0887832 0.925128 -0.557405
v -0.12976 0.656073 0.488692
v 0.278322 0.660878 -0.0375975
v 0.582151 0.563219 -0.59328
v 0.0086371 0.210479 0.844227
v 0.412588 0.15816 0.459094
v 0.799145 0.110288 -0.0355754
v 0.475024 -0.049406 0.662376
v 0.904802 0.0318262 -0.579449
v 0.904802 0.0318262 -0.579449
v -0.907543 0.11329 1.16293
v 0.904802 0.0318262 -0.579449
v 0.97677 -0.615331 -0.15411
v 0.961758 -0.477019 -1.00942
v 1.03653 -0.999024 -0.721465
v 0.97677 -0.615331 -0.15411
v 0.792327 -0.405841 0.241545
v -0.907543 0.11329 1.16293
v 0.97677 -0.615331 -0.15411
v 0.904802 0.0318262 -0.579449
v 0.961758 -0.477019 -1.00942
v 1.03653 -0.999024 -0.721465
v 0.97677 -0.615331 -0.15411
v 0.792327 -0.405841 0.241545
v 0.715434 0.151147 -1.11673
v 0.715434 0.151147 -1.11673
vt 1.425535 0.661471 0
vt 1.474189 0.664999 0
vt 1.480458 0.700482 0
vt 1.345338 0.770422 0
vt 1.394894 0.747020 0
vt 1.370837 0.820085 0
vt 1.459203 0.759739 0
vt 1.437114 0.826165 0
vt 1.425934 0.892549 0
vt 1.520589 0.768624 0
vt 1.516359 0.827232 0
vt 1.512653 0.890703 0
vt 1.547862 0.823954 0
vt 1.474189 0.664999 0
vt 1.425535 0.661471 0
vt 1.480458 0.700482 0
vt 1.394894 0.747020 0
vt 1.345338 0.770422 0
vt 1.370837 0.820085 0
vt 1.459203 0.759739 0
vt 1.437114 0.826165 0
vt 1.425934 0.892549 0
vt 1.520589 0.768624 0
vt 1.516359 0.827232 0
vt 1.512653 0.890703 0
vt 1.547862 0.823954 0
vt 1.502954 0.944294 0
vt 1.502954 0.944294 0
vt 1.534986 0.665566 0
vt 1.793483 0.958791 0
vt 1.708335 1.031715 0
vt 1.713122 0.942541 0
vt 1.642108 0.978778 0
vt 1.603924 0.933116 0
vt 1.581099 0.885405 0
vt 1.534986 0.665566 0
vt 1.708335 1.031715 0
vt 1.793483 0.958791 0
vt 1.713122 0.942541 0
vt 1.642108 0.978778 0
vt 1.603924 0.933116 0
vt 1.581099 0.885405 0
vt 1.791751 0.898612 0
vt 1.791751 0.898612 0
vn -0.438677 0.854103 0.279412
vn -0.409289 0.707922 0.575611
vn -0.350274 0.818311 0.455714
vn -0.365309 0.930864 0.00646728
vn -0.361323 0.927299 0.0977852
vn -0.261986 0.965025 -0.00947721
vn -0.246159 0.932361 0.264781
vn -0.111912 0.989566 0.090746
vn 0.0409477 0.996699 -0.0701001
vn -0.102482 0.927194 0.36029
vn 0.0822388 0.967068 0.240865
vn 0.271635 0.959201 0.0784118
vn 0.110528 0.98761 0.111401
vn 0.409289 -0.707922 -0.575611
vn 0.438677 -0.854103 -0.279412
vn 0.350274 -0.818311 -0.455714
vn 0.361323 -0.927299 -0.0977852
vn 0.365309 -0.930864 -0.00646728
vn 0.261986 -0.965025 0.00947721
vn 0.246159 -0.932361 -0.264781
vn 0.111912 -0.989566 -0.090746
vn -0.0409477 -0.996699 0.0701001
vn 0.102482 -0.927194 -0.36029
vn -0.0822388 -0.967068 -0.240865
vn -0.271635 -0.959201 -0.0784118
vn -0.110528 -0.98761 -0.111401
vn 0.485033 0.845399 -0.223704
vn -0.485033 -0.845399 0.223704
vn -0.344838 0.644117 0.682788
vn 0.485033 0.845399 -0.223704
vn 0.583674 0.804615 -0.109175
vn 0.565302 0.775968 -0.279833
vn 0.597023 0.776445 -0.201736
vn 0.583674 0.804615 -0.109175
vn 0.392162 0.898934 0.195258
vn 0.344838 -0.644117 -0.682788
vn -0.583674 -0.804615 0.109175
vn -0.485033 -0.845399 0.223704
vn -0.565302 -0.775968 0.279833
vn -0.597023 -0.776445 0.201736
vn -0.583674 -0.804615 0.109175
vn -0.392162 -0.898934 -0.195258
vn 0.423652 0.775026 -0.468886
vn -0.423652 -0.775026 0.468886
g Ball_Paper_piece04
usemtl Ball_Paper_Pieces
f 2/2/2 3/3/3 1/1/1
f 5/5/5 6/6/6 4/4/4
f 3/3/3 7/7/7 1/1/1
f 7/7/7 5/5/5 1/1/1
f 7/7/7 8/8/8 5/5/5
f 8/8/8 6/6/6 5/5/5
f 8/8/8 9/9/9 6/6/6
f 10/10/10 7/7/7 3/3/3
f 10/10/10 11/11/11 7/7/7
f 11/11/11 8/8/8 7/7/7
f 11/11/11 12/12/12 8/8/8
f 12/12/12 9/9/9 8/8/8
f 11/11/11 10/10/10 13/13/13
f 15/15/15 16/16/16 14/14/14
f 18/18/18 19/19/19 17/17/17
f 15/15/15 20/20/20 16/16/16
f 15/15/15 17/17/17 20/20/20
f 17/17/17 21/21/21 20/20/20
f 17/17/17 19/19/19 21/21/21
f 19/19/19 22/22/22 21/21/21
f 16/16/16 20/20/20 23/23/23
f 20/20/20 24/24/24 23/23/23
f 20/20/20 21/21/21 24/24/24
f 21/21/21 25/25/25 24/24/24
f 21/21/21 22/22/22 25/25/25
f 26/26/26 23/23/23 24/24/24
f 12/12/12 27/27/27 9/9/9
f 22/22/22 28/28/28 25/25/25
f 29/29/29 3/3/3 2/2/2
f 31/31/31 32/32/32 30/30/30
f 33/33/33 32/32/32 31/31/31
f 27/27/27 12/12/12 34/34/34
f 12/12/12 35/35/35 34/34/34
f 12/12/12 11/11/11 35/35/35
f 11/11/11 13/13/13 35/35/35
f 14/14/14 16/16/16 36/36/36
f 38/38/38 39/39/39 37/37/37
f 37/37/37 39/39/39 40/40/40
f 41/41/41 25/25/25 28/28/28
f 41/41/41 42/42/42 25/25/25
f 42/42/42 24/24/24 25/25/25
f 42/42/42 26/26/26 24/24/24
f 43/43/43 30/30/30 32/32/32
f 39/39/39 38/38/38 44/44/44
