v -0.100934 1.5678 -0.221539
v -0.605678 0.968557 -0.604598
v -0.60137 0.971491 0.147708
v 0.0272947 1.44398 0.621198
v -0.344224 0.846043 0.884591
v 0.565179 1.84995 0.254558
v 0.781277 1.57928 0.980904
v 0.277048 0.99365 1.33761
v 0.996367 0.991247 1.57779
v -0.522762 -0.552561 -1.47334
v -0.04661 -1.27201 -1.60088
v -0.492707 -1.25629 -0.998535
v -0.881961 -0.493644 -0.693259
v -0.738686 -1.09294 -0.262964
v -0.761639 0.174871 0.591348
v -0.882105 -0.48229 0.216481
v -0.537398 -0.523392 0.977414
v -0.882105 -0.48229 0.216481
v -0.507621 -1.22825 0.508514
v -0.537398 -0.523392 0.977414
v -0.926405 0.212164 -0.23406
v -0.881961 -0.493644 -0.693259
v -0.765775 0.169414 -1.06141
v 0.142683 -1.8644 -1.01568
v 0.132416 1.30849 0.538291
v 0.0370197 1.43813 -0.242422
v -0.100934 1.5678 -0.221539
v 0.0272947 1.44398 0.621198
v 0.630909 1.68931 0.176114
v 0.132416 1.30849 0.538291
v 0.0272947 1.44398 0.621198
v 0.565179 1.84995 0.254558
v 0.0370197 1.43813 -0.242422
v -0.443649 0.868418 -0.604598
v -0.605678 0.968557 -0.604598
v -0.100934 1.5678 -0.221539
v -0.443649 0.868418 0.119755
v -0.221378 0.731047 0.795338
v -0.344224 0.846043 0.884591
v -0.60137 0.971491 0.147708
v 0.845439 1.43813 0.870272
v 0.630909 1.68931 0.176114
v 0.565179 1.84995 0.254558
v 0.781277 1.57928 0.980904
v -0.221378 0.731047 0.795338
v 0.352454 0.868418 1.2155
v 0.277048 0.99365 1.33761
v -0.344224 0.846043 0.884591
v 1.04135 0.868418 1.43933
v 0.996367 0.991247 1.57779
v 1.04135 0.868418 1.43933
v 0.996367 0.991247 1.57779
v -0.697318 -0.45981 -0.660958
v -0.366746 -0.487161 -1.3858
v -0.522762 -0.552561 -1.47334
v -0.881961 -0.493644 -0.693259
v -0.57964 0.156362 -1.02313
v -0.697318 -0.45981 -0.660958
v -0.881961 -0.493644 -0.693259
v -0.765775 0.169414 -1.06141
v -0.366746 -0.487161 -1.3858
v 0.0844741 -1.17187 -1.50564
v -0.04661 -1.27201 -1.60088
v -0.522762 -0.552561 -1.47334
v -0.34129 -1.17187 -0.919627
v -0.558567 -1.03449 -0.242422
v -0.738686 -1.09294 -0.262964
v -0.492707 -1.25629 -0.998535
v -0.366746 -0.487161 0.900954
v -0.57964 0.156362 0.538291
v -0.761639 0.174871 0.591348
v -0.537398 -0.523392 0.977414
v -0.558567 -1.03449 -0.242422
v -0.697318 -0.45981 0.176114
v -0.882105 -0.48229 0.216481
v -0.738686 -1.09294 -0.262964
v -0.697318 -0.45981 0.176114
v -0.34129 -1.17187 0.434784
v -0.507621 -1.22825 0.508514
v -0.882105 -0.48229 0.216481
v -0.34129 -1.17187 0.434784
v -0.366746 -0.487161 0.900954
v -0.537398 -0.523392 0.977414
v -0.507621 -1.22825 0.508514
v -0.738251 0.183713 -0.242422
v -0.57964 0.156362 -1.02313
v -0.765775 0.169414 -1.06141
v -0.926405 0.212164 -0.23406
v -0.443649 0.868418 0.119755
v -0.60137 0.971491 0.147708
v -0.443649 0.868418 -0.604598
v -0.738251 0.183713 -0.242422
v -0.926405 0.212164 -0.23406
v -0.605678 0.968557 -0.604598
v 0.260462 -1.74157 -0.930104
v -0.34129 -1.17187 -0.919627
v -0.492707 -1.25629 -0.998535
v 0.142683 -1.8644 -1.01568
v 0.0844741 -1.17187 -1.50564
v 0.260462 -1.74157 -0.930104
v 0.142683 -1.8644 -1.01568
v -0.04661 -1.27201 -1.60088
v 0.630909 1.68931 0.176114
v 0.845439 1.43813 0.870272
v 1.04135 0.868418 1.43933
v 0.352454 0.868418 1.2155
v -0.221378 0.731047 0.795338
v 0.132416 1.30849 0.538291
v -0.443649 0.868418 0.119755
v 0.0370197 1.43813 -0.242422
v -0.443649 0.868418 -0.604598
v -0.57964 0.156362 0.538291
v -0.697318 -0.45981 0.176114
v -0.738251 0.183713 -0.242422
v -0.366746 -0.487161 0.900954
v -0.34129 -1.17187 0.434784
v -0.558567 -1.03449 -0.242422
v -0.697318 -0.45981 -0.660958
v -0.57964 0.156362 -1.02313
v -0.34129 -1.17187 -0.919627
v -0.366746 -0.487161 -1.3858
v 0.260462 -1.74157 -0.930104
v 0.0844741 -1.17187 -1.50564
vt 1.532692 0.259837 0
vt 1.427529 0.083466 0
vt 1.637854 0.083466 0
vt 1.739837 0.277634 0
vt 1.843410 0.135079 0
vt 1.636265 0.420190 0
vt 1.820775 0.469141 0
vt 1.956017 0.314624 0
vt 2.021011 0.514655 0
vt 2.892915 0.959199 0
vt 2.866792 1.174067 0
vt 2.696635 1.050442 0
vt 2.644934 0.840567 0
vt 2.500000 0.971375 0
vt 1.803043 -0.055938 0
vt 1.709751 -0.242854 0
vt 2.021454 -0.109979 0
vt 2.355066 0.840567 0
vt 2.303365 1.050442 0
vt 2.107085 0.959199 0
vt 1.532692 -0.105722 0
vt 1.355633 -0.242854 0
vt 1.262341 -0.055938 0
vt 2.678045 1.254942 0
vt 1.539824 0.540419 0
vt 1.739006 0.531016 0
vt 1.744173 0.643977 0
vt 1.529061 0.655001 0
vt 0.907767 0.209432 0
vt 1.030025 0.568311 0
vt 0.990242 0.685429 0
vt 0.856938 0.301271 0
vt 1.093494 0.534030 0
vt 1.356607 0.724340 0
vt 1.343086 0.863360 0
vt 1.066171 0.664159 0
vt 1.776075 1.205129 0
vt 2.057041 1.036507 0
vt 2.115599 1.257249 0
vt 1.797726 1.452087 0
vt 1.441419 0.438718 0
vt 1.628784 0.541273 0
vt 1.618943 0.656619 0
vt 1.422814 0.547702 0
vt 2.057041 1.036507 0
vt 2.389005 0.439833 0
vt 2.473792 0.610405 0
vt 2.115599 1.257249 0
vt 2.606727 -0.401476 0
vt 2.703047 -0.267266 0
vt 1.271001 0.156619 0
vt 1.244173 0.253939 0
vt 1.787986 0.654936 0
vt 1.848461 0.284307 0
vt 1.894416 0.373402 0
vt 1.820832 0.780339 0
vt 1.267788 0.559149 0
vt 1.482819 0.544180 0
vt 1.496228 0.660287 0
vt 1.268127 0.675159 0
vt 1.848461 0.284307 0
vt 2.022184 -0.198591 0
vt 2.076938 -0.135778 0
vt 1.894416 0.373402 0
vt 0.606866 0.126796 0
vt 0.910716 0.623339 0
vt 0.849028 0.832983 0
vt 0.515627 0.275892 0
vt 1.277517 0.249027 0
vt 1.486613 0.557746 0
vt 1.475964 0.749027 0
vt 1.250000 0.419041 0
vt 0.910716 0.623339 0
vt 1.275014 1.101232 0
vt 1.251817 1.344140 0
vt 0.849028 0.832983 0
vt 1.688648 0.793621 0
vt 1.835385 0.438993 0
vt 1.860548 0.564151 0
vt 1.709477 0.933295 0
vt 1.191504 0.461619 0
vt 1.636105 0.840935 0
vt 1.625996 1.069730 0
vt 1.173681 0.677319 0
vt 1.549285 0.875015 0
vt 1.633950 0.622796 0
vt 1.653580 0.757086 0
vt 1.558964 1.021409 0
vt 1.734751 0.537884 0
vt 1.750000 0.724005 0
vt 1.356607 0.724340 0
vt 1.549285 0.875015 0
vt 1.558964 1.021409 0
vt 1.343086 0.863360 0
vt 0.501900 -0.851163 0
vt 0.606866 0.126796 0
vt 0.515627 0.275892 0
vt 0.399797 -0.760450 0
vt 1.524302 0.427512 0
vt 1.740960 0.175159 0
vt 1.767788 0.276793 0
vt 1.544517 0.538371 0
vt 1.367907 1.041162 0
vt 1.125388 0.949699 0
vt 0.932613 0.757899 0
vt 1.053845 0.734040 0
vt 1.236156 0.676320 0
vt 1.287204 0.885896 0
vt 1.475257 0.730098 0
vt 1.553320 0.945696 0
vt 1.718691 0.750545 0
vt 1.358122 0.481953 0
vt 1.500194 0.287671 0
vt 1.630534 0.505893 0
vt 1.235075 0.272842 0
vt 1.403927 0.065592 0
vt 1.643240 0.119635 0
vt 1.781509 0.311300 0
vt 1.882871 0.526030 0
vt 1.859105 0.103825 0
vt 2.003584 0.337393 0
vt 1.833993 -0.053838 0
vt 2.027613 0.139018 0
vn 0.467479 0.882995 -0.0422218
vn 0.281281 0.945539 -0.163817
vn 0.304394 0.952511 -0.00819244
vn 0.538814 0.78689 0.300807
vn 0.418215 0.84913 0.322606
vn 0.720203 0.618621 0.314033
vn 0.624993 0.610807 0.486105
vn 0.533514 0.662015 0.526402
vn 0.563054 0.518465 0.643556
vn -0.544688 0.611834 -0.573563
vn -0.685111 0.437098 -0.582725
vn -0.62544 0.585841 -0.515378
vn -0.428446 0.8461 -0.317094
vn -0.539126 0.803467 -0.252555
vn -0.136691 0.985637 0.0991757
vn -0.369786 0.928148 0.0424167
vn -0.412404 0.876408 0.248659
vn -0.369786 0.928148 0.0424167
vn -0.508127 0.826635 0.241829
vn -0.412404 0.876408 0.248659
vn -0.100381 0.98689 -0.126381
vn -0.428446 0.8461 -0.317094
vn -0.191401 0.914069 -0.357552
vn -0.780445 0.353833 -0.515468
vn 0.842921 -0.529203 0.0971043
vn 0.878587 -0.462622 0.118597
vn 0.842921 -0.529203 0.0971043
vn 0.804233 -0.589416 0.0761375
vn -0.084703 0.464483 -0.881522
vn -0.131813 0.437694 -0.88941
vn -0.084703 0.464483 -0.881522
vn -0.0411218 0.487907 -0.871926
vn 0.425451 -0.276068 -0.861846
vn 0.422251 -0.280756 -0.861905
vn 0.425451 -0.276068 -0.861846
vn 0.428467 -0.271622 -0.861764
vn -0.926941 0.375049 -0.0108712
vn -0.895623 0.444594 -0.0139733
vn -0.926941 0.375049 -0.0108712
vn -0.95126 0.308287 -0.00792403
vn 0.644077 -0.760333 0.0840187
vn 0.643929 -0.765015 0.0103924
vn 0.662346 -0.748757 0.0257122
vn 0.619603 -0.774498 0.12746
vn -0.793294 0.164674 0.586146
vn -0.786099 0.129681 0.604343
vn -0.787398 0.150813 0.597713
vn -0.793563 0.164003 0.58597
vn -0.789838 0.101242 0.604901
vn -0.782293 0.112307 0.612702
vn 0.588487 -0.790893 0.167843
vn 0.575047 -0.805655 0.142274
vn 0.870698 0.431222 -0.2365
vn 0.830161 0.492804 -0.260722
vn 0.870698 0.431222 -0.2365
vn 0.904342 0.370332 -0.212178
vn -0.446487 -0.455151 -0.770381
vn -0.445766 -0.503216 -0.740315
vn -0.446487 -0.455151 -0.770381
vn -0.445881 -0.409632 -0.795859
vn 0.447721 -0.373726 -0.812327
vn 0.450273 -0.377637 -0.809101
vn 0.447721 -0.373726 -0.812327
vn 0.445292 -0.370012 -0.815356
vn -0.797607 -0.46874 0.379613
vn -0.822657 -0.443357 0.355906
vn -0.797607 -0.46874 0.379613
vn -0.772956 -0.491611 0.401071
vn 0.585557 0.020924 0.810361
vn 0.522693 -0.0547287 0.850762
vn 0.548536 0.00501452 0.836112
vn 0.575796 0.0368444 0.816763
vn -0.505691 -0.166968 0.846403
vn -0.451597 -0.225005 0.863385
vn -0.505691 -0.166968 0.846403
vn -0.551722 -0.113565 0.82626
vn -0.463697 -0.0813887 -0.882248
vn -0.481225 -0.0353859 -0.875883
vn -0.463697 -0.0813887 -0.882248
vn -0.445498 -0.126068 -0.886363
vn -0.345401 -0.434889 0.831606
vn -0.363038 -0.414956 0.834275
vn -0.345401 -0.434889 0.831606
vn -0.327989 -0.454001 0.828436
vn 0.988598 0.143166 -0.0466742
vn 0.98224 0.180283 -0.0519905
vn 0.988598 0.143166 -0.0466742
vn 0.99341 0.106863 -0.0414382
vn 0.495255 -0.143751 0.856772
vn 0.488694 -0.0800666 0.868774
vn -0.41955 -0.0998855 -0.90222
vn -0.441883 -0.165529 -0.881669
vn -0.41955 -0.0998855 -0.90222
vn -0.397582 -0.0403796 -0.916678
vn -0.394795 0.351418 0.848907
vn -0.386586 0.349853 0.85332
vn -0.394795 0.351418 0.848907
vn -0.402216 0.352812 0.844835
vn -0.147136 -0.889198 -0.433217
vn -0.1268 -0.902523 -0.41155
vn -0.147136 -0.889198 -0.433217
vn -0.16689 -0.875242 -0.453981
vn -0.583999 -0.653685 -0.481291
vn 0.29935 -0.947236 -0.114603
vn -0.575211 -0.66281 -0.479391
vn -0.661201 -0.622128 -0.419249
vn -0.537755 -0.742663 -0.399088
vn -0.489828 -0.823767 -0.285439
vn -0.329367 -0.943953 0.0216692
vn -0.468163 -0.88226 0.0494033
vn -0.113811 -0.99106 0.0696165
vn 0.225454 -0.97424 -0.0051379
vn 0.224973 -0.973578 -0.0391519
vn 0.133643 -0.988797 0.0664791
vn 0.429991 -0.900092 -0.0702957
vn 0.417253 -0.87271 -0.253528
vn 0.541144 -0.802588 0.251028
vn 0.429941 -0.843834 0.321085
vn 0.18673 -0.912143 0.364867
vn 0.628078 -0.57999 0.518777
vn 0.545248 -0.607392 0.577737
vn 0.782917 -0.345818 0.517156
vn 0.685934 -0.433817 0.584207
g Ball_Stone_piece04
usemtl Ball_Stone_Pieces_Outside
f 2/2/2 3/3/3 1/1/1
f 3/3/3 4/4/4 1/1/1
f 3/3/3 5/5/5 4/4/4
f 4/4/4 7/7/7 6/6/6
f 5/5/5 8/8/8 4/4/4
f 8/8/8 7/7/7 4/4/4
f 8/8/8 9/9/9 7/7/7
f 11/11/11 12/12/12 10/10/10
f 12/12/12 13/13/13 10/10/10
f 12/12/12 14/14/14 13/13/13
f 16/16/16 17/17/17 15/15/15
f 19/19/19 20/20/20 18/18/18
f 18/18/18 13/13/13 14/14/14
f 15/15/15 21/21/21 16/16/16
f 21/21/21 22/22/22 16/16/16
f 21/21/21 23/23/23 22/22/22
f 3/3/3 21/21/21 15/15/15
f 3/3/3 2/2/2 21/21/21
f 12/12/12 11/11/11 24/24/24
usemtl Ball_Stone_Pieces_Inside
f 26/26/26 27/27/27 25/25/25
f 28/28/28 25/25/25 27/27/27
f 30/30/30 31/31/31 29/29/29
f 32/32/32 29/29/29 31/31/31
f 34/34/34 35/35/35 33/33/33
f 36/36/36 33/33/33 35/35/35
f 38/38/38 39/39/39 37/37/37
f 40/40/40 37/37/37 39/39/39
f 42/42/42 43/43/43 41/41/41
f 44/44/44 41/41/41 43/43/43
f 46/46/46 47/47/47 45/45/45
f 48/48/48 45/45/45 47/47/47
f 49/49/49 50/50/50 46/46/46
f 47/47/47 46/46/46 50/50/50
f 41/41/41 44/44/44 51/51/51
f 52/52/52 51/51/51 44/44/44
f 54/54/54 55/55/55 53/53/53
f 56/56/56 53/53/53 55/55/55
f 58/58/58 59/59/59 57/57/57
f 60/60/60 57/57/57 59/59/59
f 62/62/62 63/63/63 61/61/61
f 64/64/64 61/61/61 63/63/63
f 66/66/66 67/67/67 65/65/65
f 68/68/68 65/65/65 67/67/67
f 70/70/70 71/71/71 69/69/69
f 72/72/72 69/69/69 71/71/71
f 74/74/74 75/75/75 73/73/73
f 76/76/76 73/73/73 75/75/75
f 78/78/78 79/79/79 77/77/77
f 80/80/80 77/77/77 79/79/79
f 82/82/82 83/83/83 81/81/81
f 84/84/84 81/81/81 83/83/83
f 86/86/86 87/87/87 85/85/85
f 88/88/88 85/85/85 87/87/87
f 89/89/89 90/90/90 70/70/70
f 71/71/71 70/70/70 90/90/90
f 92/92/92 93/93/93 91/91/91
f 94/94/94 91/91/91 93/93/93
f 96/96/96 97/97/97 95/95/95
f 98/98/98 95/95/95 97/97/97
f 100/100/100 101/101/101 99/99/99
f 102/102/102 99/99/99 101/101/101
f 104/104/104 105/105/105 103/103/103
f 105/105/105 106/106/106 103/103/103
f 106/106/106 107/107/107 103/103/103
f 107/107/107 108/108/108 103/103/103
f 107/107/107 109/109/109 108/108/108
f 109/109/109 110/110/110 108/108/108
f 110/110/110 109/109/109 111/111/111
f 112/112/112 111/111/111 109/109/109
f 112/112/112 113/113/113 111/111/111
f 113/113/113 114/114/114 111/111/111
f 115/115/115 116/116/116 112/112/112
f 116/116/116 113/113/113 112/112/112
f 117/117/117 118/118/118 113/113/113
f 118/118/118 114/114/114 113/113/113
f 118/118/118 119/119/119 114/114/114
f 117/117/117 120/120/120 118/118/118
f 120/120/120 121/121/121 118/118/118
f 122/122/122 123/123/123 120/120/120
f 123/123/123 121/121/121 120/120/120
