v -0.281304 0.174909 -0.154797
v -0.894418 0.038868 -0.575962
v -0.903579 0.0374458 0.27417
v -0.0242277 0.0356491 0.562213
v 0.490957 0.0297353 -0.120037
v 0.577449 -0.0556835 0.104519
v 0.876466 -0.203708 -0.119539
v -0.178488 0.114365 -0.471234
v -0.860759 -0.148155 -0.562902
v -0.860759 -0.148155 0.27417
v -0.903579 0.0374458 0.27417
v -0.894418 0.038868 -0.575962
v -0.860759 -0.148155 0.27417
v -0.284694 -0.015251 -0.144366
v -0.281304 0.174909 -0.154797
v -0.903579 0.0374458 0.27417
v -0.284694 -0.015251 -0.144366
v -0.0646562 -0.148155 0.53284
v -0.0242277 0.0356491 0.562213
v -0.281304 0.174909 -0.154797
v -0.0646562 -0.148155 0.53284
v 0.500011 -0.225985 0.0687174
v 0.577449 -0.0556835 0.104519
v -0.0242277 0.0356491 0.562213
v 0.777181 -0.364355 -0.144366
v 0.876466 -0.203708 -0.119539
v 0.777181 -0.364355 -0.144366
v 0.427362 -0.148155 -0.144366
v 0.490957 0.0297353 -0.120037
v 0.876466 -0.203708 -0.119539
v -0.189287 -0.0728772 -0.437996
v -0.860759 -0.148155 -0.562902
v -0.894418 0.038868 -0.575962
v -0.178488 0.114365 -0.471234
v 0.427362 -0.148155 -0.144366
v 0.490957 0.0297353 -0.120037
v 0.500011 -0.225985 0.0687174
v -0.0646562 -0.148155 0.53284
v 0.427362 -0.148155 -0.144366
v 0.777181 -0.364355 -0.144366
v -0.284694 -0.015251 -0.144366
v -0.189287 -0.0728772 -0.437996
v -0.860759 -0.148155 0.27417
v -0.860759 -0.148155 -0.562902
vt 1.532692 0.562745 0
vt 1.429119 0.420190 0
vt 1.636265 0.420190 0
vt 1.700276 0.617197 0
vt 1.532692 0.738953 0
vt 1.587860 0.760287 0
vt 1.532692 0.838992 0
vt 1.460029 0.586355 0
vt 1.257640 0.279024 0
vt 1.582265 0.291116 0
vt 1.579381 0.577282 0
vt 1.250309 0.566405 0
vt 1.192287 0.403335 0
vt 1.427174 0.507633 0
vt 1.429183 0.755529 0
vt 1.177276 0.645245 0
vt 1.458749 0.439516 0
vt 1.736195 0.228630 0
vt 1.750309 0.505559 0
vt 1.454932 0.728630 0
vt 1.451011 0.510127 0
vt 1.685490 0.325337 0
vt 1.709819 0.562445 0
vt 1.462872 0.761407 0
vt 1.799425 0.106407 0
vt 1.832276 0.329327 0
vt 1.188632 0.127951 0
vt 1.322708 0.446136 0
vt 1.296134 0.711128 0
vt 1.148334 0.367638 0
vt 1.585603 0.566547 0
vt 1.854253 0.452373 0
vt 1.868334 0.731781 0
vt 1.584469 0.847951 0
vt 1.322708 0.446136 0
vt 1.296134 0.711128 0
vt 1.509726 0.257427 0
vt 1.931058 0.469776 0
vt 1.356772 0.307949 0
vt 1.314101 0.145254 0
vt 1.443627 0.617830 0
vt 1.209006 0.593466 0
vt 1.831732 0.823479 0
vt 1.196058 0.880254 0
vn 0.00867497 0.999927 -0.0084146
vn -0.172477 0.982775 -0.0663628
vn -0.216162 0.976357 -0.000695933
vn 0.213076 0.965055 0.152534
vn 0.237979 0.967379 0.0868558
vn 0.386519 0.901627 0.194094
vn 0.513802 0.848759 0.124959
vn 0.0618223 0.983821 -0.168147
vn -0.979528 -0.201235 -0.00548788
vn -0.974404 -0.224804 1.38767e-007
vn -0.979528 -0.201235 -0.00548788
vn -0.983996 -0.177854 -0.0109006
vn 0.563092 0.081916 0.822325
vn 0.582269 0.0341791 0.812278
vn 0.563092 0.081916 0.822325
vn 0.544127 0.125535 0.829558
vn -0.936396 0.0925723 0.338515
vn -0.930921 0.151666 0.33224
vn -0.936396 0.0925723 0.338515
vn -0.938515 0.0355647 0.343403
vn 0.556658 -0.325931 0.764134
vn 0.489079 -0.392397 0.77899
vn 0.531441 -0.335757 0.777713
vn 0.561979 -0.24963 0.788584
vn 0.429997 -0.391481 0.813539
vn 0.431565 -0.380308 0.817996
vn 0.0685376 0.110984 -0.991456
vn 0.0686353 0.111054 -0.991441
vn 0.0685376 0.110984 -0.991456
vn 0.0684504 0.110922 -0.991469
vn 0.251132 -0.134931 -0.958502
vn 0.186558 -0.0349877 -0.981821
vn 0.173962 -0.110425 -0.978542
vn 0.345452 -0.135673 -0.928577
vn 0.43447 -0.110334 -0.893903
vn 0.459854 -0.0430951 -0.886948
vn -0.388969 -0.900124 -0.196162
vn -0.216147 -0.963649 -0.15704
vn -0.239383 -0.966626 -0.0912664
vn -0.521246 -0.843394 -0.130342
vn -0.002077 -0.999977 0.00639239
vn -0.0566984 -0.983023 0.1745
vn 0.224805 -0.974404 -3.20149e-008
vn 0.179148 -0.981663 0.0651464
g Ball_Stone_piece07
usemtl Ball_Stone_Pieces_Outside
f 2/2/2 3/3/3 1/1/1
f 4/4/4 5/5/5 1/1/1
f 6/6/6 7/7/7 5/5/5
f 6/6/6 5/5/5 4/4/4
f 8/8/8 2/2/2 1/1/1
f 5/5/5 8/8/8 1/1/1
usemtl Ball_Stone_Pieces_Inside
f 10/10/10 11/11/11 9/9/9
f 12/12/12 9/9/9 11/11/11
f 14/14/14 15/15/15 13/13/13
f 16/16/16 13/13/13 15/15/15
f 18/18/18 19/19/19 17/17/17
f 20/20/20 17/17/17 19/19/19
f 22/22/22 23/23/23 21/21/21
f 24/24/24 21/21/21 23/23/23
f 25/25/25 26/26/26 22/22/22
f 23/23/23 22/22/22 26/26/26
f 28/28/28 29/29/29 27/27/27
f 30/30/30 27/27/27 29/29/29
f 32/32/32 33/33/33 31/31/31
f 34/34/34 31/31/31 33/33/33
f 31/31/31 34/34/34 35/35/35
f 36/36/36 35/35/35 34/34/34
f 38/38/38 39/39/39 37/37/37
f 40/40/40 37/37/37 39/39/39
f 38/38/38 41/41/41 39/39/39
f 41/41/41 42/42/42 39/39/39
f 43/43/43 44/44/44 41/41/41
f 44/44/44 42/42/42 41/41/41
