v 0.413061 0.335191 -0.191141
v -0.0851727 0.265588 -0.569113
v -0.255633 0.262285 0.211914
v -0.0851727 0.265588 -0.569113
v -0.614405 0.0509144 -0.792792
v -0.658563 0.13453 -0.138066
v -0.658563 0.13453 -0.138066
v -0.699734 0.089051 0.580474
v 0.367619 0.276989 0.344456
v -0.0889771 0.125824 0.758541
v 0.338458 0.109402 0.809718
v 1.04047 0.264701 -0.198521
v 0.96468 0.144682 0.350437
v -0.0851727 0.265588 -0.569113
v 0.413061 0.335191 -0.191141
v -0.255633 0.262285 0.211914
v -0.614405 0.0509144 -0.792792
v -0.0851727 0.265588 -0.569113
v -0.658563 0.13453 -0.138066
v -0.658563 0.13453 -0.138066
v -0.699734 0.089051 0.580474
v 0.367619 0.276989 0.344456
v -0.0889771 0.125824 0.758541
v 0.338458 0.109402 0.809718
v 1.04047 0.264701 -0.198521
v 0.96468 0.144682 0.350437
v -1.02361 -0.198251 -0.70092
v -1.02361 -0.198251 -0.70092
v -1.06316 -0.15792 0.127934
v -1.02361 -0.198251 -0.70092
v -1.02361 -0.198251 -0.70092
v -1.06316 -0.15792 0.127934
vt 1.324115 0.676500 0
vt 1.289973 0.591381 0
vt 1.371207 0.580941 0
vt 1.931525 0.618105 0
vt 1.887099 0.549600 0
vt 1.946182 0.520139 0
vt 1.359750 0.511242 0
vt 1.424931 0.534712 0
vt 1.376920 0.666727 0
vt 1.422400 0.609724 0
vt 1.425535 0.661471 0
vt 1.345338 0.770422 0
vt 1.394894 0.747020 0
vt 1.289973 0.591381 0
vt 1.324115 0.676500 0
vt 1.371207 0.580941 0
vt 1.887099 0.549600 0
vt 1.931525 0.618105 0
vt 1.946182 0.520139 0
vt 1.359750 0.511242 0
vt 1.424931 0.534712 0
vt 1.376920 0.666727 0
vt 1.422400 0.609724 0
vt 1.425535 0.661471 0
vt 1.345338 0.770422 0
vt 1.394894 0.747020 0
vt 1.860466 0.489428 0
vt 1.356705 0.410850 0
vt 1.421706 0.462897 0
vt 1.860466 0.489428 0
vt 1.356705 0.410850 0
vt 1.421706 0.462897 0
vn 0.14455 0.989079 -0.0287699
vn -0.0561827 0.986197 -0.155752
vn 0.00874468 0.999953 0.0042971
vn -0.0561827 0.986197 -0.155752
vn -0.260516 0.938771 -0.225479
vn -0.28496 0.947794 -0.143121
vn -0.28496 0.947794 -0.143121
vn -0.19847 0.979704 0.0280821
vn 0.236702 0.960899 0.143683
vn 0.0840842 0.975266 0.204416
vn 0.276274 0.924258 0.263475
vn 0.327138 0.940091 0.0959648
vn 0.363958 0.907836 0.20825
vn 0.0561827 -0.986197 0.155752
vn -0.14455 -0.989079 0.0287699
vn -0.00874468 -0.999953 -0.00429711
vn 0.260516 -0.938771 0.225479
vn 0.0561827 -0.986197 0.155752
vn 0.28496 -0.947794 0.143121
vn 0.28496 -0.947794 0.143121
vn 0.19847 -0.979704 -0.0280821
vn -0.236702 -0.960899 -0.143683
vn -0.0840842 -0.975266 -0.204416
vn -0.276274 -0.924258 -0.263475
vn -0.327138 -0.940091 -0.0959648
vn -0.363958 -0.907836 -0.20825
vn -0.432404 0.88394 -0.17798
vn -0.432404 0.88394 -0.17798
vn -0.449621 0.886881 -0.106224
vn 0.432404 -0.88394 0.17798
vn 0.432404 -0.88394 0.17798
vn 0.449621 -0.886881 0.106224
g Ball_Paper_piece03
usemtl Ball_Paper_Pieces
f 2/2/2 3/3/3 1/1/1
f 5/5/5 6/6/6 4/4/4
f 7/7/7 3/3/3 2/2/2
f 7/7/7 8/8/8 3/3/3
f 3/3/3 9/9/9 1/1/1
f 8/8/8 10/10/10 3/3/3
f 10/10/10 9/9/9 3/3/3
f 10/10/10 11/11/11 9/9/9
f 9/9/9 12/12/12 1/1/1
f 11/11/11 13/13/13 9/9/9
f 13/13/13 12/12/12 9/9/9
f 15/15/15 16/16/16 14/14/14
f 18/18/18 19/19/19 17/17/17
f 14/14/14 16/16/16 20/20/20
f 16/16/16 21/21/21 20/20/20
f 15/15/15 22/22/22 16/16/16
f 16/16/16 23/23/23 21/21/21
f 16/16/16 22/22/22 23/23/23
f 22/22/22 24/24/24 23/23/23
f 15/15/15 25/25/25 22/22/22
f 22/22/22 26/26/26 24/24/24
f 22/22/22 25/25/25 26/26/26
f 27/27/27 6/6/6 5/5/5
f 28/28/28 29/29/29 7/7/7
f 29/29/29 8/8/8 7/7/7
f 17/17/17 19/19/19 30/30/30
f 20/20/20 32/32/32 31/31/31
f 20/20/20 21/21/21 32/32/32
