v -0.417519 -0.674653 1.80919
v 0.353787 -0.648012 1.96028
v 0.353404 0.1031 1.66596
v -0.417902 0.0206666 1.53657
v 0.353404 0.700504 1.09407
v -0.417902 0.574828 1.00607
v 0.353404 1.03358 0.3371
v -0.417901 0.883794 0.303893
v 0.353404 1.05162 -0.489715
v -0.417901 0.90053 -0.463074
v 0.353405 0.751881 -1.2605
v -0.417901 0.622486 -1.17806
v 0.353787 0.195526 -1.84467
v -0.417519 0.107526 -1.719
v -0.397207 -0.035235 1.44882
v -0.397207 -0.712389 1.71215
v -0.417519 -0.674653 1.80919
v -0.417902 0.0206666 1.53657
v -0.397206 0.489602 0.946398
v -0.417902 0.574828 1.00607
v -0.397206 0.782219 0.281374
v -0.417901 0.883794 0.303893
v -0.397206 0.798069 -0.445007
v -0.417901 0.90053 -0.463074
v -0.397206 0.534738 -1.12216
v -0.417901 0.622486 -1.17806
v -0.397206 0.032316 -1.647
v -0.417519 0.107526 -1.719
v -0.397207 -0.712389 1.71215
v 0.374099 -0.685748 1.86324
v 0.353787 -0.648012 1.96028
v -0.417519 -0.674653 1.80919
v 0.374099 -0.685748 1.86324
v 0.374099 0.0471987 1.57821
v 0.353404 0.1031 1.66596
v 0.353787 -0.648012 1.96028
v 0.374099 0.615278 1.0344
v 0.353404 0.700504 1.09407
v 0.3741 0.932005 0.314581
v 0.353404 1.03358 0.3371
v 0.3741 0.94916 -0.471649
v 0.353404 1.05162 -0.489715
v 0.3741 0.664133 -1.2046
v 0.353405 0.751881 -1.2605
v 0.3741 0.120315 -1.77267
v 0.353787 0.195526 -1.84467
v 0.3741 0.120315 -1.77267
v -0.397206 0.032316 -1.647
v -0.417519 0.107526 -1.719
v 0.353787 0.195526 -1.84467
v -0.397207 -0.712389 1.71215
v -0.397207 -0.035235 1.44882
v 0.374099 0.0471987 1.57821
v 0.374099 -0.685748 1.86324
v -0.397206 0.489602 0.946398
v 0.374099 0.615278 1.0344
v -0.397206 0.782219 0.281374
v 0.3741 0.932005 0.314581
v -0.397206 0.798069 -0.445007
v 0.3741 0.94916 -0.471649
v -0.397206 0.534738 -1.12216
v 0.3741 0.664133 -1.2046
v -0.397206 0.032316 -1.647
v 0.3741 0.120315 -1.77267
vt 1.539317 0.007534 0
vt 1.650119 0.000934 0
vt 1.650064 0.197218 0
vt 1.539262 0.201066 0
vt 1.650064 0.354702 0
vt 1.539262 0.353699 0
vt 1.650064 0.519174 0
vt 1.539262 0.518518 0
vt 1.650064 0.677601 0
vt 1.539262 0.677601 0
vt 1.650064 0.822079 0
vt 1.539262 0.817904 0
vt 1.650119 0.994435 0
vt 1.539317 0.993023 0
vt 1.542235 0.223720 0
vt 1.542235 0.031600 0
vt 1.539317 0.007534 0
vt 1.539262 0.201066 0
vt 1.542235 0.371037 0
vt 1.539262 0.353699 0
vt 1.542235 0.527901 0
vt 1.539262 0.518518 0
vt 1.542235 0.677601 0
vt 1.539262 0.677601 0
vt 1.542235 0.808521 0
vt 1.539262 0.817904 0
vt 1.542235 0.979391 0
vt 1.539317 0.993023 0
vt 1.542235 0.031600 0
vt 1.653037 0.025000 0
vt 1.650119 0.000934 0
vt 1.539317 0.007534 0
vt 1.653037 0.025000 0
vt 1.653037 0.219872 0
vt 1.650064 0.197218 0
vt 1.650119 0.000934 0
vt 1.653037 0.372040 0
vt 1.650064 0.354702 0
vt 1.653037 0.528557 0
vt 1.650064 0.519174 0
vt 1.653037 0.677601 0
vt 1.650064 0.677601 0
vt 1.653037 0.812696 0
vt 1.650064 0.822079 0
vt 1.653037 0.980803 0
vt 1.650119 0.994435 0
vt 1.653037 0.980803 0
vt 1.542235 0.979391 0
vt 1.539317 0.993023 0
vt 1.650119 0.994435 0
vt 1.542235 0.031600 0
vt 1.542235 0.223720 0
vt 1.653037 0.219872 0
vt 1.653037 0.025000 0
vt 1.542235 0.371037 0
vt 1.653037 0.372040 0
vt 1.542235 0.527901 0
vt 1.653037 0.528557 0
vt 1.542235 0.677601 0
vt 1.653037 0.677601 0
vt 1.542235 0.808521 0
vt 1.653037 0.812696 0
vt 1.542235 0.979391 0
vt 1.653037 0.980803 0
vn -0.19148 0.358086 0.913844
vn -0.191389 0.358005 0.913894
vn -0.194702 0.477372 0.856859
vn -0.194594 0.585731 0.786799
vn -0.194719 0.766494 0.612023
vn -0.194636 0.840643 0.505406
vn -0.194719 0.942359 0.27211
vn -0.194636 0.970064 0.145234
vn -0.194719 0.974758 -0.109228
vn -0.194636 0.951801 -0.237048
vn -0.194682 0.860194 -0.471343
vn -0.194623 0.790957 -0.580094
vn -0.19148 0.710743 -0.67689
vn -0.191382 0.710826 -0.67683
vn -0.981181 -0.0929883 -0.169223
vn -0.981496 -0.0693997 -0.178461
vn -0.980795 -0.071183 -0.181586
vn -0.980699 -0.116016 -0.157386
vn -0.980697 -0.152104 -0.122872
vn -0.980709 -0.166948 -0.101676
vn -0.980697 -0.187546 -0.0553106
vn -0.980709 -0.193149 -0.0300476
vn -0.980697 -0.194436 0.0206706
vn -0.980709 -0.189945 0.0461546
vn -0.980697 -0.171725 0.0935045
vn -0.981184 -0.156326 0.113314
vn -0.980795 -0.141255 0.134489
vn -0.981496 -0.139035 0.131664
vn -0.0373561 -0.933974 0.355383
vn -0.0373561 -0.933974 0.355383
vn -0.0373561 -0.933974 0.355383
vn -0.0373561 -0.933974 0.355383
vn 0.980795 0.0711471 0.181604
vn 0.980698 0.11609 0.157337
vn 0.981184 0.0937232 0.168801
vn 0.981496 0.0702929 0.178114
vn 0.980698 0.167464 0.100935
vn 0.980709 0.152623 0.122133
vn 0.980698 0.193343 0.0291668
vn 0.980709 0.187745 0.0544295
vn 0.980698 0.189787 -0.0470427
vn 0.980709 0.194283 -0.0215605
vn 0.981182 0.155786 -0.114076
vn 0.980699 0.171646 -0.0936317
vn 0.981497 0.138318 -0.132411
vn 0.980795 0.14123 -0.134521
vn -0.0373562 -0.696276 -0.716801
vn -0.0373562 -0.696277 -0.716801
vn -0.0373562 -0.696276 -0.716801
vn -0.0373562 -0.696276 -0.716801
vn 0.19148 -0.355732 -0.914762
vn 0.194634 -0.583386 -0.788529
vn 0.194721 -0.474086 -0.858677
vn 0.191481 -0.355732 -0.914762
vn 0.194634 -0.840736 -0.505254
vn 0.194721 -0.7666 -0.61189
vn 0.194634 -0.970091 -0.145058
vn 0.194721 -0.942406 -0.271947
vn 0.194634 -0.951758 0.237221
vn 0.19472 -0.974739 0.109396
vn 0.194634 -0.788529 0.583386
vn 0.194721 -0.858677 0.474086
vn 0.191481 -0.708998 0.678718
vn 0.191481 -0.708998 0.678718
g Ball_Wood_piece01
usemtl Ball_Wood_Pieces
f 2/2/2 3/3/3 1/1/1
f 3/3/3 4/4/4 1/1/1
f 3/3/3 5/5/5 4/4/4
f 5/5/5 6/6/6 4/4/4
f 5/5/5 7/7/7 6/6/6
f 7/7/7 8/8/8 6/6/6
f 7/7/7 9/9/9 8/8/8
f 9/9/9 10/10/10 8/8/8
f 9/9/9 11/11/11 10/10/10
f 11/11/11 12/12/12 10/10/10
f 11/11/11 13/13/13 12/12/12
f 13/13/13 14/14/14 12/12/12
f 16/16/16 17/17/17 15/15/15
f 18/18/18 15/15/15 17/17/17
f 15/15/15 18/18/18 19/19/19
f 20/20/20 19/19/19 18/18/18
f 19/19/19 20/20/20 21/21/21
f 22/22/22 21/21/21 20/20/20
f 21/21/21 22/22/22 23/23/23
f 24/24/24 23/23/23 22/22/22
f 23/23/23 24/24/24 25/25/25
f 26/26/26 25/25/25 24/24/24
f 25/25/25 26/26/26 27/27/27
f 28/28/28 27/27/27 26/26/26
f 30/30/30 31/31/31 29/29/29
f 32/32/32 29/29/29 31/31/31
f 34/34/34 35/35/35 33/33/33
f 36/36/36 33/33/33 35/35/35
f 37/37/37 38/38/38 34/34/34
f 35/35/35 34/34/34 38/38/38
f 39/39/39 40/40/40 37/37/37
f 38/38/38 37/37/37 40/40/40
f 41/41/41 42/42/42 39/39/39
f 40/40/40 39/39/39 42/42/42
f 43/43/43 44/44/44 41/41/41
f 42/42/42 41/41/41 44/44/44
f 45/45/45 46/46/46 43/43/43
f 44/44/44 43/43/43 46/46/46
f 48/48/48 49/49/49 47/47/47
f 50/50/50 47/47/47 49/49/49
f 52/52/52 53/53/53 51/51/51
f 53/53/53 54/54/54 51/51/51
f 55/55/55 56/56/56 52/52/52
f 56/56/56 53/53/53 52/52/52
f 57/57/57 58/58/58 55/55/55
f 58/58/58 56/56/56 55/55/55
f 59/59/59 60/60/60 57/57/57
f 60/60/60 58/58/58 57/57/57
f 61/61/61 62/62/62 59/59/59
f 62/62/62 60/60/60 59/59/59
f 63/63/63 64/64/64 61/61/61
f 64/64/64 62/62/62 61/61/61
