v -0.456317 0.342018 0.0142807
v -1.12448 0.00310669 0.306165
v -0.960196 0.0472064 0.559314
v -0.712448 0.109061 0.746926
v -0.417447 0.185428 0.813351
v -0.116533 0.266058 0.751384
v 0.13857 0.334413 0.574916
v 0.309025 0.380086 0.310814
v 0.37544 0.394893 0.000478394
v -0.712448 0.109061 0.746926
v -0.839997 -0.389859 1.37456
v -0.302069 -0.245169 1.48341
v -0.417447 0.185428 0.813351
v 0.246528 -0.0981732 1.37043
v -0.116533 0.266058 0.751384
v 0.711606 0.0264439 1.04872
v 0.13857 0.334413 0.574916
v 1.02236 0.109711 0.567233
v 0.309025 0.380086 0.310814
v 1.13148 0.13895 -0.000715708
v 0.37544 0.394893 0.000478394
v 1.02236 0.109711 -0.568665
v 0.325757 0.375378 -0.318435
v 0.711606 0.0264442 -1.05015
v 0.151916 0.328798 -0.587784
v 0.246528 -0.0981733 -1.37187
v -0.108256 0.259085 -0.767758
v -0.290676 -0.242669 -1.48448
v -0.403756 0.179354 -0.8306
v -0.432029 0.239851 -0.000715301
v -1.08063 -0.0927768 0.294451
v -1.12448 0.00310669 0.306165
v -0.456317 0.342018 0.0142807
v -1.08063 -0.0927768 0.294451
v -0.919133 -0.0495026 0.544681
v -0.960196 0.0472064 0.559314
v -1.12448 0.00310669 0.306165
v -0.677429 0.0152616 0.711879
v -0.712448 0.109061 0.746926
v 0.352704 0.291285 -0.000715519
v 0.37544 0.394893 0.000478394
v -0.677429 0.0152616 0.711879
v -0.806052 -0.471525 1.31599
v -0.839997 -0.389859 1.37456
v -0.712448 0.109061 0.746926
v -0.806052 -0.471525 1.31599
v -0.27924 -0.330366 1.42447
v -0.302069 -0.245169 1.48341
v -0.839997 -0.389859 1.37456
v 0.247572 -0.189207 1.31599
v 0.246528 -0.0981732 1.37043
v 0.694181 -0.0695386 1.00704
v 0.711606 0.0264439 1.04872
v 0.992596 0.0104214 0.54468
v 1.02236 0.109711 0.567233
v 1.09739 0.0384998 -0.000715683
v 1.13148 0.13895 -0.000715708
v 1.09739 0.0384998 -0.000715683
v 0.992596 0.0104215 -0.546111
v 1.02236 0.109711 -0.568665
v 1.13148 0.13895 -0.000715708
v 0.295992 0.276089 -0.295882
v 0.352704 0.291285 -0.000715519
v 0.37544 0.394893 0.000478394
v 0.325757 0.375378 -0.318435
v 0.694181 -0.0695384 -1.00848
v 0.711606 0.0264442 -1.05015
v 0.134491 0.232815 -0.546111
v 0.151916 0.328798 -0.587784
v 0.247571 -0.189207 -1.31742
v 0.246528 -0.0981733 -1.37187
v -0.107212 0.168051 -0.713309
v -0.108256 0.259085 -0.767758
v -0.27924 -0.330366 -1.4259
v -0.290676 -0.242669 -1.48448
v -0.27924 -0.330366 -1.4259
v -0.392321 0.0916565 -0.772021
v -0.403756 0.179354 -0.8306
v -0.290676 -0.242669 -1.48448
v -0.392321 0.0916565 -0.772021
v -0.403756 0.179354 -0.8306
v -1.08063 -0.0927768 0.294451
v -0.432029 0.239851 -0.000715301
v 0.352704 0.291285 -0.000715519
v -0.919133 -0.0495026 0.544681
v -0.677429 0.0152616 0.711879
v -0.27924 -0.330366 1.42447
v -0.806052 -0.471525 1.31599
v 0.694181 -0.0695386 1.00704
v 0.247572 -0.189207 1.31599
v 1.09739 0.0384998 -0.000715683
v 0.992596 0.0104214 0.54468
v 0.295992 0.276089 -0.295882
v 0.992596 0.0104215 -0.546111
v 1.09739 0.0384998 -0.000715683
v 0.352704 0.291285 -0.000715519
v 0.134491 0.232815 -0.546111
v 0.694181 -0.0695384 -1.00848
v -0.107212 0.168051 -0.713309
v 0.247571 -0.189207 -1.31742
v -0.392321 0.0916565 -0.772021
v -0.27924 -0.330366 -1.4259
vt 1.487526 0.516666 0
vt 1.413098 0.623169 0
vt 1.384135 0.549756 0
vt 1.367914 0.491611 0
vt 1.372503 0.427086 0
vt 1.394868 0.380307 0
vt 1.434085 0.349773 0
vt 1.474489 0.344524 0
vt 1.533008 0.365340 0
vt 1.539943 0.006102 0
vt 1.642701 0.005622 0
vt 1.643366 0.109386 0
vt 1.540659 0.113424 0
vt 1.641973 0.231826 0
vt 1.539569 0.231449 0
vt 1.642099 0.326487 0
vt 1.539599 0.327470 0
vt 1.642570 0.434395 0
vt 1.540348 0.431696 0
vt 1.643937 0.527769 0
vt 1.541267 0.527281 0
vt 1.644548 0.651707 0
vt 1.541639 0.648297 0
vt 1.642905 0.777610 0
vt 1.537585 0.776660 0
vt 1.641858 0.882649 0
vt 1.537141 0.886747 0
vt 1.641002 0.997882 0
vt 1.538161 0.996084 0
vt 1.828818 0.500000 0
vt 1.806778 0.430438 0
vt 1.821713 0.427677 0
vt 1.843897 0.496466 0
vt 1.806778 0.430438 0
vt 1.806778 0.371466 0
vt 1.821724 0.368017 0
vt 1.821713 0.427677 0
vt 1.806778 0.332062 0
vt 1.821095 0.323802 0
vt 1.806778 0.500000 0
vt 1.820309 0.499718 0
vt 1.806778 0.332062 0
vt 1.744013 0.189691 0
vt 1.756607 0.175886 0
vt 1.821095 0.323802 0
vt 1.744013 0.189691 0
vt 1.744013 0.164124 0
vt 1.756684 0.150235 0
vt 1.756607 0.175886 0
vt 1.744013 0.189691 0
vt 1.756684 0.176859 0
vt 1.744013 0.262500 0
vt 1.756684 0.252679 0
vt 1.744013 0.371466 0
vt 1.756684 0.366150 0
vt 1.744013 0.500000 0
vt 1.756684 0.500000 0
vt 1.636031 0.533157 0
vt 1.639797 0.652288 0
vt 1.644548 0.651707 0
vt 1.643937 0.527769 0
vt 1.536888 0.648879 0
vt 1.535882 0.533658 0
vt 1.541267 0.527281 0
vt 1.541639 0.648297 0
vt 1.642837 0.775269 0
vt 1.642905 0.777610 0
vt 1.537518 0.774320 0
vt 1.537585 0.776660 0
vt 1.647290 0.879716 0
vt 1.641858 0.882649 0
vt 1.542573 0.883814 0
vt 1.537141 0.886747 0
vt 1.649238 0.995417 0
vt 1.641002 0.997882 0
vt 1.649238 0.995417 0
vt 1.546396 0.993619 0
vt 1.538161 0.996084 0
vt 1.641002 0.997882 0
vt 1.546396 0.993619 0
vt 1.538161 0.996084 0
vt 1.663436 0.546989 0
vt 1.565577 0.648579 0
vt 1.435419 0.681252 0
vt 1.628409 0.508832 0
vt 1.582813 0.490690 0
vt 1.493301 0.348849 0
vt 1.584252 0.340285 0
vt 1.345593 0.480813 0
vt 1.409495 0.398196 0
vt 1.311904 0.692397 0
vt 1.311323 0.584123 0
vt 1.536888 0.648879 0
vt 1.639797 0.652288 0
vt 1.636031 0.533157 0
vt 1.535882 0.533658 0
vt 1.537518 0.774320 0
vt 1.642837 0.775269 0
vt 1.542573 0.883814 0
vt 1.647290 0.879716 0
vt 1.546396 0.993619 0
vt 1.649238 0.995417 0
vn -0.224111 0.964174 0.141925
vn -0.411284 0.904936 0.109257
vn -0.383627 0.912943 0.139156
vn -0.327513 0.853526 0.405252
vn -0.197749 0.876874 0.438164
vn -0.0395537 0.919508 0.391077
vn 0.0899815 0.954413 0.284603
vn 0.169944 0.976206 0.134689
vn 0.241961 0.96971 -0.0334163
vn -0.327513 0.853526 0.405252
vn -0.318895 0.77244 0.54922
vn -0.237865 0.798371 0.553194
vn -0.197749 0.876874 0.438164
vn -0.0318898 0.853159 0.520676
vn -0.0395537 0.919508 0.391077
vn 0.146604 0.900986 0.408328
vn 0.0899815 0.954413 0.284603
vn 0.269982 0.934045 0.233816
vn 0.169944 0.976206 0.134689
vn 0.320095 0.947066 0.0246169
vn 0.241961 0.96971 -0.0334163
vn 0.289386 0.938299 -0.189345
vn 0.261065 0.929597 -0.260181
vn 0.180706 0.90897 -0.375658
vn 0.128463 0.894054 -0.429144
vn 0.0130213 0.864007 -0.503311
vn -0.054296 0.845079 -0.531878
vn -0.106418 0.827077 -0.551924
vn -0.10575 0.827058 -0.55208
vn -0.277611 0.0382663 -0.959931
vn -0.38596 -0.0640448 -0.92029
vn -0.401009 -0.0144159 -0.915961
vn -0.150941 0.0649987 -0.986404
vn -0.73649 -0.399374 0.545969
vn -0.566984 -0.400459 0.719835
vn -0.668442 -0.382989 0.637577
vn -0.734282 -0.402524 0.54663
vn -0.422658 -0.451426 0.785859
vn -0.470526 -0.39383 0.789622
vn -0.0135657 0.0783267 -0.996835
vn -0.017567 0.0153754 -0.999727
vn -0.923263 -0.182492 -0.338055
vn -0.933195 -0.155497 -0.323989
vn -0.923263 -0.182492 -0.338055
vn -0.912422 -0.209215 -0.351732
vn -0.0112456 -0.578311 0.815739
vn 0.198174 -0.521148 0.83014
vn 0.0953491 -0.553942 0.827077
vn -0.00685951 -0.584723 0.811204
vn 0.500873 -0.44004 0.745312
vn 0.402683 -0.466444 0.787576
vn 0.749175 -0.373508 0.547018
vn 0.674083 -0.393723 0.624976
vn 0.905277 -0.331681 0.265446
vn 0.86472 -0.342642 0.367228
vn 0.945415 -0.320926 -0.0565387
vn 0.94557 -0.320978 0.0535736
vn 0.945415 -0.320926 -0.0565387
vn 0.863479 -0.34288 -0.369915
vn 0.904326 -0.332029 -0.268237
vn 0.94557 -0.320978 0.0535736
vn -0.92054 0.294888 0.256219
vn -0.962256 0.209158 0.174115
vn -0.953163 0.262463 0.150308
vn -0.870229 0.341527 0.355051
vn 0.671941 -0.394203 -0.626976
vn 0.747266 -0.374114 -0.549211
vn -0.749966 0.373255 0.546106
vn -0.674939 0.393529 0.624173
vn 0.402142 -0.471717 -0.784707
vn 0.500532 -0.440145 -0.74548
vn -0.501942 0.439713 0.744787
vn -0.407332 0.47034 0.782855
vn 0.301458 -0.502113 -0.810559
vn 0.302091 -0.494354 -0.81508
vn -0.983719 -0.169035 -0.0610244
vn -0.983719 -0.169035 -0.0610244
vn -0.983719 -0.169035 -0.0610244
vn -0.983719 -0.169035 -0.0610244
vn -0.303428 0.494059 0.814762
vn -0.307183 0.500568 0.809364
vn 0.180152 -0.926416 -0.330602
vn 0.0466932 -0.712404 -0.700215
vn 0.00241346 -0.958198 -0.286096
vn 0.258819 -0.965926 2.98935e-007
vn 0.0980457 -0.918975 -0.381932
vn 0.0987132 -0.902753 -0.418681
vn 0.319996 -0.769849 -0.552209
vn -0.0719817 -0.946522 -0.314507
vn 0.108102 -0.936649 -0.333171
vn -0.32135 -0.946668 0.0235287
vn -0.245809 -0.948455 -0.200029
vn -0.299785 -0.939918 0.163349
vn -0.271815 -0.933395 0.234286
vn -0.32135 -0.946668 0.0235287
vn 0.00241346 -0.958198 -0.286096
vn -0.200226 -0.913242 0.354823
vn -0.148145 -0.900258 0.409376
vn -0.0374685 -0.869631 0.492279
vn 0.0308313 -0.852301 0.522142
vn 0.1078 -0.826707 0.552209
vn 0.1078 -0.826707 0.552209
g Ball_Wood_piece05
usemtl Ball_Wood_Pieces
f 2/2/2 3/3/3 1/1/1
f 3/3/3 4/4/4 1/1/1
f 4/4/4 5/5/5 1/1/1
f 5/5/5 6/6/6 1/1/1
f 6/6/6 7/7/7 1/1/1
f 7/7/7 8/8/8 1/1/1
f 8/8/8 9/9/9 1/1/1
f 11/11/11 12/12/12 10/10/10
f 12/12/12 13/13/13 10/10/10
f 12/12/12 14/14/14 13/13/13
f 14/14/14 15/15/15 13/13/13
f 14/14/14 16/16/16 15/15/15
f 16/16/16 17/17/17 15/15/15
f 16/16/16 18/18/18 17/17/17
f 18/18/18 19/19/19 17/17/17
f 18/18/18 20/20/20 19/19/19
f 20/20/20 21/21/21 19/19/19
f 20/20/20 22/22/22 21/21/21
f 22/22/22 23/23/23 21/21/21
f 22/22/22 24/24/24 23/23/23
f 24/24/24 25/25/25 23/23/23
f 24/24/24 26/26/26 25/25/25
f 26/26/26 27/27/27 25/25/25
f 26/26/26 28/28/28 27/27/27
f 28/28/28 29/29/29 27/27/27
f 31/31/31 32/32/32 30/30/30
f 33/33/33 30/30/30 32/32/32
f 35/35/35 36/36/36 34/34/34
f 37/37/37 34/34/34 36/36/36
f 38/38/38 39/39/39 35/35/35
f 36/36/36 35/35/35 39/39/39
f 30/30/30 33/33/33 40/40/40
f 41/41/41 40/40/40 33/33/33
f 43/43/43 44/44/44 42/42/42
f 45/45/45 42/42/42 44/44/44
f 47/47/47 48/48/48 46/46/46
f 49/49/49 46/46/46 48/48/48
f 50/50/50 51/51/51 47/47/47
f 48/48/48 47/47/47 51/51/51
f 52/52/52 53/53/53 50/50/50
f 51/51/51 50/50/50 53/53/53
f 54/54/54 55/55/55 52/52/52
f 53/53/53 52/52/52 55/55/55
f 56/56/56 57/57/57 54/54/54
f 55/55/55 54/54/54 57/57/57
f 59/59/59 60/60/60 58/58/58
f 61/61/61 58/58/58 60/60/60
f 63/63/63 64/64/64 62/62/62
f 65/65/65 62/62/62 64/64/64
f 66/66/66 67/67/67 59/59/59
f 60/60/60 59/59/59 67/67/67
f 62/62/62 65/65/65 68/68/68
f 69/69/69 68/68/68 65/65/65
f 70/70/70 71/71/71 66/66/66
f 67/67/67 66/66/66 71/71/71
f 68/68/68 69/69/69 72/72/72
f 73/73/73 72/72/72 69/69/69
f 74/74/74 75/75/75 70/70/70
f 71/71/71 70/70/70 75/75/75
f 77/77/77 78/78/78 76/76/76
f 79/79/79 76/76/76 78/78/78
f 72/72/72 73/73/73 80/80/80
f 81/81/81 80/80/80 73/73/73
f 83/83/83 84/84/84 82/82/82
f 84/84/84 85/85/85 82/82/82
f 84/84/84 86/86/86 85/85/85
f 84/84/84 87/87/87 86/86/86
f 87/87/87 88/88/88 86/86/86
f 89/89/89 90/90/90 84/84/84
f 90/90/90 87/87/87 84/84/84
f 91/91/91 92/92/92 84/84/84
f 92/92/92 89/89/89 84/84/84
f 94/94/94 95/95/95 93/93/93
f 95/95/95 96/96/96 93/93/93
f 98/98/98 94/94/94 97/97/97
f 94/94/94 93/93/93 97/97/97
f 100/100/100 98/98/98 99/99/99
f 98/98/98 97/97/97 99/99/99
f 102/102/102 100/100/100 101/101/101
f 100/100/100 99/99/99 101/101/101
