v 0.860708 -0.0671339 -0.772214
v 0.32508 -0.123757 -1.34523
v -0.0924323 0.281332 -0.881793
v 0.539097 0.24484 -0.414578
v -0.455347 0.463404 -0.238196
v 0.257483 0.386123 0.0848395
v -0.697839 0.384173 0.478738
v 0.0693145 0.324641 0.641165
v -0.78296 0.064466 1.14487
v 0.00326945 0.078519 1.15471
v 0.823007 -0.155981 -0.728193
v 0.287378 -0.212603 -1.30121
v 0.32508 -0.123757 -1.34523
v 0.860708 -0.0671339 -0.772214
v 0.287378 -0.212603 -1.30121
v -0.121349 0.184254 -0.85029
v -0.0924323 0.281332 -0.881793
v 0.32508 -0.123757 -1.34523
v 0.510181 0.14776 -0.383074
v 0.823007 -0.155981 -0.728193
v 0.860708 -0.0671339 -0.772214
v 0.539097 0.24484 -0.414578
v -0.467851 0.35809 -0.2358
v -0.455347 0.463404 -0.238196
v 0.24498 0.280809 0.0872362
v 0.257483 0.386123 0.0848395
v -0.699376 0.282443 0.448711
v -0.697839 0.384173 0.478738
v 0.0677777 0.222911 0.611138
v 0.0693145 0.324641 0.641165
v -0.780677 -0.0311728 1.09903
v -0.78296 0.064466 1.14487
v -0.780677 -0.0311728 1.09903
v 0.00555254 -0.0171198 1.10887
v 0.00326945 0.078519 1.15471
v -0.78296 0.064466 1.14487
v 0.00555254 -0.0171198 1.10887
v 0.00326945 0.078519 1.15471
v -0.780677 -0.0311728 1.09903
v -0.699376 0.282443 0.448711
v 0.0677777 0.222911 0.611138
v 0.00555254 -0.0171198 1.10887
v -0.467851 0.35809 -0.2358
v 0.24498 0.280809 0.0872362
v -0.121349 0.184254 -0.85029
v 0.510181 0.14776 -0.383074
v 0.287378 -0.212603 -1.30121
v 0.823007 -0.155981 -0.728193
vt 1.441708 0.554109 0
vt 1.530883 0.545874 0
vt 1.530628 0.420273 0
vt 1.441211 0.421608 0
vt 1.530567 0.263532 0
vt 1.440954 0.263369 0
vt 1.530707 0.144053 0
vt 1.440718 0.144210 0
vt 1.530630 0.000832 0
vt 1.440936 0.003148 0
vt 1.444365 0.551605 0
vt 1.528226 0.543370 0
vt 1.530883 0.545874 0
vt 1.441708 0.554109 0
vt 1.528226 0.543370 0
vt 1.527622 0.422244 0
vt 1.530628 0.420273 0
vt 1.530883 0.545874 0
vt 1.444217 0.423580 0
vt 1.444365 0.551605 0
vt 1.441708 0.554109 0
vt 1.441211 0.421608 0
vt 1.527281 0.274726 0
vt 1.530567 0.263532 0
vt 1.444240 0.274563 0
vt 1.440954 0.263369 0
vt 1.527440 0.164156 0
vt 1.530707 0.144053 0
vt 1.443985 0.164313 0
vt 1.440718 0.144210 0
vt 1.528161 0.024807 0
vt 1.530630 0.000832 0
vt 1.528161 0.024807 0
vt 1.443973 0.027122 0
vt 1.440936 0.003148 0
vt 1.530630 0.000832 0
vt 1.443973 0.027122 0
vt 1.440936 0.003148 0
vt 1.528161 0.024807 0
vt 1.527440 0.164156 0
vt 1.443985 0.164313 0
vt 1.443973 0.027122 0
vt 1.527281 0.274726 0
vt 1.444240 0.274563 0
vt 1.527622 0.422244 0
vt 1.444217 0.423580 0
vt 1.528226 0.543370 0
vt 1.444365 0.551605 0
vn 0.354189 0.838722 -0.413637
vn 0.354173 0.838585 -0.413929
vn 0.294926 0.897158 -0.328826
vn 0.236242 0.940066 -0.245899
vn 0.136474 0.988531 -0.0646624
vn 0.0913923 0.995149 0.0364015
vn 0.0251315 0.971128 0.237233
vn 0.000828025 0.940433 0.339979
vn -0.0212808 0.902503 0.430158
vn -0.0215133 0.902649 0.42984
vn 0.640148 -0.541604 -0.544862
vn 0.640148 -0.541604 -0.544862
vn 0.640148 -0.541604 -0.544862
vn 0.640148 -0.541604 -0.544862
vn -0.744038 -0.00480447 -0.668121
vn -0.822581 0.0615688 -0.565305
vn -0.786354 0.0275675 -0.617161
vn -0.747888 -0.0114971 -0.663725
vn 0.785172 -0.0266323 0.618705
vn 0.746471 0.0128735 0.665294
vn 0.744266 0.00461788 0.667867
vn 0.822556 -0.0615498 0.565343
vn -0.921169 0.100813 -0.375879
vn -0.891377 0.0957482 -0.443034
vn 0.89023 -0.0955591 0.445374
vn 0.920201 -0.100644 0.378288
vn -0.982819 0.0601651 -0.174491
vn -0.966548 0.0859303 -0.241661
vn 0.966383 -0.0861039 0.242259
vn 0.982261 -0.0611173 0.177282
vn -0.993486 0.0290875 -0.110175
vn -0.993493 0.0375715 -0.107519
vn -0.00355963 -0.432257 0.901743
vn -0.00355959 -0.432257 0.901743
vn -0.00355963 -0.432257 0.901743
vn -0.00355967 -0.432257 0.901743
vn 0.993448 -0.0377096 0.107881
vn 0.993115 -0.0304989 0.113104
vn 0.0215224 -0.901573 -0.432091
vn -0.0245097 -0.97048 -0.239933
vn -0.000142909 -0.939141 -0.343533
vn 0.0215224 -0.901573 -0.432091
vn -0.136292 -0.988583 0.0642473
vn -0.0911691 -0.995152 -0.0368944
vn -0.296537 -0.895882 0.33085
vn -0.237453 -0.939315 0.247594
vn -0.355405 -0.837544 0.414978
vn -0.355405 -0.837544 0.414978
g Ball_Wood_piece08
usemtl Ball_Wood_Pieces
f 2/2/2 3/3/3 1/1/1
f 3/3/3 4/4/4 1/1/1
f 3/3/3 5/5/5 4/4/4
f 5/5/5 6/6/6 4/4/4
f 5/5/5 7/7/7 6/6/6
f 7/7/7 8/8/8 6/6/6
f 7/7/7 9/9/9 8/8/8
f 9/9/9 10/10/10 8/8/8
f 12/12/12 13/13/13 11/11/11
f 14/14/14 11/11/11 13/13/13
f 16/16/16 17/17/17 15/15/15
f 18/18/18 15/15/15 17/17/17
f 20/20/20 21/21/21 19/19/19
f 22/22/22 19/19/19 21/21/21
f 23/23/23 24/24/24 16/16/16
f 17/17/17 16/16/16 24/24/24
f 19/19/19 22/22/22 25/25/25
f 26/26/26 25/25/25 22/22/22
f 27/27/27 28/28/28 23/23/23
f 24/24/24 23/23/23 28/28/28
f 25/25/25 26/26/26 29/29/29
f 30/30/30 29/29/29 26/26/26
f 31/31/31 32/32/32 27/27/27
f 28/28/28 27/27/27 32/32/32
f 34/34/34 35/35/35 33/33/33
f 36/36/36 33/33/33 35/35/35
f 29/29/29 30/30/30 37/37/37
f 38/38/38 37/37/37 30/30/30
f 40/40/40 41/41/41 39/39/39
f 41/41/41 42/42/42 39/39/39
f 43/43/43 44/44/44 40/40/40
f 44/44/44 41/41/41 40/40/40
f 45/45/45 46/46/46 43/43/43
f 46/46/46 44/44/44 43/43/43
f 47/47/47 48/48/48 45/45/45
f 48/48/48 46/46/46 45/45/45
