v -0.0159965 0.0879144 -1.36424
v -0.79326 0.172507 -1.44883
v -0.730303 0.593868 -0.839176
v 0.0329054 0.412362 -0.894124
v -0.551632 0.770335 -0.120837
v 0.17155 0.549296 -0.336708
v -0.284232 0.663795 0.583592
v 0.379047 0.466623 0.209913
v 0.0311879 0.290469 1.16687
v 0.623806 0.176931 0.662524
v 0.338942 -0.278595 1.5338
v 0.860899 -0.261466 0.945826
v -0.0319176 0.00253142 -1.30333
v -0.809182 0.0871243 -1.38793
v -0.79326 0.172507 -1.44883
v -0.0159965 0.0879144 -1.36424
v -0.809182 0.0871243 -1.38793
v -0.749278 0.500167 -0.793209
v -0.730303 0.593868 -0.839176
v -0.79326 0.172507 -1.44883
v 0.0139307 0.318661 -0.848157
v -0.0319176 0.00253142 -1.30333
v -0.0159965 0.0879144 -1.36424
v 0.0329054 0.412362 -0.894124
v -0.578687 0.668652 -0.107357
v -0.551632 0.770335 -0.120837
v 0.144495 0.447614 -0.323228
v 0.17155 0.549296 -0.336708
v -0.32338 0.566931 0.565214
v -0.284232 0.663795 0.583592
v 0.339899 0.36976 0.191536
v 0.379047 0.466623 0.209913
v -0.0222254 0.210488 1.12211
v 0.0311879 0.290469 1.16687
v 0.570393 0.0969504 0.617767
v 0.623806 0.176931 0.662524
v 0.27893 -0.34641 1.47855
v 0.338942 -0.278595 1.5338
v 0.27893 -0.34641 1.47855
v 0.800887 -0.329281 0.890576
v 0.860899 -0.261466 0.945826
v 0.338942 -0.278595 1.5338
v 0.800887 -0.329281 0.890576
v 0.860899 -0.261466 0.945826
v -0.809182 0.0871243 -1.38793
v -0.0319176 0.00253142 -1.30333
v 0.0139307 0.318661 -0.848157
v -0.749278 0.500167 -0.793209
v 0.144495 0.447614 -0.323228
v -0.578687 0.668652 -0.107357
v 0.339899 0.36976 0.191536
v -0.32338 0.566931 0.565214
v 0.570393 0.0969504 0.617767
v -0.0222254 0.210488 1.12211
v 0.800887 -0.329281 0.890576
v 0.27893 -0.34641 1.47855
vt 1.653124 0.483532 0
vt 1.767462 0.481997 0
vt 1.765441 0.384683 0
vt 1.653943 0.388748 0
vt 1.763182 0.262823 0
vt 1.655420 0.269709 0
vt 1.762288 0.166554 0
vt 1.656139 0.176607 0
vt 1.764559 0.098197 0
vt 1.654312 0.111278 0
vt 1.766742 0.022580 0
vt 1.653122 0.038635 0
vt 1.647799 0.457930 0
vt 1.772598 0.461679 0
vt 1.767462 0.481997 0
vt 1.653124 0.483532 0
vt 1.772598 0.461679 0
vt 1.771134 0.366657 0
vt 1.765441 0.384683 0
vt 1.767462 0.481997 0
vt 1.648040 0.366036 0
vt 1.647799 0.457930 0
vt 1.653124 0.483532 0
vt 1.653943 0.388748 0
vt 1.769223 0.250527 0
vt 1.763182 0.262823 0
vt 1.649156 0.254217 0
vt 1.655420 0.269709 0
vt 1.768369 0.160688 0
vt 1.762288 0.166554 0
vt 1.649834 0.169215 0
vt 1.656139 0.176607 0
vt 1.770538 0.098481 0
vt 1.764559 0.098197 0
vt 1.648113 0.111635 0
vt 1.654312 0.111278 0
vt 1.772278 0.025702 0
vt 1.766742 0.022580 0
vt 1.772278 0.025702 0
vt 1.647381 0.042569 0
vt 1.653122 0.038635 0
vt 1.766742 0.022580 0
vt 1.647381 0.042569 0
vt 1.653122 0.038635 0
vt 1.772598 0.461679 0
vt 1.647799 0.457930 0
vt 1.648040 0.366036 0
vt 1.771134 0.366657 0
vt 1.649156 0.254217 0
vt 1.769223 0.250527 0
vt 1.649834 0.169215 0
vt 1.768369 0.160688 0
vt 1.648113 0.111635 0
vt 1.770538 0.098481 0
vt 1.647381 0.042569 0
vt 1.772278 0.025702 0
vn 0.150262 0.806117 -0.572361
vn 0.150037 0.806012 -0.572567
vn 0.171632 0.86505 -0.471415
vn 0.189369 0.908811 -0.371754
vn 0.240971 0.955357 -0.170957
vn 0.273837 0.959566 -0.0651637
vn 0.35062 0.926994 0.13322
vn 0.393524 0.890419 0.228675
vn 0.482398 0.784198 0.39029
vn 0.528386 0.713228 0.460559
vn 0.564833 0.64094 0.519769
vn 0.564506 0.641203 0.519799
vn 0.0248226 -0.583591 -0.811668
vn 0.0248225 -0.583591 -0.811668
vn 0.0248226 -0.583591 -0.811668
vn 0.0248226 -0.583591 -0.811668
vn -0.983764 0.177992 -0.022959
vn -0.963651 0.246122 0.103924
vn -0.976406 0.211789 0.0421502
vn -0.985018 0.171622 -0.016896
vn 0.976695 -0.210824 -0.0402409
vn 0.985229 -0.170188 0.0189603
vn 0.983737 -0.178187 0.0226232
vn 0.963661 -0.246103 -0.103879
vn -0.907588 0.282645 0.310478
vn -0.929671 0.279219 0.24031
vn 0.930362 -0.279071 -0.237795
vn 0.908451 -0.282553 -0.308026
vn -0.827992 0.23834 0.507566
vn -0.856816 0.262033 0.444078
vn 0.857753 -0.262851 -0.441779
vn 0.829087 -0.2392 -0.505369
vn -0.740898 0.116823 0.66138
vn -0.768946 0.168404 0.616735
vn 0.769199 -0.168812 -0.616307
vn 0.742177 -0.118856 -0.659581
vn -0.712842 0.0616593 0.698609
vn -0.708368 0.0682669 0.702534
vn 0.489318 -0.76866 0.411983
vn 0.489318 -0.76866 0.411983
vn 0.489318 -0.76866 0.411983
vn 0.489318 -0.76866 0.411982
vn 0.708547 -0.0685432 -0.702327
vn 0.714194 -0.0641683 -0.697001
vn -0.150085 -0.804891 0.57413
vn -0.150085 -0.804891 0.57413
vn -0.167944 -0.85482 0.490996
vn -0.18608 -0.901044 0.391782
vn -0.255044 -0.958543 0.127073
vn -0.255044 -0.958543 0.127073
vn -0.393722 -0.890214 -0.229134
vn -0.350805 -0.926867 -0.133617
vn -0.530006 -0.710565 -0.462808
vn -0.483666 -0.782478 -0.392168
vn -0.565729 -0.639287 -0.520829
vn -0.565729 -0.639287 -0.520829
g Ball_Wood_piece09
usemtl Ball_Wood_Pieces
f 2/2/2 3/3/3 1/1/1
f 3/3/3 4/4/4 1/1/1
f 3/3/3 5/5/5 4/4/4
f 5/5/5 6/6/6 4/4/4
f 5/5/5 7/7/7 6/6/6
f 7/7/7 8/8/8 6/6/6
f 7/7/7 9/9/9 8/8/8
f 9/9/9 10/10/10 8/8/8
f 9/9/9 11/11/11 10/10/10
f 11/11/11 12/12/12 10/10/10
f 14/14/14 15/15/15 13/13/13
f 16/16/16 13/13/13 15/15/15
f 18/18/18 19/19/19 17/17/17
f 20/20/20 17/17/17 19/19/19
f 22/22/22 23/23/23 21/21/21
f 24/24/24 21/21/21 23/23/23
f 25/25/25 26/26/26 18/18/18
f 19/19/19 18/18/18 26/26/26
f 21/21/21 24/24/24 27/27/27
f 28/28/28 27/27/27 24/24/24
f 29/29/29 30/30/30 25/25/25
f 26/26/26 25/25/25 30/30/30
f 27/27/27 28/28/28 31/31/31
f 32/32/32 31/31/31 28/28/28
f 33/33/33 34/34/34 29/29/29
f 30/30/30 29/29/29 34/34/34
f 31/31/31 32/32/32 35/35/35
f 36/36/36 35/35/35 32/32/32
f 37/37/37 38/38/38 33/33/33
f 34/34/34 33/33/33 38/38/38
f 40/40/40 41/41/41 39/39/39
f 42/42/42 39/39/39 41/41/41
f 35/35/35 36/36/36 43/43/43
f 44/44/44 43/43/43 36/36/36
f 46/46/46 47/47/47 45/45/45
f 47/47/47 48/48/48 45/45/45
f 47/47/47 49/49/49 48/48/48
f 49/49/49 50/50/50 48/48/48
f 51/51/51 52/52/52 49/49/49
f 52/52/52 50/50/50 49/49/49
f 53/53/53 54/54/54 51/51/51
f 54/54/54 52/52/52 51/51/51
f 55/55/55 56/56/56 53/53/53
f 56/56/56 54/54/54 53/53/53
