v -0.43499 0.0981997 1.69184
v 0.345735 0.0634866 1.60401
v 0.333595 0.553916 1.04087
v -0.448147 0.62806 1.08368
v 0.346639 0.801001 0.314717
v -0.434085 0.894426 0.300861
v 0.383786 0.752232 -0.449979
v -0.39404 0.841851 -0.523506
v 0.439379 0.415032 -1.1368
v -0.334109 0.478339 -1.26392
v 0.502804 -0.142729 -1.62942
v -0.265567 -0.124235 -1.7959
v 0.484339 -0.212844 -1.55198
v -0.284032 -0.194351 -1.71846
v -0.265567 -0.124235 -1.7959
v 0.502804 -0.142729 -1.62942
v -0.446324 0.0187236 1.6225
v 0.3344 -0.0159894 1.53467
v 0.345735 0.0634866 1.60401
v -0.43499 0.0981997 1.69184
v 0.3344 -0.0159894 1.53467
v 0.322047 0.462594 0.988144
v 0.333595 0.553916 1.04087
v 0.345735 0.0634866 1.60401
v -0.459696 0.536739 1.03095
v -0.446324 0.0187236 1.6225
v -0.43499 0.0981997 1.69184
v -0.448147 0.62806 1.08368
v 0.334401 0.696604 0.300418
v 0.346639 0.801001 0.314717
v -0.446324 0.790029 0.286562
v -0.434085 0.894426 0.300861
v 0.369581 0.650415 -0.423813
v 0.383786 0.752232 -0.449979
v -0.408245 0.740035 -0.49734
v -0.39404 0.841851 -0.523506
v 0.422233 0.33106 -1.07429
v 0.439379 0.415032 -1.1368
v -0.351255 0.394367 -1.20141
v -0.334109 0.478339 -1.26392
v 0.484339 -0.212844 -1.55198
v 0.502804 -0.142729 -1.62942
v -0.284032 -0.194351 -1.71846
v -0.265567 -0.124235 -1.7959
v 0.484339 -0.212844 -1.55198
v 0.422233 0.33106 -1.07429
v -0.351255 0.394367 -1.20141
v -0.284032 -0.194351 -1.71846
v 0.369581 0.650415 -0.423813
v -0.408245 0.740035 -0.49734
v 0.334401 0.696604 0.300418
v -0.446324 0.790029 0.286562
v 0.322047 0.462594 0.988144
v -0.459696 0.536739 1.03095
v 0.3344 -0.0159894 1.53467
v -0.446324 0.0187236 1.6225
vt 1.655398 -0.005402 0
vt 1.766200 -0.004985 0
vt 1.766255 0.087225 0
vt 1.655453 0.087225 0
vt 1.766255 0.185708 0
vt 1.655453 0.186126 0
vt 1.766255 0.279002 0
vt 1.655453 0.279408 0
vt 1.766255 0.382801 0
vt 1.655453 0.382658 0
vt 1.766200 0.496457 0
vt 1.655398 0.495711 0
vt 1.763282 0.489165 0
vt 1.652480 0.488419 0
vt 1.655398 0.495711 0
vt 1.766200 0.496457 0
vt 1.652480 -0.000615 0
vt 1.763282 -0.000198 0
vt 1.766200 -0.004985 0
vt 1.655398 -0.005402 0
vt 1.763282 -0.000198 0
vt 1.763282 0.087225 0
vt 1.766255 0.087225 0
vt 1.766200 -0.004985 0
vt 1.652480 0.087225 0
vt 1.652480 -0.000615 0
vt 1.655398 -0.005402 0
vt 1.655453 0.087225 0
vt 1.763282 0.176325 0
vt 1.766255 0.185708 0
vt 1.652480 0.176742 0
vt 1.655453 0.186126 0
vt 1.763282 0.278438 0
vt 1.766255 0.279002 0
vt 1.652480 0.278844 0
vt 1.655453 0.279408 0
vt 1.763282 0.376922 0
vt 1.766255 0.382801 0
vt 1.652480 0.376779 0
vt 1.655453 0.382658 0
vt 1.763282 0.489165 0
vt 1.766200 0.496457 0
vt 1.652480 0.488419 0
vt 1.655398 0.495711 0
vt 1.763282 0.489165 0
vt 1.763282 0.376922 0
vt 1.652480 0.376779 0
vt 1.652480 0.488419 0
vt 1.763282 0.278438 0
vt 1.652480 0.278844 0
vt 1.763282 0.176325 0
vt 1.652480 0.176742 0
vt 1.763282 0.087225 0
vt 1.652480 0.087225 0
vt 1.763282 -0.000198 0
vt 1.652480 -0.000615 0
vn 0.106809 0.750871 0.651755
vn 0.106708 0.750944 0.651687
vn 0.108577 0.826972 0.551659
vn 0.108639 0.891405 0.439995
vn 0.112832 0.972861 0.202018
vn 0.117212 0.99039 0.0734149
vn 0.129391 0.975057 -0.180336
vn 0.137451 0.942153 -0.305706
vn 0.155488 0.832745 -0.531375
vn 0.165955 0.755283 -0.63404
vn 0.173847 0.662857 -0.728285
vn 0.173764 0.662791 -0.728364
vn 0.122757 -0.750046 -0.649894
vn 0.122757 -0.750045 -0.649895
vn 0.122757 -0.750046 -0.649894
vn 0.122757 -0.750046 -0.649893
vn 0.0548276 -0.660861 0.748503
vn 0.0548276 -0.660861 0.748502
vn 0.0548276 -0.660861 0.748503
vn 0.0548276 -0.660861 0.748503
vn 0.993744 -0.072327 -0.0850949
vn 0.993967 -0.100976 -0.0428173
vn 0.994248 -0.0864265 -0.063263
vn 0.994146 -0.0699439 -0.0823451
vn -0.994241 0.0859206 0.0640474
vn -0.99413 0.0692608 0.0831226
vn -0.993743 0.0723037 0.0851272
vn -0.993969 0.100902 0.0429477
vn 0.992226 -0.120555 0.0309002
vn 0.993101 -0.117145 0.00526386
vn -0.993119 0.117026 -0.00436983
vn -0.992267 0.120437 -0.0300056
vn 0.988161 -0.110512 0.10642
vn 0.989768 -0.11715 0.081461
vn -0.989812 0.117379 -0.0805896
vn -0.988228 0.110743 -0.10555
vn 0.982868 -0.0709945 0.17009
vn 0.984543 -0.0885409 0.151118
vn -0.984549 0.0885928 -0.151046
vn -0.98294 0.0715381 -0.169444
vn 0.981017 -0.0520455 0.186805
vn 0.980425 -0.0548395 0.189103
vn -0.980421 0.0548121 -0.189132
vn -0.981099 0.0527636 -0.186175
vn -0.174063 -0.660967 0.729948
vn -0.155754 -0.831145 0.533796
vn -0.166284 -0.75283 0.636865
vn -0.174063 -0.660967 0.729948
vn -0.129379 -0.975091 0.180162
vn -0.137442 -0.942206 0.305545
vn -0.112824 -0.972825 -0.202192
vn -0.117207 -0.990378 -0.0735839
vn -0.108612 -0.824692 -0.555056
vn -0.108661 -0.890011 -0.442802
vn -0.106852 -0.749209 -0.653658
vn -0.106852 -0.749209 -0.653658
g Ball_Wood_piece12
usemtl Ball_Wood_Pieces
f 2/2/2 3/3/3 1/1/1
f 3/3/3 4/4/4 1/1/1
f 3/3/3 5/5/5 4/4/4
f 5/5/5 6/6/6 4/4/4
f 5/5/5 7/7/7 6/6/6
f 7/7/7 8/8/8 6/6/6
f 7/7/7 9/9/9 8/8/8
f 9/9/9 10/10/10 8/8/8
f 9/9/9 11/11/11 10/10/10
f 11/11/11 12/12/12 10/10/10
f 14/14/14 15/15/15 13/13/13
f 16/16/16 13/13/13 15/15/15
f 18/18/18 19/19/19 17/17/17
f 20/20/20 17/17/17 19/19/19
f 22/22/22 23/23/23 21/21/21
f 24/24/24 21/21/21 23/23/23
f 26/26/26 27/27/27 25/25/25
f 28/28/28 25/25/25 27/27/27
f 29/29/29 30/30/30 22/22/22
f 23/23/23 22/22/22 30/30/30
f 25/25/25 28/28/28 31/31/31
f 32/32/32 31/31/31 28/28/28
f 33/33/33 34/34/34 29/29/29
f 30/30/30 29/29/29 34/34/34
f 31/31/31 32/32/32 35/35/35
f 36/36/36 35/35/35 32/32/32
f 37/37/37 38/38/38 33/33/33
f 34/34/34 33/33/33 38/38/38
f 35/35/35 36/36/36 39/39/39
f 40/40/40 39/39/39 36/36/36
f 41/41/41 42/42/42 37/37/37
f 38/38/38 37/37/37 42/42/42
f 39/39/39 40/40/40 43/43/43
f 44/44/44 43/43/43 40/40/40
f 46/46/46 47/47/47 45/45/45
f 47/47/47 48/48/48 45/45/45
f 49/49/49 50/50/50 46/46/46
f 50/50/50 47/47/47 46/46/46
f 51/51/51 52/52/52 49/49/49
f 52/52/52 50/50/50 49/49/49
f 53/53/53 54/54/54 51/51/51
f 54/54/54 52/52/52 51/51/51
f 55/55/55 56/56/56 53/53/53
f 56/56/56 54/54/54 53/53/53
