mtllib E:\Programming\GameProjects\Ballance\ResourceFactory\P_Modul_29_Platte06.mtl
v -0.75 0.6 2.57688
v 0.75 0.6 2.57688
v 0.745184 0.592919 -2.52988
v -0.75 0.6 -2.42083
v -0.75 0 2.57688
v 0.75 0 2.57688
v 0.75 0.6 2.57688
v -0.75 0.6 2.57688
v 0.75 0 2.57688
v 0.75 0 -2.42312
v 0.745184 0.592919 -2.52988
v 0.75 0.6 2.57688
v 0.75 0 -2.42312
v -0.745184 0.00708088 -2.31406
v -0.75 0.6 -2.42083
v 0.745184 0.592919 -2.52988
v -0.745184 0.00708088 -2.31406
v -0.75 0 2.57688
v -0.75 0.6 2.57688
v -0.75 0.6 -2.42083
v -0.745184 0.00708088 -2.31406
v 0.75 0 -2.42312
v 0.75 0 2.57688
v -0.745184 0.00708088 -2.31406
v 0.75 0 2.57688
v -0.75 0 2.57688
vt 1.631091 0.123716 0
vt 1.852308 0.123716 0
vt 1.851598 0.876851 0
vt 1.631091 0.860767 0
vt 1.631091 0.455757 0
vt 1.852308 0.455757 0
vt 1.852308 0.544243 0
vt 1.631091 0.544243 0
vt 1.123716 0.455757 0
vt 1.861105 0.455757 0
vt 1.876851 0.543199 0
vt 1.123716 0.544243 0
vt 1.975056 0.989323 0
vt 1.676020 0.967512 0
vt 1.675056 0.988865 0
vt 1.974093 1.010677 0
vt 1.154979 0.456801 0
vt 1.876284 0.455757 0
vt 1.876284 0.544243 0
vt 1.139233 0.544243 0
vt 1.676020 0.967512 0
vt 1.975056 0.989323 0
vt 1.975056 -0.010677 0
vt 1.676020 0.967512 0
vt 1.975056 -0.010677 0
vt 1.675056 -0.010677 0
vn 0.00236781 0.999885 -0.000693169
vn 0 0.999821 -0.00138634
vn 0.00236781 0.999885 -0.000693169
vn 0.00473562 0.99995 -0
vn 0 0 0.999951
vn 0 0 0.999951
vn 0 0 0.999951
vn 0 0 0.999951
vn 1.00018 0.00406121 -0.000471732
vn 1.00021 0.0081244 -0
vn 1.00018 0.00406121 -0.000471732
vn 0.999914 0 -0.000943004
vn -0.0724118 -0.177286 -0.981261
vn -0.0724116 -0.177285 -0.981261
vn -0.0724118 -0.177286 -0.981261
vn -0.0724119 -0.177286 -0.981261
vn -1.00014 -0.00406165 -0.000492473
vn -1.00022 0 -0.000984946
vn -1.00014 -0.00406165 -0.000492473
vn -1.00005 -0.0081233 -0
vn -0.0047368 -1.00021 -0
vn -0.0047368 -1.00021 -0
vn -0.0047368 -1.00021 -0
vn 0 -1.00013 -0.00144795
vn 0 -1.00013 -0.00144795
vn 0 -1.00013 -0.00144795
g P_Modul_29_Platte06
usemtl P_Modul_29
f 2/2/2 3/3/3 1/1/1
f 4/4/4 1/1/1 3/3/3
f 6/6/6 7/7/7 5/5/5
f 8/8/8 5/5/5 7/7/7
f 10/10/10 11/11/11 9/9/9
f 12/12/12 9/9/9 11/11/11
f 14/14/14 15/15/15 13/13/13
f 16/16/16 13/13/13 15/15/15
f 18/18/18 19/19/19 17/17/17
f 20/20/20 17/17/17 19/19/19
f 22/22/22 23/23/23 21/21/21
f 25/25/25 26/26/26 24/24/24
