mtllib E:\Programming\GameProjects\Ballance\ResourceFactory\P_Modul_29_Platte09.mtl
v -0.75 0.6 2.5
v 0.75 0.6 2.5
v 0.75 0.6 -2.5
v -0.509805 0.6 -2.50189
v -0.75 0 2.5
v 0.75 0 2.5
v 0.75 0.6 2.5
v -0.75 0.6 2.5
v 0.75 0 2.5
v 0.75 0 -2.5
v 0.75 0.6 -2.5
v 0.75 0.6 2.5
v 0.75 0 -2.5
v -0.75 0 -2.5
v -0.509805 0.6 -2.50189
v 0.75 0.6 -2.5
v -0.75 0 -2.5
v -0.75 0 2.5
v -0.75 0.6 2.5
v -0.509805 0.6 -2.50189
v -0.75 0 -2.5
v 0.75 0 -2.5
v 0.75 0 2.5
v -0.75 0 2.5
vt 2.356190 0.135055 0
vt 2.577407 0.135055 0
vt 2.577407 0.872443 0
vt 2.391614 0.872722 0
vt 2.356190 0.455757 0
vt 2.577407 0.455757 0
vt 2.577407 0.544243 0
vt 2.356190 0.544243 0
vt 1.135055 0.455757 0
vt 1.872443 0.455757 0
vt 1.872443 0.544243 0
vt 1.135055 0.544243 0
vt 0.422593 0.455757 0
vt 0.643810 0.455757 0
vt 0.608386 0.544243 0
vt 0.422593 0.544243 0
vt 1.127557 0.455757 0
vt 1.864945 0.455757 0
vt 1.864945 0.544243 0
vt 1.127278 0.544243 0
vt 1.122616 1.136804 0
vt 1.422616 1.136804 0
vt 1.422616 0.136804 0
vt 1.122616 0.136804 0
vn 0 0.999888 -0
vn 0 0.999969 -0
vn 0 0.999888 -0
vn 0 0.999807 -0
vn 0 0 0.999951
vn 0 0 0.999951
vn 0 0 0.999951
vn 0 0 0.999951
vn 1.00006 0 -0
vn 1.00006 0 -0
vn 1.00006 0 -0
vn 1.00006 0 -0
vn 0.00075008 -0.00157547 -0.999777
vn 0 -0.00315094 -0.999951
vn 0.00075008 -0.00157547 -0.999777
vn 0.00150089 0 -1.00009
vn -0.981743 0.189006 -0.0226808
vn -1.00006 0 -0
vn -0.981743 0.189006 -0.0226808
vn -0.92764 0.371217 -0.0445461
vn 0 -0.999969 -0
vn 0 -0.999969 -0
vn 0 -0.999969 -0
vn 0 -0.999969 -0
g P_Modul_29_Platte09
usemtl P_Modul_29
f 2/2/2 3/3/3 1/1/1
f 4/4/4 1/1/1 3/3/3
f 6/6/6 7/7/7 5/5/5
f 8/8/8 5/5/5 7/7/7
f 10/10/10 11/11/11 9/9/9
f 12/12/12 9/9/9 11/11/11
f 14/14/14 15/15/15 13/13/13
f 16/16/16 13/13/13 15/15/15
f 18/18/18 19/19/19 17/17/17
f 20/20/20 17/17/17 19/19/19
f 22/22/22 23/23/23 21/21/21
f 23/23/23 24/24/24 21/21/21
