mtllib E:\Programming\GameProjects\Ballance\ResourceFactory\P_Modul_29_Platte08.mtl
v -0.707547 0.583019 2.41137
v 0.707547 0.583019 2.41137
v 0.707547 0.583019 -2.41468
v -0.707547 0.583019 -2.41468
v -0.707547 0.0169812 2.41137
v 0.707547 0.0169812 2.41137
v 0.707547 0.583019 2.41137
v -0.707547 0.583019 2.41137
v 0.707547 0.0169812 2.41137
v 0.707547 0.0169812 -2.41468
v 0.707547 0.583019 -2.41468
v 0.707547 0.583019 2.41137
v 0.707547 0.0169812 -2.41468
v -0.707547 0.0169812 -2.41468
v -0.707547 0.583019 -2.41468
v 0.707547 0.583019 -2.41468
v -0.707547 0.0169812 -2.41468
v -0.707547 0.0169812 2.41137
v -0.707547 0.583019 2.41137
v -0.707547 0.583019 -2.41468
v -0.707547 0.0169812 -2.41468
v 0.707547 0.0169812 -2.41468
v 0.707547 0.0169812 2.41137
v -0.707547 0.0169812 2.41137
vt 2.120751 0.148126 0
vt 2.329446 0.148126 0
vt 2.329447 0.859861 0
vt 2.120752 0.859861 0
vt 2.120751 0.458261 0
vt 2.329446 0.458261 0
vt 2.329446 0.541739 0
vt 2.120751 0.541739 0
vt 1.148126 0.458261 0
vt 1.859861 0.458261 0
vt 1.859861 0.541739 0
vt 1.148126 0.541739 0
vt 0.670554 0.458261 0
vt 0.879248 0.458261 0
vt 0.879248 0.541739 0
vt 0.670554 0.541739 0
vt 1.140139 0.458261 0
vt 1.851874 0.458261 0
vt 1.851874 0.541739 0
vt 1.140139 0.541739 0
vt 1.358491 0.982605 0
vt 1.641510 0.982605 0
vt 1.641509 0.017395 0
vt 1.358490 0.017395 0
vn 0 1.00022 -0
vn 0 1.00022 -0
vn 0 1.00022 -0
vn 0 1.00022 -0
vn 0 0 1.00002
vn 0 0 1.00002
vn 0 0 1.00002
vn 0 0 1.00002
vn 1.00013 0 -0
vn 1.00013 0 -0
vn 1.00013 0 -0
vn 1.00013 0 -0
vn 0 0 -1.00002
vn 0 0 -1.00002
vn 0 0 -1.00002
vn 0 0 -1.00002
vn -1.00013 0 -0
vn -1.00013 0 -0
vn -1.00013 0 -0
vn -1.00013 0 -0
vn 0 -1.00022 -0
vn 0 -1.00022 -0
vn 0 -1.00022 -0
vn 0 -1.00022 -0
g P_Modul_29_Platte08
usemtl P_Modul_29
f 2/2/2 3/3/3 1/1/1
f 4/4/4 1/1/1 3/3/3
f 6/6/6 7/7/7 5/5/5
f 8/8/8 5/5/5 7/7/7
f 10/10/10 11/11/11 9/9/9
f 12/12/12 9/9/9 11/11/11
f 14/14/14 15/15/15 13/13/13
f 16/16/16 13/13/13 15/15/15
f 18/18/18 19/19/19 17/17/17
f 20/20/20 17/17/17 19/19/19
f 22/22/22 23/23/23 21/21/21
f 23/23/23 24/24/24 21/21/21
