mtllib E:\Programming\GameProjects\Ballance\ResourceFactory\P_Modul_29_Platte02.mtl
v -0.735653 0.587737 2.24728
v 0.699417 0.6 2.41401
v 0.699417 0.6 -2.5
v -0.75 0.6 -2.5
v -0.75 0 2.41401
v 0.68507 0.0122629 2.58073
v 0.699417 0.6 2.41401
v -0.735653 0.587737 2.24728
v 0.68507 0.0122629 2.58073
v 0.699417 0 -2.5
v 0.699417 0.6 -2.5
v 0.699417 0.6 2.41401
v 0.699417 0 -2.5
v -0.75 0 -2.5
v -0.75 0.6 -2.5
v 0.699417 0.6 -2.5
v -0.75 0 -2.5
v -0.75 0 2.41401
v -0.735653 0.587737 2.24728
v -0.75 0.6 -2.5
v -0.75 0 -2.5
v 0.699417 0 -2.5
v 0.68507 0.0122629 2.58073
v -0.75 0 -2.5
v 0.68507 0.0122629 2.58073
v -0.75 0 2.41401
vt 0.666409 0.172325 0
vt 0.878049 0.147737 0
vt 0.878050 0.872444 0
vt 0.664293 0.872444 0
vt 0.664293 0.455757 0
vt 0.875933 0.457565 0
vt 0.878049 0.544243 0
vt 0.666409 0.542435 0
vt 1.123149 0.457565 0
vt 1.872444 0.455757 0
vt 1.872444 0.544243 0
vt 1.147737 0.544243 0
vt 2.121950 0.455757 0
vt 2.335707 0.455757 0
vt 2.335707 0.544243 0
vt 2.121950 0.544243 0
vt 1.127556 0.455757 0
vt 1.852263 0.455757 0
vt 1.827675 0.542435 0
vt 1.127556 0.544243 0
vt 1.173580 1.008073 0
vt 1.463463 1.008073 0
vt 1.460594 -0.008073 0
vt 1.173580 1.008073 0
vt 1.460594 -0.008073 0
vt 1.173580 0.025272 0
vn -0.00427303 1.00015 0.00129182
vn -0.00854605 1.0001 -0
vn -0.00427303 1.00015 0.00129182
vn 0 1.00019 0.00258365
vn -0.113323 0.273754 0.955291
vn -0.113323 0.273754 0.955291
vn -0.113323 0.273754 0.955291
vn -0.113323 0.273754 0.955291
vn 1.00012 -0.0122046 0.0014124
vn 0.999838 0 0.00282341
vn 1.00012 -0.0122046 0.0014124
vn 0.999918 -0.0244091 -0
vn 0 0 -0.999981
vn 0 0 -0.999981
vn 0 0 -0.999981
vn 0 0 -0.999981
vn -1.00008 0.0122046 0.00151147
vn -0.999918 0.0244092 -0
vn -1.00008 0.0122046 0.00151147
vn -1.00023 0 0.00302293
vn 0 -0.999824 0.00241318
vn 0 -0.999824 0.00241318
vn 0 -0.999824 0.00241318
vn 0.00854601 -1.0001 -0
vn 0.00854601 -1.0001 -0
vn 0.00854601 -1.0001 -0
g P_Modul_29_Platte02
usemtl P_Modul_29
f 2/2/2 3/3/3 1/1/1
f 4/4/4 1/1/1 3/3/3
f 6/6/6 7/7/7 5/5/5
f 8/8/8 5/5/5 7/7/7
f 10/10/10 11/11/11 9/9/9
f 12/12/12 9/9/9 11/11/11
f 14/14/14 15/15/15 13/13/13
f 16/16/16 13/13/13 15/15/15
f 18/18/18 19/19/19 17/17/17
f 20/20/20 17/17/17 19/19/19
f 22/22/22 23/23/23 21/21/21
f 25/25/25 26/26/26 24/24/24
