mtllib E:\Programming\GameProjects\Ballance\ResourceFactory\P_Modul_19_Col4_Mesh.mtl
v 0.000684825 0.000357162 -0.293656
v 1.16544 2.49818 -0.293656
v 2.74625 0.240563 -0.293656
v 0.000684825 0.000357162 -0.293656
v -1.58012 2.25798 -0.293656
v 1.16544 2.49818 -0.293656
v 0.000684825 0.000357162 -0.293656
v -2.74488 -0.239848 -0.293656
v -1.58012 2.25798 -0.293656
v 0.000684825 0.000357162 -0.293656
v -1.16407 -2.49747 -0.293656
v -2.74488 -0.239848 -0.293656
v 1.58149 -2.25726 -0.293656
v 0.000684825 0.000357162 -0.293656
v 2.74625 0.240563 -0.293656
v 1.58149 -2.25726 -0.293656
v 2.74625 0.240563 -0.293656
v 1.16544 2.49818 0.272585
v 2.74625 0.240563 0.272586
v 2.74625 0.240563 -0.293656
v 1.16544 2.49818 -0.293656
v 1.16544 2.49818 0.272585
v 1.16544 2.49818 -0.293656
v -1.58012 2.25798 0.272585
v 1.16544 2.49818 0.272585
v -1.58012 2.25798 -0.293656
v -1.58012 2.25798 -0.293656
v -2.74488 -0.239848 0.272586
v -1.58012 2.25798 0.272585
v -1.58012 2.25798 -0.293656
v -2.74488 -0.239848 -0.293656
v -2.74488 -0.239848 0.272586
v -2.74488 -0.239848 -0.293656
v -1.16407 -2.49747 0.272586
v -2.74488 -0.239848 0.272586
v -2.74488 -0.239848 -0.293656
v -1.16407 -2.49747 -0.293656
v -1.16407 -2.49747 0.272586
v -1.16407 -2.49747 -0.293656
v 1.58149 -2.25726 0.272586
v -1.16407 -2.49747 0.272586
v -1.16407 -2.49747 -0.293656
v 1.58149 -2.25726 -0.293656
v 1.58149 -2.25726 0.272586
v 1.58149 -2.25726 -0.293656
v 2.74625 0.240563 0.272586
v 1.58149 -2.25726 0.272586
v 1.58149 -2.25726 -0.293656
v 2.74625 0.240563 -0.293656
v 2.74625 0.240563 0.272586
v 0.000684819 0.000357246 0.272586
v 2.74625 0.240563 0.272586
v 1.16544 2.49818 0.272585
v 0.000684819 0.000357246 0.272586
v 1.16544 2.49818 0.272585
v -1.58012 2.25798 0.272585
v -2.74488 -0.239848 0.272586
v 0.000684819 0.000357246 0.272586
v -2.74488 -0.239848 0.272586
v -1.16407 -2.49747 0.272586
v 0.000684819 0.000357246 0.272586
v -1.16407 -2.49747 0.272586
v 1.58149 -2.25726 0.272586
v 0.000684819 0.000357246 0.272586
v 1.58149 -2.25726 0.272586
v 2.74625 0.240563 0.272586
vt 0.000000 -0.000000 0
vt 0.000000 -0.000000 0
vt 0.000000 -0.000000 0
vt 0.000000 -0.000000 0
vt 0.000000 -0.000000 0
vt 0.000000 -0.000000 0
vt 0.000000 -0.000000 0
vt 0.000000 -0.000000 0
vt 0.000000 -0.000000 0
vt 0.000000 -0.000000 0
vt 0.000000 -0.000000 0
vt 0.000000 -0.000000 0
vt 0.000000 -0.000000 0
vt 0.000000 -0.000000 0
vt 0.000000 -0.000000 0
vt 0.000000 -0.000000 0
vt 0.000000 -0.000000 0
vt 0.000000 -0.000000 0
vt 0.000000 -0.000000 0
vt 0.000000 -0.000000 0
vt 0.000000 -0.000000 0
vt 0.000000 -0.000000 0
vt 0.000000 -0.000000 0
vt 0.000000 -0.000000 0
vt 0.000000 -0.000000 0
vt 0.000000 -0.000000 0
vt 0.000000 -0.000000 0
vt 0.000000 -0.000000 0
vt 0.000000 -0.000000 0
vt 0.000000 -0.000000 0
vt 0.000000 -0.000000 0
vt 0.000000 -0.000000 0
vt 0.000000 -0.000000 0
vt 0.000000 -0.000000 0
vt 0.000000 -0.000000 0
vt 0.000000 -0.000000 0
vt 0.000000 -0.000000 0
vt 0.000000 -0.000000 0
vt 0.000000 -0.000000 0
vt 0.000000 -0.000000 0
vt 0.000000 -0.000000 0
vt 0.000000 -0.000000 0
vt 0.000000 -0.000000 0
vt 0.000000 -0.000000 0
vt 0.000000 -0.000000 0
vt 0.000000 -0.000000 0
vt 0.000000 -0.000000 0
vt 0.000000 -0.000000 0
vt 0.000000 -0.000000 0
vt 0.000000 -0.000000 0
vt 0.000000 -0.000000 0
vt 0.000000 -0.000000 0
vt 0.000000 -0.000000 0
vt 0.000000 -0.000000 0
vt 0.000000 -0.000000 0
vt 0.000000 -0.000000 0
vt 0.000000 -0.000000 0
vt 0.000000 -0.000000 0
vt 0.000000 -0.000000 0
vt 0.000000 -0.000000 0
vt 0.000000 -0.000000 0
vt 0.000000 -0.000000 0
vt 0.000000 -0.000000 0
vt 0.000000 -0.000000 0
vt 0.000000 -0.000000 0
vt 0.000000 -0.000000 0
vn 0 -1.99758e-007 -0.99989
vn 0 -1.99758e-007 -0.99989
vn 0 -1.99758e-007 -0.99989
vn 1.72806e-014 -1.99758e-007 -0.99989
vn 1.72806e-014 -1.99758e-007 -0.99989
vn 1.72806e-014 -1.99758e-007 -0.99989
vn 1.74641e-014 -1.99758e-007 -0.99989
vn 1.74641e-014 -1.99758e-007 -0.99989
vn 1.74641e-014 -1.99758e-007 -0.99989
vn 1.73723e-014 -1.99758e-007 -0.99989
vn 1.73723e-014 -1.99758e-007 -0.99989
vn 1.74641e-014 -1.99758e-007 -0.99989
vn 1.72806e-014 -1.99758e-007 -0.99989
vn 0 -1.99758e-007 -0.99989
vn 0 -1.99758e-007 -0.99989
vn 0 -1.99758e-007 -0.99989
vn 0.865931 0.499945 -1.28738e-007
vn 0.865931 0.499945 -1.28738e-007
vn 0.865931 0.499945 -1.28738e-007
vn 0.865931 0.499945 -0
vn 0.865931 0.499945 -0
vn 0.865931 0.499945 -0
vn -8.64979e-008 0.99989 -0
vn -8.64979e-008 0.99989 -0
vn -8.64979e-008 0.99989 -0
vn -8.64979e-008 0.99989 -0
vn -0.865931 0.499945 -0
vn -0.865931 0.499945 -0
vn -0.865931 0.499945 -0
vn -0.865931 0.499945 -0
vn -0.865931 0.499945 -0
vn -0.865931 0.499945 -0
vn -0.865931 -0.499945 1.28738e-007
vn -0.865931 -0.499945 1.28738e-007
vn -0.865931 -0.499945 1.28738e-007
vn -0.865931 -0.499945 -0
vn -0.865931 -0.499945 -0
vn -0.865931 -0.499945 -0
vn 1.72996e-007 -0.99989 -0
vn 1.72996e-007 -0.99989 -0
vn 1.72996e-007 -0.99989 -0
vn 8.64979e-008 -0.99989 4.21008e-007
vn 8.64979e-008 -0.99989 4.21008e-007
vn 8.64979e-008 -0.99989 4.21008e-007
vn 0.865931 -0.499945 2.10504e-007
vn 0.865931 -0.499945 2.10504e-007
vn 0.865931 -0.499945 2.10504e-007
vn 0.865931 -0.499945 -0
vn 0.865931 -0.499945 -0
vn 0.865931 -0.499945 -0
vn 0 1.99758e-007 0.99989
vn 0 1.99758e-007 0.99989
vn 0 1.99758e-007 0.99989
vn -1.73723e-014 1.99758e-007 0.99989
vn -1.72806e-014 1.99758e-007 0.99989
vn -1.73723e-014 1.99758e-007 0.99989
vn -1.74641e-014 1.99758e-007 0.99989
vn -1.74641e-014 1.99758e-007 0.99989
vn -1.74641e-014 1.99758e-007 0.99989
vn -1.74641e-014 1.99758e-007 0.99989
vn -3.45611e-014 1.99758e-007 0.99989
vn -3.45611e-014 1.99758e-007 0.99989
vn -3.45611e-014 1.99758e-007 0.99989
vn 0 1.99758e-007 0.99989
vn 0 1.99758e-007 0.99989
vn 0 1.99758e-007 0.99989
g P_Modul_19_Col4_Mesh
f 2/2/2 3/3/3 1/1/1
f 5/5/5 6/6/6 4/4/4
f 8/8/8 9/9/9 7/7/7
f 11/11/11 12/12/12 10/10/10
f 13/13/13 11/11/11 10/10/10
f 15/15/15 16/16/16 14/14/14
f 18/18/18 19/19/19 17/17/17
f 21/21/21 22/22/22 20/20/20
f 24/24/24 25/25/25 23/23/23
f 26/26/26 24/24/24 23/23/23
f 28/28/28 29/29/29 27/27/27
f 31/31/31 32/32/32 30/30/30
f 34/34/34 35/35/35 33/33/33
f 37/37/37 38/38/38 36/36/36
f 40/40/40 41/41/41 39/39/39
f 43/43/43 44/44/44 42/42/42
f 46/46/46 47/47/47 45/45/45
f 49/49/49 50/50/50 48/48/48
f 52/52/52 53/53/53 51/51/51
f 55/55/55 56/56/56 54/54/54
f 56/56/56 57/57/57 54/54/54
f 59/59/59 60/60/60 58/58/58
f 62/62/62 63/63/63 61/61/61
f 65/65/65 66/66/66 64/64/64
