mtllib E:\Programming\GameProjects\Ballance\ResourceFactory\P_Modul_01_Col03_Mesh.mtl
v -2.47009 1.59042 0.313344
v -2.47009 1.59042 -0.313344
v 2.45343 1.59042 -0.313344
v 2.45343 1.59042 0.313344
v -3.57781 5.93845 0.313344
v 3.45722 5.93845 0.313344
v 3.45722 5.93845 -0.313344
v -3.57781 5.93845 -0.313344
v -2.47009 1.59042 0.313344
v 2.45343 1.59042 0.313344
v 3.45722 5.93845 0.313344
v -3.57781 5.93845 0.313344
v 2.45343 1.59042 0.313344
v 2.45343 1.59042 -0.313344
v 3.45722 5.93845 -0.313344
v 3.45722 5.93845 0.313344
v 2.45343 1.59042 -0.313344
v -2.47009 1.59042 -0.313344
v -3.57781 5.93845 -0.313344
v 3.45722 5.93845 -0.313344
v -2.47009 1.59042 -0.313344
v -2.47009 1.59042 0.313344
v -3.57781 5.93845 0.313344
v -3.57781 5.93845 -0.313344
vt 0.000000 -0.000000 0
vt 0.000000 -0.000000 0
vt 0.000000 -0.000000 0
vt 0.000000 -0.000000 0
vt 0.000000 -0.000000 0
vt 0.000000 -0.000000 0
vt 0.000000 -0.000000 0
vt 0.000000 -0.000000 0
vt 0.000000 -0.000000 0
vt 0.000000 -0.000000 0
vt 0.000000 -0.000000 0
vt 0.000000 -0.000000 0
vt 0.000000 -0.000000 0
vt 0.000000 -0.000000 0
vt 0.000000 -0.000000 0
vt 0.000000 -0.000000 0
vt 0.000000 -0.000000 0
vt 0.000000 -0.000000 0
vt 0.000000 -0.000000 0
vt 0.000000 -0.000000 0
vt 0.000000 -0.000000 0
vt 0.000000 -0.000000 0
vt 0.000000 -0.000000 0
vt 0.000000 -0.000000 0
vn 0 -0.999759 -0
vn 0 -0.999759 -0
vn 0 -0.999759 -0
vn 0 -0.999759 -0
vn 0 0.999963 -0
vn 0 0.999963 -0
vn 0 0.999963 -0
vn 0 0.999963 -0
vn 0 0 1.00019
vn 0 0 1.00013
vn 0 0 1.00019
vn 0 0 1.00024
vn 0.974495 -0.224972 -0
vn 0.974495 -0.224972 -0
vn 0.974495 -0.224972 -0
vn 0.974495 -0.224972 -0
vn 0 0 -1.00019
vn 0 0 -1.00013
vn 0 0 -1.00019
vn 0 0 -1.00024
vn -0.969171 -0.246911 -0
vn -0.969171 -0.246911 -0
vn -0.969171 -0.246911 -0
vn -0.969171 -0.246911 -0
g P_Modul_01_Col03_Mesh
f 2/2/2 3/3/3 1/1/1
f 4/4/4 1/1/1 3/3/3
f 6/6/6 7/7/7 5/5/5
f 8/8/8 5/5/5 7/7/7
f 10/10/10 11/11/11 9/9/9
f 12/12/12 9/9/9 11/11/11
f 14/14/14 15/15/15 13/13/13
f 16/16/16 13/13/13 15/15/15
f 18/18/18 19/19/19 17/17/17
f 20/20/20 17/17/17 19/19/19
f 22/22/22 23/23/23 21/21/21
f 24/24/24 21/21/21 23/23/23
