mtllib P_Modul_26_Sack.mtl
v 0.181391 1.86596 -0.388783
v 0.8524 1.52585 0.0909614
v 0.32 1.59752 -0.748269
v 0.8524 1.52585 0.0909614
v 1.18053 0.970586 0.0909615
v 0.668077 0.970586 -1.17833
v 0.32 1.59752 -0.748269
v -0.32 1.59752 -0.748269
v -0.717564 0.970586 -1.17833
v -1.18053 0.970586 0.0909616
v -0.6524 1.52585 0.0909615
v -0.69282 0.970586 1.19096
v -0.32 1.58175 0.930192
v 0.32 1.59752 0.930192
v 0.69282 0.970586 1.19096
v -0.824744 -0.0294137 -1.41038
v -1.3941 -0.0294137 0.0909616
v -0.8 -0.0294137 1.42301
v 1.3941 -0.0294137 0.0909615
v 1.3941 -1.02941 0.0909615
v 0.775256 -1.02941 -1.41038
v 0.775256 -0.0294137 -1.41038
v -1.3941 -1.02941 0.0909616
v -0.8 -1.02941 1.42301
v 0.8 -0.0294137 1.42301
v 0.8 -1.02941 1.42301
v 1.24248 -2.02941 0.0909615
v 0.71147 -2.02368 -1.2847
v 0.937699 -2.53018 0.0909615
v 0 -2.8631 -1.94664
v -1.04248 -2.02941 0.0909616
v -0.824169 -2.53018 0.0909615
v 0 -2.8631 1.94664
v -0.554256 -2.02941 1.43858
v 0.937699 -2.53018 0.0909615
v 3.95841e-015 -2.97485 0.0909615
v 0 -2.8631 -1.94664
v -0.824169 -2.53018 0.0909615
v 0 -2.8631 1.94664
v -0.192676 1.83381 -0.349982
v -0.32 1.59752 -0.748269
v -0.6524 1.52585 0.0909615
v -0.824744 -1.02941 -1.41038
v -0.559205 -2.02941 -1.47696
v 1.18053 0.970586 0.0909615
v 1.3941 -0.0294137 0.0909615
v 0.775256 -0.0294137 -1.41038
v 0.668077 0.970586 -1.17833
v 0.0150292 1.98052 -0.342338
v 0.0466736 2.02691 -0.299311
v 0.109899 2.05766 -0.350724
v 0.100762 1.90669 -0.405557
v 0.165481 1.95621 -0.34352
v 0.0595032 1.90886 -0.395503
v -0.624684 2.66926 -0.978855
v -0.343574 3.09195 -0.812119
v 0.0466736 2.02691 -0.299311
v 0.0150292 1.98052 -0.342338
v 0.0947534 3.01685 -0.900367
v 0.109899 2.05766 -0.350724
v 0.507034 2.48672 -1.23133
v 0.165481 1.95621 -0.34352
v 0.507034 2.48672 -1.23133
v 0.109169 2.15738 -1.57823
v 0.100762 1.90669 -0.405557
v 0.165481 1.95621 -0.34352
v -0.344628 2.22089 -1.51652
v 0.0595032 1.90886 -0.395503
v -0.624684 2.66926 -0.978855
v 0.0150292 1.98052 -0.342338
v 0.478174 1.84258 0.0921558
v -0.0670739 1.91774 0.00142109
v -0.343574 3.09195 -0.812119
v -0.216873 1.86952 -0.232853
v -0.624684 2.66926 -0.978855
v -0.216873 1.86952 -0.232853
v -0.624684 2.66926 -0.978855
v -0.344628 2.22089 -1.51652
v -0.0778352 1.91745 -0.456819
v 0.0947534 3.01685 -0.900367
v 0.044111 1.93325 0.0140342
v 0.507034 2.48672 -1.23133
v 0.176518 1.9207 -0.119556
v 0.109169 2.15738 -1.57823
v 0.507034 2.48672 -1.23133
v 0.114185 1.92992 -0.436545
v 0.176518 1.9207 -0.119556
v -0.0110205 1.58936 1.13019
v -0.00221914 0.970586 1.59096
v -0.00221914 0.970586 1.59096
v -0.0110205 1.58936 1.13019
v -0.00238591 -0.0294137 1.82301
v -0.00238591 -0.0294137 1.82301
v -0.0113642 -1.02941 1.82301
v -0.0113642 -1.02941 1.82301
v -0.011144 -2.02941 1.77091
v 0 -2.8631 1.94664
v 0.554256 -2.02941 1.43858
v -0.011144 -2.02941 1.77091
v 0.32 1.59752 0.930192
v 0.118475 1.91893 0.36605
v -0.32 1.58175 0.930192
v -0.0110205 1.58936 1.13019
v -0.191895 1.83447 0.530704
v 0.0257596 1.59752 -0.948269
v -0.00239807 0.970586 -1.57833
v -0.00239807 0.970586 -1.57833
v 0.0257596 1.59752 -0.948269
v -0.00274104 -0.0294137 -1.81038
v -0.00274104 -0.0294137 -1.81038
v 0.0257596 1.59752 -0.948269
v -0.0392427 -1.02941 -1.81038
v 0.0989235 -2.02349 -1.70687
v -0.0392427 -1.02941 -1.81038
v 0.0989235 -2.02349 -1.70687
v 0 -2.8631 -1.94664
v 3.95841e-015 -2.97485 0.0909615
v 0.937699 -2.53018 0.0909615
v 0 -2.8631 1.94664
v -0.192676 1.83381 -0.349982
v -0.0778352 1.91745 -0.456819
v 0.181391 1.86596 -0.388783
v 0.114185 1.92992 -0.436545
v -0.0670739 1.91774 0.00142109
v -0.216873 1.86952 -0.232853
v -0.413381 1.78567 0.0910899
v -0.0778352 1.91745 -0.456819
v -0.216873 1.86952 -0.232853
v -0.413381 1.78567 0.0910899
v 0.044111 1.93325 0.0140342
v 0.176518 1.9207 -0.119556
v 0.114185 1.92992 -0.436545
v -0.0778352 1.91745 -0.456819
vt 1.852075 0.075901 0
vt 1.690309 0.036347 0
vt 1.893826 0.016484 0
vt 1.880222 0.625021 0
vt 1.773987 0.619411 0
vt 1.800170 0.456832 0
vt 1.915068 0.519558 0
vt 1.853347 0.715338 0
vt 1.746441 0.776724 0
vt 1.742000 0.590195 0
vt 1.838945 0.591734 0
vt 1.760378 0.426941 0
vt 1.860404 0.467504 0
vt 1.877844 0.709007 0
vt 1.774858 0.768366 0
vt 1.591647 0.806685 0
vt 1.585850 0.586094 0
vt 1.608193 0.388394 0
vt 1.592207 0.612572 0
vt 1.415827 0.607581 0
vt 1.447117 0.415389 0
vt 1.623497 0.420381 0
vt 1.435040 0.581608 0
vt 1.457384 0.383908 0
vt 1.593350 0.792980 0
vt 1.416970 0.787989 0
vt 1.243281 0.603901 0
vt 1.272052 0.427514 0
vt 1.162662 0.604037 0
vt 1.148879 0.342381 0
vt 1.293023 0.576488 0
vt 1.222962 0.573848 0
vt 1.203793 0.296945 0
vt 1.312806 0.376681 0
vt 1.172377 0.541135 0
vt 1.097392 0.536843 0
vt 1.103923 0.875232 0
vt 1.149468 0.536160 0
vt 1.121595 0.229455 0
vt 1.902996 0.147058 0
vt 1.933986 0.171086 0
vt 1.914662 0.297625 0
vt 1.440837 0.802199 0
vt 1.296293 0.807062 0
vt 1.669876 0.554766 0
vt 1.531443 0.551671 0
vt 1.516582 0.798950 0
vt 1.657451 0.763855 0
vt 1.149793 0.830224 0
vt 1.134237 0.872832 0
vt 1.083846 0.876689 0
vt 1.082377 0.773809 0
vt 1.046913 0.826981 0
vt 1.111958 0.775541 0
vt 1.419011 0.083679 0
vt 1.407943 0.130979 0
vt 1.307633 0.024715 0
vt 1.309005 0.020677 0
vt 1.354209 0.151187 0
vt 1.302106 0.033485 0
vt 1.280920 0.138135 0
vt 1.290558 0.026348 0
vt 1.478865 0.778309 0
vt 1.515438 0.807585 0
vt 1.391613 0.847528 0
vt 1.385037 0.842932 0
vt 1.515334 0.860035 0
vt 1.391102 0.852426 0
vt 1.468739 0.912716 0
vt 1.387029 0.859674 0
vt 1.736138 0.102633 0
vt 1.454344 0.867402 0
vt 1.645241 0.855506 0
vt 1.472239 0.887749 0
vt 1.625806 0.910176 0
vt 1.205397 0.804163 0
vt 1.323748 0.727865 0
vt 1.377742 0.759452 0
vt 1.233964 0.822858 0
vt 1.621741 0.787518 0
vt 1.449677 0.849719 0
vt 1.567962 0.733766 0
vt 1.450763 0.826691 0
vt 1.380620 0.832507 0
vt 1.342733 0.907838 0
vt 1.230370 0.855034 0
vt 1.189652 0.871762 0
vt 1.870402 0.437458 0
vt 1.788264 0.824593 0
vt 1.779895 0.366650 0
vt 1.872823 0.767130 0
vt 1.644994 0.859797 0
vt 1.630386 0.327910 0
vt 1.479352 0.323440 0
vt 1.437264 0.852468 0
vt 1.328255 0.326644 0
vt 1.112262 0.888469 0
vt 1.246641 0.787170 0
vt 1.261421 0.847866 0
vt 1.615460 0.217440 0
vt 1.746170 0.209973 0
vt 1.737021 0.376816 0
vt 1.625084 0.292973 0
vt 1.770262 0.290387 0
vt 1.864815 0.782884 0
vt 1.762074 0.834480 0
vt 1.821290 0.409999 0
vt 1.924592 0.495787 0
vt 1.647336 0.374478 0
vt 1.615872 0.854586 0
vt 1.940178 0.027747 0
vt 1.452309 0.845335 0
vt 1.310376 0.837425 0
vt 1.471879 0.369802 0
vt 1.291971 0.377264 0
vt 1.185854 0.861982 0
vt 1.336048 0.074728 0
vt 1.336546 0.165477 0
vt 1.635608 0.088625 0
vt 1.902996 0.147058 0
vt 1.899376 0.110009 0
vt 1.852075 0.075901 0
vt 1.867310 0.080015 0
vt 1.828770 0.182788 0
vt 1.887866 0.170465 0
vt 1.870980 0.257059 0
vt 1.252092 0.885185 0
vt 1.288192 0.876941 0
vt 1.340394 0.862671 0
vt 1.809815 0.165592 0
vt 1.810575 0.120797 0
vt 1.867310 0.080015 0
vt 1.899376 0.110009 0
vn 0.425251 0.828541 -0.364254
vn 0.759437 0.638261 -0.12601
vn 0.539577 0.684193 -0.49065
vn 0.759437 0.638261 -0.12601
vn 0.940554 0.334743 -0.0574844
vn 0.706901 0.394511 -0.587071
vn 0.539577 0.684193 -0.49065
vn -0.597464 0.699775 -0.391602
vn -0.688206 0.400556 -0.60492
vn -0.929384 0.368795 -0.0153258
vn -0.731763 0.674168 0.100106
vn -0.716454 0.448564 0.534307
vn -0.656793 0.659832 0.365026
vn 0.603792 0.638203 0.477632
vn 0.742458 0.315581 0.590902
vn -0.860162 0.104389 -0.499224
vn -0.992128 0.0857801 0.0912326
vn -0.773805 0.14089 0.617557
vn 0.99469 0.100598 -0.0217295
vn 0.99757 -0.069648 0.00194175
vn 0.78183 -0.0410673 -0.622137
vn 0.830535 0.130837 -0.54138
vn -0.988195 -0.15316 -0.00367239
vn -0.760538 -0.0590021 0.646607
vn 0.813783 0.0864822 0.574698
vn 0.768097 -0.0901495 0.633956
vn 0.937748 -0.332926 0.0989442
vn 0.85588 -0.179722 -0.484943
vn 0.605553 -0.795805 -0
vn 0.00181372 -0.894398 -0.447268
vn -0.931665 -0.358441 -0.0593368
vn -0.671791 -0.740741 -0
vn 5.24268e-008 -0.869282 0.494316
vn -0.845047 -0.243659 0.475948
vn 0.605553 -0.795805 -0
vn 0 -1 -0
vn 0.00181372 -0.894398 -0.447268
vn -0.671791 -0.740741 -0
vn 5.24268e-008 -0.869282 0.494316
vn -0.487428 0.807764 -0.331559
vn -0.597464 0.699775 -0.391602
vn -0.731763 0.674168 0.100106
vn -0.781626 -0.136984 -0.608519
vn -0.823725 -0.21734 -0.523679
vn 0.940554 0.334743 -0.0574844
vn 0.99469 0.100598 -0.0217295
vn 0.830535 0.130837 -0.54138
vn 0.706901 0.394511 -0.587071
vn 0.782609 0.597524 -0.174611
vn 0.559206 -0.163136 -0.812819
vn -0.31371 -0.453309 -0.834324
vn -0.663169 0.738699 0.120541
vn -0.843558 -0.222434 -0.488807
vn 0.277569 0.947827 0.156779
vn 0.825584 0.335313 -0.453846
vn 0.216812 -0.353283 -0.910046
vn 0.559206 -0.163136 -0.812819
vn 0.782609 0.597524 -0.174611
vn -0.628059 -0.402143 -0.6662
vn -0.31371 -0.453309 -0.834324
vn -0.945846 0.233358 -0.225652
vn -0.843558 -0.222434 -0.488807
vn -0.945846 0.233358 -0.225652
vn -0.331482 0.922885 0.195965
vn -0.663169 0.738699 0.120541
vn -0.843558 -0.222434 -0.488807
vn 0.598932 0.800785 0.00490689
vn 0.277569 0.947827 0.156779
vn 0.825584 0.335313 -0.453846
vn 0.782609 0.597524 -0.174611
vn 0.508457 0.852798 0.119193
vn -0.566711 0.705464 0.425627
vn -0.413088 0.450024 0.79173
vn -0.785181 0.300984 0.541201
vn -0.728658 0.230145 0.645051
vn -0.772512 -0.627857 -0.0949754
vn -0.871506 -0.488139 -0.0468792
vn -0.601228 -0.784822 -0.150263
vn -0.0818845 -0.962405 -0.258981
vn 0.632779 0.495741 0.594838
vn 0.277896 0.713814 0.64284
vn 0.82239 0.369498 0.432603
vn 0.768536 0.486587 0.415434
vn 0.308199 -0.929192 -0.204
vn 0.698139 -0.700926 -0.145963
vn 0.593769 -0.785926 -0.172506
vn 0.688407 -0.708355 -0.155977
vn -0.154528 0.734285 0.66102
vn -0.0783792 0.382024 0.920823
vn -0.0783792 0.382024 0.920823
vn -0.154528 0.734285 0.66102
vn 0.0722082 0.103878 0.991965
vn 0.0722082 0.103878 0.991965
vn 0.0878442 -0.0412943 0.995278
vn 0.0878442 -0.0412943 0.995278
vn -0.140352 0.0179011 0.98994
vn 5.24268e-008 -0.869282 0.494316
vn 0.736721 -0.154459 0.65832
vn -0.140352 0.0179011 0.98994
vn 0.603792 0.638203 0.477632
vn 0.159998 0.943405 0.290496
vn -0.656793 0.659832 0.365026
vn -0.154528 0.734285 0.66102
vn -0.426 0.863971 0.268473
vn -0.0194951 0.812068 -0.583238
vn -8.62403e-008 0.520533 -0.853842
vn -8.62403e-008 0.520533 -0.853842
vn -0.0194951 0.812068 -0.583238
vn -7.64843e-008 0.124881 -0.992172
vn -7.64843e-008 0.124881 -0.992172
vn -0.0194951 0.812068 -0.583238
vn -7.46267e-008 -0.0518362 -0.998656
vn 0.0886702 -0.000280929 -0.996061
vn -7.46267e-008 -0.0518362 -0.998656
vn 0.0886702 -0.000280929 -0.996061
vn 0.00181372 -0.894398 -0.447268
vn 0 -1 -0
vn 0.605553 -0.795805 -0
vn 5.24268e-008 -0.869282 0.494316
vn 0.00420823 -0.789604 -0.613602
vn -0.0818845 -0.962405 -0.258981
vn 0.0349995 -0.728211 -0.684459
vn 0.593769 -0.785926 -0.172506
vn -0.566711 0.705464 0.425627
vn -0.785181 0.300984 0.541201
vn -0.577061 0.816631 0.01068
vn 0.79705 0.252134 0.548762
vn 0.79705 0.252134 0.548762
vn 0.79705 0.252134 0.548762
vn 0.277896 0.713814 0.64284
vn 0.768536 0.486587 0.415434
vn 0.728857 0.673393 -0.123731
vn -0.737253 0.588564 -0.33174
g P_Modul_26_Sack
usemtl P_Modul_26_Sandsack
f 2/2/2 3/3/3 1/1/1
f 5/5/5 6/6/6 4/4/4
f 6/6/6 7/7/7 4/4/4
f 9/9/9 10/10/10 8/8/8
f 10/10/10 11/11/11 8/8/8
f 10/10/10 12/12/12 11/11/11
f 12/12/12 13/13/13 11/11/11
f 15/15/15 5/5/5 14/14/14
f 5/5/5 4/4/4 14/14/14
f 16/16/16 10/10/10 9/9/9
f 17/17/17 18/18/18 10/10/10
f 18/18/18 12/12/12 10/10/10
f 20/20/20 21/21/21 19/19/19
f 21/21/21 22/22/22 19/19/19
f 23/23/23 24/24/24 17/17/17
f 24/24/24 18/18/18 17/17/17
f 26/26/26 20/20/20 25/25/25
f 20/20/20 19/19/19 25/25/25
f 27/27/27 28/28/28 20/20/20
f 27/27/27 20/20/20 26/26/26
f 29/29/29 30/30/30 27/27/27
f 30/30/30 28/28/28 27/27/27
f 32/32/32 33/33/33 31/31/31
f 33/33/33 34/34/34 31/31/31
f 36/36/36 37/37/37 35/35/35
f 36/36/36 38/38/38 37/37/37
f 36/36/36 39/39/39 38/38/38
f 41/41/41 42/42/42 40/40/40
f 10/10/10 16/16/16 17/17/17
f 16/16/16 23/23/23 17/17/17
f 16/16/16 43/43/43 23/23/23
f 31/31/31 43/43/43 44/44/44
f 31/31/31 23/23/23 43/43/43
f 15/15/15 19/19/19 5/5/5
f 15/15/15 25/25/25 19/19/19
f 46/46/46 47/47/47 45/45/45
f 47/47/47 48/48/48 45/45/45
f 50/50/50 51/51/51 49/49/49
f 51/51/51 53/53/53 52/52/52
f 52/52/52 54/54/54 49/49/49
f 51/51/51 52/52/52 49/49/49
f 56/56/56 57/57/57 55/55/55
f 58/58/58 55/55/55 57/57/57
f 59/59/59 60/60/60 56/56/56
f 57/57/57 56/56/56 60/60/60
f 61/61/61 62/62/62 59/59/59
f 60/60/60 59/59/59 62/62/62
f 64/64/64 65/65/65 63/63/63
f 66/66/66 63/63/63 65/65/65
f 67/67/67 68/68/68 64/64/64
f 65/65/65 64/64/64 68/68/68
f 69/69/69 70/70/70 67/67/67
f 68/68/68 67/67/67 70/70/70
f 2/2/2 1/1/1 71/71/71
f 73/73/73 74/74/74 72/72/72
f 73/73/73 75/75/75 74/74/74
f 77/77/77 78/78/78 76/76/76
f 78/78/78 79/79/79 76/76/76
f 73/73/73 81/81/81 80/80/80
f 73/73/73 72/72/72 81/81/81
f 80/80/80 83/83/83 82/82/82
f 80/80/80 81/81/81 83/83/83
f 85/85/85 86/86/86 84/84/84
f 85/85/85 87/87/87 86/86/86
f 79/79/79 84/84/84 86/86/86
f 79/79/79 78/78/78 84/84/84
f 13/13/13 12/12/12 88/88/88
f 15/15/15 14/14/14 89/89/89
f 88/88/88 12/12/12 90/90/90
f 89/89/89 14/14/14 91/91/91
f 12/12/12 18/18/18 90/90/90
f 25/25/25 15/15/15 92/92/92
f 90/90/90 18/18/18 93/93/93
f 92/92/92 15/15/15 89/89/89
f 18/18/18 24/24/24 93/93/93
f 26/26/26 25/25/25 92/92/92
f 93/93/93 24/24/24 94/94/94
f 95/95/95 26/26/26 92/92/92
f 34/34/34 33/33/33 96/96/96
f 98/98/98 99/99/99 97/97/97
f 24/24/24 96/96/96 94/94/94
f 24/24/24 34/34/34 96/96/96
f 98/98/98 95/95/95 99/99/99
f 98/98/98 26/26/26 95/95/95
f 2/2/2 71/71/71 100/100/100
f 71/71/71 101/101/101 100/100/100
f 103/103/103 104/104/104 102/102/102
f 103/103/103 100/100/100 101/101/101
f 104/104/104 103/103/103 101/101/101
f 105/105/105 106/106/106 8/8/8
f 106/106/106 9/9/9 8/8/8
f 108/108/108 7/7/7 107/107/107
f 7/7/7 6/6/6 107/107/107
f 22/22/22 109/109/109 6/6/6
f 109/109/109 107/107/107 6/6/6
f 16/16/16 9/9/9 110/110/110
f 9/9/9 106/106/106 110/110/110
f 111/111/111 1/1/1 3/3/3
f 111/111/111 41/41/41 40/40/40
f 111/111/111 40/40/40 1/1/1
f 28/28/28 21/21/21 20/20/20
f 98/98/98 27/27/27 26/26/26
f 112/112/112 113/113/113 43/43/43
f 113/113/113 44/44/44 43/43/43
f 21/21/21 115/115/115 114/114/114
f 21/21/21 28/28/28 115/115/115
f 30/30/30 115/115/115 28/28/28
f 44/44/44 113/113/113 116/116/116
f 109/109/109 21/21/21 114/114/114
f 109/109/109 22/22/22 21/21/21
f 112/112/112 43/43/43 110/110/110
f 43/43/43 16/16/16 110/110/110
f 118/118/118 119/119/119 117/117/117
f 23/23/23 34/34/34 24/24/24
f 23/23/23 31/31/31 34/34/34
f 44/44/44 116/116/116 31/31/31
f 116/116/116 32/32/32 31/31/31
f 98/98/98 97/97/97 27/27/27
f 97/97/97 29/29/29 27/27/27
f 121/121/121 122/122/122 120/120/120
f 121/121/121 123/123/123 122/122/122
f 125/125/125 126/126/126 124/124/124
f 126/126/126 104/104/104 124/124/124
f 128/128/128 129/129/129 127/127/127
f 104/104/104 101/101/101 124/124/124
f 101/101/101 130/130/130 124/124/124
f 101/101/101 71/71/71 130/130/130
f 71/71/71 131/131/131 130/130/130
f 71/71/71 1/1/1 131/131/131
f 1/1/1 132/132/132 131/131/131
f 42/42/42 104/104/104 126/126/126
f 42/42/42 102/102/102 104/104/104
f 125/125/125 40/40/40 126/126/126
f 40/40/40 42/42/42 126/126/126
f 133/133/133 40/40/40 125/125/125
