mtllib E:\Programming\GameProjects\Ballance\ResourceFactory\P_Modul_29_Platte01.mtl
v -0.75 0.6 2.5
v 0.75 0.6 2.5
v 0.75 0.6 -2.5
v -0.75 0.6 -2.5
v -0.75 0 2.5
v 0.75 0 2.5
v 0.75 0.6 2.5
v -0.75 0.6 2.5
v 0.75 0 2.5
v 0.75 0 -2.5
v 0.75 0.6 -2.5
v 0.75 0.6 2.5
v 0.75 0 -2.5
v -0.75 0 -2.5
v -0.75 0.6 -2.5
v 0.75 0.6 -2.5
v -0.75 0 -2.5
v -0.75 0 2.5
v -0.75 0.6 2.5
v -0.75 0.6 -2.5
v -0.75 0 -2.5
v 0.75 0 -2.5
v 0.75 0 2.5
v -0.75 0 2.5
vt 0.422593 0.135055 0
vt 0.643810 0.135055 0
vt 0.643810 0.872444 0
vt 0.422593 0.872444 0
vt 0.422593 0.455757 0
vt 0.643810 0.455757 0
vt 0.643810 0.544243 0
vt 0.422593 0.544243 0
vt 1.135055 0.455757 0
vt 1.872444 0.455757 0
vt 1.872444 0.544243 0
vt 1.135055 0.544243 0
vt 2.356190 0.455757 0
vt 2.577407 0.455757 0
vt 2.577407 0.544243 0
vt 2.356190 0.544243 0
vt 1.127556 0.455757 0
vt 1.864945 0.455757 0
vt 1.864945 0.544243 0
vt 1.127556 0.544243 0
vt 1.350000 1.000000 0
vt 1.650000 1.000000 0
vt 1.650000 -0.000000 0
vt 1.350000 0.000000 0
vn 0 0.999969 -0
vn 0 0.999969 -0
vn 0 0.999969 -0
vn 0 0.999969 -0
vn 0 0 0.999951
vn 0 0 0.999951
vn 0 0 0.999951
vn 0 0 0.999951
vn 1.00006 0 -0
vn 1.00006 0 -0
vn 1.00006 0 -0
vn 1.00006 0 -0
vn 0 0 -0.999951
vn 0 0 -0.999951
vn 0 0 -0.999951
vn 0 0 -0.999951
vn -1.00006 0 -0
vn -1.00006 0 -0
vn -1.00006 0 -0
vn -1.00006 0 -0
vn 0 -0.999969 -0
vn 0 -0.999969 -0
vn 0 -0.999969 -0
vn 0 -0.999969 -0
g P_Modul_29_Platte01
usemtl P_Modul_29
f 2/2/2 3/3/3 1/1/1
f 4/4/4 1/1/1 3/3/3
f 6/6/6 7/7/7 5/5/5
f 8/8/8 5/5/5 7/7/7
f 10/10/10 11/11/11 9/9/9
f 12/12/12 9/9/9 11/11/11
f 14/14/14 15/15/15 13/13/13
f 16/16/16 13/13/13 15/15/15
f 18/18/18 19/19/19 17/17/17
f 20/20/20 17/17/17 19/19/19
f 22/22/22 23/23/23 21/21/21
f 23/23/23 24/24/24 21/21/21
