v -2.22843 -0.621379 -3.69752
v -4.31639 -0.62138 3.65663
v -2.16442 -0.621379 3.63655
v -4.38039 -0.621379 -3.67744
v -2.22843 1.87862 -3.69753
v -4.31639 1.87862 3.65663
v -4.38039 1.87862 -3.67744
v -2.16442 1.87862 3.63655
v -2.22843 -0.621379 -3.69752
v -4.38039 1.87862 -3.67744
v -4.38039 -0.621379 -3.67744
v -2.22843 1.87862 -3.69753
v -4.38039 -0.621379 -3.67744
v -4.31639 1.87862 3.65663
v -4.31639 -0.62138 3.65663
v -4.38039 1.87862 -3.67744
v -4.31639 -0.62138 3.65663
v -2.16442 1.87862 3.63655
v -2.16442 -0.621379 3.63655
v -4.31639 1.87862 3.65663
v -2.16442 -0.621379 3.63655
v -2.22843 1.87862 -3.69753
v -2.22843 -0.621379 -3.69752
v -2.16442 1.87862 3.63655
vt 0.500000 -0.500000 0
vt 0.500000 -0.500000 0
vt 0.500000 -0.500000 0
vt 0.500000 -0.500000 0
vt 0.500000 -0.500000 0
vt 0.500000 -0.500000 0
vt 0.500000 -0.500000 0
vt 0.500000 -0.500000 0
vt 0.500000 -0.500000 0
vt 0.500000 -0.500000 0
vt 0.500000 -0.500000 0
vt 0.500000 -0.500000 0
vt 0.500000 -0.500000 0
vt 0.500000 -0.500000 0
vt 0.500000 -0.500000 0
vt 0.500000 -0.500000 0
vt 0.500000 -0.500000 0
vt 0.500000 -0.500000 0
vt 0.500000 -0.500000 0
vt 0.500000 -0.500000 0
vt 0.500000 -0.500000 0
vt 0.500000 -0.500000 0
vt 0.500000 -0.500000 0
vt 0.500000 -0.500000 0
vn 0 -1.00023 -0
vn 0 -1.00023 -0
vn 0 -1.00023 -0
vn 0 -1.00023 -0
vn 0 1.00023 -0
vn 0 1.00023 -0
vn 0 1.00023 -0
vn 0 1.00023 -0
vn -0.00932896 0 -0.999788
vn -0.00932896 0 -0.999788
vn -0.00932896 0 -0.999788
vn -0.00932896 0 -0.999788
vn -0.999804 0 0.00872534
vn -0.999804 0 0.00872534
vn -0.999804 0 0.00872534
vn -0.999804 0 0.00872534
vn 0.00932896 0 0.999788
vn 0.00932896 0 0.999788
vn 0.00932896 0 0.999788
vn 0.00932896 0 0.999788
vn 0.999804 0 -0.00872531
vn 0.999804 0 -0.00872531
vn 0.999804 0 -0.00872531
vn 0.999804 0 -0.00872531
g PE_Balloon_Col_05_Mesh
f 3/3/3 2/2/2 1/1/1
f 4/4/4 1/1/1 2/2/2
f 7/7/7 6/6/6 5/5/5
f 8/8/8 5/5/5 6/6/6
f 11/11/11 10/10/10 9/9/9
f 12/12/12 9/9/9 10/10/10
f 15/15/15 14/14/14 13/13/13
f 16/16/16 13/13/13 14/14/14
f 19/19/19 18/18/18 17/17/17
f 20/20/20 17/17/17 18/18/18
f 23/23/23 22/22/22 21/21/21
f 24/24/24 21/21/21 22/22/22
