v 4.05984 -0.621379 -2.55758
v -1.93886 -0.621379 -4.26465
v -1.91878 -0.621379 -2.49357
v 7.36167 -0.621379 -4.32865
v 4.05984 1.87862 -2.55758
v -1.93886 1.87862 -4.26465
v 7.36167 1.87862 -4.32865
v -1.91878 1.87862 -2.49357
v 4.05984 -0.621379 -2.55758
v 7.36167 1.87862 -4.32865
v 7.36167 -0.621379 -4.32865
v 4.05984 1.87862 -2.55758
v 7.36167 -0.621379 -4.32865
v -1.93886 1.87862 -4.26465
v -1.93886 -0.621379 -4.26465
v 7.36167 1.87862 -4.32865
v -1.93886 -0.621379 -4.26465
v -1.91878 1.87862 -2.49357
v -1.91878 -0.621379 -2.49357
v -1.93886 1.87862 -4.26465
v -1.91878 -0.621379 -2.49357
v 4.05984 1.87862 -2.55758
v 4.05984 -0.621379 -2.55758
v -1.91878 1.87862 -2.49357
vt 0.500000 -0.500000 0
vt 0.500000 -0.500000 0
vt 0.500000 -0.500000 0
vt 0.500000 -0.500000 0
vt 0.500000 -0.500000 0
vt 0.500000 -0.500000 0
vt 0.500000 -0.500000 0
vt 0.500000 -0.500000 0
vt 0.500000 -0.500000 0
vt 0.500000 -0.500000 0
vt 0.500000 -0.500000 0
vt 0.500000 -0.500000 0
vt 0.500000 -0.500000 0
vt 0.500000 -0.500000 0
vt 0.500000 -0.500000 0
vt 0.500000 -0.500000 0
vt 0.500000 -0.500000 0
vt 0.500000 -0.500000 0
vt 0.500000 -0.500000 0
vt 0.500000 -0.500000 0
vt 0.500000 -0.500000 0
vt 0.500000 -0.500000 0
vt 0.500000 -0.500000 0
vt 0.500000 -0.500000 0
vn 0 -1.00022 -0
vn 0 -1.00022 -0
vn 0 -1.00016 -0
vn 0 -0.999792 -0
vn 0 1.00022 -0
vn 0 1.00022 -0
vn 0 0.999792 -0
vn 0 1.00016 -0
vn 0.47261 0 0.881089
vn 0.47261 0 0.881089
vn 0.47261 0 0.881089
vn 0.47261 0 0.881089
vn -0.00688346 0 -1.00021
vn -0.00688346 0 -1.00021
vn -0.00688346 0 -1.00021
vn -0.00688346 0 -1.00021
vn -0.999797 0 0.0113356
vn -0.999797 0 0.0113356
vn -0.999797 0 0.0113356
vn -0.999797 0 0.0113356
vn 0.0107068 0 1.00009
vn 0.0107068 0 1.00009
vn 0.0107068 0 1.00009
vn 0.0107068 0 1.00009
g PE_Balloon_Col_03_Mesh
f 3/3/3 2/2/2 1/1/1
f 4/4/4 1/1/1 2/2/2
f 7/7/7 6/6/6 5/5/5
f 8/8/8 5/5/5 6/6/6
f 11/11/11 10/10/10 9/9/9
f 12/12/12 9/9/9 10/10/10
f 15/15/15 14/14/14 13/13/13
f 16/16/16 13/13/13 14/14/14
f 19/19/19 18/18/18 17/17/17
f 20/20/20 17/17/17 18/18/18
f 23/23/23 22/22/22 21/21/21
f 24/24/24 21/21/21 22/22/22
