mtllib E:\Programming\GameProjects\Ballance\ResourceFactory\P_Modul_18_01.mtl
v -2.4929 0.343879 -2.50024
v 2.5071 0.343879 -2.50024
v -2.4929 0.343879 2.49976
v 2.5071 0.343879 2.49976
v 2.5071 0.343879 2.49976
v 2.5071 -4.65612 2.49976
v -2.4929 0.343879 2.49976
v -2.4929 -4.65612 2.49976
v 2.5071 0.343879 -2.50024
v 2.5071 -4.65612 -2.50024
v 2.5071 0.343879 2.49976
v 2.5071 -4.65612 2.49976
v -2.4929 0.343879 -2.50024
v -2.4929 -4.65612 -2.50024
v 2.5071 0.343879 -2.50024
v 2.5071 -4.65612 -2.50024
v -2.4929 0.343879 2.49976
v -2.4929 -4.65612 2.49976
v -2.4929 0.343879 -2.50024
v -2.4929 -4.65612 -2.50024
v 2.42327 0.343879 -0.000235921
v 2.42327 15.4532 -0.000235921
v 1.21518 16.7039 -2.09271
v 1.21518 0.343879 -2.09271
v -1.20099 15.4532 -2.09271
v -1.20099 0.343879 -2.09271
v -2.40908 16.7039 -0.00023571
v -2.40908 0.343879 -0.00023571
v -1.20099 15.4532 2.09223
v -1.20099 0.343879 2.09223
v 1.21519 16.7039 2.09223
v 1.21519 0.343879 2.09223
v 0.0070966 15.2678 -0.000235921
v 1.21518 16.7039 -2.09271
v 2.42327 15.4532 -0.000235921
v 0.0070966 15.2678 -0.000235921
v -1.20099 15.4532 -2.09271
v 1.21518 16.7039 -2.09271
v 0.0070966 15.2678 -0.000235921
v -2.40908 16.7039 -0.00023571
v -1.20099 15.4532 -2.09271
v 0.0070966 15.2678 -0.000235921
v -1.20099 15.4532 2.09223
v -2.40908 16.7039 -0.00023571
v 0.0070966 15.2678 -0.000235921
v 1.21519 16.7039 2.09223
v -1.20099 15.4532 2.09223
v 0.0070966 15.2678 -0.000235921
v 2.42327 15.4532 -0.000235921
v 1.21519 16.7039 2.09223
vt 0.500000 -0.500000 0
vt 0.500000 -0.500000 0
vt 0.500000 -0.500000 0
vt 0.500000 -0.500000 0
vt 0.500000 -0.500000 0
vt 0.500000 -0.500000 0
vt 0.500000 -0.500000 0
vt 0.500000 -0.500000 0
vt 0.500000 -0.500000 0
vt 0.500000 -0.500000 0
vt 0.500000 -0.500000 0
vt 0.500000 -0.500000 0
vt 0.500000 -0.500000 0
vt 0.500000 -0.500000 0
vt 0.500000 -0.500000 0
vt 0.500000 -0.500000 0
vt 0.500000 -0.500000 0
vt 0.500000 -0.500000 0
vt 0.500000 -0.500000 0
vt 0.500000 -0.500000 0
vt 0.500000 -0.500000 0
vt 0.500000 -0.500000 0
vt 0.500000 -0.500000 0
vt 0.500000 -0.500000 0
vt 0.500000 -0.500000 0
vt 0.500000 -0.500000 0
vt 0.500000 -0.500000 0
vt 0.500000 -0.500000 0
vt 0.500000 -0.500000 0
vt 0.500000 -0.500000 0
vt 0.500000 -0.500000 0
vt 0.500000 -0.500000 0
vt 0.500000 -0.500000 0
vt 0.500000 -0.500000 0
vt 0.500000 -0.500000 0
vt 0.500000 -0.500000 0
vt 0.500000 -0.500000 0
vt 0.500000 -0.500000 0
vt 0.500000 -0.500000 0
vt 0.500000 -0.500000 0
vt 0.500000 -0.500000 0
vt 0.500000 -0.500000 0
vt 0.500000 -0.500000 0
vt 0.500000 -0.500000 0
vt 0.500000 -0.500000 0
vt 0.500000 -0.500000 0
vt 0.500000 -0.500000 0
vt 0.500000 -0.500000 0
vt 0.500000 -0.500000 0
vt 0.500000 -0.500000 0
vn 0 1.00008 -0
vn 0 1.00008 -0
vn 0 1.00008 -0
vn 0 1.00008 -0
vn 0 0 0.999969
vn 0 0 0.999969
vn 0 0 0.999969
vn 0 0 0.999969
vn 0.999969 0 -0
vn 0.999969 0 -0
vn 0.999969 0 -0
vn 0.999969 0 -0
vn 0 0 -0.999969
vn 0 0 -0.999969
vn 0 0 -0.999969
vn 0 0 -0.999969
vn -0.999969 0 -0
vn -0.999969 0 -0
vn -0.999969 0 -0
vn -0.999969 0 -0
vn 0.981932 0 -0.188974
vn 0.98193 0 0.188969
vn 0.654621 0 -0.755889
vn 0.32731 0 -0.944861
vn -0.327311 0 -0.944862
vn -0.654622 0 -0.755891
vn -0.98193 0 -0.188973
vn -0.981929 0 0.188973
vn -0.654619 0 0.755892
vn -0.32731 0 0.944865
vn 0.327309 0 0.944863
vn 0.654619 0 0.755888
vn -0.0644365 0.839751 0.539132
vn -0.0644365 0.839751 0.539132
vn -0.0644365 0.839751 0.539132
vn -0.434685 0.839749 0.325369
vn -0.434685 0.839749 0.325369
vn -0.434685 0.839749 0.325369
vn 0.499122 0.839752 -0.213763
vn 0.499122 0.839752 -0.213763
vn 0.499122 0.839752 -0.213763
vn 0.49912 0.839748 0.213763
vn 0.49912 0.839748 0.213763
vn 0.49912 0.839748 0.213763
vn -0.434684 0.83975 -0.32537
vn -0.434684 0.83975 -0.32537
vn -0.434684 0.83975 -0.32537
vn -0.0644363 0.839747 -0.539132
vn -0.0644363 0.839747 -0.539132
vn -0.0644363 0.839747 -0.539132
g P_Modul_18_01
f 3/3/3 2/2/2 1/1/1
f 2/2/2 3/3/3 4/4/4
f 7/7/7 6/6/6 5/5/5
f 6/6/6 7/7/7 8/8/8
f 11/11/11 10/10/10 9/9/9
f 10/10/10 11/11/11 12/12/12
f 15/15/15 14/14/14 13/13/13
f 14/14/14 15/15/15 16/16/16
f 19/19/19 18/18/18 17/17/17
f 18/18/18 19/19/19 20/20/20
f 23/23/23 22/22/22 21/21/21
f 24/24/24 23/23/23 21/21/21
f 25/25/25 23/23/23 24/24/24
f 26/26/26 25/25/25 24/24/24
f 27/27/27 25/25/25 26/26/26
f 28/28/28 27/27/27 26/26/26
f 29/29/29 27/27/27 28/28/28
f 30/30/30 29/29/29 28/28/28
f 31/31/31 29/29/29 30/30/30
f 32/32/32 31/31/31 30/30/30
f 22/22/22 31/31/31 32/32/32
f 21/21/21 22/22/22 32/32/32
f 35/35/35 34/34/34 33/33/33
f 38/38/38 37/37/37 36/36/36
f 41/41/41 40/40/40 39/39/39
f 44/44/44 43/43/43 42/42/42
f 47/47/47 46/46/46 45/45/45
f 50/50/50 49/49/49 48/48/48
