mtllib E:\Programming\GameProjects\Ballance\ResourceFactory\P_Modul_41_Col1_Mesh.mtl
v -2.47676 1.35115 -2.48465
v -2.47676 1.35114 2.51548
v 2.52545 1.35114 2.51548
v 2.52545 1.35115 -2.48465
v -1.96089 -0.359228 -2.48465
v 2.00958 -0.359228 -2.48465
v 2.00958 -0.359228 2.51548
v -1.96089 -0.359228 2.51548
v -2.47676 1.35115 -2.48465
v 2.52545 1.35115 -2.48465
v 2.00958 -0.359228 -2.48465
v -1.96089 -0.359228 -2.48465
v 2.52545 1.35115 -2.48465
v 2.52545 1.35114 2.51548
v 2.00958 -0.359228 2.51548
v 2.00958 -0.359228 -2.48465
v 2.52545 1.35114 2.51548
v -2.47676 1.35114 2.51548
v -1.96089 -0.359228 2.51548
v 2.00958 -0.359228 2.51548
v -2.47676 1.35114 2.51548
v -2.47676 1.35115 -2.48465
v -1.96089 -0.359228 -2.48465
v -1.96089 -0.359228 2.51548
vt 0.000000 -0.000000 0
vt 0.000000 -0.000000 0
vt 0.000000 -0.000000 0
vt 0.000000 -0.000000 0
vt 0.000000 -0.000000 0
vt 0.000000 -0.000000 0
vt 0.000000 -0.000000 0
vt 0.000000 -0.000000 0
vt 0.000000 -0.000000 0
vt 0.000000 -0.000000 0
vt 0.000000 -0.000000 0
vt 0.000000 -0.000000 0
vt 0.000000 -0.000000 0
vt 0.000000 -0.000000 0
vt 0.000000 -0.000000 0
vt 0.000000 -0.000000 0
vt 0.000000 -0.000000 0
vt 0.000000 -0.000000 0
vt 0.000000 -0.000000 0
vt 0.000000 -0.000000 0
vt 0.000000 -0.000000 0
vt 0.000000 -0.000000 0
vt 0.000000 -0.000000 0
vt 0.000000 -0.000000 0
vn 9.09217e-015 1.00016 9.53805e-008
vn 9.09217e-015 1.00016 9.53805e-008
vn 9.09217e-015 1.00016 9.53805e-008
vn 9.09217e-015 1.00016 9.53805e-008
vn -5.72772e-015 -1.00022 -9.53857e-008
vn -5.72772e-015 -1.00022 -9.53857e-008
vn -5.72772e-015 -1.00022 -9.53857e-008
vn -5.72772e-015 -1.00022 -9.53857e-008
vn -5.3844e-008 1.37494e-007 -0.999773
vn -4.76682e-008 1.5379e-007 -1.00012
vn -5.3844e-008 1.37494e-007 -0.999773
vn -6.0043e-008 1.21274e-007 -0.999917
vn 0.957203 -0.288706 -2.75325e-008
vn 0.957203 -0.288706 -2.75325e-008
vn 0.957203 -0.288706 -2.75325e-008
vn 0.957203 -0.288706 -2.75325e-008
vn 5.3844e-008 -1.41234e-007 0.999773
vn 4.76682e-008 -1.25035e-007 1.00012
vn 5.3844e-008 -1.41234e-007 0.999773
vn 6.0043e-008 -1.57494e-007 0.999917
vn -0.957203 -0.288706 -2.75325e-008
vn -0.957203 -0.288706 -2.75325e-008
vn -0.957203 -0.288706 -2.75325e-008
vn -0.957203 -0.288706 -2.75325e-008
g P_Modul_41_Col1_Mesh
f 2/2/2 3/3/3 1/1/1
f 4/4/4 1/1/1 3/3/3
f 6/6/6 7/7/7 5/5/5
f 8/8/8 5/5/5 7/7/7
f 10/10/10 11/11/11 9/9/9
f 12/12/12 9/9/9 11/11/11
f 14/14/14 15/15/15 13/13/13
f 16/16/16 13/13/13 15/15/15
f 18/18/18 19/19/19 17/17/17
f 20/20/20 17/17/17 19/19/19
f 22/22/22 23/23/23 21/21/21
f 24/24/24 21/21/21 23/23/23
