mtllib E:\Programming\GameProjects\Ballance\ResourceFactory\P_Modul_01_Rinne_01_Mesh.mtl
v -8.97902 -1.17732 -0.649923
v 4.75223 -1.17732 -0.649923
v -8.97902 -1.17732 0.650088
v 4.75223 -1.17732 0.650088
v 4.75223 -1.58243 0.650088
v 4.75223 -1.58243 -0.649923
v -8.97902 -1.58243 0.650088
v -8.97902 -1.58243 -0.649923
v 4.75223 -1.17732 0.650088
v 4.75223 -1.58243 0.650088
v -8.97902 -1.17732 0.650088
v -8.97902 -1.58243 0.650088
v 4.75223 -1.17732 -0.649923
v 4.75223 -1.58243 -0.649923
v 4.75223 -1.17732 0.650088
v 4.75223 -1.58243 0.650088
v -8.97902 -1.17732 -0.649923
v -8.97902 -1.58243 -0.649923
v 4.75223 -1.17732 -0.649923
v 4.75223 -1.58243 -0.649923
v -8.97902 -1.17732 0.650088
v -8.97902 -1.58243 0.650088
v -8.97902 -1.17732 -0.649923
v -8.97902 -1.58243 -0.649923
vt 0.500000 -0.500000 0
vt 0.500000 -0.500000 0
vt 0.500000 -0.500000 0
vt 0.500000 -0.500000 0
vt 0.500000 -0.500000 0
vt 0.500000 -0.500000 0
vt 0.500000 -0.500000 0
vt 0.500000 -0.500000 0
vt 0.500000 -0.500000 0
vt 0.500000 -0.500000 0
vt 0.500000 -0.500000 0
vt 0.500000 -0.500000 0
vt 0.500000 -0.500000 0
vt 0.500000 -0.500000 0
vt 0.500000 -0.500000 0
vt 0.500000 -0.500000 0
vt 0.500000 -0.500000 0
vt 0.500000 -0.500000 0
vt 0.500000 -0.500000 0
vt 0.500000 -0.500000 0
vt 0.500000 -0.500000 0
vt 0.500000 -0.500000 0
vt 0.500000 -0.500000 0
vt 0.500000 -0.500000 0
vn 0 0.999803 -0
vn 0 0.999803 -0
vn 0 0.999803 -0
vn 0 0.999803 -0
vn 0 -0.999803 -0
vn 0 -0.999803 -0
vn 0 -0.999803 -0
vn 0 -0.999803 -0
vn 0 0 0.99981
vn 0 0 0.99981
vn 0 0 0.99981
vn 0 0 0.99981
vn 1.00005 0 -0
vn 1.00005 0 -0
vn 1.00005 0 -0
vn 1.00005 0 -0
vn 0 -2.94207e-007 -0.99981
vn 0 -2.94207e-007 -0.99981
vn 0 -2.94207e-007 -0.99981
vn 0 -2.94207e-007 -0.99981
vn -1.00005 0 -0
vn -1.00005 0 -0
vn -1.00005 0 -0
vn -1.00005 0 -0
g P_Modul_01_Rinne_01_Mesh
f 3/3/3 2/2/2 1/1/1
f 2/2/2 3/3/3 4/4/4
f 7/7/7 6/6/6 5/5/5
f 6/6/6 7/7/7 8/8/8
f 11/11/11 10/10/10 9/9/9
f 10/10/10 11/11/11 12/12/12
f 15/15/15 14/14/14 13/13/13
f 14/14/14 15/15/15 16/16/16
f 19/19/19 18/18/18 17/17/17
f 18/18/18 19/19/19 20/20/20
f 23/23/23 22/22/22 21/21/21
f 22/22/22 23/23/23 24/24/24
