mtllib E:\Programming\GameProjects\Ballance\ResourceFactory\P_Modul_37_Col1_Mesh.mtl
v -13.8556 0.623164 -4.51414
v -13.8556 0.623164 4.51303
v -8.92573 0.623165 -4.51414
v -8.92573 0.623165 4.51303
v -8.92573 0.124776 4.51303
v -13.8556 0.124776 4.51303
v -8.92573 0.124776 -4.51414
v -13.8556 0.124775 -4.51414
v -8.92573 0.623165 4.51303
v -13.8556 0.623164 4.51303
v -8.92573 0.124776 4.51303
v -13.8556 0.124776 4.51303
v -8.92573 0.623165 -4.51414
v -8.92573 0.623165 4.51303
v -8.92573 0.124776 -4.51414
v -8.92573 0.124776 4.51303
v -13.8556 0.623164 -4.51414
v -8.92573 0.623165 -4.51414
v -13.8556 0.124775 -4.51414
v -8.92573 0.124776 -4.51414
v -13.8556 0.623164 4.51303
v -13.8556 0.623164 -4.51414
v -13.8556 0.124776 4.51303
v -13.8556 0.124775 -4.51414
vt 0.000000 -0.000000 0
vt 0.000000 -0.000000 0
vt 0.000000 -0.000000 0
vt 0.000000 -0.000000 0
vt 0.000000 -0.000000 0
vt 0.000000 -0.000000 0
vt 0.000000 -0.000000 0
vt 0.000000 -0.000000 0
vt 0.000000 -0.000000 0
vt 0.000000 -0.000000 0
vt 0.000000 -0.000000 0
vt 0.000000 -0.000000 0
vt 0.000000 -0.000000 0
vt 0.000000 -0.000000 0
vt 0.000000 -0.000000 0
vt 0.000000 -0.000000 0
vt 0.000000 -0.000000 0
vt 0.000000 -0.000000 0
vt 0.000000 -0.000000 0
vt 0.000000 -0.000000 0
vt 0.000000 -0.000000 0
vt 0.000000 -0.000000 0
vt 0.000000 -0.000000 0
vt 0.000000 -0.000000 0
vn 0 0.999837 -7.92207e-008
vn -2.41771e-008 0.999836 -9.24241e-008
vn -2.41771e-008 0.999836 -9.24241e-008
vn -4.83543e-008 0.999836 -1.05628e-007
vn 4.83543e-008 -0.999836 1.32034e-007
vn 4.83543e-008 -0.999836 1.32034e-007
vn 4.83543e-008 -0.999836 1.32034e-007
vn 4.83543e-008 -0.999837 1.32034e-007
vn 0 0 1.00019
vn 0 0 1.00019
vn 0 0 1.00019
vn 0 0 1.00019
vn 1.0002 0 -0
vn 1.0002 0 -0
vn 1.0002 0 -0
vn 1.0002 0 -0
vn 0 0 -1.00019
vn 0 0 -1.00019
vn 0 0 -1.00019
vn 0 0 -1.00019
vn -1.0002 0 1.05666e-007
vn -1.0002 0 1.05666e-007
vn -1.0002 0 1.05666e-007
vn -1.0002 0 1.05666e-007
g P_Modul_37_Col1_Mesh
f 2/2/2 3/3/3 1/1/1
f 3/3/3 2/2/2 4/4/4
f 6/6/6 7/7/7 5/5/5
f 7/7/7 6/6/6 8/8/8
f 10/10/10 11/11/11 9/9/9
f 11/11/11 10/10/10 12/12/12
f 14/14/14 15/15/15 13/13/13
f 15/15/15 14/14/14 16/16/16
f 18/18/18 19/19/19 17/17/17
f 19/19/19 18/18/18 20/20/20
f 22/22/22 23/23/23 21/21/21
f 23/23/23 22/22/22 24/24/24
