mtllib E:\Programming\GameProjects\Ballance\ResourceFactory\P_Modul_41_Col2_Mesh.mtl
v -0.445997 0.783177 5.02895
v -0.00975101 1.01025 -5.12063
v -0.445997 0.783177 -5.12063
v -0.445997 0.783177 5.02895
v -0.00975084 1.01025 5.02895
v -0.00975101 1.01025 -5.12063
v -0.00975084 1.01025 5.02895
v 0.426495 0.783177 -5.12063
v -0.00975101 1.01025 -5.12063
v -0.00975084 1.01025 5.02895
v 0.426495 0.783176 5.02895
v 0.426495 0.783177 -5.12063
v 0.426495 0.783176 5.02895
v 0.278737 0.178286 -5.12063
v 0.426495 0.783177 -5.12063
v 0.426495 0.783176 5.02895
v 0.278737 0.178286 5.02895
v 0.278737 0.178286 -5.12063
v 0.278737 0.178286 5.02895
v -0.298239 0.178286 -5.12063
v 0.278737 0.178286 -5.12063
v 0.278737 0.178286 5.02895
v -0.298239 0.178286 5.02895
v -0.298239 0.178286 -5.12063
v -0.298239 0.178286 5.02895
v -0.445997 0.783177 -5.12063
v -0.298239 0.178286 -5.12063
v -0.298239 0.178286 5.02895
v -0.445997 0.783177 5.02895
v -0.445997 0.783177 -5.12063
vt 0.000000 -0.000000 0
vt 0.000000 -0.000000 0
vt 0.000000 -0.000000 0
vt 0.000000 -0.000000 0
vt 0.000000 -0.000000 0
vt 0.000000 -0.000000 0
vt 0.000000 -0.000000 0
vt 0.000000 -0.000000 0
vt 0.000000 -0.000000 0
vt 0.000000 -0.000000 0
vt 0.000000 -0.000000 0
vt 0.000000 -0.000000 0
vt 0.000000 -0.000000 0
vt 0.000000 -0.000000 0
vt 0.000000 -0.000000 0
vt 0.000000 -0.000000 0
vt 0.000000 -0.000000 0
vt 0.000000 -0.000000 0
vt 0.000000 -0.000000 0
vt 0.000000 -0.000000 0
vt 0.000000 -0.000000 0
vt 0.000000 -0.000000 0
vt 0.000000 -0.000000 0
vt 0.000000 -0.000000 0
vt 0.000000 -0.000000 0
vt 0.000000 -0.000000 0
vt 0.000000 -0.000000 0
vt 0.000000 -0.000000 0
vt 0.000000 -0.000000 0
vt 0.000000 -0.000000 0
vn -0.461634 0.886868 1.58385e-008
vn -0.461634 0.886868 1.58385e-008
vn -0.461634 0.886868 1.58385e-008
vn -0.461634 0.886868 1.64158e-008
vn -0.461634 0.886868 1.64158e-008
vn -0.461634 0.886868 1.64158e-008
vn 0.461634 0.886867 2.96122e-009
vn 0.461634 0.886867 2.96122e-009
vn 0.461634 0.886867 2.96122e-009
vn 0.461634 0.886867 1.64158e-008
vn 0.461634 0.886867 1.64158e-008
vn 0.461634 0.886867 1.64158e-008
vn 0.971507 -0.237313 -1.41325e-008
vn 0.971507 -0.237313 -1.41325e-008
vn 0.971507 -0.237313 -1.41325e-008
vn 0.971507 -0.237313 -1.29689e-008
vn 0.971507 -0.237313 -1.29689e-008
vn 0.971507 -0.237313 -1.29689e-008
vn -2.0664e-007 -1.00014 -5.87346e-009
vn -2.0664e-007 -1.00014 -5.87346e-009
vn -2.0664e-007 -1.00014 -5.87346e-009
vn 0 -1.00014 -1.76204e-008
vn 0 -1.00014 -1.76204e-008
vn 0 -1.00014 -1.76204e-008
vn -0.971507 -0.237312 4.377e-009
vn -0.971507 -0.237312 4.377e-009
vn -0.971507 -0.237312 4.377e-009
vn -0.971507 -0.237312 8.25295e-009
vn -0.971507 -0.237312 8.25295e-009
vn -0.971507 -0.237312 8.25295e-009
g P_Modul_41_Col2_Mesh
f 2/2/2 3/3/3 1/1/1
f 5/5/5 6/6/6 4/4/4
f 8/8/8 9/9/9 7/7/7
f 11/11/11 12/12/12 10/10/10
f 14/14/14 15/15/15 13/13/13
f 17/17/17 18/18/18 16/16/16
f 20/20/20 21/21/21 19/19/19
f 23/23/23 24/24/24 22/22/22
f 26/26/26 27/27/27 25/25/25
f 29/29/29 30/30/30 28/28/28
