mtllib P_Modul_41.mtl
v -1.95849 -0.35924 2.51534
v -1.3332 -0.359236 1.7154
v 1.39599 -0.359236 1.7154
v 2.00988 -0.35924 2.51533
v -1.95849 -0.35924 -2.48459
v -1.3332 -0.359236 -1.7154
v -1.3332 -0.359236 1.7154
v -1.3332 -0.359236 -1.7154
v 1.39599 -0.359236 -1.7154
v 1.39599 -0.359236 1.7154
v 1.39599 -0.359236 -1.7154
v 2.00988 -0.35924 -2.48459
v -2.47511 1.35121 2.51534
v 2.52503 1.35121 2.51533
v 1.75153 1.35121 1.7154
v -1.68725 1.35121 1.7154
v -1.68725 1.35121 -1.7154
v -2.47511 1.35121 -2.48459
v -1.68725 1.35121 1.7154
v 1.75153 1.35121 1.7154
v 1.75153 1.35121 -1.7154
v -1.68725 1.35121 -1.7154
v 2.52503 1.35121 -2.48459
v 1.75153 1.35121 -1.7154
v -1.95849 -0.35924 2.51534
v 2.00988 -0.35924 2.51533
v 2.52503 1.35121 2.51533
v -2.47511 1.35121 2.51534
v 2.00988 -0.35924 2.51533
v 2.00988 -0.35924 -2.48459
v 2.52503 1.35121 -2.48459
v 2.52503 1.35121 2.51533
v 2.00988 -0.35924 -2.48459
v -1.95849 -0.35924 -2.48459
v -2.47511 1.35121 -2.48459
v 2.52503 1.35121 -2.48459
v -1.95849 -0.35924 -2.48459
v -1.95849 -0.35924 2.51534
v -2.47511 1.35121 2.51534
v -2.47511 1.35121 -2.48459
v 3.72529e-009 0.593511 5.02933
v 0.100965 0.593511 5.02933
v 0.0713932 0.664904 5.02933
v -1.704e-020 0.694476 5.02933
v -0.0713932 0.664904 5.02933
v -0.100965 0.593511 5.02933
v -0.0713932 0.522118 5.02933
v 1.86265e-008 0.492546 5.02933
v 0.0713932 0.522118 5.02933
v 0.198818 0.593068 4.21527
v 0.139875 0.734037 4.21527
v 0.244423 0.837928 4.35367
v 0.345946 0.593511 4.35367
v -0.000782963 0.792679 4.21527
v 5.82673e-005 0.939184 4.35367
v -0.141627 0.734219 4.21527
v -0.244414 0.837926 4.35367
v -0.200365 0.593079 4.21527
v -0.345687 0.593511 4.35367
v -0.141625 0.451919 4.21527
v -0.244426 0.349074 4.35367
v -0.000494827 0.393395 4.21527
v -1.47508e-020 0.247609 4.35367
v 0.140343 0.451865 4.21527
v 0.244415 0.349095 4.35367
v 0.293736 0.886814 4.4696
v 0.415354 0.59319 4.4696
v 6.42538e-005 1.00844 4.4696
v -0.294379 0.886775 4.4696
v -0.415111 0.593194 4.4696
v -0.294374 0.299571 4.4696
v -0.000778742 0.177964 4.4696
v 0.293721 0.299563 4.4696
v 0.293736 0.886814 4.7211
v 0.415354 0.59319 4.7211
v 6.42538e-005 1.00844 4.7211
v -0.294379 0.886775 4.7211
v -0.415111 0.593194 4.7211
v -0.294374 0.299571 4.7211
v -0.000778742 0.177964 4.7211
v 0.293721 0.299563 4.7211
v 0.244406 0.837923 4.88628
v 0.345363 0.593511 4.88628
v 5.82673e-005 0.939148 4.88628
v -0.244414 0.837926 4.88628
v -0.345621 0.593511 4.88628
v -0.244402 0.349119 4.88628
v -1.65554e-020 0.248105 4.88628
v 0.244415 0.349098 4.88628
v 0.140852 0.734363 4.99237
v 0.198843 0.593096 4.99237
v -0.000724439 0.79268 4.99237
v -0.141543 0.734219 4.99237
v -0.200359 0.593085 4.99237
v -0.141544 0.45197 4.99237
v -0.000411719 0.393572 4.99237
v 0.140428 0.452024 4.99237
v 4.95464e-007 0.593512 -5.12065
v -0.100965 0.593512 -5.12065
v -0.0713927 0.664905 -5.12065
v 4.99189e-007 0.694477 -5.12065
v 0.0713937 0.664905 -5.12065
v 0.100966 0.593512 -5.12065
v 0.0713937 0.522118 -5.12065
v 4.80562e-007 0.492546 -5.12065
v -0.0713927 0.522118 -5.12065
v -0.200365 0.59308 -4.31087
v -0.141564 0.734219 -4.31087
v -0.244414 0.837926 -4.44499
v -0.345687 0.593512 -4.44499
v -0.000779893 0.79268 -4.31087
v 5.82673e-005 0.939184 -4.44499
v 0.139953 0.734114 -4.31087
v 0.244423 0.837929 -4.44499
v 0.139953 0.734114 -4.31087
v 0.198819 0.59307 -4.31087
v 0.345946 0.593512 -4.44499
v 0.244423 0.837929 -4.44499
v 0.140352 0.451868 -4.31087
v 0.244415 0.349096 -4.44499
v 0.140352 0.451868 -4.31087
v -0.000411708 0.393405 -4.31087
v 1.49012e-008 0.247609 -4.44499
v 0.244415 0.349096 -4.44499
v -0.141564 0.451921 -4.31087
v -0.244426 0.349075 -4.44499
v -0.294379 0.886776 -4.56092
v -0.415111 0.593194 -4.56092
v 6.42538e-005 1.00844 -4.56092
v 0.293736 0.886815 -4.56092
v 0.415354 0.59319 -4.56092
v 0.293736 0.886815 -4.56092
v 0.293721 0.299563 -4.56092
v -0.000778742 0.177964 -4.56092
v 0.293721 0.299563 -4.56092
v -0.294374 0.299572 -4.56092
v -0.294379 0.886776 -4.81242
v -0.415111 0.593194 -4.81242
v 6.42538e-005 1.00844 -4.81242
v 0.293736 0.886814 -4.81242
v 0.415354 0.59319 -4.81242
v 0.293736 0.886814 -4.81242
v 0.293721 0.299563 -4.81242
v -0.000778742 0.177964 -4.81242
v 0.293721 0.299563 -4.81242
v -0.294374 0.299572 -4.81242
v -0.244414 0.837926 -4.9776
v -0.345621 0.593512 -4.9776
v 5.82673e-005 0.939148 -4.9776
v 0.244406 0.837924 -4.9776
v 0.345363 0.593512 -4.9776
v 0.244406 0.837924 -4.9776
v 0.244415 0.349099 -4.9776
v 1.86265e-008 0.248106 -4.9776
v 0.244415 0.349099 -4.9776
v -0.244402 0.34912 -4.9776
v -0.141543 0.73422 -5.08369
v -0.200359 0.593085 -5.08369
v -0.00072442 0.79268 -5.08369
v 0.140852 0.734363 -5.08369
v 0.198843 0.593096 -5.08369
v 0.140852 0.734363 -5.08369
v 0.140428 0.452024 -5.08369
v -0.000411697 0.393573 -5.08369
v 0.140428 0.452024 -5.08369
v -0.141544 0.45197 -5.08369
v 0.100966 0.593512 -5.12065
v 0.0713937 0.664905 -5.12065
v 0.0713937 0.522118 -5.12065
v 0.29349 0.886669 -2.48459
v 0.415341 0.593135 -2.48459
v 5.94296e-005 1.00825 -2.48459
v 0.29349 0.886669 -2.48459
v -0.294377 0.886775 -2.48459
v -0.415101 0.593118 -2.48459
v -0.294164 0.29958 -2.48459
v -0.000787221 0.177964 -2.48459
v 0.293502 0.299579 -2.48459
v 0.293502 0.299579 -2.48459
v 0.415356 0.593175 2.51533
v 0.293791 0.886726 2.51533
v 7.04341e-005 1.0083 2.51533
v -0.29438 0.886775 2.51533
v -0.414902 0.593174 2.51533
v -0.294614 0.299624 2.51533
v -0.000778444 0.177964 2.51533
v 0.293763 0.299659 2.51533
vt 0.989370 1.013663 0
vt 1.146269 0.855778 0
vt 1.853242 0.857158 0
vt 2.000453 1.014058 0
vt 0.990850 -0.006956 0
vt 1.145770 0.149310 0
vt 1.840000 0.840000 0
vt 1.840000 0.160000 0
vt 1.160000 0.160000 0
vt 1.160000 0.840000 0
vt 1.855157 0.147735 0
vt 2.001934 -0.009535 0
vt 0.991570 -0.008453 0
vt 2.004538 -0.007524 0
vt 1.857469 0.149635 0
vt 1.145429 0.149903 0
vt 1.144151 0.849408 0
vt 0.991514 1.010094 0
vt 1.149966 0.854865 0
vt 1.850034 0.854865 0
vt 1.850034 0.154797 0
vt 1.149966 0.154797 0
vt 2.004482 1.008626 0
vt 1.857522 0.849140 0
vt 0.858263 0.862802 0
vt 2.153381 0.862802 0
vt 2.153381 1.141908 0
vt 0.858263 1.141908 0
vt 1.144319 -0.009905 0
vt 1.144319 1.004985 0
vt 0.852052 1.004985 0
vt 0.852052 -0.009905 0
vt 0.857641 0.862319 0
vt 2.162276 0.862319 0
vt 2.162276 1.142633 0
vt 0.857641 1.142633 0
vt 1.145829 -0.004714 0
vt 1.145829 1.011889 0
vt 0.850424 1.011889 0
vt 0.850424 -0.004714 0
vt 1.499996 0.500019 0
vt 1.503162 0.500019 0
vt 1.502235 0.504496 0
vt 1.499996 0.506351 0
vt 1.497757 0.504496 0
vt 1.496830 0.500019 0
vt 1.497757 0.495542 0
vt 1.499996 0.493687 0
vt 1.502235 0.495542 0
vt 1.507416 0.499990 0
vt 1.505218 0.510511 0
vt 1.508829 0.517661 0
vt 1.512485 0.500022 0
vt 1.499966 0.514891 0
vt 1.499998 0.524982 0
vt 1.494707 0.510525 0
vt 1.491162 0.517661 0
vt 1.492517 0.499991 0
vt 1.487515 0.500022 0
vt 1.494707 0.489455 0
vt 1.491162 0.482381 0
vt 1.499977 0.485084 0
vt 1.499996 0.475046 0
vt 1.505236 0.489451 0
vt 1.508829 0.482383 0
vt 1.510335 0.520626 0
vt 1.514595 0.499999 0
vt 1.499998 0.529191 0
vt 1.489634 0.520623 0
vt 1.485405 0.499999 0
vt 1.489634 0.479373 0
vt 1.499968 0.470809 0
vt 1.510334 0.479372 0
vt 1.509791 0.519545 0
vt 1.513829 0.499999 0
vt 1.499998 0.527659 0
vt 1.490180 0.519542 0
vt 1.486171 0.499999 0
vt 1.490180 0.480454 0
vt 1.499970 0.472341 0
vt 1.509790 0.480453 0
vt 1.507877 0.515762 0
vt 1.511123 0.500020 0
vt 1.499998 0.522291 0
vt 1.492115 0.515762 0
vt 1.488861 0.500020 0
vt 1.492115 0.484279 0
vt 1.499996 0.477763 0
vt 1.507877 0.484277 0
vt 1.504445 0.508913 0
vt 1.506274 0.499993 0
vt 1.499973 0.512597 0
vt 1.495526 0.508904 0
vt 1.493670 0.499992 0
vt 1.495526 0.491082 0
vt 1.499983 0.487394 0
vt 1.504431 0.491086 0
vt 1.000004 0.500019 0
vt 1.003170 0.500019 0
vt 1.002243 0.504496 0
vt 1.000004 0.506351 0
vt 0.997765 0.504496 0
vt 0.996838 0.500019 0
vt 0.997765 0.495542 0
vt 1.000004 0.493687 0
vt 1.002243 0.495542 0
vt 1.007476 0.499991 0
vt 1.005285 0.510514 0
vt 1.008837 0.517661 0
vt 1.012485 0.500022 0
vt 1.000034 0.514876 0
vt 1.000002 0.524982 0
vt 0.994784 0.510507 0
vt 0.991171 0.517661 0
vt 1.994784 0.510507 0
vt 1.992591 0.499990 0
vt 1.987515 0.500022 0
vt 1.991171 0.517661 0
vt 1.994769 0.489462 0
vt 1.991171 0.482383 0
vt 0.994769 0.489462 0
vt 1.000020 0.485100 0
vt 1.000004 0.475046 0
vt 0.991171 0.482383 0
vt 1.005285 0.489466 0
vt 1.008838 0.482381 0
vt 1.010366 0.520623 0
vt 1.014595 0.499999 0
vt 1.000002 0.529191 0
vt 0.989665 0.520626 0
vt 1.985405 0.499999 0
vt 1.989665 0.520626 0
vt 1.989666 0.479372 0
vt 1.000032 0.470809 0
vt 0.989666 0.479372 0
vt 1.010366 0.479373 0
vt 1.009820 0.519542 0
vt 1.013829 0.499999 0
vt 1.000002 0.527659 0
vt 0.990209 0.519545 0
vt 1.986171 0.499999 0
vt 1.990209 0.519545 0
vt 1.990209 0.480453 0
vt 1.000030 0.472341 0
vt 0.990209 0.480453 0
vt 1.009820 0.480454 0
vt 1.007885 0.515762 0
vt 1.011139 0.500020 0
vt 1.000002 0.522291 0
vt 0.992123 0.515762 0
vt 1.988877 0.500020 0
vt 1.992123 0.515762 0
vt 1.992123 0.484277 0
vt 1.000004 0.477763 0
vt 0.992123 0.484277 0
vt 1.007884 0.484279 0
vt 1.004474 0.508904 0
vt 1.006330 0.499992 0
vt 1.000027 0.512597 0
vt 0.995555 0.508913 0
vt 1.993726 0.499993 0
vt 1.995555 0.508913 0
vt 1.995569 0.491086 0
vt 1.000017 0.487394 0
vt 0.995569 0.491086 0
vt 1.004474 0.491082 0
vt 1.996838 0.500019 0
vt 1.997765 0.504496 0
vt 1.997765 0.495542 0
vt 1.980947 0.537847 0
vt 1.973162 0.499991 0
vt 1.000004 0.553655 0
vt 0.980947 0.537847 0
vt 1.019125 0.537859 0
vt 1.026838 0.499989 0
vt 1.019112 0.462134 0
vt 1.000059 0.446321 0
vt 0.980947 0.462132 0
vt 1.980947 0.462132 0
vt 1.525582 0.499996 0
vt 1.518171 0.536089 0
vt 1.499997 0.551148 0
vt 1.481778 0.536094 0
vt 1.474430 0.499996 0
vt 1.481764 0.463905 0
vt 1.499944 0.448834 0
vt 1.518169 0.463908 0
vn 3.35609e-006 -1 -2.72516e-006
vn 6.34483e-007 -1 -5.39477e-007
vn -1.79292e-006 -1 -1.47201e-006
vn -3.40601e-006 -1 -2.75098e-006
vn 3.40593e-006 -1 2.65555e-006
vn 1.80287e-006 -1 1.38454e-006
vn 6.34483e-007 -1 -5.39477e-007
vn 1.80287e-006 -1 1.38454e-006
vn -6.28209e-007 -1 4.64992e-007
vn -1.79292e-006 -1 -1.47201e-006
vn -6.28209e-007 -1 4.64992e-007
vn -3.45422e-006 -1 2.68462e-006
vn 9.82485e-009 1 4.157e-008
vn -5.3018e-009 1 4.23824e-008
vn -5.24871e-009 1 4.24258e-008
vn 5.83646e-010 1 4.28486e-008
vn 5.27784e-009 1 5.29722e-008
vn 1.47236e-008 1 6.24086e-008
vn 5.83646e-010 1 4.28486e-008
vn -5.24871e-009 1 4.24258e-008
vn -3.11037e-009 1 4.65512e-008
vn 5.27784e-009 1 5.29722e-008
vn -1.01121e-008 1 6.16857e-008
vn -3.11037e-009 1 4.65512e-008
vn 5.31679e-008 2.30279e-011 1
vn 6.00798e-008 -1.80946e-008 1
vn 5.31679e-008 2.30279e-011 1
vn 4.76824e-008 1.44021e-008 1
vn 0.957516 -0.288381 5.47366e-008
vn 0.957516 -0.288381 3.19073e-008
vn 0.957516 -0.288381 5.47366e-008
vn 0.957516 -0.288381 7.75659e-008
vn -2.6584e-008 6.96831e-008 -1
vn -6.00798e-008 -1.81466e-008 -1
vn -2.6584e-008 6.96831e-008 -1
vn -0 1.39389e-007 -1
vn -0.957287 -0.289141 -1.37875e-008
vn -0.957287 -0.289141 -1.37875e-008
vn -0.957287 -0.289141 -1.37875e-008
vn -0.957287 -0.289141 -1.37875e-008
vn 0 0 1
vn 0.240826 -0.0495594 0.969302
vn 0.205424 0.134802 0.969345
vn 0.0493643 0.240708 0.969341
vn -0.134833 0.204486 0.969539
vn -0.238955 0.0495013 0.969768
vn -0.203526 -0.134333 0.96981
vn -0.0491939 -0.239171 0.96973
vn 0.134794 -0.204457 0.96955
vn 0.98282 -0.17926 0.0439512
vn 0.822181 0.567508 0.0441805
vn 0.52608 0.563514 -0.636939
vn 0.770679 0.0260109 -0.636693
vn 0.180491 0.982583 0.0441952
vn -0.0259682 0.771351 -0.63588
vn -0.56682 0.822646 0.0443744
vn -0.564283 0.526886 -0.635591
vn -0.982976 0.178356 0.0441373
vn -0.772299 -0.0254607 -0.634749
vn -0.822957 -0.566381 0.0442151
vn -0.527329 -0.564089 -0.635395
vn -0.180205 -0.982635 0.044213
vn 0.0260349 -0.772022 -0.635063
vn 0.567227 -0.822382 0.0440611
vn 0.563894 -0.526928 -0.635902
vn 0.653299 0.735815 -0.17826
vn 0.982191 0.0581071 -0.178675
vn -0.0582194 0.982327 -0.17789
vn -0.735987 0.652869 -0.179124
vn -0.982175 -0.0575394 -0.178943
vn -0.653677 -0.735044 -0.180047
vn 0.0580188 -0.982094 -0.179237
vn 0.735152 -0.653814 -0.179109
vn 0.724571 0.670688 0.158664
vn 0.98643 -0.0382561 0.159665
vn 0.0380394 0.986611 0.15859
vn -0.670397 0.7247 0.159304
vn -0.986483 0.0374976 0.159517
vn -0.725081 -0.669593 0.160946
vn -0.0381757 -0.986352 0.160164
vn 0.669787 -0.725144 0.15985
vn 0.605213 0.525022 0.598389
vn 0.798902 -0.0567822 0.598775
vn 0.0566707 0.799879 0.59748
vn -0.525283 0.606086 0.597275
vn -0.800602 0.0559424 0.596579
vn -0.605757 -0.52525 0.597637
vn -0.0566614 -0.799578 0.597883
vn 0.524789 -0.605412 0.598391
vn 0.42171 0.317931 0.849165
vn 0.523468 -0.0734632 0.848872
vn 0.0730324 0.523212 0.849067
vn -0.318168 0.421805 0.849029
vn -0.523563 0.0732387 0.848833
vn -0.422251 -0.319035 0.848481
vn -0.0731679 -0.524283 0.848395
vn 0.318598 -0.422263 0.84864
vn 0 0 -1
vn -0.238687 -0.0494484 -0.969837
vn -0.204137 0.134727 -0.969627
vn -0.0495178 0.240222 -0.969454
vn 0.134892 0.205402 -0.969337
vn 0.24095 0.0491909 -0.96929
vn 0.205025 -0.135008 -0.969401
vn 0.0493396 -0.239413 -0.969663
vn -0.134161 -0.203812 -0.969774
vn -0.982529 -0.18147 -0.0412981
vn -0.824374 0.564543 -0.0412147
vn -0.522705 0.562104 0.640952
vn -0.767715 0.0267878 0.640231
vn -0.182116 0.982417 -0.0411197
vn 0.0274067 0.766915 0.641163
vn 0.565661 0.823616 -0.0410362
vn 0.560915 0.522157 0.642438
vn 0.565661 0.823616 -0.0410362
vn 0.982139 0.183532 -0.0414628
vn 0.765343 -0.0271218 0.643051
vn 0.560915 0.522157 0.642438
vn 0.823808 -0.56534 -0.0416154
vn 0.522277 -0.561425 0.641894
vn 0.823808 -0.56534 -0.0416154
vn 0.182309 -0.982363 -0.0415558
vn -0.0273722 -0.766825 0.641272
vn 0.522277 -0.561425 0.641894
vn -0.56553 -0.823675 -0.04165
vn -0.561951 -0.522495 0.641256
vn -0.653039 0.735874 0.178967
vn -0.982141 0.0575277 0.179135
vn 0.0581304 0.98228 0.178176
vn 0.735733 0.65339 0.178262
vn 0.982223 -0.0581561 0.178481
vn 0.735733 0.65339 0.178262
vn 0.652362 -0.736426 0.179167
vn -0.0580798 -0.982099 0.17919
vn 0.652362 -0.736426 0.179167
vn -0.736331 -0.652129 0.180399
vn -0.72481 0.670254 -0.159406
vn -0.986514 -0.0375178 -0.159318
vn -0.0381371 0.986646 -0.158354
vn 0.670669 0.724504 -0.159048
vn 0.986405 0.0382155 -0.159824
vn 0.670669 0.724504 -0.159048
vn 0.723881 -0.671181 -0.159725
vn 0.0381161 -0.986339 -0.160255
vn 0.723881 -0.671181 -0.159725
vn -0.671014 -0.723903 -0.160329
vn -0.605803 0.524994 -0.597817
vn -0.800335 -0.0559505 -0.596937
vn -0.0566885 0.799815 -0.597564
vn 0.52563 0.605159 -0.597909
vn 0.798928 0.0566151 -0.598756
vn 0.52563 0.605159 -0.597909
vn 0.605275 -0.525001 -0.598344
vn 0.0566118 -0.800024 -0.597291
vn 0.605275 -0.525001 -0.598344
vn -0.525096 -0.605587 -0.597945
vn -0.422357 0.318684 -0.848561
vn -0.52394 -0.0733013 -0.848595
vn -0.0733508 0.523378 -0.848938
vn 0.318149 0.421619 -0.849128
vn 0.523679 0.0725781 -0.848818
vn 0.318149 0.421619 -0.849128
vn 0.421926 -0.317798 -0.849107
vn 0.0731875 -0.523718 -0.848742
vn 0.421926 -0.317798 -0.849107
vn -0.318225 -0.422504 -0.848659
vn 0.24095 0.0491909 -0.96929
vn 0.134892 0.205402 -0.969337
vn 0.205025 -0.135008 -0.969401
vn 0.755734 0.644291 -0.117286
vn 0.98991 -0.0794532 -0.11733
vn 0.0797172 0.989934 -0.116942
vn 0.755734 0.644291 -0.117286
vn -0.644025 0.756011 -0.116959
vn -0.989984 0.0796355 -0.116575
vn -0.756562 -0.643416 -0.116747
vn -0.0794845 -0.98997 -0.116801
vn 0.643419 -0.756524 -0.116977
vn 0.643419 -0.756524 -0.116977
vn 0.988787 0.080016 0.126089
vn 0.643448 0.755053 0.12598
vn -0.0792359 0.988927 0.125476
vn -0.755332 0.643231 0.12541
vn -0.988969 -0.0794455 0.125017
vn -0.643919 -0.754723 0.125544
vn 0.0793431 -0.988931 0.125379
vn 0.754779 -0.64381 0.125768
g P_Modul_41
usemtl P_Modul_41_BoxMetal
f 2/2/2 3/3/3 1/1/1
f 4/4/4 1/1/1 3/3/3
f 5/5/5 6/6/6 1/1/1
f 2/2/2 1/1/1 6/6/6
f 11/11/11 12/12/12 3/3/3
f 4/4/4 3/3/3 12/12/12
f 5/5/5 12/12/12 6/6/6
f 11/11/11 6/6/6 12/12/12
f 14/14/14 15/15/15 13/13/13
f 16/16/16 13/13/13 15/15/15
f 16/16/16 17/17/17 13/13/13
f 18/18/18 13/13/13 17/17/17
f 14/14/14 23/23/23 15/15/15
f 24/24/24 15/15/15 23/23/23
f 24/24/24 23/23/23 17/17/17
f 18/18/18 17/17/17 23/23/23
f 26/26/26 27/27/27 25/25/25
f 28/28/28 25/25/25 27/27/27
f 30/30/30 31/31/31 29/29/29
f 32/32/32 29/29/29 31/31/31
f 34/34/34 35/35/35 33/33/33
f 36/36/36 33/33/33 35/35/35
f 38/38/38 39/39/39 37/37/37
f 40/40/40 37/37/37 39/39/39
usemtl P_Modul_41_BoxWood
f 8/8/8 9/9/9 7/7/7
f 10/10/10 7/7/7 9/9/9
f 20/20/20 21/21/21 19/19/19
f 22/22/22 19/19/19 21/21/21
usemtl P_Modul_41_Axis
f 42/42/42 43/43/43 41/41/41
f 43/43/43 44/44/44 41/41/41
f 44/44/44 45/45/45 41/41/41
f 45/45/45 46/46/46 41/41/41
f 46/46/46 47/47/47 41/41/41
f 47/47/47 48/48/48 41/41/41
f 48/48/48 49/49/49 41/41/41
f 49/49/49 42/42/42 41/41/41
f 51/51/51 52/52/52 50/50/50
f 53/53/53 50/50/50 52/52/52
f 54/54/54 55/55/55 51/51/51
f 52/52/52 51/51/51 55/55/55
f 56/56/56 57/57/57 54/54/54
f 55/55/55 54/54/54 57/57/57
f 58/58/58 59/59/59 56/56/56
f 57/57/57 56/56/56 59/59/59
f 60/60/60 61/61/61 58/58/58
f 59/59/59 58/58/58 61/61/61
f 62/62/62 63/63/63 60/60/60
f 61/61/61 60/60/60 63/63/63
f 64/64/64 65/65/65 62/62/62
f 63/63/63 62/62/62 65/65/65
f 50/50/50 53/53/53 64/64/64
f 65/65/65 64/64/64 53/53/53
f 52/52/52 66/66/66 53/53/53
f 67/67/67 53/53/53 66/66/66
f 55/55/55 68/68/68 52/52/52
f 66/66/66 52/52/52 68/68/68
f 57/57/57 69/69/69 55/55/55
f 68/68/68 55/55/55 69/69/69
f 59/59/59 70/70/70 57/57/57
f 69/69/69 57/57/57 70/70/70
f 61/61/61 71/71/71 59/59/59
f 70/70/70 59/59/59 71/71/71
f 63/63/63 72/72/72 61/61/61
f 71/71/71 61/61/61 72/72/72
f 65/65/65 73/73/73 63/63/63
f 72/72/72 63/63/63 73/73/73
f 53/53/53 67/67/67 65/65/65
f 73/73/73 65/65/65 67/67/67
f 66/66/66 74/74/74 67/67/67
f 75/75/75 67/67/67 74/74/74
f 68/68/68 76/76/76 66/66/66
f 74/74/74 66/66/66 76/76/76
f 69/69/69 77/77/77 68/68/68
f 76/76/76 68/68/68 77/77/77
f 70/70/70 78/78/78 69/69/69
f 77/77/77 69/69/69 78/78/78
f 71/71/71 79/79/79 70/70/70
f 78/78/78 70/70/70 79/79/79
f 72/72/72 80/80/80 71/71/71
f 79/79/79 71/71/71 80/80/80
f 73/73/73 81/81/81 72/72/72
f 80/80/80 72/72/72 81/81/81
f 67/67/67 75/75/75 73/73/73
f 81/81/81 73/73/73 75/75/75
f 74/74/74 82/82/82 75/75/75
f 83/83/83 75/75/75 82/82/82
f 76/76/76 84/84/84 74/74/74
f 82/82/82 74/74/74 84/84/84
f 77/77/77 85/85/85 76/76/76
f 84/84/84 76/76/76 85/85/85
f 78/78/78 86/86/86 77/77/77
f 85/85/85 77/77/77 86/86/86
f 79/79/79 87/87/87 78/78/78
f 86/86/86 78/78/78 87/87/87
f 80/80/80 88/88/88 79/79/79
f 87/87/87 79/79/79 88/88/88
f 81/81/81 89/89/89 80/80/80
f 88/88/88 80/80/80 89/89/89
f 75/75/75 83/83/83 81/81/81
f 89/89/89 81/81/81 83/83/83
f 82/82/82 90/90/90 83/83/83
f 91/91/91 83/83/83 90/90/90
f 84/84/84 92/92/92 82/82/82
f 90/90/90 82/82/82 92/92/92
f 85/85/85 93/93/93 84/84/84
f 92/92/92 84/84/84 93/93/93
f 86/86/86 94/94/94 85/85/85
f 93/93/93 85/85/85 94/94/94
f 87/87/87 95/95/95 86/86/86
f 94/94/94 86/86/86 95/95/95
f 88/88/88 96/96/96 87/87/87
f 95/95/95 87/87/87 96/96/96
f 89/89/89 97/97/97 88/88/88
f 96/96/96 88/88/88 97/97/97
f 83/83/83 91/91/91 89/89/89
f 97/97/97 89/89/89 91/91/91
f 90/90/90 43/43/43 91/91/91
f 42/42/42 91/91/91 43/43/43
f 92/92/92 44/44/44 90/90/90
f 43/43/43 90/90/90 44/44/44
f 93/93/93 45/45/45 92/92/92
f 44/44/44 92/92/92 45/45/45
f 94/94/94 46/46/46 93/93/93
f 45/45/45 93/93/93 46/46/46
f 95/95/95 47/47/47 94/94/94
f 46/46/46 94/94/94 47/47/47
f 96/96/96 48/48/48 95/95/95
f 47/47/47 95/95/95 48/48/48
f 97/97/97 49/49/49 96/96/96
f 48/48/48 96/96/96 49/49/49
f 91/91/91 42/42/42 97/97/97
f 49/49/49 97/97/97 42/42/42
f 99/99/99 100/100/100 98/98/98
f 100/100/100 101/101/101 98/98/98
f 101/101/101 102/102/102 98/98/98
f 102/102/102 103/103/103 98/98/98
f 103/103/103 104/104/104 98/98/98
f 104/104/104 105/105/105 98/98/98
f 105/105/105 106/106/106 98/98/98
f 106/106/106 99/99/99 98/98/98
f 108/108/108 109/109/109 107/107/107
f 110/110/110 107/107/107 109/109/109
f 111/111/111 112/112/112 108/108/108
f 109/109/109 108/108/108 112/112/112
f 113/113/113 114/114/114 111/111/111
f 112/112/112 111/111/111 114/114/114
f 116/116/116 117/117/117 115/115/115
f 118/118/118 115/115/115 117/117/117
f 119/119/119 120/120/120 116/116/116
f 117/117/117 116/116/116 120/120/120
f 122/122/122 123/123/123 121/121/121
f 124/124/124 121/121/121 123/123/123
f 125/125/125 126/126/126 122/122/122
f 123/123/123 122/122/122 126/126/126
f 107/107/107 110/110/110 125/125/125
f 126/126/126 125/125/125 110/110/110
f 109/109/109 127/127/127 110/110/110
f 128/128/128 110/110/110 127/127/127
f 112/112/112 129/129/129 109/109/109
f 127/127/127 109/109/109 129/129/129
f 114/114/114 130/130/130 112/112/112
f 129/129/129 112/112/112 130/130/130
f 117/117/117 131/131/131 118/118/118
f 132/132/132 118/118/118 131/131/131
f 120/120/120 133/133/133 117/117/117
f 131/131/131 117/117/117 133/133/133
f 123/123/123 134/134/134 124/124/124
f 135/135/135 124/124/124 134/134/134
f 126/126/126 136/136/136 123/123/123
f 134/134/134 123/123/123 136/136/136
f 110/110/110 128/128/128 126/126/126
f 136/136/136 126/126/126 128/128/128
f 127/127/127 137/137/137 128/128/128
f 138/138/138 128/128/128 137/137/137
f 129/129/129 139/139/139 127/127/127
f 137/137/137 127/127/127 139/139/139
f 130/130/130 140/140/140 129/129/129
f 139/139/139 129/129/129 140/140/140
f 131/131/131 141/141/141 132/132/132
f 142/142/142 132/132/132 141/141/141
f 133/133/133 143/143/143 131/131/131
f 141/141/141 131/131/131 143/143/143
f 134/134/134 144/144/144 135/135/135
f 145/145/145 135/135/135 144/144/144
f 136/136/136 146/146/146 134/134/134
f 144/144/144 134/134/134 146/146/146
f 128/128/128 138/138/138 136/136/136
f 146/146/146 136/136/136 138/138/138
f 137/137/137 147/147/147 138/138/138
f 148/148/148 138/138/138 147/147/147
f 139/139/139 149/149/149 137/137/137
f 147/147/147 137/137/137 149/149/149
f 140/140/140 150/150/150 139/139/139
f 149/149/149 139/139/139 150/150/150
f 141/141/141 151/151/151 142/142/142
f 152/152/152 142/142/142 151/151/151
f 143/143/143 153/153/153 141/141/141
f 151/151/151 141/141/141 153/153/153
f 144/144/144 154/154/154 145/145/145
f 155/155/155 145/145/145 154/154/154
f 146/146/146 156/156/156 144/144/144
f 154/154/154 144/144/144 156/156/156
f 138/138/138 148/148/148 146/146/146
f 156/156/156 146/146/146 148/148/148
f 147/147/147 157/157/157 148/148/148
f 158/158/158 148/148/148 157/157/157
f 149/149/149 159/159/159 147/147/147
f 157/157/157 147/147/147 159/159/159
f 150/150/150 160/160/160 149/149/149
f 159/159/159 149/149/149 160/160/160
f 151/151/151 161/161/161 152/152/152
f 162/162/162 152/152/152 161/161/161
f 153/153/153 163/163/163 151/151/151
f 161/161/161 151/151/151 163/163/163
f 154/154/154 164/164/164 155/155/155
f 165/165/165 155/155/155 164/164/164
f 156/156/156 166/166/166 154/154/154
f 164/164/164 154/154/154 166/166/166
f 148/148/148 158/158/158 156/156/156
f 166/166/166 156/156/156 158/158/158
f 157/157/157 100/100/100 158/158/158
f 99/99/99 158/158/158 100/100/100
f 159/159/159 101/101/101 157/157/157
f 100/100/100 157/157/157 101/101/101
f 160/160/160 102/102/102 159/159/159
f 101/101/101 159/159/159 102/102/102
f 161/161/161 167/167/167 162/162/162
f 168/168/168 162/162/162 167/167/167
f 163/163/163 169/169/169 161/161/161
f 167/167/167 161/161/161 169/169/169
f 164/164/164 105/105/105 165/165/165
f 104/104/104 165/165/165 105/105/105
f 166/166/166 106/106/106 164/164/164
f 105/105/105 164/164/164 106/106/106
f 158/158/158 99/99/99 166/166/166
f 106/106/106 166/166/166 99/99/99
f 170/170/170 171/171/171 116/116/116
f 115/115/115 170/170/170 116/116/116
f 172/172/172 173/173/173 113/113/113
f 111/111/111 172/172/172 113/113/113
f 174/174/174 172/172/172 111/111/111
f 108/108/108 174/174/174 111/111/111
f 175/175/175 174/174/174 108/108/108
f 107/107/107 175/175/175 108/108/108
f 176/176/176 175/175/175 107/107/107
f 125/125/125 176/176/176 107/107/107
f 177/177/177 176/176/176 125/125/125
f 122/122/122 177/177/177 125/125/125
f 178/178/178 177/177/177 122/122/122
f 121/121/121 178/178/178 122/122/122
f 171/171/171 179/179/179 119/119/119
f 116/116/116 171/171/171 119/119/119
f 50/50/50 180/180/180 51/51/51
f 181/181/181 51/51/51 180/180/180
f 51/51/51 181/181/181 54/54/54
f 182/182/182 54/54/54 181/181/181
f 54/54/54 182/182/182 56/56/56
f 183/183/183 56/56/56 182/182/182
f 56/56/56 183/183/183 58/58/58
f 184/184/184 58/58/58 183/183/183
f 58/58/58 184/184/184 60/60/60
f 185/185/185 60/60/60 184/184/184
f 60/60/60 185/185/185 62/62/62
f 186/186/186 62/62/62 185/185/185
f 62/62/62 186/186/186 64/64/64
f 187/187/187 64/64/64 186/186/186
f 64/64/64 187/187/187 50/50/50
f 180/180/180 50/50/50 187/187/187
