mtllib E:\Programming\GameProjects\Ballance\ResourceFactory\P_Modul_08_Col4_Mesh.mtl
v 0.0253504 0.335802 -1.78257
v 0.0253467 0.335799 1.78257
v 2.996 0.875475 1.78257
v 2.996 0.875478 -1.78257
v 3.35 0.479949 1.78301
v 3.35 0.479951 -1.78299
v 3.35 0.875478 -1.78299
v 3.35 0.875475 1.78301
v 3.35 0.875478 -1.78299
v 2.996 0.875478 -1.78257
v 3.35 0.875475 1.78301
v 3.35 0.875475 1.78301
v 2.996 0.875478 -1.78257
v 2.996 0.875475 1.78257
v 3.35 0.479951 -1.78299
v 0.0253504 0.335802 -1.78257
v 2.996 0.875478 -1.78257
v 3.35 0.479951 -1.78299
v 2.996 0.875478 -1.78257
v 3.35 0.875478 -1.78299
v 0.0253467 0.335799 1.78257
v 3.35 0.479949 1.78301
v 3.35 0.875475 1.78301
v 0.0253467 0.335799 1.78257
v 3.35 0.875475 1.78301
v 2.996 0.875475 1.78257
v 3.35 0.479949 1.78301
v 0.0253467 0.335799 1.78257
v 3.35 0.479951 -1.78299
v 3.35 0.479951 -1.78299
v 0.0253467 0.335799 1.78257
v 0.0253504 0.335802 -1.78257
vt 0.000000 -0.000000 0
vt 0.000000 -0.000000 0
vt 0.000000 -0.000000 0
vt 0.000000 -0.000000 0
vt 0.000000 -0.000000 0
vt 0.000000 -0.000000 0
vt 0.000000 -0.000000 0
vt 0.000000 -0.000000 0
vt 0.000000 -0.000000 0
vt 0.000000 -0.000000 0
vt 0.000000 -0.000000 0
vt 0.000000 -0.000000 0
vt 0.000000 -0.000000 0
vt 0.000000 -0.000000 0
vt 0.000000 -0.000000 0
vt 0.000000 -0.000000 0
vt 0.000000 -0.000000 0
vt 0.000000 -0.000000 0
vt 0.000000 -0.000000 0
vt 0.000000 -0.000000 0
vt 0.000000 -0.000000 0
vt 0.000000 -0.000000 0
vt 0.000000 -0.000000 0
vt 0.000000 -0.000000 0
vt 0.000000 -0.000000 0
vt 0.000000 -0.000000 0
vt 0.000000 -0.000000 0
vt 0.000000 -0.000000 0
vt 0.000000 -0.000000 0
vt 0.000000 -0.000000 0
vt 0.000000 -0.000000 0
vt 0.000000 -0.000000 0
vn 6.92276e-007 0.983758 0.178719
vn 7.26664e-007 0.983758 0.178719
vn 6.92276e-007 0.983758 0.178719
vn 6.57888e-007 0.983758 0.178718
vn 6.68742e-008 -8.06219e-014 -1.00023
vn 6.68742e-008 -8.06219e-014 -1.00023
vn 6.68742e-008 -8.06219e-014 -1.00023
vn 6.68742e-008 -8.06219e-014 -1.00023
vn 7.35334e-007 0.999846 6.72534e-007
vn 7.35334e-007 0.999846 6.72534e-007
vn 7.35334e-007 0.999846 6.72534e-007
vn 6.68811e-007 1.00009 8.40979e-010
vn 6.68811e-007 1.00009 8.40979e-010
vn 6.68811e-007 1.00009 8.40979e-010
vn -0.999756 0.000902418 0.000163661
vn -0.999756 0.000902418 0.000163661
vn -0.999756 0.000902418 0.000163661
vn -0.999834 9.04031e-007 0.00117102
vn -0.999834 9.04031e-007 0.00117102
vn -0.999834 9.04031e-007 0.00117102
vn 0.999802 -6.02678e-007 0.000133978
vn 0.999802 -6.02678e-007 0.000133978
vn 0.999802 -6.02678e-007 0.000133978
vn 1.00006 0.00692058 0.0012575
vn 1.00006 0.00692058 0.0012575
vn 1.00006 0.00692058 0.0012575
vn -6.64949e-007 -0.998887 -0.0433095
vn -6.64949e-007 -0.998887 -0.0433095
vn -6.64949e-007 -0.998887 -0.0433095
vn -7.38582e-007 -0.999134 -0.0433201
vn -7.38582e-007 -0.999134 -0.0433201
vn -7.38582e-007 -0.999134 -0.0433201
g P_Modul_08_Col4_Mesh
f 2/2/2 3/3/3 1/1/1
f 4/4/4 1/1/1 3/3/3
f 6/6/6 7/7/7 5/5/5
f 8/8/8 5/5/5 7/7/7
f 10/10/10 11/11/11 9/9/9
f 13/13/13 14/14/14 12/12/12
f 16/16/16 17/17/17 15/15/15
f 19/19/19 20/20/20 18/18/18
f 22/22/22 23/23/23 21/21/21
f 25/25/25 26/26/26 24/24/24
f 28/28/28 29/29/29 27/27/27
f 31/31/31 32/32/32 30/30/30
