mtllib E:\Programming\GameProjects\Ballance\ResourceFactory\P_Modul_18_Kollisionsquader.mtl
v -0.999999 -0.00105121 0.999999
v -1 0.00104921 -0.999997
v 0.999999 0.00105121 -0.999999
v 1 -0.00104921 0.999997
v -0.999983 15.9988 1.06721
v 1.00002 15.9988 1.06721
v 1.00002 16.0009 -0.932788
v -0.999985 16.0009 -0.932786
v -0.999999 -0.00105121 0.999999
v 1 -0.00104921 0.999997
v 1.00002 15.9988 1.06721
v -0.999983 15.9988 1.06721
v 1 -0.00104921 0.999997
v 0.999999 0.00105121 -0.999999
v 1.00002 16.0009 -0.932788
v 1.00002 15.9988 1.06721
v 0.999999 0.00105121 -0.999999
v -1 0.00104921 -0.999997
v -0.999985 16.0009 -0.932786
v 1.00002 16.0009 -0.932788
v -1 0.00104921 -0.999997
v -0.999999 -0.00105121 0.999999
v -0.999983 15.9988 1.06721
v -0.999985 16.0009 -0.932786
vt 0.000000 -0.000000 0
vt 0.000000 -0.000000 0
vt 0.000000 -0.000000 0
vt 0.000000 -0.000000 0
vt 0.000000 -0.000000 0
vt 0.000000 -0.000000 0
vt 0.000000 -0.000000 0
vt 0.000000 -0.000000 0
vt 0.000000 -0.000000 0
vt 0.000000 -0.000000 0
vt 0.000000 -0.000000 0
vt 0.000000 -0.000000 0
vt 0.000000 -0.000000 0
vt 0.000000 -0.000000 0
vt 0.000000 -0.000000 0
vt 0.000000 -0.000000 0
vt 0.000000 -0.000000 0
vt 0.000000 -0.000000 0
vt 0.000000 -0.000000 0
vt 0.000000 -0.000000 0
vt 0.000000 -0.000000 0
vt 0.000000 -0.000000 0
vt 0.000000 -0.000000 0
vt 0.000000 -0.000000 0
vn 0 -0.999998 -0
vn 0 -0.999998 -0
vn 0 -0.999998 -0
vn 0 -0.999998 -0
vn 0 0.999998 -0
vn 0 0.999998 -0
vn 0 0.999998 -0
vn 0 0.999998 -0
vn 0 0 1
vn 0 0 1
vn 0 0 1
vn 0 0 1
vn 0.999998 0 -0
vn 0.999998 0 -0
vn 0.999998 0 -0
vn 0.999998 0 -0
vn 0 0 -1
vn 0 0 -1
vn 0 0 -1
vn 0 0 -1
vn -0.999998 0 -0
vn -0.999998 0 -0
vn -0.999998 0 -0
vn -0.999998 0 -0
g P_Modul_18_Kollisionsquader
f 2/2/2 3/3/3 1/1/1
f 4/4/4 1/1/1 3/3/3
f 6/6/6 7/7/7 5/5/5
f 8/8/8 5/5/5 7/7/7
f 10/10/10 11/11/11 9/9/9
f 12/12/12 9/9/9 11/11/11
f 14/14/14 15/15/15 13/13/13
f 16/16/16 13/13/13 15/15/15
f 18/18/18 19/19/19 17/17/17
f 20/20/20 17/17/17 19/19/19
f 22/22/22 23/23/23 21/21/21
f 24/24/24 21/21/21 23/23/23
