mtllib E:\Programming\GameProjects\Ballance\ResourceFactory\P_Modul_37_Co3_Mesh.mtl
v -4.65618 3.59669 -1.44202
v -4.65618 3.59669 1.38758
v -1.68097 3.59669 -1.44202
v -1.68097 3.59669 1.38758
v -1.05334 0.124778 1.38758
v -3.38565 0.124777 1.38758
v -1.05334 0.124778 -1.44202
v -3.38565 0.124777 -1.44202
v -1.68097 3.59669 1.38758
v -4.65618 3.59669 1.38758
v -1.05334 0.124778 1.38758
v -3.38565 0.124777 1.38758
v -1.05334 2.09439 -1.44202
v -1.05334 2.09439 1.38758
v -1.05334 0.124778 -1.44202
v -1.05334 0.124778 1.38758
v -4.65618 3.59669 -1.44202
v -1.68097 3.59669 -1.44202
v -3.38565 0.124777 -1.44202
v -1.05334 0.124778 -1.44202
v -1.05334 2.09439 -1.44202
v -4.65618 3.59669 1.38758
v -4.65618 3.59669 -1.44202
v -3.38565 0.124777 1.38758
v -3.38565 0.124777 -1.44202
v -1.05334 2.09439 1.38758
v -1.68097 3.59669 1.38758
v -1.05334 2.09439 1.38758
v -1.68097 3.59669 -1.44202
v -1.05334 2.09439 -1.44202
v -1.68097 3.59669 -1.44202
v -1.05334 2.09439 1.38758
vt 0.000000 -0.000000 0
vt 0.000000 -0.000000 0
vt 0.000000 -0.000000 0
vt 0.000000 -0.000000 0
vt 0.000000 -0.000000 0
vt 0.000000 -0.000000 0
vt 0.000000 -0.000000 0
vt 0.000000 -0.000000 0
vt 0.000000 -0.000000 0
vt 0.000000 -0.000000 0
vt 0.000000 -0.000000 0
vt 0.000000 -0.000000 0
vt 0.000000 -0.000000 0
vt 0.000000 -0.000000 0
vt 0.000000 -0.000000 0
vt 0.000000 -0.000000 0
vt 0.000000 -0.000000 0
vt 0.000000 -0.000000 0
vt 0.000000 -0.000000 0
vt 0.000000 -0.000000 0
vt 0.000000 -0.000000 0
vt 0.000000 -0.000000 0
vt 0.000000 -0.000000 0
vt 0.000000 -0.000000 0
vt 0.000000 -0.000000 0
vt 0.000000 -0.000000 0
vt 0.000000 -0.000000 0
vt 0.000000 -0.000000 0
vt 0.000000 -0.000000 0
vt 0.000000 -0.000000 0
vt 0.000000 -0.000000 0
vt 0.000000 -0.000000 0
vn -8.01295e-008 0.999931 -8.42532e-008
vn -8.01295e-008 0.999931 -8.42532e-008
vn -8.01295e-008 0.999931 -8.42532e-008
vn -8.01295e-008 0.999931 -8.42532e-008
vn 1.02215e-007 -0.99991 1.68503e-007
vn 5.11075e-008 -0.99991 1.26377e-007
vn 5.11075e-008 -0.99991 1.26377e-007
vn 4.30627e-015 -0.99991 8.42514e-008
vn 2.00275e-008 3.62046e-009 0.999812
vn 2.00372e-008 -1.35469e-008 1.00013
vn 1.3359e-008 -9.03182e-009 1.00029
vn 3.5102e-015 -3.43383e-008 1.00008
vn 0.99983 0 -0
vn 0.99983 0 -0
vn 0.99983 0 -0
vn 0.99983 0 -0
vn -4.00745e-008 -1.46651e-008 -1.00017
vn -3.89165e-008 -1.52205e-008 -0.999789
vn -4.29771e-008 -1.0147e-008 -0.99977
vn -5.11234e-008 0 -1.00022
vn -4.44382e-008 -7.8915e-009 -0.999812
vn -0.939227 -0.343707 2.89604e-008
vn -0.939227 -0.343707 2.89604e-008
vn -0.939227 -0.343707 2.89604e-008
vn -0.939227 -0.343707 2.89604e-008
vn 0 0 0.999939
vn 0.922843 0.385547 -3.24858e-008
vn 0.922843 0.385547 -3.24858e-008
vn 0.922843 0.385547 -3.24858e-008
vn 0.922843 0.385547 -3.24858e-008
vn 0.922843 0.385547 -3.24858e-008
vn 0.922843 0.385547 -3.24858e-008
g P_Modul_37_Co3_Mesh
f 2/2/2 3/3/3 1/1/1
f 3/3/3 2/2/2 4/4/4
f 6/6/6 7/7/7 5/5/5
f 7/7/7 6/6/6 8/8/8
f 10/10/10 11/11/11 9/9/9
f 11/11/11 10/10/10 12/12/12
f 14/14/14 15/15/15 13/13/13
f 15/15/15 14/14/14 16/16/16
f 18/18/18 19/19/19 17/17/17
f 19/19/19 21/21/21 20/20/20
f 23/23/23 24/24/24 22/22/22
f 24/24/24 23/23/23 25/25/25
f 9/9/9 11/11/11 26/26/26
f 28/28/28 29/29/29 27/27/27
f 31/31/31 32/32/32 30/30/30
f 18/18/18 21/21/21 19/19/19
