mtllib P_Modul_19_Axis.mtl
v 0.205888 0.0197658 0.529767
v 0.133937 0.157982 5.81634
v 0.205888 0.0197658 5.81634
v 0.133937 0.157982 0.529768
v -0.014674 0.204839 5.81634
v -0.014674 0.204839 0.529768
v -0.15289 0.132888 5.81634
v -0.15289 0.132888 0.529768
v -0.199747 -0.0157227 5.81634
v -0.199747 -0.0157227 0.529767
v -0.127796 -0.153939 5.81634
v -0.127796 -0.153939 0.529768
v 0.0208145 -0.200796 5.81634
v 0.0208145 -0.200796 0.529768
v 0.159031 -0.128845 5.81634
v 0.159031 -0.128845 0.529768
v 0.159031 -0.128845 0.529768
v 0.159031 -0.128845 5.81634
v 0.205888 0.0197658 0.529767
v 1.12118 0.591255 0.0878916
v 0.133937 0.157982 0.529768
v 1.27255 0.113267 0.0878916
v 0.375942 1.21658 0.0878917
v -0.014674 0.204839 0.529768
v 0.822353 0.978094 0.0878917
v -0.593195 1.13179 0.0878917
v -0.15289 0.132888 0.529768
v -0.107513 1.27128 0.0878917
v -1.21852 0.386558 0.0878916
v -0.972342 0.821079 0.0878917
v -0.199747 -0.0157227 0.529767
v -1.13373 -0.582576 0.0878915
v -0.127796 -0.153939 0.529768
v -1.26553 -0.108786 0.0878916
v -0.388498 -1.2079 0.0878914
v 0.0208145 -0.200796 0.529768
v -0.815326 -0.973614 0.0878915
v 0.580637 -1.12312 0.0878914
v 0.159031 -0.128845 0.529768
v 0.11454 -1.2668 0.0878914
v 0.159031 -0.128845 0.529768
v 1.20597 -0.377879 0.0878915
v 0.979368 -0.816598 0.0878915
v 1.12118 0.591255 -0.075973
v 0.134166 0.157799 -0.505157
v 0.822353 0.978094 -0.0759729
v 0.2059 0.0199983 -0.505157
v 0.375942 1.21658 -0.0759729
v -0.0139983 0.204515 -0.505157
v -0.107513 1.27128 -0.0759729
v -1.21852 0.386558 -0.075973
v -0.151799 0.13278 -0.505157
v -0.198515 -0.0153834 -0.505157
v -0.593195 1.13179 -0.0759729
v -1.13373 -0.582576 -0.0759736
v -0.12678 -0.153184 -0.505157
v -1.26553 -0.108787 -0.0759735
v -0.815326 -0.973614 -0.0759736
v -0.388497 -1.2079 -0.0759736
v 0.0213835 -0.1999 -0.505157
v 0.11454 -1.2668 -0.0759736
v 0.580637 -1.12312 -0.0759736
v 0.159184 -0.128165 -0.505157
v 0.979369 -0.816598 -0.0759736
v 0.159184 -0.128165 -0.505157
v 0.580637 -1.12312 -0.0759736
v 1.20597 -0.377878 -0.0759736
v 1.27255 0.113267 -0.0759735
v 0.204549 0.0199895 -5.81701
v 0.132814 0.15779 -5.81701
v 0.134166 0.157799 -0.505157
v 0.2059 0.0199983 -0.505157
v -0.0153498 0.204506 -5.81701
v -0.0139983 0.204515 -0.505157
v -0.15315 0.132771 -5.81701
v -0.151799 0.13278 -0.505157
v -0.199866 -0.0153922 -5.81701
v -0.198515 -0.0153834 -0.505157
v -0.128132 -0.153193 -5.81701
v -0.12678 -0.153184 -0.505157
v 0.0200319 -0.199909 -5.81701
v 0.0213835 -0.1999 -0.505157
v 0.157833 -0.128174 -5.81701
v 0.159184 -0.128165 -0.505157
v 0.157833 -0.128174 -5.81701
v 0.159184 -0.128165 -0.505157
v -0.593195 1.13179 -0.0759729
v -0.972342 0.821079 -0.0759729
v -0.972342 0.821079 0.0878917
v -0.107513 1.27128 -0.0759729
v -0.593195 1.13179 0.0878917
v -0.107513 1.27128 0.0878917
v 0.375942 1.21658 -0.0759729
v 0.375942 1.21658 0.0878917
v 0.822353 0.978094 0.0878917
v 1.12118 0.591255 0.0878916
v 1.27255 0.113267 0.0878916
v 1.27255 0.113267 -0.0759735
v 1.12118 0.591255 -0.075973
v 0.822353 0.978094 -0.0759729
v 1.20597 -0.377879 0.0878915
v 1.20597 -0.377878 -0.0759736
v 0.979368 -0.816598 0.0878915
v 0.580637 -1.12312 -0.0759736
v 0.979369 -0.816598 -0.0759736
v 0.580637 -1.12312 0.0878914
v 0.11454 -1.2668 0.0878914
v 0.11454 -1.2668 -0.0759736
v -0.388497 -1.2079 -0.0759736
v -0.815326 -0.973614 -0.0759736
v -0.388498 -1.2079 0.0878914
v -0.815326 -0.973614 0.0878915
v -1.21852 0.386558 -0.075973
v -1.26553 -0.108787 -0.0759735
v -1.26553 -0.108786 0.0878916
v -1.21852 0.386558 0.0878916
v -1.13373 -0.582576 -0.0759736
v -1.13373 -0.582576 0.0878915
v -0.972342 0.821079 -0.0759729
v 0.979368 -0.816598 0.0878915
v 0.979368 -0.816598 0.0878915
v 0.979369 -0.816598 -0.0759736
v 0.205933 0.0197696 9.18278
v 0.133937 0.157982 9.99977
v 0.205888 0.019766 9.99977
v 0.133982 0.157986 9.18278
v 0.133982 0.157986 9.18278
v -0.0146741 0.204839 9.99977
v 0.133937 0.157982 9.99977
v -0.0146284 0.204843 9.18278
v -0.152891 0.132888 9.99977
v -0.152845 0.132892 9.18278
v -0.199747 -0.0157224 9.99977
v -0.199702 -0.0157189 9.18278
v -0.127796 -0.153939 9.99977
v -0.127751 -0.153935 9.18278
v 0.0208143 -0.200795 9.99977
v 0.02086 -0.200792 9.18278
v 0.159031 -0.128845 9.99977
v 0.159077 -0.128841 9.18278
v -0.0146741 0.204839 9.99977
v -0.152891 0.132888 9.99977
v -0.199747 -0.0157224 9.99977
v -0.127796 -0.153939 9.99977
v 0.0208143 -0.200795 9.99977
v 0.159031 -0.128845 9.99977
v 0.205888 0.019766 9.99977
v 0.133937 0.157982 9.99977
v 0.00307038 0.00202113 -10.0004
v 0.133937 0.157982 -10.0004
v 0.205888 0.0197654 -10.0004
v -0.0146738 0.204838 -10.0004
v 0.133937 0.157982 -10.0004
v -0.15289 0.132887 -10.0004
v -0.199747 -0.0157231 -10.0004
v -0.127796 -0.153939 -10.0004
v 0.0208146 -0.200796 -10.0004
v 0.159031 -0.128845 -10.0004
v 0.205888 0.0197654 -10.0004
v 0.133937 0.157982 -9.18369
v 0.205888 0.0197658 -9.18369
v 0.133937 0.157982 -10.0004
v 0.133937 0.157982 -10.0004
v -0.014674 0.204839 -9.18369
v 0.133937 0.157982 -9.18369
v -0.0146738 0.204838 -10.0004
v -0.15289 0.132888 -9.18369
v -0.15289 0.132887 -10.0004
v -0.199747 -0.0157227 -9.18369
v -0.199747 -0.0157231 -10.0004
v -0.127796 -0.153939 -9.18369
v -0.127796 -0.153939 -10.0004
v 0.0208145 -0.200796 -9.18369
v 0.0208146 -0.200796 -10.0004
v 0.159031 -0.128845 -9.18369
v 0.159031 -0.128845 -10.0004
vt 0.798601 -0.265034 0
vt 0.727117 -0.120071 0
vt 0.805903 -0.370780 0
vt 0.662935 -0.080853 0
vt 0.515289 -0.091919 0
vt 0.431825 -0.142203 0
vt 0.294505 -0.302816 0
vt 0.240650 -0.413145 0
vt 0.194097 -0.629220 0
vt 0.228322 -0.817763 0
vt 0.299418 -0.901737 0
vt 0.306855 -0.904869 0
vt 0.407898 -0.927491 0
vt 0.568175 -0.857797 0
vt 0.705495 -0.697184 0
vt 0.759350 -0.586855 0
vt 0.759350 -0.586855 0
vt 0.705495 -0.697184 0
vt 0.920068 -0.559725 0
vt 0.908674 -0.506316 0
vt 0.879440 -0.477527 0
vt 0.921145 -0.558205 0
vt 0.839869 -0.465071 0
vt 0.795710 -0.484000 0
vt 0.879854 -0.474467 0
vt 0.751200 -0.519415 0
vt 0.717967 -0.575110 0
vt 0.794554 -0.480823 0
vt 0.694289 -0.636758 0
vt 0.715173 -0.573596 0
vt 0.691583 -0.697516 0
vt 0.701782 -0.749117 0
vt 0.731973 -0.779754 0
vt 0.688233 -0.698484 0
vt 0.769597 -0.791434 0
vt 0.815644 -0.773622 0
vt 0.729556 -0.782281 0
vt 0.858710 -0.738171 0
vt 0.893626 -0.682472 0
vt 0.814912 -0.775857 0
vt 0.893626 -0.682472 0
vt 0.916610 -0.619756 0
vt 0.894262 -0.683024 0
vt 0.295914 -0.252366 0
vt 0.265097 -0.223354 0
vt 0.267235 -0.221082 0
vt 0.304805 -0.303548 0
vt 0.228325 -0.211973 0
vt 0.183320 -0.229657 0
vt 0.184051 -0.227328 0
vt 0.085717 -0.379089 0
vt 0.107471 -0.318464 0
vt 0.081786 -0.437726 0
vt 0.141384 -0.264808 0
vt 0.093187 -0.488621 0
vt 0.121217 -0.517883 0
vt 0.080484 -0.439507 0
vt 0.120744 -0.521155 0
vt 0.159710 -0.530076 0
vt 0.202862 -0.512007 0
vt 0.203907 -0.514938 0
vt 0.247071 -0.478430 0
vt 0.278988 -0.423237 0
vt 0.281272 -0.424477 0
vt 0.278988 -0.423237 0
vt 0.247071 -0.478430 0
vt 0.303804 -0.363087 0
vt 0.307509 -0.302750 0
vt 0.798519 -0.264999 0
vt 0.662890 -0.080834 0
vt 0.727054 -0.120044 0
vt 0.805819 -0.370744 0
vt 0.431843 -0.142211 0
vt 0.515284 -0.091917 0
vt 0.240721 -0.413175 0
vt 0.294561 -0.302839 0
vt 0.201481 -0.735001 0
vt 0.194181 -0.629256 0
vt 0.337110 -0.919166 0
vt 0.272946 -0.879956 0
vt 0.568157 -0.857789 0
vt 0.484716 -0.908083 0
vt 0.759279 -0.586825 0
vt 0.705439 -0.697161 0
vt 0.759279 -0.586825 0
vt 0.705439 -0.697161 0
vt 0.340180 -0.235789 0
vt 0.253644 -0.381854 0
vt 0.278083 -0.331805 0
vt 0.473305 -0.113428 0
vt 0.377438 -0.192189 0
vt 0.473306 -0.113428 0
vt 0.610372 -0.071980 0
vt 0.573206 -0.074789 0
vt 0.696876 -0.096671 0
vt 0.779517 -0.199634 0
vt 0.805119 -0.316179 0
vt 0.805119 -0.316179 0
vt 0.762820 -0.165800 0
vt 0.696876 -0.096671 0
vt 0.796916 -0.453591 0
vt 0.786329 -0.502726 0
vt 0.748612 -0.612991 0
vt 0.624808 -0.805417 0
vt 0.719446 -0.672764 0
vt 0.657365 -0.767354 0
vt 0.526694 -0.886572 0
vt 0.526694 -0.886572 0
vt 0.426916 -0.925191 0
vt 0.318860 -0.911827 0
vt 0.389012 -0.928008 0
vt 0.288401 -0.893242 0
vt 0.202085 -0.552216 0
vt 0.197108 -0.707315 0
vt 0.193817 -0.659725 0
vt 0.215164 -0.491499 0
vt 0.238758 -0.836844 0
vt 0.219115 -0.796973 0
vt 0.106700 -0.317808 0
vt 0.748612 -0.612991 0
vt 0.894262 -0.683024 0
vt 0.719446 -0.672764 0
vt 0.798619 -0.265042 0
vt 0.727132 -0.120077 0
vt 0.805921 -0.370787 0
vt 0.662946 -0.080858 0
vt 0.662946 -0.080858 0
vt 0.515291 -0.091920 0
vt 0.727132 -0.120077 0
vt 0.431822 -0.142202 0
vt 0.294494 -0.302811 0
vt 0.240635 -0.413139 0
vt 0.194079 -0.629213 0
vt 0.201381 -0.734958 0
vt 0.272868 -0.879923 0
vt 0.337054 -0.919142 0
vt 0.484709 -0.908080 0
vt 0.568178 -0.857798 0
vt 0.705506 -0.697189 0
vt 0.759365 -0.586861 0
vt 0.829681 -0.638824 0
vt 0.829681 -0.638824 0
vt 0.829681 -0.638824 0
vt 0.829681 -0.638824 0
vt 0.829681 -0.638824 0
vt 0.829681 -0.638824 0
vt 0.829681 -0.638824 0
vt 0.829681 -0.638824 0
vt 0.170319 -0.361176 0
vt 0.170319 -0.361176 0
vt 0.170319 -0.361176 0
vt 0.170319 -0.361176 0
vt 0.170319 -0.361176 0
vt 0.170319 -0.361176 0
vt 0.170319 -0.361176 0
vt 0.170319 -0.361176 0
vt 0.170319 -0.361176 0
vt 0.170319 -0.361176 0
vt 0.798601 -0.265034 0
vt 0.727117 -0.120071 0
vt 0.805903 -0.370780 0
vt 0.662935 -0.080853 0
vt 0.662935 -0.080853 0
vt 0.515289 -0.091919 0
vt 0.727117 -0.120071 0
vt 0.431824 -0.142203 0
vt 0.294505 -0.302816 0
vt 0.240650 -0.413145 0
vt 0.194097 -0.629220 0
vt 0.201399 -0.734966 0
vt 0.272883 -0.879929 0
vt 0.337065 -0.919147 0
vt 0.484711 -0.908081 0
vt 0.568176 -0.857797 0
vt 0.705495 -0.697184 0
vt 0.759350 -0.586855 0
vn 0.990602 0.136774 -5.37564e-009
vn 0.797175 0.603748 -5.8312e-008
vn 0.990602 -0.136774 2.35385e-008
vn 0.603748 0.797175 -8.46656e-008
vn 0.136773 0.990602 -1.10808e-007
vn -0.136774 0.990602 -1.1235e-007
vn -0.603748 0.797175 -9.15811e-008
vn -0.797175 0.603748 -7.0059e-008
vn -0.990602 0.136774 -2.20625e-008
vn -0.923879 -0.382684 3.31135e-008
vn -0.707062 -0.707062 -0.0112789
vn -0.707062 -0.707062 0.011279
vn -0.382683 -0.92388 9.10516e-008
vn 0.136774 -0.990602 1.00251e-007
vn 0.603748 -0.797175 8.46805e-008
vn 0.797175 -0.603748 6.96735e-008
vn 0.797175 -0.603748 6.96735e-008
vn 0.603748 -0.797175 8.46805e-008
vn 0.375149 9.03093e-008 0.926965
vn 0.354386 0.146791 0.923506
vn 0.265039 0.265039 0.927097
vn 0.38147 1.15704e-007 0.924381
vn 0.146125 0.352778 0.924227
vn -1.95274e-007 0.37439 0.927271
vn 0.269742 0.269743 0.92438
vn -0.145432 0.351105 0.924973
vn -0.264532 0.264531 0.927387
vn -2.57912e-007 0.381557 0.924345
vn -0.350339 0.145115 0.925313
vn -0.269883 0.269883 0.924298
vn -0.374132 -1.05075e-007 0.927375
vn -0.350919 -0.145355 0.925056
vn -0.264782 -0.264781 0.927244
vn -0.381751 -1.38947e-007 0.924265
vn -0.146015 -0.352513 0.924345
vn -4.26168e-007 -0.374891 0.927069
vn -0.269937 -0.269937 0.924266
vn 0.146713 -0.354198 0.92359
vn 0.265291 -0.26529 0.926953
vn -6.08584e-007 -0.381666 0.9243
vn 0.265291 -0.26529 0.926953
vn 0.354978 -0.147036 0.923239
vn 0.269797 -0.269797 0.924348
vn 0.345674 0.143183 -0.927366
vn 0.258468 0.258468 -0.9308
vn 0.263082 0.263082 -0.928211
vn 0.365857 5.72164e-007 -0.930671
vn 0.142501 0.344029 -0.928083
vn -1.5339e-007 0.364993 -0.93101
vn -2.05794e-007 0.372019 -0.928225
vn -0.341366 0.141399 -0.929234
vn -0.257784 0.257784 -0.931179
vn -0.364488 2.96312e-007 -0.931208
vn -0.141764 0.342248 -0.928854
vn -0.341887 -0.141614 -0.92901
vn -0.257963 -0.257963 -0.93108
vn -0.371948 3.6505e-007 -0.928254
vn -0.263011 -0.263011 -0.928251
vn -0.142288 -0.343514 -0.928306
vn -4.48037e-007 -0.365351 -0.93087
vn -5.941e-007 -0.371988 -0.928237
vn 0.143031 -0.345307 -0.927527
vn 0.258647 -0.258648 -0.9307
vn 0.263066 -0.263066 -0.92822
vn 0.258647 -0.258648 -0.9307
vn 0.143031 -0.345307 -0.927527
vn 0.346207 -0.143404 -0.927133
vn 0.372059 7.26998e-007 -0.928209
vn 0.990602 0.136774 -0.000248438
vn 0.603748 0.797175 -0.000136837
vn 0.797175 0.603748 -0.000189845
vn 0.990602 -0.136774 -0.000254024
vn -0.136774 0.990602 5.49162e-005
vn 0.136774 0.990602 -1.44573e-005
vn -0.797175 0.603748 0.000214497
vn -0.603748 0.797175 0.000169394
vn -0.990602 -0.136774 0.000248431
vn -0.990602 0.136774 0.000254017
vn -0.603748 -0.797175 0.000136837
vn -0.797175 -0.603748 0.00018984
vn 0.136774 -0.990602 -5.49135e-005
vn -0.136774 -0.990602 1.44601e-005
vn 0.797175 -0.603748 -0.000214502
vn 0.603748 -0.797175 -0.000169394
vn 0.797175 -0.603748 -0.000214502
vn 0.603748 -0.797175 -0.000169394
vn -0.445468 0.895298 -1.20166e-006
vn -0.749489 0.662017 -7.57518e-007
vn -0.661719 0.749752 -9.19179e-007
vn -6.13428e-007 1 -1.09123e-006
vn -0.318762 0.947835 -1.13422e-006
vn -6.1927e-007 1 -7.27486e-007
vn 0.440287 0.897857 -1.20184e-006
vn 0.322732 0.94649 -1.13878e-006
vn 0.707107 0.707107 -8.75544e-007
vn 0.944765 0.327749 -3.89539e-007
vn 1 2.45371e-007 -2.11718e-013
vn 1 3.27162e-007 3.45613e-007
vn 0.899579 0.436759 -5.23125e-007
vn 0.707107 0.707107 -7.71616e-007
vn 0.944333 -0.328993 4.66354e-007
vn 0.900344 -0.435178 5.96664e-007
vn 0.75771 -0.652592 3.59729e-007
vn 0.326349 -0.945249 1.04416e-006
vn 0.65295 -0.757401 8.6449e-007
vn 0.437061 -0.899432 1.1118e-006
vn -1.59491e-006 -1 1.0529e-006
vn -1.60075e-006 -1 7.27484e-007
vn -0.322345 -0.946622 1.04079e-006
vn -0.659439 -0.751758 8.53919e-007
vn -0.442222 -0.896905 1.11058e-006
vn -0.75124 -0.660029 7.86596e-007
vn -0.948738 0.316064 -3.79429e-007
vn -0.998096 -0.0616827 2.64105e-007
vn -0.998111 0.0614344 -7.76013e-008
vn -0.894391 0.447286 -5.34345e-007
vn -0.895189 -0.445686 7.47052e-007
vn -0.948334 -0.317274 5.97986e-007
vn -0.263027 0.263026 -0.928243
vn 0.75771 -0.652592 3.59729e-007
vn 0.269797 -0.269797 0.924348
vn 0.65295 -0.757401 8.6449e-007
vn 0.990602 0.136774 5.55185e-005
vn 0.797175 0.603748 4.43818e-005
vn 0.990602 -0.136773 5.57062e-005
vn 0.603748 0.797175 3.3398e-005
vn 0.603748 0.797175 3.3398e-005
vn 0.136774 0.990602 7.04743e-006
vn 0.797175 0.603748 4.43818e-005
vn -0.136774 0.990602 -8.30961e-006
vn -0.603748 0.797175 -3.43925e-005
vn -0.797175 0.603748 -4.51197e-005
vn -0.990602 0.136774 -5.56952e-005
vn -0.990602 -0.136774 -5.55195e-005
vn -0.797175 -0.603748 -4.43622e-005
vn -0.603748 -0.797175 -3.33842e-005
vn -0.136773 -0.990602 -7.05416e-006
vn 0.136774 -0.990602 8.30785e-006
vn 0.603748 -0.797175 3.44255e-005
vn 0.797175 -0.603748 4.51563e-005
vn 0 0 1
vn 0 0 1
vn 0 0 1
vn 0 -0 1
vn 0 -0 1
vn 0 0 1
vn 0 0 1
vn 0 0 1
vn 0 0 -1
vn 0 0 -1
vn 0 0 -1
vn 0 0 -1
vn 0 0 -1
vn 0 0 -1
vn 0 0 -1
vn 0 0 -1
vn 0 0 -1
vn 0 0 -1
vn 0.990602 0.136774 5.37619e-008
vn 0.797175 0.603748 -2.66707e-007
vn 0.990602 -0.136774 2.17439e-007
vn 0.603748 0.797175 -4.1993e-007
vn 0.603748 0.797175 -4.1993e-007
vn 0.136774 0.990602 -5.97076e-007
vn 0.797175 0.603748 -2.66707e-007
vn -0.136774 0.990602 -6.29519e-007
vn -0.603748 0.797175 -5.60645e-007
vn -0.797175 0.603748 -4.55818e-007
vn -0.990602 0.136774 -1.8127e-007
vn -0.990602 -0.136774 -9.07207e-009
vn -0.797175 -0.603748 3.01823e-007
vn -0.603748 -0.797175 4.48983e-007
vn -0.136773 -0.990602 6.29658e-007
vn 0.136774 -0.990602 6.5358e-007
vn 0.603748 -0.797175 5.72695e-007
vn 0.797175 -0.603748 4.73913e-007
g P_Modul_19_Axis
usemtl P_Modul_19_Axis
f 2/2/2 3/3/3 1/1/1
f 4/4/4 2/2/2 1/1/1
f 5/5/5 2/2/2 4/4/4
f 6/6/6 5/5/5 4/4/4
f 7/7/7 5/5/5 6/6/6
f 8/8/8 7/7/7 6/6/6
f 9/9/9 7/7/7 8/8/8
f 10/10/10 9/9/9 8/8/8
f 11/11/11 9/9/9 10/10/10
f 12/12/12 13/13/13 10/10/10
f 13/13/13 11/11/11 10/10/10
f 14/14/14 13/13/13 12/12/12
f 15/15/15 13/13/13 14/14/14
f 16/16/16 15/15/15 14/14/14
f 3/3/3 18/18/18 17/17/17
f 1/1/1 3/3/3 17/17/17
f 20/20/20 21/21/21 19/19/19
f 19/19/19 22/22/22 20/20/20
f 23/23/23 24/24/24 21/21/21
f 21/21/21 25/25/25 23/23/23
f 26/26/26 27/27/27 24/24/24
f 24/24/24 23/23/23 28/28/28
f 27/27/27 30/30/30 29/29/29
f 31/31/31 27/27/27 29/29/29
f 32/32/32 33/33/33 31/31/31
f 31/31/31 34/34/34 32/32/32
f 35/35/35 36/36/36 33/33/33
f 33/33/33 37/37/37 35/35/35
f 38/38/38 39/39/39 36/36/36
f 36/36/36 40/40/40 38/38/38
f 42/42/42 19/19/19 41/41/41
f 41/41/41 43/43/43 42/42/42
f 45/45/45 46/46/46 44/44/44
f 44/44/44 47/47/47 45/45/45
f 49/49/49 50/50/50 48/48/48
f 48/48/48 45/45/45 49/49/49
f 52/52/52 53/53/53 51/51/51
f 54/54/54 49/49/49 52/52/52
f 53/53/53 56/56/56 55/55/55
f 57/57/57 51/51/51 53/53/53
f 56/56/56 58/58/58 55/55/55
f 55/55/55 57/57/57 53/53/53
f 60/60/60 61/61/61 59/59/59
f 59/59/59 56/56/56 60/60/60
f 63/63/63 64/64/64 62/62/62
f 66/66/66 60/60/60 65/65/65
f 47/47/47 68/68/68 67/67/67
f 67/67/67 63/63/63 47/47/47
f 70/70/70 71/71/71 69/69/69
f 72/72/72 69/69/69 71/71/71
f 73/73/73 74/74/74 70/70/70
f 71/71/71 70/70/70 74/74/74
f 75/75/75 76/76/76 73/73/73
f 74/74/74 73/73/73 76/76/76
f 77/77/77 78/78/78 75/75/75
f 76/76/76 75/75/75 78/78/78
f 79/79/79 80/80/80 77/77/77
f 78/78/78 77/77/77 80/80/80
f 81/81/81 82/82/82 79/79/79
f 80/80/80 79/79/79 82/82/82
f 83/83/83 84/84/84 81/81/81
f 82/82/82 81/81/81 84/84/84
f 69/69/69 72/72/72 85/85/85
f 86/86/86 85/85/85 72/72/72
f 88/88/88 89/89/89 87/87/87
f 91/91/91 92/92/92 90/90/90
f 94/94/94 95/95/95 93/93/93
f 94/94/94 93/93/93 90/90/90
f 97/97/97 98/98/98 96/96/96
f 99/99/99 100/100/100 95/95/95
f 102/102/102 98/98/98 101/101/101
f 102/102/102 101/101/101 103/103/103
f 105/105/105 106/106/106 104/104/104
f 104/104/104 106/106/106 107/107/107
f 107/107/107 109/109/109 108/108/108
f 111/111/111 112/112/112 110/110/110
f 114/114/114 115/115/115 113/113/113
f 116/116/116 89/89/89 88/88/88
f 110/110/110 112/112/112 117/117/117
f 118/118/118 115/115/115 114/114/114
f 92/92/92 94/94/94 90/90/90
f 28/28/28 26/26/26 24/24/24
f 95/95/95 100/100/100 93/93/93
f 46/46/46 45/45/45 48/48/48
f 87/87/87 91/91/91 90/90/90
f 26/26/26 30/30/30 27/27/27
f 87/87/87 89/89/89 91/91/91
f 50/50/50 49/49/49 54/54/54
f 113/113/113 115/115/115 116/116/116
f 119/119/119 54/54/54 52/52/52
f 113/113/113 116/116/116 88/88/88
f 34/34/34 31/31/31 29/29/29
f 117/117/117 118/118/118 114/114/114
f 37/37/37 33/33/33 32/32/32
f 117/117/117 112/112/112 118/118/118
f 52/52/52 51/51/51 119/119/119
f 109/109/109 111/111/111 110/110/110
f 40/40/40 36/36/36 35/35/35
f 107/107/107 111/111/111 109/109/109
f 58/58/58 56/56/56 59/59/59
f 105/105/105 120/120/120 106/106/106
f 121/121/121 39/39/39 38/38/38
f 104/104/104 107/107/107 108/108/108
f 61/61/61 60/60/60 66/66/66
f 96/96/96 99/99/99 95/95/95
f 68/68/68 47/47/47 44/44/44
f 96/96/96 98/98/98 99/99/99
f 25/25/25 21/21/21 20/20/20
f 122/122/122 102/102/102 103/103/103
f 64/64/64 63/63/63 67/67/67
f 98/98/98 97/97/97 101/101/101
f 22/22/22 19/19/19 42/42/42
f 124/124/124 125/125/125 123/123/123
f 126/126/126 124/124/124 123/123/123
f 128/128/128 129/129/129 127/127/127
f 130/130/130 128/128/128 127/127/127
f 131/131/131 128/128/128 130/130/130
f 132/132/132 131/131/131 130/130/130
f 133/133/133 131/131/131 132/132/132
f 134/134/134 133/133/133 132/132/132
f 135/135/135 133/133/133 134/134/134
f 136/136/136 135/135/135 134/134/134
f 137/137/137 135/135/135 136/136/136
f 138/138/138 137/137/137 136/136/136
f 139/139/139 137/137/137 138/138/138
f 140/140/140 139/139/139 138/138/138
f 125/125/125 139/139/139 140/140/140
f 123/123/123 125/125/125 140/140/140
f 142/142/142 143/143/143 141/141/141
f 143/143/143 144/144/144 141/141/141
f 144/144/144 145/145/145 141/141/141
f 145/145/145 146/146/146 141/141/141
f 146/146/146 147/147/147 141/141/141
f 147/147/147 148/148/148 141/141/141
f 150/150/150 151/151/151 149/149/149
f 152/152/152 153/153/153 149/149/149
f 154/154/154 152/152/152 149/149/149
f 155/155/155 154/154/154 149/149/149
f 156/156/156 155/155/155 149/149/149
f 157/157/157 156/156/156 149/149/149
f 158/158/158 157/157/157 149/149/149
f 151/151/151 158/158/158 149/149/149
f 160/160/160 161/161/161 159/159/159
f 162/162/162 160/160/160 159/159/159
f 164/164/164 165/165/165 163/163/163
f 166/166/166 164/164/164 163/163/163
f 167/167/167 164/164/164 166/166/166
f 168/168/168 167/167/167 166/166/166
f 169/169/169 167/167/167 168/168/168
f 170/170/170 169/169/169 168/168/168
f 171/171/171 169/169/169 170/170/170
f 172/172/172 171/171/171 170/170/170
f 173/173/173 171/171/171 172/172/172
f 174/174/174 173/173/173 172/172/172
f 175/175/175 173/173/173 174/174/174
f 176/176/176 175/175/175 174/174/174
f 161/161/161 175/175/175 176/176/176
f 159/159/159 161/161/161 176/176/176
