mtllib P_Modul_30_Col1_Mesh.mtl
v -7.01178 -2.86105 -2.39566
v -7.01178 -2.86105 2.60434
v 7.56338 -0.291056 -2.39566
v 7.56338 -0.291056 2.60434
v 7.64938 -0.778817 2.60434
v -6.92577 -3.34881 2.60434
v 7.64938 -0.778817 -2.39566
v -6.92577 -3.34881 -2.39566
v 7.56338 -0.291056 2.60434
v -7.01178 -2.86105 2.60434
v 7.64938 -0.778817 2.60434
v -6.92577 -3.34881 2.60434
v 7.56338 -0.291056 -2.39566
v 7.56338 -0.291056 2.60434
v 7.64938 -0.778817 -2.39566
v 7.64938 -0.778817 2.60434
v -7.01178 -2.86105 -2.39566
v 7.56338 -0.291056 -2.39566
v -6.92577 -3.34881 -2.39566
v 7.64938 -0.778817 -2.39566
v -7.01178 -2.86105 2.60434
v -7.01178 -2.86105 -2.39566
v -6.92577 -3.34881 2.60434
v -6.92577 -3.34881 -2.39566
vt 0.000000 -0.000000 0
vt 0.000000 -0.000000 0
vt 0.000000 -0.000000 0
vt 0.000000 -0.000000 0
vt 0.000000 -0.000000 0
vt 0.000000 -0.000000 0
vt 0.000000 -0.000000 0
vt 0.000000 -0.000000 0
vt 0.000000 -0.000000 0
vt 0.000000 -0.000000 0
vt 0.000000 -0.000000 0
vt 0.000000 -0.000000 0
vt 0.000000 -0.000000 0
vt 0.000000 -0.000000 0
vt 0.000000 -0.000000 0
vt 0.000000 -0.000000 0
vt 0.000000 -0.000000 0
vt 0.000000 -0.000000 0
vt 0.000000 -0.000000 0
vt 0.000000 -0.000000 0
vt 0.000000 -0.000000 0
vt 0.000000 -0.000000 0
vt 0.000000 -0.000000 0
vt 0.000000 -0.000000 0
vn 0 0.9999 -0
vn 0 0.9999 -0
vn 0 0.9999 -0
vn 0 0.9999 -0
vn 0 -0.9999 -0
vn 0 -0.9999 -0
vn 0 -0.9999 -0
vn 0 -0.9999 -0
vn 0 0 1.00019
vn 0 0 1.00019
vn 0 0 1.00019
vn 0 0 1.00019
vn 0.99991 0 -0
vn 0.99991 0 -0
vn 0.99991 0 -0
vn 0.99991 0 -0
vn 0 0 -1.00019
vn 0 0 -1.00019
vn 0 0 -1.00019
vn 0 0 -1.00019
vn -0.99991 0 -0
vn -0.99991 0 -0
vn -0.99991 0 -0
vn -0.99991 0 -0
g P_Modul_30_Col1_Mesh
f 2/2/2 3/3/3 1/1/1
f 3/3/3 2/2/2 4/4/4
f 6/6/6 7/7/7 5/5/5
f 7/7/7 6/6/6 8/8/8
f 10/10/10 11/11/11 9/9/9
f 11/11/11 10/10/10 12/12/12
f 14/14/14 15/15/15 13/13/13
f 15/15/15 14/14/14 16/16/16
f 18/18/18 19/19/19 17/17/17
f 19/19/19 18/18/18 20/20/20
f 22/22/22 23/23/23 21/21/21
f 23/23/23 22/22/22 24/24/24
