v 2.49042 -1.49529 2.1542
v 5.95532 -0.369472 -2.11219
v 2.49042 -1.49529 -2.11219
v 5.95532 -0.369472 2.1542
v 2.33591 -1.01976 2.1542
v 5.80081 0.106056 -2.11219
v 5.80081 0.106056 2.1542
v 2.33591 -1.01976 -2.11219
v 2.49042 -1.49529 2.1542
v 5.80081 0.106056 2.1542
v 5.95532 -0.369472 2.1542
v 2.33591 -1.01976 2.1542
v 5.95532 -0.369472 2.1542
v 5.80081 0.106056 -2.11219
v 5.95532 -0.369472 -2.11219
v 5.80081 0.106056 2.1542
v 5.95532 -0.369472 -2.11219
v 2.33591 -1.01976 -2.11219
v 2.49042 -1.49529 -2.11219
v 5.80081 0.106056 -2.11219
v 2.49042 -1.49529 -2.11219
v 2.33591 -1.01976 2.1542
v 2.49042 -1.49529 2.1542
v 2.33591 -1.01976 -2.11219
vt 0.500000 -0.500000 0
vt 0.500000 -0.500000 0
vt 0.500000 -0.500000 0
vt 0.500000 -0.500000 0
vt 0.500000 -0.500000 0
vt 0.500000 -0.500000 0
vt 0.500000 -0.500000 0
vt 0.500000 -0.500000 0
vt 0.500000 -0.500000 0
vt 0.500000 -0.500000 0
vt 0.500000 -0.500000 0
vt 0.500000 -0.500000 0
vt 0.500000 -0.500000 0
vt 0.500000 -0.500000 0
vt 0.500000 -0.500000 0
vt 0.500000 -0.500000 0
vt 0.500000 -0.500000 0
vt 0.500000 -0.500000 0
vt 0.500000 -0.500000 0
vt 0.500000 -0.500000 0
vt 0.500000 -0.500000 0
vt 0.500000 -0.500000 0
vt 0.500000 -0.500000 0
vt 0.500000 -0.500000 0
vn 0.30899 -0.950974 -0
vn 0.30899 -0.950974 -0
vn 0.30899 -0.950974 -0
vn 0.30899 -0.950974 -0
vn -0.30899 0.950974 -0
vn -0.30899 0.950974 -0
vn -0.30899 0.950974 -0
vn -0.30899 0.950974 -0
vn 0 0 0.999948
vn 0 0 0.999948
vn 0 0 0.999948
vn 0 0 0.999948
vn 0.951011 0.309002 -0
vn 0.951011 0.309002 -0
vn 0.951011 0.309002 -0
vn 0.951011 0.309002 -0
vn 0 0 -0.999948
vn 0 0 -0.999948
vn 0 0 -0.999948
vn 0 0 -0.999948
vn -0.951011 -0.309002 -3.08896e-008
vn -0.951011 -0.309002 -3.08896e-008
vn -0.951011 -0.309002 -0
vn -0.951011 -0.309002 -6.17793e-008
g PE_Balloon_Col_02_Mesh
f 3/3/3 2/2/2 1/1/1
f 4/4/4 1/1/1 2/2/2
f 7/7/7 6/6/6 5/5/5
f 8/8/8 5/5/5 6/6/6
f 11/11/11 10/10/10 9/9/9
f 12/12/12 9/9/9 10/10/10
f 15/15/15 14/14/14 13/13/13
f 16/16/16 13/13/13 14/14/14
f 19/19/19 18/18/18 17/17/17
f 20/20/20 17/17/17 18/18/18
f 23/23/23 22/22/22 21/21/21
f 24/24/24 21/21/21 22/22/22
