v 0 -2.34089 -0
v 2 -2.34089 -0
v 0.618034 -2.34089 -1.90211
v -1.61803 -2.34089 -1.17557
v -1.61803 -2.34089 1.17557
v 0.618034 -2.34089 1.90211
v 2 -2.34089 -0
v 2 -1.84089 -0
v 0.618034 -1.84089 -1.90211
v 0.618034 -2.34089 -1.90211
v -1.61803 -1.84089 -1.17557
v -1.61803 -2.34089 -1.17557
v -1.61803 -1.84089 1.17557
v -1.61803 -2.34089 1.17557
v 0.618034 -1.84089 1.90211
v 0.618034 -2.34089 1.90211
v 0 -1.84089 -0
v 0.618034 -1.84089 -1.90211
v 2 -1.84089 -0
v -1.61803 -1.84089 -1.17557
v -1.61803 -1.84089 1.17557
v 0.618034 -1.84089 1.90211
vt 0.500000 -0.500000 0
vt 0.500000 -0.500000 0
vt 0.500000 -0.500000 0
vt 0.500000 -0.500000 0
vt 0.500000 -0.500000 0
vt 0.500000 -0.500000 0
vt 0.500000 -0.500000 0
vt 0.500000 -0.500000 0
vt 0.500000 -0.500000 0
vt 0.500000 -0.500000 0
vt 0.500000 -0.500000 0
vt 0.500000 -0.500000 0
vt 0.500000 -0.500000 0
vt 0.500000 -0.500000 0
vt 0.500000 -0.500000 0
vt 0.500000 -0.500000 0
vt 0.500000 -0.500000 0
vt 0.500000 -0.500000 0
vt 0.500000 -0.500000 0
vt 0.500000 -0.500000 0
vt 0.500000 -0.500000 0
vt 0.500000 -0.500000 0
vn 0 -0.999957 -0
vn 0 -0.999805 -0
vn 0 -0.999805 -0
vn 0 -0.999805 -0
vn 0 -0.999805 -0
vn 0 -0.999805 -0
vn 0.971842 0 -0.235362
vn 0.971842 0 0.235362
vn 0.524158 0 -0.851546
vn 0.0764736 0 -0.997008
vn -0.647895 0 -0.761646
vn -0.924579 0 -0.380823
vn -0.924579 0 0.380823
vn -0.647895 0 0.761646
vn 0.0764737 0 0.997008
vn 0.524158 0 0.851546
vn 0 0.999957 -0
vn 0 0.999805 -0
vn 0 0.999805 -0
vn 0 0.999805 -0
vn 0 0.999805 -0
vn 0 0.999805 -0
g PE_Balloon_Col_04_Mesh
f 3/3/3 2/2/2 1/1/1
f 4/4/4 3/3/3 1/1/1
f 5/5/5 4/4/4 1/1/1
f 6/6/6 5/5/5 1/1/1
f 2/2/2 6/6/6 1/1/1
f 9/9/9 8/8/8 7/7/7
f 10/10/10 9/9/9 7/7/7
f 11/11/11 9/9/9 10/10/10
f 12/12/12 11/11/11 10/10/10
f 13/13/13 11/11/11 12/12/12
f 14/14/14 13/13/13 12/12/12
f 15/15/15 13/13/13 14/14/14
f 16/16/16 15/15/15 14/14/14
f 8/8/8 15/15/15 16/16/16
f 7/7/7 8/8/8 16/16/16
f 19/19/19 18/18/18 17/17/17
f 18/18/18 20/20/20 17/17/17
f 20/20/20 21/21/21 17/17/17
f 21/21/21 22/22/22 17/17/17
f 22/22/22 19/19/19 17/17/17
