# 3ds Max Wavefront OBJ Exporter v0.97b - (c)2007 guruware
# 创建的文件:22.06.2022 22:18:42

#
# object P_Extra_Point_01
#

v  -0.0000 -2.4272 0.2427
v  -0.0000 -2.4272 -0.2427
v  -2.1020 -1.2136 -0.2427
v  -2.1020 -1.2136 0.2427
v  -2.1020 1.2136 -0.2427
v  -2.1020 1.2136 0.2427
v  -0.0000 2.4272 -0.2427
v  -0.0000 2.4272 0.2427
v  2.1020 1.2136 -0.2427
v  2.1020 1.2136 0.2427
v  2.1020 -1.2136 -0.2427
v  2.1020 -1.2136 0.2427
v  2.4272 -0.2427 -0.0000
v  2.4272 0.2427 -0.0000
v  1.2136 0.2427 -2.1020
v  1.2136 -0.2427 -2.1020
v  -1.2136 0.2427 -2.1020
v  -1.2136 -0.2427 -2.1020
v  -2.4272 0.2427 -0.0000
v  -2.4272 -0.2427 -0.0000
v  -1.2136 0.2427 2.1020
v  -1.2136 -0.2427 2.1020
v  1.2136 0.2427 2.1020
v  1.2136 -0.2427 2.1020
v  -0.2427 -2.4272 -0.0000
v  0.2427 -2.4272 -0.0000
v  0.2427 -1.2136 -2.1020
v  -0.2427 -1.2136 -2.1020
v  0.2427 1.2136 -2.1020
v  -0.2427 1.2136 -2.1020
v  0.2427 2.4272 -0.0000
v  -0.2427 2.4272 -0.0000
v  0.2427 1.2136 2.1020
v  -0.2427 1.2136 2.1020
v  0.2427 -1.2136 2.1020
v  -0.2427 -1.2136 2.1020
v  -2.1651 -1.2500 -0.2500
v  -0.0000 -2.5000 -0.2500
v  -0.0000 -2.5000 0.2500
v  -2.1651 -1.2500 0.2500
v  -2.1651 1.2500 -0.2500
v  -2.1651 1.2500 0.2500
v  -0.0000 2.5000 -0.2500
v  -0.0000 2.5000 0.2500
v  2.1651 1.2500 -0.2500
v  2.1651 1.2500 0.2500
v  2.1651 -1.2500 -0.2500
v  2.1651 -1.2500 0.2500
v  1.2500 0.2500 -2.1651
v  2.5000 0.2500 -0.0000
v  2.5000 -0.2500 -0.0000
v  1.2500 -0.2500 -2.1651
v  -1.2500 0.2500 -2.1651
v  -1.2500 -0.2500 -2.1651
v  -2.5000 0.2500 -0.0000
v  -2.5000 -0.2500 -0.0000
v  -1.2500 0.2500 2.1651
v  -1.2500 -0.2500 2.1651
v  1.2500 0.2500 2.1651
v  1.2500 -0.2500 2.1651
v  0.2500 -1.2500 -2.1651
v  0.2500 -2.5000 -0.0000
v  -0.2500 -2.5000 -0.0000
v  -0.2500 -1.2500 -2.1651
v  0.2500 1.2500 -2.1651
v  -0.2500 1.2500 -2.1651
v  0.2500 2.5000 -0.0000
v  -0.2500 2.5000 -0.0000
v  0.2500 1.2500 2.1651
v  -0.2500 1.2500 2.1651
v  0.2500 -1.2500 2.1651
v  -0.2500 -1.2500 2.1651
v  -2.5000 -2.5000 2.5000
v  2.5000 -2.5000 2.5000
v  -0.0000 -2.0000 -0.0000
v  2.5000 -2.5000 -2.5000
v  -2.5000 -2.5000 -2.5000
# 77 vertices

vn 0.4999 0.8658 -0.0000
vn 0.9998 0.0000 -0.0000
vn 0.4999 -0.8658 -0.0000
vn -0.4999 -0.8658 0.0000
vn -0.4999 -0.8658 -0.0000
vn -0.9998 0.0000 -0.0000
vn -0.4999 0.8659 -0.0000
vn -0.4999 0.8658 0.0000
vn -0.8658 0.0000 0.4999
vn 0.0000 0.0000 0.9998
vn 0.8658 -0.0000 0.4999
vn 0.8658 0.0000 0.4999
vn 0.8658 0.0000 -0.4999
vn 0.0000 0.0000 -0.9998
vn -0.8658 0.0000 -0.4999
vn 0.0000 0.8658 0.4999
vn 0.0000 -0.8658 0.4999
vn 0.0000 -0.8658 -0.4999
vn 0.0000 0.8658 -0.4999
vn -0.0000 0.8658 -0.4999
vn -0.5001 -0.8662 0.0000
vn -0.5001 -0.8662 -0.0000
vn -1.0002 0.0000 -0.0000
vn -0.5001 0.8662 -0.0000
vn -0.5001 0.8662 0.0000
vn 0.5000 0.8660 -0.0000
vn 1.0002 0.0000 -0.0000
vn 1.0000 0.0000 -0.0000
vn 0.5000 -0.8660 -0.0000
vn 0.8660 0.0000 -0.5000
vn 0.0000 0.0000 -1.0002
vn 0.0000 0.0000 -1.0000
vn -0.8660 0.0000 -0.5000
vn -0.8660 -0.0000 0.5000
vn -0.8660 0.0000 0.5000
vn 0.0000 0.0000 1.0002
vn 0.8660 0.0000 0.5000
vn -0.0000 -0.8660 -0.5000
vn 0.0000 -0.8660 -0.5000
vn 0.0000 0.8660 -0.5000
vn 0.0000 0.8660 0.5000
vn 0.0000 -0.8660 0.5000
vn 0.0000 0.9806 0.1961
vn 0.1961 0.9806 -0.0000
vn 0.0000 0.9805 -0.1961
vn -0.1961 0.9805 -0.0000
# 46 vertex normals

vt 0.5000 -0.5000 0.0000
# 1 texture coords

o P_Extra_Point_01
g P_Extra_Point_01
s 1
f 1/1/1 2/1/1 3/1/1 
f 1/1/1 3/1/1 4/1/1 
f 4/1/2 3/1/2 5/1/2 
f 4/1/2 5/1/2 6/1/2 
f 6/1/3 5/1/3 7/1/3 
f 6/1/3 7/1/3 8/1/3 
f 8/1/4 7/1/4 9/1/4 
f 8/1/5 9/1/5 10/1/5 
f 10/1/6 9/1/6 11/1/6 
f 10/1/6 11/1/6 12/1/6 
f 12/1/7 11/1/7 2/1/7 
f 12/1/8 2/1/8 1/1/8 
f 13/1/9 14/1/9 15/1/9 
f 13/1/9 15/1/9 16/1/9 
f 16/1/10 15/1/10 17/1/10 
f 16/1/10 17/1/10 18/1/10 
f 18/1/11 17/1/12 19/1/11 
f 18/1/11 19/1/11 20/1/11 
f 20/1/13 19/1/13 21/1/13 
f 20/1/13 21/1/13 22/1/13 
f 22/1/14 21/1/14 23/1/14 
f 22/1/14 23/1/14 24/1/14 
f 24/1/15 23/1/15 14/1/15 
f 24/1/15 14/1/15 13/1/15 
f 25/1/16 26/1/16 27/1/16 
f 25/1/16 27/1/16 28/1/16 
f 28/1/10 27/1/10 29/1/10 
f 28/1/10 29/1/10 30/1/10 
f 30/1/17 29/1/17 31/1/17 
f 30/1/17 31/1/17 32/1/17 
f 32/1/18 31/1/18 33/1/18 
f 32/1/18 33/1/18 34/1/18 
f 34/1/14 33/1/14 35/1/14 
f 34/1/14 35/1/14 36/1/14 
f 36/1/19 35/1/19 26/1/19 
f 36/1/20 26/1/20 25/1/20 
f 37/1/21 38/1/21 39/1/21 
f 40/1/22 37/1/22 39/1/22 
f 41/1/23 37/1/23 40/1/23 
f 42/1/23 41/1/23 40/1/23 
f 43/1/24 41/1/24 42/1/24 
f 44/1/25 43/1/25 42/1/25 
f 45/1/26 43/1/26 44/1/26 
f 46/1/26 45/1/26 44/1/26 
f 47/1/2 45/1/27 46/1/2 
f 48/1/28 47/1/2 46/1/2 
f 38/1/29 47/1/29 48/1/29 
f 39/1/29 38/1/29 48/1/29 
f 49/1/30 50/1/30 51/1/30 
f 52/1/30 49/1/30 51/1/30 
f 53/1/14 49/1/31 52/1/14 
f 54/1/32 53/1/14 52/1/14 
f 55/1/33 53/1/33 54/1/33 
f 56/1/33 55/1/33 54/1/33 
f 57/1/34 55/1/34 56/1/34 
f 58/1/35 57/1/34 56/1/34 
f 59/1/36 57/1/36 58/1/36 
f 60/1/36 59/1/36 58/1/36 
f 50/1/37 59/1/37 60/1/37 
f 51/1/37 50/1/37 60/1/37 
f 61/1/38 62/1/38 63/1/38 
f 64/1/39 61/1/38 63/1/38 
f 65/1/31 61/1/31 64/1/31 
f 66/1/31 65/1/31 64/1/31 
f 67/1/40 65/1/40 66/1/40 
f 68/1/40 67/1/40 66/1/40 
f 69/1/41 67/1/41 68/1/41 
f 70/1/41 69/1/41 68/1/41 
f 71/1/36 69/1/36 70/1/36 
f 72/1/36 71/1/36 70/1/36 
f 62/1/42 71/1/42 72/1/42 
f 63/1/42 62/1/42 72/1/42 
f 73/1/43 74/1/43 75/1/43 
f 74/1/44 76/1/44 75/1/44 
f 76/1/45 77/1/45 75/1/45 
f 77/1/46 73/1/46 75/1/46 
# 0 polygons - 76 triangles

