# 3ds Max Wavefront OBJ Exporter v0.97b - (c)2007 guruware
# 创建的文件:22.06.2022 22:20:17

#
# object P_Modul_34_01
#

v  -9.7500 -0.4302 -2.5000
v  -5.6500 -0.4302 2.5000
v  -5.6500 -0.4302 -2.5000
v  -9.7500 -0.4302 2.5000
v  -9.7500 -4.5302 2.5000
v  -9.7500 -4.5302 -2.5000
v  -5.6500 -4.5302 2.5000
v  -5.6500 -4.5302 -2.5000
v  -10.2000 4.7965 -2.5000
v  -5.2000 4.7965 2.5000
v  -5.2000 4.7965 -2.5000
v  -10.2000 4.7965 2.5000
v  -10.2000 -0.2035 2.5000
v  -10.2000 -0.2035 -2.5000
v  -5.2000 -0.2035 2.5000
v  -5.2000 -0.2035 -2.5000
v  -15.4000 0.0000 -2.5000
v  -10.4000 0.0000 2.5000
v  -10.4000 0.0000 -2.5000
v  -15.4000 0.0000 2.5000
v  -15.4000 -5.0000 2.5000
v  -15.4000 -5.0000 -2.5000
v  -10.4000 -5.0000 2.5000
v  -10.4000 -5.0000 -2.5000
v  -5.0000 0.0000 -2.5000
v  0.0000 0.0000 2.5000
v  0.0000 0.0000 -2.5000
v  -5.0000 0.0000 2.5000
v  -5.0000 -5.0000 2.5000
v  -5.0000 -5.0000 -2.5000
v  0.0000 -5.0000 2.5000
v  0.0000 -5.0000 -2.5000
# 32 vertices

vn 0.0000 1.0001 -0.0000
vn -1.0001 0.0000 -0.0000
vn 0.0000 0.0000 1.0002
vn 1.0001 0.0000 -0.0000
vn 0.0000 0.0000 -1.0002
vn 0.0000 0.0000 1.0001
vn 0.0000 0.0000 -1.0001
# 7 vertex normals

vt 0.5000 -0.5000 0.0000
# 1 texture coords

o P_Modul_34_01
g P_Modul_34_01
s 1
f 1/1/1 2/1/1 3/1/1 
f 2/1/1 1/1/1 4/1/1 
f 1/1/2 5/1/2 4/1/2 
f 5/1/2 1/1/2 6/1/2 
f 4/1/3 7/1/3 2/1/3 
f 7/1/3 4/1/3 5/1/3 
f 2/1/4 8/1/4 3/1/4 
f 8/1/4 2/1/4 7/1/4 
f 3/1/5 6/1/5 1/1/5 
f 6/1/5 3/1/5 8/1/5 
f 9/1/1 10/1/1 11/1/1 
f 10/1/1 9/1/1 12/1/1 
f 9/1/2 13/1/2 12/1/2 
f 13/1/2 9/1/2 14/1/2 
f 12/1/6 15/1/6 10/1/6 
f 15/1/6 12/1/6 13/1/6 
f 10/1/4 16/1/4 11/1/4 
f 16/1/4 10/1/4 15/1/4 
f 11/1/7 14/1/7 9/1/7 
f 14/1/7 11/1/7 16/1/7 
f 17/1/1 18/1/1 19/1/1 
f 18/1/1 17/1/1 20/1/1 
f 17/1/2 21/1/2 20/1/2 
f 21/1/2 17/1/2 22/1/2 
f 20/1/6 23/1/6 18/1/6 
f 23/1/6 20/1/6 21/1/6 
f 18/1/4 24/1/4 19/1/4 
f 24/1/4 18/1/4 23/1/4 
f 19/1/7 22/1/7 17/1/7 
f 22/1/7 19/1/7 24/1/7 
f 25/1/1 26/1/1 27/1/1 
f 26/1/1 25/1/1 28/1/1 
f 25/1/2 29/1/2 28/1/2 
f 29/1/2 25/1/2 30/1/2 
f 28/1/6 31/1/6 26/1/6 
f 31/1/6 28/1/6 29/1/6 
f 26/1/4 32/1/4 27/1/4 
f 32/1/4 26/1/4 31/1/4 
f 27/1/7 30/1/7 25/1/7 
f 30/1/7 27/1/7 32/1/7 
# 0 polygons - 40 triangles

