# 3ds Max Wavefront OBJ Exporter v0.97b - (c)2007 guruware
# 创建的文件:22.06.2022 22:19:15

#
# object P_Modul_17_01
#

v  2.5000 -5.0000 2.5000
v  -2.5000 -5.0000 -2.5000
v  -2.5000 -5.0000 2.5000
v  2.5000 -5.0000 -2.5000
v  2.5000 -10.0000 -2.5000
v  2.5000 -10.0000 2.5000
v  -2.5000 -10.0000 -2.5000
v  -2.5000 -10.0000 2.5000
v  8.5732 -4.4000 0.1550
v  8.5732 -4.4000 -0.1550
v  11.6208 -4.4000 0.1550
v  11.6208 -4.4000 -0.1550
v  11.6208 -1.6000 -0.1550
v  8.5732 -1.6000 -0.1550
v  11.6208 -1.6000 0.1550
v  8.5732 -1.6000 0.1550
v  -1.5659 -3.5378 0.5344
v  -1.5659 -3.5378 -0.5344
v  1.5659 -3.5378 0.5344
v  1.5659 -3.5378 -0.5344
v  1.5659 -2.4691 -0.5344
v  -1.5659 -2.4691 -0.5344
v  1.5659 -2.4691 0.5344
v  -1.5659 -2.4691 0.5344
v  8.5732 -3.2496 0.1769
v  8.5732 -3.2496 -0.1768
v  8.5732 -2.7504 -0.1768
v  8.5732 -2.7504 0.1769
v  -8.5732 -3.2496 -0.1768
v  -8.5732 -3.2496 0.1769
v  -8.5732 -2.7504 0.1769
v  -8.5732 -2.7504 -0.1768
v  -8.5732 -4.4000 -0.1550
v  -8.5732 -4.4000 0.1550
v  -11.6208 -4.4000 -0.1550
v  -11.6208 -4.4000 0.1550
v  -11.6208 -1.6000 0.1550
v  -8.5732 -1.6000 0.1550
v  -11.6208 -1.6000 -0.1550
v  -8.5732 -1.6000 -0.1550
# 40 vertices

vn 0.0000 1.0001 -0.0000
vn 1.0000 0.0000 -0.0000
vn 0.0000 0.0000 -1.0001
vn -1.0000 0.0000 -0.0000
vn 0.0000 0.0000 1.0001
vn 0.0000 -0.9999 -0.0000
vn 0.0000 0.9999 -0.0000
vn 1.0001 0.0000 -0.0000
vn -1.0001 0.0000 -0.0000
vn -0.0274 -0.9997 -0.0000
vn -0.0137 -0.9999 -0.0000
vn 0.0137 -0.9999 -0.0000
vn 0.0274 -0.9997 -0.0000
vn 0.0267 0.9997 -0.0000
vn -0.0134 0.9999 -0.0000
vn 0.0134 0.9999 -0.0000
vn -0.0267 0.9997 -0.0000
vn 0.0000 0.0000 -0.9999
vn 0.0170 0.0000 -1.0000
vn 0.0340 0.0000 -0.9995
vn 0.0340 0.0000 0.9995
vn 0.0170 0.0000 1.0000
vn 0.0000 0.0000 0.9999
vn 0.0411 -0.9993 -0.0000
vn 0.0401 0.9993 -0.0000
vn 1.0002 0.0000 -0.0000
vn 0.0510 0.0000 -0.9985
vn 0.0510 0.0000 -0.9986
vn 0.0510 0.0000 0.9986
vn 0.0510 0.0000 0.9985
vn -0.0411 -0.9993 -0.0000
vn -0.0401 0.9993 -0.0000
vn -1.0002 0.0000 -0.0000
vn -0.0510 0.0000 0.9989
vn -0.0510 0.0000 0.9985
vn -0.0510 0.0000 0.9986
vn -0.0510 0.0000 -0.9986
vn -0.0510 0.0000 -0.9985
vn -0.0510 0.0000 -0.9989
# 39 vertex normals

vt 0.5000 -0.5000 0.0000
# 1 texture coords

o P_Modul_17_01
g P_Modul_17_01
s 1
f 1/1/1 2/1/1 3/1/1 
f 2/1/1 1/1/1 4/1/1 
f 1/1/2 5/1/2 4/1/2 
f 5/1/2 1/1/2 6/1/2 
f 4/1/3 7/1/3 2/1/3 
f 7/1/3 4/1/3 5/1/3 
f 2/1/4 8/1/4 3/1/4 
f 8/1/4 2/1/4 7/1/4 
f 3/1/5 6/1/5 1/1/5 
f 6/1/5 3/1/5 8/1/5 
f 9/1/6 10/1/6 11/1/6 
f 12/1/6 11/1/6 10/1/6 
f 13/1/7 14/1/7 15/1/7 
f 16/1/7 15/1/7 14/1/7 
f 12/1/8 13/1/8 11/1/8 
f 15/1/8 11/1/8 13/1/8 
f 10/1/3 14/1/3 12/1/3 
f 13/1/3 12/1/3 14/1/3 
f 9/1/9 16/1/9 10/1/9 
f 14/1/9 10/1/9 16/1/9 
f 11/1/5 15/1/5 9/1/5 
f 16/1/5 9/1/5 15/1/5 
f 17/1/10 18/1/11 19/1/12 
f 20/1/13 19/1/12 18/1/11 
f 21/1/14 22/1/15 23/1/16 
f 24/1/17 23/1/16 22/1/15 
f 18/1/18 22/1/18 20/1/19 
f 21/1/20 20/1/19 22/1/18 
f 19/1/21 23/1/22 17/1/23 
f 24/1/23 17/1/23 23/1/22 
f 19/1/12 20/1/13 25/1/24 
f 26/1/24 25/1/24 20/1/13 
f 27/1/25 21/1/14 28/1/25 
f 23/1/16 28/1/25 21/1/14 
f 26/1/26 27/1/26 25/1/26 
f 28/1/26 25/1/26 27/1/26 
f 20/1/19 21/1/20 26/1/27 
f 27/1/28 26/1/27 21/1/20 
f 25/1/29 28/1/30 19/1/21 
f 23/1/22 19/1/21 28/1/30 
f 18/1/11 17/1/10 29/1/31 
f 30/1/31 29/1/31 17/1/10 
f 31/1/32 24/1/17 32/1/32 
f 22/1/15 32/1/32 24/1/17 
f 30/1/33 31/1/33 29/1/33 
f 32/1/33 29/1/33 31/1/33 
f 17/1/34 24/1/35 30/1/35 
f 31/1/36 30/1/35 24/1/35 
f 29/1/37 32/1/38 18/1/38 
f 22/1/39 18/1/38 32/1/38 
f 33/1/6 34/1/6 35/1/6 
f 36/1/6 35/1/6 34/1/6 
f 37/1/7 38/1/7 39/1/7 
f 40/1/7 39/1/7 38/1/7 
f 36/1/9 37/1/9 35/1/9 
f 39/1/9 35/1/9 37/1/9 
f 34/1/5 38/1/5 36/1/5 
f 37/1/5 36/1/5 38/1/5 
f 33/1/8 40/1/8 34/1/8 
f 38/1/8 34/1/8 40/1/8 
f 35/1/3 39/1/3 33/1/3 
f 40/1/3 33/1/3 39/1/3 
# 0 polygons - 62 triangles

