mtllib E:\Programming\GameProjects\Ballance\ResourceFactory\P_Modul_08_01.mtl
v 7.71572 1.90558 2.98082
v -3.95121e-006 11.779 -3
v 7.71572 1.90558 -3
v -3.95121e-006 11.779 2.98082
v 4.93325 -0.130919 2.98082
v 7.71572 1.90558 -3
v 4.93325 -0.130919 -3
v 7.71572 1.90558 2.98082
v -3.95121e-006 11.779 -3
v 4.93325 -0.130919 -3
v 7.71572 1.90558 -3
v -12.5 1.5 2.49999
v -12.5 1.5 -2.5
v -7.49998 1.5 2.49999
v -7.49998 1.5 -2.5
v -7.49998 1.5 -2.5
v -7.49998 -3.5 -2.5
v -7.49998 1.5 2.49999
v -7.49998 -3.5 2.49999
v -12.5 1.5 -2.5
v -12.5 -3.5 -2.5
v -7.49998 1.5 -2.5
v -7.49998 -3.5 -2.5
v -12.5 1.5 2.49999
v -12.5 -3.5 2.49999
v -12.5 1.5 -2.5
v -12.5 -3.5 -2.5
v -7.49998 1.5 2.49999
v -7.49998 -3.5 2.49999
v -12.5 1.5 2.49999
v -12.5 -3.5 2.49999
v 7.50001 1.5 2.50001
v 7.50001 1.5 -2.49999
v 12.5 1.5 2.50001
v 12.5 1.5 -2.49999
v 12.5 1.5 -2.49999
v 12.5 -3.5 -2.49999
v 12.5 1.5 2.50001
v 12.5 -3.5 2.50001
v 7.50001 1.5 -2.49999
v 7.50001 -3.5 -2.49999
v 12.5 1.5 -2.49999
v 12.5 -3.5 -2.49999
v 7.50001 1.5 2.50001
v 7.50001 -3.5 2.50001
v 7.50001 1.5 -2.49999
v 7.50001 -3.5 -2.49999
v 12.5 1.5 2.50001
v 12.5 -3.5 2.50001
v 7.50001 1.5 2.50001
v 7.50001 -3.5 2.50001
v -4.93325 -0.130922 2.98082
v -7.71571 1.90558 -3
v -7.71571 1.90558 2.98082
v -4.93325 -0.130922 -3
v -4.93325 -0.130922 -3
v -4.01481e-006 11.779 -3
v -7.71571 1.90558 -3
v -7.71571 1.90558 -3
v -4.01481e-006 11.779 2.98082
v -7.71571 1.90558 2.98082
v -4.01481e-006 11.779 -3
v 0 -1.11221 2.98082
v 4.76837e-007 -1.11221 -3
v 4.76837e-007 -1.11221 -3
v -3.92066e-006 11.779 -3
v -3.92066e-006 11.779 2.98082
v 4.93325 -0.130919 2.98082
v 0 -1.11221 2.98082
v -4.93325 -0.130922 2.98082
v -7.71571 1.90558 2.98082
v -4.01481e-006 11.779 2.98082
v 7.71572 1.90558 2.98082
v -1.92759 12.7177 2.49999
v -1.92759 12.7177 -2.5
v 3.07243 12.7177 -5.72205e-006
v -1.92759 12.7177 -2.5
v -1.92759 11.9426 -2.5
v 3.07243 12.7177 -5.72205e-006
v 3.07243 11.9426 -5.72205e-006
v -1.92759 12.7177 2.49999
v -1.92759 11.9426 2.49999
v -1.92759 12.7177 -2.5
v -1.92759 11.9426 -2.5
v 3.07243 12.7177 -5.72205e-006
v 3.07243 11.9426 -5.72205e-006
v -1.92759 12.7177 2.49999
v -1.92759 11.9426 2.49999
vt 0.500000 -0.500000 0
vt 0.500000 -0.500000 0
vt 0.500000 -0.500000 0
vt 0.500000 -0.500000 0
vt 0.500000 -0.500000 0
vt 0.500000 -0.500000 0
vt 0.500000 -0.500000 0
vt 0.500000 -0.500000 0
vt 0.500000 -0.500000 0
vt 0.500000 -0.500000 0
vt 0.500000 -0.500000 0
vt 0.500000 -0.500000 0
vt 0.500000 -0.500000 0
vt 0.500000 -0.500000 0
vt 0.500000 -0.500000 0
vt 0.500000 -0.500000 0
vt 0.500000 -0.500000 0
vt 0.500000 -0.500000 0
vt 0.500000 -0.500000 0
vt 0.500000 -0.500000 0
vt 0.500000 -0.500000 0
vt 0.500000 -0.500000 0
vt 0.500000 -0.500000 0
vt 0.500000 -0.500000 0
vt 0.500000 -0.500000 0
vt 0.500000 -0.500000 0
vt 0.500000 -0.500000 0
vt 0.500000 -0.500000 0
vt 0.500000 -0.500000 0
vt 0.500000 -0.500000 0
vt 0.500000 -0.500000 0
vt 0.500000 -0.500000 0
vt 0.500000 -0.500000 0
vt 0.500000 -0.500000 0
vt 0.500000 -0.500000 0
vt 0.500000 -0.500000 0
vt 0.500000 -0.500000 0
vt 0.500000 -0.500000 0
vt 0.500000 -0.500000 0
vt 0.500000 -0.500000 0
vt 0.500000 -0.500000 0
vt 0.500000 -0.500000 0
vt 0.500000 -0.500000 0
vt 0.500000 -0.500000 0
vt 0.500000 -0.500000 0
vt 0.500000 -0.500000 0
vt 0.500000 -0.500000 0
vt 0.500000 -0.500000 0
vt 0.500000 -0.500000 0
vt 0.500000 -0.500000 0
vt 0.500000 -0.500000 0
vt 0.500000 -0.500000 0
vt 0.500000 -0.500000 0
vt 0.500000 -0.500000 0
vt 0.500000 -0.500000 0
vt 0.500000 -0.500000 0
vt 0.500000 -0.500000 0
vt 0.500000 -0.500000 0
vt 0.500000 -0.500000 0
vt 0.500000 -0.500000 0
vt 0.500000 -0.500000 0
vt 0.500000 -0.500000 0
vt 0.500000 -0.500000 0
vt 0.500000 -0.500000 0
vt 0.500000 -0.500000 0
vt 0.500000 -0.500000 0
vt 0.500000 -0.500000 0
vt 0.500000 -0.500000 0
vt 0.500000 -0.500000 0
vt 0.500000 -0.500000 0
vt 0.500000 -0.500000 0
vt 0.500000 -0.500000 0
vt 0.500000 -0.500000 0
vt 0.500000 -0.500000 0
vt 0.500000 -0.500000 0
vt 0.500000 -0.500000 0
vt 0.500000 -0.500000 0
vt 0.500000 -0.500000 0
vt 0.500000 -0.500000 0
vt 0.500000 -0.500000 0
vt 0.500000 -0.500000 0
vt 0.500000 -0.500000 0
vt 0.500000 -0.500000 0
vt 0.500000 -0.500000 0
vt 0.500000 -0.500000 0
vt 0.500000 -0.500000 0
vt 0.500000 -0.500000 0
vt 0.500000 -0.500000 0
vn 0.788047 0.615831 -0
vn 0.788047 0.615831 -0
vn 0.788047 0.615831 -0
vn 0.788047 0.615831 -0
vn 0.468539 -0.883383 -0
vn 0.590686 -0.807055 -0
vn 0.333922 -0.942672 5.29668e-009
vn 0.590686 -0.807055 -0
vn 0 0 -0.999891
vn 0 0 -0.999818
vn 0 0 -0.999891
vn 0 1.00008 -0
vn 0 1.00008 -0
vn 0 1.00008 -0
vn 0 1.00008 -0
vn 0.999967 0 -0
vn 0.999967 0 -0
vn 0.999967 0 -0
vn 0.999967 0 -0
vn 0 0 -1.00008
vn 0 0 -1.00008
vn 0 0 -1.00008
vn 0 0 -1.00008
vn -0.999967 0 -0
vn -0.999967 0 -0
vn -0.999967 0 -0
vn -0.999967 0 -0
vn 0 0 1.00008
vn 0 0 1.00008
vn 0 0 1.00008
vn 0 0 1.00008
vn 0 0.999967 -0
vn 0 0.999967 -0
vn 0 0.999967 -0
vn 0 0.999967 -0
vn 1.00008 0 -0
vn 1.00008 0 -0
vn 1.00008 0 -0
vn 1.00008 0 -0
vn 0 0 -0.999967
vn 0 0 -0.999967
vn 0 0 -0.999967
vn 0 0 -0.999967
vn -1.00008 0 -0
vn -1.00008 0 -0
vn -1.00008 0 -0
vn -1.00008 0 -0
vn 0 0 0.999967
vn 0 0 0.999967
vn 0 0 0.999967
vn 0 0 0.999967
vn -0.46854 -0.883381 -0
vn -0.590687 -0.807052 -0
vn -0.590687 -0.807052 -0
vn -0.333921 -0.942671 -5.39767e-009
vn 0 0 -0.999817
vn 0 0 -0.999889
vn 0 0 -0.999889
vn -0.788047 0.615829 -0
vn -0.788047 0.615829 -0
vn -0.788047 0.615829 -0
vn -0.788047 0.615829 -0
vn 3.1144e-007 -1.00017 -7.56041e-011
vn 3.1144e-007 -1.00017 -1.51208e-010
vn 0 0 -1.00023
vn 0 0 -1.00023
vn 0 0 1.00023
vn 0 0 0.999818
vn 0 0 1.00023
vn 0 0 0.999817
vn 0 0 0.999889
vn 0 0 0.99989
vn 0 0 0.999891
vn 0 1.00008 -0
vn 0 1.00008 -0
vn 0 1.00008 -0
vn 0.447131 0 -0.894267
vn 0.447131 0 -0.894267
vn 0.447131 0 -0.894267
vn 0.447131 0 -0.894267
vn -0.999852 0 -0
vn -0.999852 0 -0
vn -0.999852 0 -0
vn -0.999852 0 -0
vn 0.447131 0 0.894267
vn 0.447131 0 0.894267
vn 0.447131 0 0.894267
vn 0.447131 0 0.894267
g P_Modul_08_01
f 3/3/3 2/2/2 1/1/1
f 4/4/4 1/1/1 2/2/2
f 7/7/7 6/6/6 5/5/5
f 8/8/8 5/5/5 6/6/6
f 11/11/11 10/10/10 9/9/9
f 14/14/14 13/13/13 12/12/12
f 13/13/13 14/14/14 15/15/15
f 18/18/18 17/17/17 16/16/16
f 17/17/17 18/18/18 19/19/19
f 22/22/22 21/21/21 20/20/20
f 21/21/21 22/22/22 23/23/23
f 26/26/26 25/25/25 24/24/24
f 25/25/25 26/26/26 27/27/27
f 30/30/30 29/29/29 28/28/28
f 29/29/29 30/30/30 31/31/31
f 34/34/34 33/33/33 32/32/32
f 33/33/33 34/34/34 35/35/35
f 38/38/38 37/37/37 36/36/36
f 37/37/37 38/38/38 39/39/39
f 42/42/42 41/41/41 40/40/40
f 41/41/41 42/42/42 43/43/43
f 46/46/46 45/45/45 44/44/44
f 45/45/45 46/46/46 47/47/47
f 50/50/50 49/49/49 48/48/48
f 49/49/49 50/50/50 51/51/51
f 54/54/54 53/53/53 52/52/52
f 55/55/55 52/52/52 53/53/53
f 58/58/58 57/57/57 56/56/56
f 61/61/61 60/60/60 59/59/59
f 62/62/62 59/59/59 60/60/60
f 52/52/52 55/55/55 63/63/63
f 64/64/64 63/63/63 55/55/55
f 64/64/64 7/7/7 63/63/63
f 5/5/5 63/63/63 7/7/7
f 56/56/56 66/66/66 65/65/65
f 10/10/10 65/65/65 66/66/66
f 69/69/69 68/68/68 67/67/67
f 67/67/67 70/70/70 69/69/69
f 70/70/70 72/72/72 71/71/71
f 73/73/73 72/72/72 68/68/68
f 76/76/76 75/75/75 74/74/74
f 79/79/79 78/78/78 77/77/77
f 78/78/78 79/79/79 80/80/80
f 83/83/83 82/82/82 81/81/81
f 82/82/82 83/83/83 84/84/84
f 87/87/87 86/86/86 85/85/85
f 86/86/86 87/87/87 88/88/88
