v 8.3669 1.25556 -6.11443
v 7.2869 6.25556 -6.11443
v 7.2869 6.25556 -6.11443
v 8.11423 1.25556 -6.80864
v 7.2869 6.25556 -6.11443
v 7.47444 1.25556 -7.17803
v 7.2869 6.25556 -6.11443
v 6.7469 1.25556 -7.04974
v 7.2869 6.25556 -6.11443
v 6.27203 1.25556 -6.48381
v 7.2869 6.25556 -6.11443
v 6.27203 1.25556 -5.74505
v 7.2869 6.25556 -6.11443
v 6.7469 1.25556 -5.17912
v 7.2869 6.25556 -6.11443
v 7.47444 1.25556 -5.05083
v 7.2869 6.25556 -6.11443
v 8.11423 1.25556 -5.42022
v 7.2869 6.25556 -6.11443
v 7.2869 6.25556 -6.11443
v 7.2869 6.25556 -6.11443
v 7.2869 6.25556 -6.11443
v 7.2869 6.25556 -6.11443
v 7.2869 6.25556 -6.11443
v 7.2869 6.25556 -6.11443
v 7.2869 6.25556 -6.11443
v 7.2869 6.25556 -6.11443
v 7.2869 6.25556 -6.11443
v -6.17792 1.25556 -6.09014
v -7.25793 6.25556 -6.09014
v -7.25793 6.25556 -6.09014
v -6.43059 1.25556 -6.78435
v -7.25793 6.25556 -6.09014
v -7.07038 1.25556 -7.15373
v -7.25793 6.25556 -6.09014
v -7.79793 1.25556 -7.02545
v -7.25793 6.25556 -6.09014
v -8.2728 1.25556 -6.45952
v -7.25793 6.25556 -6.09014
v -8.2728 1.25556 -5.72075
v -7.25793 6.25556 -6.09014
v -7.79793 1.25556 -5.15483
v -7.25793 6.25556 -6.09014
v -7.07038 1.25556 -5.02654
v -7.25793 6.25556 -6.09014
v -6.43059 1.25556 -5.39593
v -7.25793 6.25556 -6.09014
v -7.25793 6.25556 -6.09014
v -7.25793 6.25556 -6.09014
v -7.25793 6.25556 -6.09014
v -7.25793 6.25556 -6.09014
v -7.25793 6.25556 -6.09014
v -7.25793 6.25556 -6.09014
v -7.25793 6.25556 -6.09014
v -7.25793 6.25556 -6.09014
v -7.25793 6.25556 -6.09014
v -6.17792 1.25556 6.13873
v -7.25792 6.25556 6.13873
v -7.25792 6.25556 6.13873
v -6.43059 1.25556 5.44452
v -7.25792 6.25556 6.13873
v -7.07038 1.25556 5.07513
v -7.25792 6.25556 6.13873
v -7.79793 1.25556 5.20342
v -7.25792 6.25556 6.13873
v -8.27279 1.25556 5.76935
v -7.25792 6.25556 6.13873
v -8.27279 1.25556 6.50811
v -7.25792 6.25556 6.13873
v -7.79793 1.25556 7.07404
v -7.25792 6.25556 6.13873
v -7.07038 1.25556 7.20232
v -7.25792 6.25556 6.13873
v -6.43059 1.25556 6.83294
v -7.25792 6.25556 6.13873
v -7.25792 6.25556 6.13873
v -7.25792 6.25556 6.13873
v -7.25792 6.25556 6.13873
v -7.25792 6.25556 6.13873
v -7.25792 6.25556 6.13873
v -7.25792 6.25556 6.13873
v -7.25792 6.25556 6.13873
v -7.25792 6.25556 6.13873
v -7.25792 6.25556 6.13873
v 8.3669 1.25556 6.11444
v 7.2869 6.25556 6.11444
v 7.2869 6.25556 6.11444
v 8.11423 1.25556 5.42022
v 7.2869 6.25556 6.11444
v 7.47444 1.25556 5.05084
v 7.2869 6.25556 6.11444
v 6.7469 1.25556 5.17913
v 7.2869 6.25556 6.11444
v 6.27203 1.25556 5.74505
v 7.2869 6.25556 6.11444
v 6.27203 1.25556 6.48382
v 7.2869 6.25556 6.11444
v 6.7469 1.25556 7.04975
v 7.2869 6.25556 6.11444
v 7.47444 1.25556 7.17803
v 7.2869 6.25556 6.11444
v 8.11423 1.25556 6.80865
v 7.2869 6.25556 6.11444
v 7.2869 6.25556 6.11444
v 7.2869 6.25556 6.11444
v 7.2869 6.25556 6.11444
v 7.2869 6.25556 6.11444
v 7.2869 6.25556 6.11444
v 7.2869 6.25556 6.11444
v 7.2869 6.25556 6.11444
v 7.2869 6.25556 6.11444
v 7.2869 6.25556 6.11444
v 6.18699 6.18699e-007 -6.18699e-007
v 6.18699 0.650001 -6.83699e-007
v 5.35809 0.650001 -3.0935
v 5.35809 8.45159e-007 -3.0935
v 3.0935 0.650001 -5.35809
v 3.0935 8.45159e-007 -5.35809
v 2.06862e-007 0.650001 -6.18699
v 1.41862e-007 6.18699e-007 -6.18699
v -3.0935 0.65 -5.35809
v -3.0935 2.26459e-007 -5.35809
v -5.35809 0.65 -3.09349
v -5.35809 -2.2646e-007 -3.09349
v -6.18699 0.649999 1.03054e-006
v -6.18699 -6.18699e-007 1.09554e-006
v -5.35809 0.649999 3.0935
v -5.35809 -8.45159e-007 3.0935
v -3.09349 0.649999 5.35809
v -3.09349 -8.45158e-007 5.35809
v 3.99975e-007 0.649999 6.18699
v 3.34975e-007 -6.18699e-007 6.18699
v 3.0935 0.65 5.35809
v 3.0935 -2.26459e-007 5.35809
v 5.35809 0.65 3.09349
v 5.35809 2.2646e-007 3.09349
v 6.5e-008 0.65 -6.5e-008
v 5.35809 0.650001 -3.0935
v 6.18699 0.650001 -6.83699e-007
v 3.0935 0.650001 -5.35809
v 2.06862e-007 0.650001 -6.18699
v -3.0935 0.65 -5.35809
v -5.35809 0.65 -3.09349
v -6.18699 0.649999 1.03054e-006
v -5.35809 0.649999 3.0935
v -3.09349 0.649999 5.35809
v 3.99975e-007 0.649999 6.18699
v 3.0935 0.65 5.35809
v 5.35809 0.65 3.09349
vt 0.500000 -0.500000 0
vt 0.500000 -0.500000 0
vt 0.500000 -0.500000 0
vt 0.500000 -0.500000 0
vt 0.500000 -0.500000 0
vt 0.500000 -0.500000 0
vt 0.500000 -0.500000 0
vt 0.500000 -0.500000 0
vt 0.500000 -0.500000 0
vt 0.500000 -0.500000 0
vt 0.500000 -0.500000 0
vt 0.500000 -0.500000 0
vt 0.500000 -0.500000 0
vt 0.500000 -0.500000 0
vt 0.500000 -0.500000 0
vt 0.500000 -0.500000 0
vt 0.500000 -0.500000 0
vt 0.500000 -0.500000 0
vt 0.500000 -0.500000 0
vt 0.500000 -0.500000 0
vt 0.500000 -0.500000 0
vt 0.500000 -0.500000 0
vt 0.500000 -0.500000 0
vt 0.500000 -0.500000 0
vt 0.500000 -0.500000 0
vt 0.500000 -0.500000 0
vt 0.500000 -0.500000 0
vt 0.500000 -0.500000 0
vt 0.500000 -0.500000 0
vt 0.500000 -0.500000 0
vt 0.500000 -0.500000 0
vt 0.500000 -0.500000 0
vt 0.500000 -0.500000 0
vt 0.500000 -0.500000 0
vt 0.500000 -0.500000 0
vt 0.500000 -0.500000 0
vt 0.500000 -0.500000 0
vt 0.500000 -0.500000 0
vt 0.500000 -0.500000 0
vt 0.500000 -0.500000 0
vt 0.500000 -0.500000 0
vt 0.500000 -0.500000 0
vt 0.500000 -0.500000 0
vt 0.500000 -0.500000 0
vt 0.500000 -0.500000 0
vt 0.500000 -0.500000 0
vt 0.500000 -0.500000 0
vt 0.500000 -0.500000 0
vt 0.500000 -0.500000 0
vt 0.500000 -0.500000 0
vt 0.500000 -0.500000 0
vt 0.500000 -0.500000 0
vt 0.500000 -0.500000 0
vt 0.500000 -0.500000 0
vt 0.500000 -0.500000 0
vt 0.500000 -0.500000 0
vt 0.500000 -0.500000 0
vt 0.500000 -0.500000 0
vt 0.500000 -0.500000 0
vt 0.500000 -0.500000 0
vt 0.500000 -0.500000 0
vt 0.500000 -0.500000 0
vt 0.500000 -0.500000 0
vt 0.500000 -0.500000 0
vt 0.500000 -0.500000 0
vt 0.500000 -0.500000 0
vt 0.500000 -0.500000 0
vt 0.500000 -0.500000 0
vt 0.500000 -0.500000 0
vt 0.500000 -0.500000 0
vt 0.500000 -0.500000 0
vt 0.500000 -0.500000 0
vt 0.500000 -0.500000 0
vt 0.500000 -0.500000 0
vt 0.500000 -0.500000 0
vt 0.500000 -0.500000 0
vt 0.500000 -0.500000 0
vt 0.500000 -0.500000 0
vt 0.500000 -0.500000 0
vt 0.500000 -0.500000 0
vt 0.500000 -0.500000 0
vt 0.500000 -0.500000 0
vt 0.500000 -0.500000 0
vt 0.500000 -0.500000 0
vt 0.500000 -0.500000 0
vt 0.500000 -0.500000 0
vt 0.500000 -0.500000 0
vt 0.500000 -0.500000 0
vt 0.500000 -0.500000 0
vt 0.500000 -0.500000 0
vt 0.500000 -0.500000 0
vt 0.500000 -0.500000 0
vt 0.500000 -0.500000 0
vt 0.500000 -0.500000 0
vt 0.500000 -0.500000 0
vt 0.500000 -0.500000 0
vt 0.500000 -0.500000 0
vt 0.500000 -0.500000 0
vt 0.500000 -0.500000 0
vt 0.500000 -0.500000 0
vt 0.500000 -0.500000 0
vt 0.500000 -0.500000 0
vt 0.500000 -0.500000 0
vt 0.500000 -0.500000 0
vt 0.500000 -0.500000 0
vt 0.500000 -0.500000 0
vt 0.500000 -0.500000 0
vt 0.500000 -0.500000 0
vt 0.500000 -0.500000 0
vt 0.500000 -0.500000 0
vt 0.500000 -0.500000 0
vt 0.500000 -0.500000 0
vt 0.500000 -0.500000 0
vt 0.500000 -0.500000 0
vt 0.500000 -0.500000 0
vt 0.500000 -0.500000 0
vt 0.500000 -0.500000 0
vt 0.500000 -0.500000 0
vt 0.500000 -0.500000 0
vt 0.500000 -0.500000 0
vt 0.500000 -0.500000 0
vt 0.500000 -0.500000 0
vt 0.500000 -0.500000 0
vt 0.500000 -0.500000 0
vt 0.500000 -0.500000 0
vt 0.500000 -0.500000 0
vt 0.500000 -0.500000 0
vt 0.500000 -0.500000 0
vt 0.500000 -0.500000 0
vt 0.500000 -0.500000 0
vt 0.500000 -0.500000 0
vt 0.500000 -0.500000 0
vt 0.500000 -0.500000 0
vt 0.500000 -0.500000 0
vt 0.500000 -0.500000 0
vt 0.500000 -0.500000 0
vt 0.500000 -0.500000 0
vt 0.500000 -0.500000 0
vt 0.500000 -0.500000 0
vt 0.500000 -0.500000 0
vt 0.500000 -0.500000 0
vt 0.500000 -0.500000 0
vt 0.500000 -0.500000 0
vt 0.500000 -0.500000 0
vt 0.500000 -0.500000 0
vt 0.500000 -0.500000 0
vt 0.500000 -0.500000 0
vt 0.500000 -0.500000 0
vt 0.500000 -0.500000 0
vn 0.977373 0.211113 -0
vn 0.920714 0.198874 0.33511
vn 0.920714 0.198874 -0.33511
vn 0.748717 0.211114 -0.628244
vn 0.489913 0.198877 -0.848538
vn 0.169721 0.211115 -0.962527
vn -0.170148 0.198876 -0.964918
vn -0.488694 0.211114 -0.846432
vn -0.750579 0.198876 -0.629809
vn -0.918431 0.211113 -0.334283
vn -0.979799 0.198874 -0
vn -0.918431 0.211113 0.334283
vn -0.750579 0.198876 0.629809
vn -0.488694 0.211114 0.846432
vn -0.170148 0.198876 0.964918
vn 0.169721 0.211115 0.962527
vn 0.489913 0.198877 0.848538
vn 0.748717 0.211114 0.628244
vn -1.0 -1.0 -1.0
vn -1.0 -1.0 -1.0
vn -1.0 -1.0 -1.0
vn -1.0 -1.0 -1.0
vn -1.0 -1.0 -1.0
vn -1.0 -1.0 -1.0
vn -1.0 -1.0 -1.0
vn -1.0 -1.0 -1.0
vn -1.0 -1.0 -1.0
vn -1.0 -1.0 -1.0
vn 0.977373 0.211114 -0
vn 0.920714 0.198876 0.33511
vn 0.920714 0.198876 -0.33511
vn 0.74871 0.211114 -0.628244
vn 0.4899 0.198875 -0.848538
vn 0.169722 0.211114 -0.962533
vn -0.170134 0.198876 -0.964931
vn -0.488686 0.211115 -0.846439
vn -0.750579 0.198876 -0.629809
vn -0.918439 0.211115 -0.334283
vn -0.979812 0.198877 -0
vn -0.918431 0.211114 0.334283
vn -0.750566 0.198874 0.629809
vn -0.488686 0.211115 0.846439
vn -0.170148 0.198878 0.964931
vn 0.169721 0.211116 0.962533
vn 0.489913 0.198878 0.848538
vn 0.748717 0.211115 0.628244
vn -1.0 -1.0 -1.0
vn -1.0 -1.0 -1.0
vn -1.0 -1.0 -1.0
vn -1.0 -1.0 -1.0
vn -1.0 -1.0 -1.0
vn -1.0 -1.0 -1.0
vn -1.0 -1.0 -1.0
vn -1.0 -1.0 -1.0
vn -1.0 -1.0 -1.0
vn -1.0 -1.0 -1.0
vn 0.977373 0.211113 -0
vn 0.920714 0.198874 0.33511
vn 0.920714 0.198874 -0.33511
vn 0.748717 0.211114 -0.628244
vn 0.489913 0.198877 -0.848538
vn 0.169721 0.211116 -0.962533
vn -0.170148 0.198878 -0.964931
vn -0.488694 0.211115 -0.846432
vn -0.750579 0.198875 -0.629795
vn -0.918431 0.211113 -0.334276
vn -0.979799 0.198874 -0
vn -0.918431 0.211113 0.334276
vn -0.750579 0.198875 0.629795
vn -0.488686 0.211114 0.846432
vn -0.170135 0.198877 0.964931
vn 0.169721 0.211114 0.962533
vn 0.4899 0.198874 0.848538
vn 0.74871 0.211113 0.628244
vn -1.0 -1.0 -1.0
vn -1.0 -1.0 -1.0
vn -1.0 -1.0 -1.0
vn -1.0 -1.0 -1.0
vn -1.0 -1.0 -1.0
vn -1.0 -1.0 -1.0
vn -1.0 -1.0 -1.0
vn -1.0 -1.0 -1.0
vn -1.0 -1.0 -1.0
vn -1.0 -1.0 -1.0
vn 0.97738 0.211114 -0
vn 0.920714 0.198874 0.33511
vn 0.920727 0.198877 -0.33511
vn 0.748717 0.211115 -0.628244
vn 0.4899 0.198876 -0.848538
vn 0.169714 0.211114 -0.962527
vn -0.170148 0.198876 -0.964918
vn -0.488686 0.211113 -0.846432
vn -0.750566 0.198874 -0.629809
vn -0.918431 0.211114 -0.334283
vn -0.979812 0.198876 -0
vn -0.918438 0.211115 0.334283
vn -0.750579 0.198876 0.629809
vn -0.488686 0.211113 0.846432
vn -0.170135 0.198874 0.964918
vn 0.169721 0.211113 0.962527
vn 0.4899 0.198874 0.848538
vn 0.74871 0.211113 0.628244
vn -1.0 -1.0 -1.0
vn -1.0 -1.0 -1.0
vn -1.0 -1.0 -1.0
vn -1.0 -1.0 -1.0
vn -1.0 -1.0 -1.0
vn -1.0 -1.0 -1.0
vn -1.0 -1.0 -1.0
vn -1.0 -1.0 -1.0
vn -1.0 -1.0 -1.0
vn -1.0 -1.0 -1.0
vn 0.995875 0 -0.0889479
vn 0.995873 0 0.0889479
vn 0.906927 0 -0.420905
vn 0.817978 0 -0.574967
vn 0.574967 0 -0.817978
vn 0.420905 0 -0.906927
vn 0.0889479 0 -0.995876
vn -0.0889479 0 -0.995875
vn -0.420906 0 -0.906927
vn -0.574969 0 -0.817977
vn -0.817979 0 -0.574967
vn -0.906926 0 -0.420905
vn -0.995873 0 -0.0889479
vn -0.995874 0 0.0889479
vn -0.906927 0 0.420906
vn -0.817977 0 0.574969
vn -0.574967 0 0.817979
vn -0.420905 0 0.906926
vn -0.0889479 0 0.995873
vn 0.0889479 0 0.995874
vn 0.420906 0 0.906926
vn 0.574969 0 0.817977
vn 0.817979 0 0.574967
vn 0.906925 0 0.420905
vn 0 1.00027 -0
vn 0 1.0002 -0
vn 0 1.0002 -0
vn 0 1.0002 -0
vn 0 1.00021 -0
vn 0 1.0002 -0
vn 0 1.0002 -0
vn 0 1.0002 -0
vn 0 1.0002 -0
vn 0 1.0002 -0
vn 0 1.0002 -0
vn 0 1.0002 -0
vn 0 1.0002 -0
g PS_FourFlames_01
f 3/3/3 2/2/2 1/1/1
f 4/4/4 3/3/3 1/1/1
f 5/5/5 3/3/3 4/4/4
f 6/6/6 5/5/5 4/4/4
f 7/7/7 5/5/5 6/6/6
f 8/8/8 7/7/7 6/6/6
f 9/9/9 7/7/7 8/8/8
f 10/10/10 9/9/9 8/8/8
f 11/11/11 9/9/9 10/10/10
f 12/12/12 11/11/11 10/10/10
f 13/13/13 11/11/11 12/12/12
f 14/14/14 13/13/13 12/12/12
f 15/15/15 13/13/13 14/14/14
f 16/16/16 15/15/15 14/14/14
f 17/17/17 15/15/15 16/16/16
f 18/18/18 17/17/17 16/16/16
f 2/2/2 17/17/17 18/18/18
f 1/1/1 2/2/2 18/18/18
f 21/21/21 20/20/20 19/19/19
f 20/20/20 22/22/22 19/19/19
f 22/22/22 23/23/23 19/19/19
f 23/23/23 24/24/24 19/19/19
f 24/24/24 25/25/25 19/19/19
f 25/25/25 26/26/26 19/19/19
f 26/26/26 27/27/27 19/19/19
f 27/27/27 28/28/28 19/19/19
f 28/28/28 21/21/21 19/19/19
f 31/31/31 30/30/30 29/29/29
f 32/32/32 31/31/31 29/29/29
f 33/33/33 31/31/31 32/32/32
f 34/34/34 33/33/33 32/32/32
f 35/35/35 33/33/33 34/34/34
f 36/36/36 35/35/35 34/34/34
f 37/37/37 35/35/35 36/36/36
f 38/38/38 37/37/37 36/36/36
f 39/39/39 37/37/37 38/38/38
f 40/40/40 39/39/39 38/38/38
f 41/41/41 39/39/39 40/40/40
f 42/42/42 41/41/41 40/40/40
f 43/43/43 41/41/41 42/42/42
f 44/44/44 43/43/43 42/42/42
f 45/45/45 43/43/43 44/44/44
f 46/46/46 45/45/45 44/44/44
f 30/30/30 45/45/45 46/46/46
f 29/29/29 30/30/30 46/46/46
f 49/49/49 48/48/48 47/47/47
f 48/48/48 50/50/50 47/47/47
f 50/50/50 51/51/51 47/47/47
f 51/51/51 52/52/52 47/47/47
f 52/52/52 53/53/53 47/47/47
f 53/53/53 54/54/54 47/47/47
f 54/54/54 55/55/55 47/47/47
f 55/55/55 56/56/56 47/47/47
f 56/56/56 49/49/49 47/47/47
f 59/59/59 58/58/58 57/57/57
f 60/60/60 59/59/59 57/57/57
f 61/61/61 59/59/59 60/60/60
f 62/62/62 61/61/61 60/60/60
f 63/63/63 61/61/61 62/62/62
f 64/64/64 63/63/63 62/62/62
f 65/65/65 63/63/63 64/64/64
f 66/66/66 65/65/65 64/64/64
f 67/67/67 65/65/65 66/66/66
f 68/68/68 67/67/67 66/66/66
f 69/69/69 67/67/67 68/68/68
f 70/70/70 69/69/69 68/68/68
f 71/71/71 69/69/69 70/70/70
f 72/72/72 71/71/71 70/70/70
f 73/73/73 71/71/71 72/72/72
f 74/74/74 73/73/73 72/72/72
f 58/58/58 73/73/73 74/74/74
f 57/57/57 58/58/58 74/74/74
f 77/77/77 76/76/76 75/75/75
f 76/76/76 78/78/78 75/75/75
f 78/78/78 79/79/79 75/75/75
f 79/79/79 80/80/80 75/75/75
f 80/80/80 81/81/81 75/75/75
f 81/81/81 82/82/82 75/75/75
f 82/82/82 83/83/83 75/75/75
f 83/83/83 84/84/84 75/75/75
f 84/84/84 77/77/77 75/75/75
f 87/87/87 86/86/86 85/85/85
f 88/88/88 87/87/87 85/85/85
f 89/89/89 87/87/87 88/88/88
f 90/90/90 89/89/89 88/88/88
f 91/91/91 89/89/89 90/90/90
f 92/92/92 91/91/91 90/90/90
f 93/93/93 91/91/91 92/92/92
f 94/94/94 93/93/93 92/92/92
f 95/95/95 93/93/93 94/94/94
f 96/96/96 95/95/95 94/94/94
f 97/97/97 95/95/95 96/96/96
f 98/98/98 97/97/97 96/96/96
f 99/99/99 97/97/97 98/98/98
f 100/100/100 99/99/99 98/98/98
f 101/101/101 99/99/99 100/100/100
f 102/102/102 101/101/101 100/100/100
f 86/86/86 101/101/101 102/102/102
f 85/85/85 86/86/86 102/102/102
f 105/105/105 104/104/104 103/103/103
f 104/104/104 106/106/106 103/103/103
f 106/106/106 107/107/107 103/103/103
f 107/107/107 108/108/108 103/103/103
f 108/108/108 109/109/109 103/103/103
f 109/109/109 110/110/110 103/103/103
f 110/110/110 111/111/111 103/103/103
f 111/111/111 112/112/112 103/103/103
f 112/112/112 105/105/105 103/103/103
f 115/115/115 114/114/114 113/113/113
f 116/116/116 115/115/115 113/113/113
f 117/117/117 115/115/115 116/116/116
f 118/118/118 117/117/117 116/116/116
f 119/119/119 117/117/117 118/118/118
f 120/120/120 119/119/119 118/118/118
f 121/121/121 119/119/119 120/120/120
f 122/122/122 121/121/121 120/120/120
f 123/123/123 121/121/121 122/122/122
f 124/124/124 123/123/123 122/122/122
f 125/125/125 123/123/123 124/124/124
f 126/126/126 125/125/125 124/124/124
f 127/127/127 125/125/125 126/126/126
f 128/128/128 127/127/127 126/126/126
f 129/129/129 127/127/127 128/128/128
f 130/130/130 129/129/129 128/128/128
f 131/131/131 129/129/129 130/130/130
f 132/132/132 131/131/131 130/130/130
f 133/133/133 131/131/131 132/132/132
f 134/134/134 133/133/133 132/132/132
f 135/135/135 133/133/133 134/134/134
f 136/136/136 135/135/135 134/134/134
f 114/114/114 135/135/135 136/136/136
f 113/113/113 114/114/114 136/136/136
f 139/139/139 138/138/138 137/137/137
f 138/138/138 140/140/140 137/137/137
f 140/140/140 141/141/141 137/137/137
f 141/141/141 142/142/142 137/137/137
f 142/142/142 143/143/143 137/137/137
f 143/143/143 144/144/144 137/137/137
f 144/144/144 145/145/145 137/137/137
f 145/145/145 146/146/146 137/137/137
f 146/146/146 147/147/147 137/137/137
f 147/147/147 148/148/148 137/137/137
f 148/148/148 149/149/149 137/137/137
f 149/149/149 139/139/139 137/137/137
