v -0.489128 -0.331521 1.43957
v 0.185747 -0.374408 1.84101
v 0.344723 0.255855 1.47951
v -0.366838 0.154095 1.16048
v 0.454144 0.717813 0.884782
v -0.28193 0.512564 0.698989
v 0.492568 0.925715 0.153773
v -0.252114 0.673891 0.131742
v 0.454144 0.84791 -0.602232
v -0.28193 0.613516 -0.454902
v 0.344723 0.496243 -1.26814
v -0.366839 0.340631 -0.971631
v 0.180962 -0.0757477 -1.74257
v -0.493913 -0.103222 -1.33978
v -0.00696373 -0.764632 -1.95068
v -0.638565 -0.634118 -1.50068
v -0.326054 0.0843213 1.09177
v -0.445723 -0.387515 1.36061
v -0.489128 -0.331521 1.43957
v -0.366838 0.154095 1.16048
v -0.246094 0.421898 0.657174
v -0.28193 0.512564 0.698989
v -0.218016 0.573823 0.122987
v -0.252114 0.673891 0.131742
v -0.246094 0.516967 -0.429467
v -0.28193 0.613516 -0.454902
v -0.326054 0.259985 -0.91608
v -0.366839 0.340631 -0.971631
v -0.445722 -0.157999 -1.26277
v -0.493913 -0.103222 -1.33978
v -0.586881 -0.673351 -1.41676
v -0.638565 -0.634118 -1.50068
v 0.04472 -0.803864 -1.86676
v -0.586881 -0.673351 -1.41676
v -0.638565 -0.634118 -1.50068
v -0.00696373 -0.764632 -1.95068
v -0.445723 -0.387515 1.36061
v 0.229153 -0.430402 1.76205
v 0.185747 -0.374408 1.84101
v -0.489128 -0.331521 1.43957
v 0.229153 -0.430402 1.76205
v 0.385507 0.186082 1.4108
v 0.344723 0.255855 1.47951
v 0.185747 -0.374408 1.84101
v 0.48998 0.627147 0.842968
v 0.454144 0.717813 0.884782
v 0.526666 0.825647 0.145018
v 0.492568 0.925715 0.153773
v 0.48998 0.751361 -0.576797
v 0.454144 0.84791 -0.602232
v 0.385508 0.415598 -1.21259
v 0.344723 0.496243 -1.26814
v 0.229153 -0.130525 -1.66556
v 0.180962 -0.0757477 -1.74257
v 0.04472 -0.803864 -1.86676
v -0.00696373 -0.764632 -1.95068
v -0.445723 -0.387515 1.36061
v -0.326054 0.0843213 1.09177
v 0.385507 0.186082 1.4108
v 0.229153 -0.430402 1.76205
v -0.246094 0.421898 0.657174
v 0.48998 0.627147 0.842968
v -0.218016 0.573823 0.122987
v 0.526666 0.825647 0.145018
v -0.246094 0.516967 -0.429467
v 0.48998 0.751361 -0.576797
v -0.326054 0.259985 -0.91608
v 0.385508 0.415598 -1.21259
v -0.445722 -0.157999 -1.26277
v 0.229153 -0.130525 -1.66556
v 0.04472 -0.803864 -1.86676
v -0.586881 -0.673351 -1.41676
vt 1.322555 0.019227 0
vt 1.416489 0.014550 0
vt 1.416375 0.138801 0
vt 1.322442 0.139617 0
vt 1.416375 0.275289 0
vt 1.322442 0.277774 0
vt 1.416375 0.442321 0
vt 1.322442 0.442321 0
vt 1.416375 0.618214 0
vt 1.322442 0.613883 0
vt 1.416375 0.750493 0
vt 1.322442 0.746417 0
vt 1.416375 0.889556 0
vt 1.322442 0.885743 0
vt 1.416489 0.999032 0
vt 1.322555 0.997200 0
vt 1.330908 0.154315 0
vt 1.330908 0.036613 0
vt 1.322555 0.019227 0
vt 1.322442 0.139617 0
vt 1.330908 0.285728 0
vt 1.322442 0.277774 0
vt 1.330908 0.442321 0
vt 1.322442 0.442321 0
vt 1.330908 0.605928 0
vt 1.322442 0.613883 0
vt 1.330908 0.731718 0
vt 1.322442 0.746417 0
vt 1.330908 0.866539 0
vt 1.322442 0.885743 0
vt 1.330908 0.976692 0
vt 1.322555 0.997200 0
vt 1.424841 0.978524 0
vt 1.330908 0.976692 0
vt 1.322555 0.997200 0
vt 1.416489 0.999032 0
vt 1.330908 0.036613 0
vt 1.424842 0.031936 0
vt 1.416489 0.014550 0
vt 1.322555 0.019227 0
vt 1.424842 0.031936 0
vt 1.424842 0.153499 0
vt 1.416375 0.138801 0
vt 1.416489 0.014550 0
vt 1.424842 0.283244 0
vt 1.416375 0.275289 0
vt 1.424841 0.442321 0
vt 1.416375 0.442321 0
vt 1.424841 0.610259 0
vt 1.416375 0.618214 0
vt 1.424841 0.735795 0
vt 1.416375 0.750493 0
vt 1.424841 0.870352 0
vt 1.416375 0.889556 0
vt 1.424841 0.978524 0
vt 1.416489 0.999032 0
vt 1.330908 0.036613 0
vt 1.330908 0.154315 0
vt 1.424842 0.153499 0
vt 1.424842 0.031936 0
vt 1.330908 0.285728 0
vt 1.424842 0.283244 0
vt 1.330908 0.442321 0
vt 1.424841 0.442321 0
vt 1.330908 0.605928 0
vt 1.424841 0.610259 0
vt 1.330908 0.731718 0
vt 1.424841 0.735795 0
vt 1.330908 0.866539 0
vt 1.424841 0.870352 0
vt 1.424841 0.978524 0
vt 1.330908 0.976692 0
vn -0.408714 0.52968 0.74323
vn -0.408583 0.529479 0.743446
vn -0.391823 0.625366 0.674828
vn -0.371256 0.70628 0.602775
vn -0.342034 0.833055 0.434777
vn -0.330708 0.881926 0.335916
vn -0.321097 0.938295 0.128449
vn -0.320767 0.946988 0.0179301
vn -0.332886 0.922472 -0.195528
vn -0.343519 0.889643 -0.300881
vn -0.375608 0.787996 -0.487833
vn -0.395501 0.71862 -0.571983
vn -0.442136 0.557322 -0.702785
vn -0.467967 0.462885 -0.752825
vn -0.486666 0.371834 -0.790503
vn -0.486358 0.372114 -0.790561
vn -0.899946 -0.0988711 -0.424642
vn -0.886714 -0.0376528 -0.460783
vn -0.883451 -0.0436973 -0.466481
vn -0.911101 -0.157432 -0.380933
vn -0.931505 -0.243615 -0.270094
vn -0.938901 -0.276695 -0.204705
vn -0.946236 -0.316643 -0.0661464
vn -0.946338 -0.323097 0.00722269
vn -0.939091 -0.308852 0.150724
vn -0.931898 -0.287693 0.220905
vn -0.91116 -0.221428 0.347503
vn -0.897778 -0.175875 0.40381
vn -0.866693 -0.0676796 0.49423
vn -0.852462 -0.00379641 0.522776
vn -0.831694 0.0611064 0.551861
vn -0.8364 0.0628673 0.544502
vn -0.342915 -0.914155 -0.216169
vn -0.342915 -0.914155 -0.216169
vn -0.342915 -0.914155 -0.216169
vn -0.342915 -0.914155 -0.21617
vn -0.31004 -0.847586 0.430667
vn -0.31004 -0.847586 0.430667
vn -0.31004 -0.847586 0.430667
vn -0.31004 -0.847585 0.430667
vn 0.883356 0.0433845 0.466691
vn 0.911109 0.157467 0.380899
vn 0.90038 0.10053 0.423331
vn 0.887253 0.0397932 0.459563
vn 0.939069 0.277837 0.202374
vn 0.931854 0.244811 0.267797
vn 0.946248 0.323294 -0.00981477
vn 0.946327 0.316902 0.0635478
vn 0.931551 0.286917 -0.223363
vn 0.938923 0.30813 -0.15323
vn 0.897216 0.174247 -0.40576
vn 0.910769 0.219831 -0.349534
vn 0.851716 0.00116067 -0.524002
vn 0.86656 0.0671301 -0.494537
vn 0.835574 -0.0659005 -0.545411
vn 0.831581 -0.0614539 -0.551994
vn 0.40918 -0.52785 -0.744276
vn 0.371717 -0.704737 -0.604295
vn 0.392436 -0.623127 -0.67654
vn 0.40918 -0.527849 -0.744276
vn 0.33782 -0.854692 -0.394181
vn 0.337821 -0.854692 -0.394181
vn 0.320755 -0.935635 -0.14732
vn 0.321103 -0.946325 -0.0368912
vn 0.330643 -0.926982 0.177146
vn 0.341997 -0.896048 0.283084
vn 0.371717 -0.798965 0.472738
vn 0.392437 -0.73114 0.558057
vn 0.454286 -0.516374 0.725935
vn 0.454286 -0.516374 0.725935
vn 0.487215 -0.369834 0.791103
vn 0.487215 -0.369834 0.791103
g Ball_Wood_piece02
usemtl Ball_Wood_Pieces
f 2/2/2 3/3/3 1/1/1
f 3/3/3 4/4/4 1/1/1
f 3/3/3 5/5/5 4/4/4
f 5/5/5 6/6/6 4/4/4
f 5/5/5 7/7/7 6/6/6
f 7/7/7 8/8/8 6/6/6
f 7/7/7 9/9/9 8/8/8
f 9/9/9 10/10/10 8/8/8
f 9/9/9 11/11/11 10/10/10
f 11/11/11 12/12/12 10/10/10
f 11/11/11 13/13/13 12/12/12
f 13/13/13 14/14/14 12/12/12
f 13/13/13 15/15/15 14/14/14
f 15/15/15 16/16/16 14/14/14
f 18/18/18 19/19/19 17/17/17
f 20/20/20 17/17/17 19/19/19
f 17/17/17 20/20/20 21/21/21
f 22/22/22 21/21/21 20/20/20
f 21/21/21 22/22/22 23/23/23
f 24/24/24 23/23/23 22/22/22
f 23/23/23 24/24/24 25/25/25
f 26/26/26 25/25/25 24/24/24
f 25/25/25 26/26/26 27/27/27
f 28/28/28 27/27/27 26/26/26
f 27/27/27 28/28/28 29/29/29
f 30/30/30 29/29/29 28/28/28
f 29/29/29 30/30/30 31/31/31
f 32/32/32 31/31/31 30/30/30
f 34/34/34 35/35/35 33/33/33
f 36/36/36 33/33/33 35/35/35
f 38/38/38 39/39/39 37/37/37
f 40/40/40 37/37/37 39/39/39
f 42/42/42 43/43/43 41/41/41
f 44/44/44 41/41/41 43/43/43
f 45/45/45 46/46/46 42/42/42
f 43/43/43 42/42/42 46/46/46
f 47/47/47 48/48/48 45/45/45
f 46/46/46 45/45/45 48/48/48
f 49/49/49 50/50/50 47/47/47
f 48/48/48 47/47/47 50/50/50
f 51/51/51 52/52/52 49/49/49
f 50/50/50 49/49/49 52/52/52
f 53/53/53 54/54/54 51/51/51
f 52/52/52 51/51/51 54/54/54
f 55/55/55 56/56/56 53/53/53
f 54/54/54 53/53/53 56/56/56
f 58/58/58 59/59/59 57/57/57
f 59/59/59 60/60/60 57/57/57
f 61/61/61 62/62/62 58/58/58
f 62/62/62 59/59/59 58/58/58
f 64/64/64 62/62/62 63/63/63
f 62/62/62 61/61/61 63/63/63
f 66/66/66 64/64/64 65/65/65
f 64/64/64 63/63/63 65/65/65
f 68/68/68 66/66/66 67/67/67
f 66/66/66 65/65/65 67/67/67
f 70/70/70 68/68/68 69/69/69
f 68/68/68 67/67/67 69/69/69
f 70/70/70 69/69/69 71/71/71
f 69/69/69 72/72/72 71/71/71
