v -1.94851 -0.506312 -0.352196
v -1.80676 -0.565024 0.41911
v -1.39011 0.054808 0.419493
v -1.4986 0.163294 -0.351813
v -0.752248 0.481013 0.419493
v -0.81096 0.622757 -0.351813
v 0.00016033 0.630677 0.419493
v 0.000160459 0.784099 -0.351813
v 0.752569 0.481013 0.419493
v 0.811281 0.622757 -0.351813
v 1.39043 0.0548079 0.419493
v 1.49892 0.163294 -0.351813
v 1.80708 -0.565024 0.41911
v 1.94883 -0.506312 -0.352196
v -1.42503 0.0897254 -0.372508
v -1.86194 -0.564156 -0.372508
v -1.94851 -0.506312 -0.352196
v -1.4986 0.163294 -0.351813
v -0.771145 0.526635 -0.372508
v -0.81096 0.622757 -0.351813
v 0.000160438 0.680057 -0.372508
v 0.000160459 0.784099 -0.351813
v -1.86194 -0.564156 -0.372508
v -1.72019 -0.622868 0.398798
v -1.80676 -0.565024 0.41911
v -1.94851 -0.506312 -0.352196
v -1.72019 -0.622868 0.398798
v -1.31654 -0.0187607 0.398798
v -1.39011 0.054808 0.419493
v -1.80676 -0.565024 0.41911
v -0.712433 0.384891 0.398798
v -0.752248 0.481013 0.419493
v 0.000160307 0.526635 0.398798
v 0.00016033 0.630677 0.419493
v 0.712754 0.384891 0.398797
v 0.752569 0.481013 0.419493
v 0.771466 0.526635 -0.372508
v 0.811281 0.622757 -0.351813
v 1.31686 -0.0187607 0.398797
v 1.39043 0.0548079 0.419493
v 1.42535 0.0897252 -0.372508
v 1.49892 0.163294 -0.351813
v 1.72051 -0.622869 0.398797
v 1.80708 -0.565024 0.41911
v 1.72051 -0.622869 0.398797
v 1.86226 -0.564156 -0.372508
v 1.94883 -0.506312 -0.352196
v 1.80708 -0.565024 0.41911
v 1.86226 -0.564156 -0.372508
v 1.94883 -0.506312 -0.352196
v -1.86194 -0.564156 -0.372508
v -1.42503 0.0897254 -0.372508
v -1.31654 -0.0187607 0.398798
v -1.72019 -0.622868 0.398798
v -0.771145 0.526635 -0.372508
v -0.712433 0.384891 0.398798
v 0.000160438 0.680057 -0.372508
v 0.000160307 0.526635 0.398798
v 0.771466 0.526635 -0.372508
v 0.712754 0.384891 0.398797
v 1.42535 0.0897252 -0.372508
v 1.31686 -0.0187607 0.398797
v 1.86226 -0.564156 -0.372508
v 1.72051 -0.622869 0.398797
vt 1.666249 0.992620 0
vt 1.760985 0.995539 0
vt 1.761293 0.914417 0
vt 1.665274 0.910887 0
vt 1.762813 0.812262 0
vt 1.665145 0.807965 0
vt 1.763203 0.691660 0
vt 1.665479 0.686457 0
vt 1.764348 0.563725 0
vt 1.664407 0.557616 0
vt 1.764244 0.461324 0
vt 1.664836 0.454446 0
vt 1.764175 0.379840 0
vt 1.665482 0.372348 0
vt 1.671276 0.899711 0
vt 1.672361 0.979503 0
vt 1.666249 0.992620 0
vt 1.665274 0.910887 0
vt 1.671197 0.801841 0
vt 1.665145 0.807965 0
vt 1.671537 0.686298 0
vt 1.665479 0.686457 0
vt 1.672361 0.979503 0
vt 1.754844 0.981503 0
vt 1.760985 0.995539 0
vt 1.666249 0.992620 0
vt 1.754844 0.981503 0
vt 1.755263 0.902460 0
vt 1.761293 0.914417 0
vt 1.760985 0.995539 0
vt 1.756732 0.805710 0
vt 1.762813 0.812262 0
vt 1.757117 0.691490 0
vt 1.763203 0.691660 0
vt 1.758187 0.569941 0
vt 1.764348 0.563725 0
vt 1.670540 0.563425 0
vt 1.664407 0.557616 0
vt 1.758057 0.472959 0
vt 1.764244 0.461324 0
vt 1.670994 0.465320 0
vt 1.664836 0.454446 0
vt 1.757837 0.393567 0
vt 1.764175 0.379840 0
vt 1.757837 0.393567 0
vt 1.671790 0.385177 0
vt 1.665482 0.372348 0
vt 1.764175 0.379840 0
vt 1.671790 0.385177 0
vt 1.665482 0.372348 0
vt 1.672361 0.979503 0
vt 1.671276 0.899711 0
vt 1.755263 0.902460 0
vt 1.754844 0.981503 0
vt 1.671197 0.801841 0
vt 1.756732 0.805710 0
vt 1.671537 0.686298 0
vt 1.757117 0.691490 0
vt 1.670540 0.563425 0
vt 1.758187 0.569941 0
vt 1.670994 0.465320 0
vt 1.758057 0.472959 0
vt 1.671790 0.385177 0
vt 1.757837 0.393567 0
vn -0.814678 0.547389 0.19148
vn -0.814637 0.547484 0.191382
vn -0.737538 0.646653 0.194623
vn -0.64635 0.737787 0.194682
vn -0.437436 0.877933 0.194637
vn -0.317615 0.928012 0.194719
vn -0.0681681 0.978504 0.194637
vn 0.0616968 0.978917 0.194719
vn 0.311478 0.930107 0.194636
vn 0.431616 0.880791 0.194719
vn 0.641373 0.742141 0.194594
vn 0.733226 0.651514 0.194702
vn 0.814678 0.547389 0.19148
vn 0.814745 0.547321 0.191389
vn -0.14509 0.127403 -0.981182
vn -0.15921 0.106381 -0.981496
vn -0.1619 0.108767 -0.980795
vn -0.128563 0.147312 -0.980699
vn -0.0870049 0.175107 -0.980698
vn -0.0630998 0.185011 -0.980709
vn -0.0133717 0.195073 -0.980698
vn 0.012504 0.195075 -0.980709
vn -0.549108 -0.834916 0.0373561
vn -0.549108 -0.834916 0.0373561
vn -0.549108 -0.834916 0.0373561
vn -0.549108 -0.834916 0.0373561
vn 0.161874 -0.108798 0.980796
vn 0.128456 -0.147417 0.980697
vn 0.144463 -0.128095 0.981184
vn 0.158635 -0.107241 0.981496
vn 0.0622647 -0.185355 0.980697
vn 0.0861724 -0.175454 0.980709
vn -0.013407 -0.195073 0.980697
vn 0.0124699 -0.195076 0.980709
vn -0.0870375 -0.175093 0.980697
vn -0.0631312 -0.184997 0.980709
vn 0.0622972 0.185341 -0.980698
vn 0.086204 0.17544 -0.980709
vn -0.145085 -0.127411 0.981181
vn -0.128545 -0.14733 0.980699
vn 0.128482 0.147392 -0.980698
vn 0.144515 0.128037 -0.981184
vn -0.15921 -0.106381 0.981497
vn -0.161875 -0.108798 0.980795
vn 0.549109 -0.834916 0.0373562
vn 0.549109 -0.834915 0.0373563
vn 0.549109 -0.834916 0.0373562
vn 0.549109 -0.834916 0.037356
vn 0.1619 0.108767 -0.980795
vn 0.158678 0.107178 -0.981496
vn 0.816084 -0.54529 -0.191481
vn 0.6487 -0.735712 -0.194721
vn 0.740226 -0.64357 -0.194634
vn 0.816084 -0.54529 -0.191481
vn 0.317775 -0.927956 -0.194721
vn 0.437596 -0.877854 -0.194634
vn -0.0615276 -0.978927 -0.194721
vn 0.0683462 -0.978492 -0.194634
vn -0.431463 -0.880865 -0.194721
vn -0.311309 -0.930164 -0.194634
vn -0.735712 -0.6487 -0.194721
vn -0.64357 -0.740226 -0.194634
vn -0.816084 -0.54529 -0.191481
vn -0.816084 -0.54529 -0.19148
g Ball_Wood_piece03
usemtl Ball_Wood_Pieces
f 2/2/2 3/3/3 1/1/1
f 3/3/3 4/4/4 1/1/1
f 3/3/3 5/5/5 4/4/4
f 5/5/5 6/6/6 4/4/4
f 5/5/5 7/7/7 6/6/6
f 7/7/7 8/8/8 6/6/6
f 7/7/7 9/9/9 8/8/8
f 9/9/9 10/10/10 8/8/8
f 9/9/9 11/11/11 10/10/10
f 11/11/11 12/12/12 10/10/10
f 11/11/11 13/13/13 12/12/12
f 13/13/13 14/14/14 12/12/12
f 16/16/16 17/17/17 15/15/15
f 18/18/18 15/15/15 17/17/17
f 15/15/15 18/18/18 19/19/19
f 20/20/20 19/19/19 18/18/18
f 19/19/19 20/20/20 21/21/21
f 22/22/22 21/21/21 20/20/20
f 24/24/24 25/25/25 23/23/23
f 26/26/26 23/23/23 25/25/25
f 28/28/28 29/29/29 27/27/27
f 30/30/30 27/27/27 29/29/29
f 31/31/31 32/32/32 28/28/28
f 29/29/29 28/28/28 32/32/32
f 33/33/33 34/34/34 31/31/31
f 32/32/32 31/31/31 34/34/34
f 35/35/35 36/36/36 33/33/33
f 34/34/34 33/33/33 36/36/36
f 21/21/21 22/22/22 37/37/37
f 38/38/38 37/37/37 22/22/22
f 39/39/39 40/40/40 35/35/35
f 36/36/36 35/35/35 40/40/40
f 37/37/37 38/38/38 41/41/41
f 42/42/42 41/41/41 38/38/38
f 43/43/43 44/44/44 39/39/39
f 40/40/40 39/39/39 44/44/44
f 46/46/46 47/47/47 45/45/45
f 48/48/48 45/45/45 47/47/47
f 41/41/41 42/42/42 49/49/49
f 50/50/50 49/49/49 42/42/42
f 52/52/52 53/53/53 51/51/51
f 53/53/53 54/54/54 51/51/51
f 55/55/55 56/56/56 52/52/52
f 56/56/56 53/53/53 52/52/52
f 57/57/57 58/58/58 55/55/55
f 58/58/58 56/56/56 55/55/55
f 59/59/59 60/60/60 57/57/57
f 60/60/60 58/58/58 57/57/57
f 61/61/61 62/62/62 59/59/59
f 62/62/62 60/60/60 59/59/59
f 63/63/63 64/64/64 61/61/61
f 64/64/64 62/62/62 61/61/61
