v 0.00162267 0.238152 -0.92112
v 0.594241 0.0810892 -0.428589
v 0.831334 -0.330947 -0.749022
v 0.309377 -0.296765 -1.33626
v -0.757323 0.372753 1.08813
v 0.00588533 0.187148 1.12705
v 0.141985 0.364949 0.599294
v -0.581197 0.603961 0.403509
v 0.349482 0.330232 0.0475468
v -0.313797 0.559222 -0.307525
v 0.540827 -0.00248745 -0.390974
v 0.771322 -0.40332 -0.699893
v 0.831334 -0.330947 -0.749022
v 0.594241 0.0810892 -0.428589
v 0.771322 -0.40332 -0.699893
v 0.249364 -0.369138 -1.28713
v 0.309377 -0.296765 -1.33626
v 0.831334 -0.330947 -0.749022
v 0.249364 -0.369138 -1.28713
v -0.0517905 0.154575 -0.883504
v 0.00162267 0.238152 -0.92112
v 0.309377 -0.296765 -1.33626
v -0.778843 0.27622 1.04978
v -0.0156344 0.0906153 1.08869
v 0.00588533 0.187148 1.12705
v -0.757323 0.372753 1.08813
v -0.0156344 0.0906153 1.08869
v 0.11493 0.264828 0.577003
v 0.141985 0.364949 0.599294
v 0.00588533 0.187148 1.12705
v -0.608252 0.50384 0.381218
v -0.778843 0.27622 1.04978
v -0.757323 0.372753 1.08813
v -0.581197 0.603961 0.403509
v 0.310334 0.232135 0.0574123
v 0.349482 0.330232 0.0475468
v -0.352945 0.461125 -0.29766
v -0.313797 0.559222 -0.307525
v 0.771322 -0.40332 -0.699893
v 0.540827 -0.00248745 -0.390974
v -0.0517905 0.154575 -0.883504
v 0.249364 -0.369138 -1.28713
v 0.310334 0.232135 0.0574123
v -0.352945 0.461125 -0.29766
v 0.11493 0.264828 0.577003
v -0.608252 0.50384 0.381218
v -0.0156344 0.0906153 1.08869
v -0.778843 0.27622 1.04978
vt 1.539515 0.244215 0
vt 1.650266 0.243707 0
vt 1.648363 0.330564 0
vt 1.540868 0.329824 0
vt 1.539105 -0.003518 0
vt 1.647053 -0.002790 0
vt 1.648290 0.085865 0
vt 1.540182 0.085328 0
vt 1.648341 0.167511 0
vt 1.539410 0.164856 0
vt 1.645874 0.241352 0
vt 1.644371 0.325068 0
vt 1.648363 0.330564 0
vt 1.650266 0.243707 0
vt 1.644371 0.325068 0
vt 1.536876 0.324328 0
vt 1.540868 0.329824 0
vt 1.648363 0.330564 0
vt 1.536876 0.324328 0
vt 1.535122 0.241859 0
vt 1.539515 0.244215 0
vt 1.540868 0.329824 0
vt 1.535666 0.010181 0
vt 1.643613 0.010910 0
vt 1.647053 -0.002790 0
vt 1.539105 -0.003518 0
vt 1.643613 0.010910 0
vt 1.644276 0.096655 0
vt 1.648290 0.085865 0
vt 1.647053 -0.002790 0
vt 1.536168 0.096118 0
vt 1.535666 0.010181 0
vt 1.539105 -0.003518 0
vt 1.540182 0.085328 0
vt 1.643885 0.171788 0
vt 1.648341 0.167511 0
vt 1.534954 0.169133 0
vt 1.539410 0.164856 0
vt 1.644371 0.325068 0
vt 1.645874 0.241352 0
vt 1.535122 0.241859 0
vt 1.536876 0.324328 0
vt 1.643885 0.171788 0
vt 1.534954 0.169133 0
vt 1.644276 0.096655 0
vt 1.536168 0.096118 0
vt 1.643613 0.010910 0
vt 1.535666 0.010181 0
vn 0.521051 0.762209 -0.384113
vn 0.473878 0.825351 -0.306979
vn 0.564833 0.683802 -0.461929
vn 0.564787 0.68365 -0.462211
vn 0.203371 0.910675 0.359599
vn 0.203189 0.910848 0.359262
vn 0.236071 0.934127 0.267728
vn 0.269258 0.949008 0.163965
vn 0.343021 0.93866 -0.0354162
vn 0.386683 0.912442 -0.133886
vn 0.740931 -0.174083 0.648627
vn 0.712841 -0.122314 0.690577
vn 0.708547 -0.129494 0.69368
vn 0.769045 -0.221658 0.59953
vn 0.489319 -0.729827 -0.477409
vn 0.489319 -0.729827 -0.477409
vn 0.489319 -0.729827 -0.477409
vn 0.489318 -0.729828 -0.477409
vn -0.708369 0.129236 -0.69391
vn -0.769065 0.221685 -0.599495
vn -0.741861 0.175413 -0.647204
vn -0.713883 0.124133 -0.689175
vn -0.130374 -0.340876 0.931024
vn -0.130374 -0.340877 0.931024
vn -0.130374 -0.340876 0.931024
vn -0.130374 -0.340876 0.931024
vn 0.948432 -0.280059 0.148471
vn 0.907472 -0.308671 0.284984
vn 0.930381 -0.294017 0.218962
vn 0.949867 -0.272592 0.153119
vn -0.931215 0.293473 -0.21613
vn -0.950641 0.271569 -0.150108
vn -0.948517 0.279967 -0.148103
vn -0.907687 0.308596 -0.284382
vn 0.827847 -0.281582 0.48516
vn 0.856696 -0.299664 0.41985
vn -0.857631 0.300273 -0.4175
vn -0.828949 0.282249 -0.482887
vn -0.565729 -0.682247 0.46313
vn -0.474886 -0.824179 0.308565
vn -0.522316 -0.760402 0.385972
vn -0.565729 -0.682247 0.46313
vn -0.342797 -0.93876 0.0349337
vn -0.386513 -0.912573 0.133483
vn -0.235014 -0.93335 -0.27134
vn -0.268443 -0.948766 -0.16668
vn -0.202864 -0.910001 -0.361587
vn -0.202864 -0.910001 -0.361587
g Ball_Wood_piece16
usemtl Ball_Wood_Pieces
f 2/2/2 3/3/3 1/1/1
f 3/3/3 4/4/4 1/1/1
f 6/6/6 7/7/7 5/5/5
f 7/7/7 8/8/8 5/5/5
f 7/7/7 9/9/9 8/8/8
f 9/9/9 10/10/10 8/8/8
f 9/9/9 2/2/2 10/10/10
f 2/2/2 1/1/1 10/10/10
f 12/12/12 13/13/13 11/11/11
f 14/14/14 11/11/11 13/13/13
f 16/16/16 17/17/17 15/15/15
f 18/18/18 15/15/15 17/17/17
f 20/20/20 21/21/21 19/19/19
f 22/22/22 19/19/19 21/21/21
f 24/24/24 25/25/25 23/23/23
f 26/26/26 23/23/23 25/25/25
f 28/28/28 29/29/29 27/27/27
f 30/30/30 27/27/27 29/29/29
f 32/32/32 33/33/33 31/31/31
f 34/34/34 31/31/31 33/33/33
f 35/35/35 36/36/36 28/28/28
f 29/29/29 28/28/28 36/36/36
f 31/31/31 34/34/34 37/37/37
f 38/38/38 37/37/37 34/34/34
f 11/11/11 14/14/14 35/35/35
f 36/36/36 35/35/35 14/14/14
f 37/37/37 38/38/38 20/20/20
f 21/21/21 20/20/20 38/38/38
f 40/40/40 41/41/41 39/39/39
f 41/41/41 42/42/42 39/39/39
f 43/43/43 44/44/44 40/40/40
f 44/44/44 41/41/41 40/40/40
f 45/45/45 46/46/46 43/43/43
f 46/46/46 44/44/44 43/43/43
f 47/47/47 48/48/48 45/45/45
f 48/48/48 46/46/46 45/45/45
