v -0.0134959 1.29572 0.00935644
v -0.376923 1.04875 -0.443184
v -0.2818 0.983859 0.162731
v -0.337368 1.00842 -1.27204
v -0.72872 0.57815 -0.762621
v -0.635419 0.536959 -0.186287
v -0.552494 0.481648 0.356739
v 0.212663 1.07303 0.426441
v 0.597262 1.3325 0.187423
v 1.06236 1.01106 0.622059
v 1.0247 1.31607 0.238601
v -0.149582 0.561087 0.673442
v 0.393457 0.582743 0.803239
v 1.07284 0.513236 0.957858
v -0.8693 0.0101614 0.0856349
v -0.4538 -0.00674149 0.668285
v -1.05228 -0.521685 -0.136751
v -0.715055 -0.4664 0.451915
v -0.264756 -0.517198 0.902215
v -1.05299 -1.03436 -0.407092
v -0.716844 -1.10656 0.129456
v -0.400361 -1.18169 0.555128
v 0.163639 -1.21778 0.9538
v 1.05677 -0.506639 1.33465
v 0.523364 -1.2854 1.13776
v 1.06639 -1.29209 1.16912
v -1.15043 -0.50519 -0.782587
v -1.01711 -0.0190811 -0.524958
v 0.323911 -0.507153 1.23944
v 1.07253 0.0121425 1.26695
v 0.0892349 0.00796545 1.03528
v -0.376923 1.04875 -0.443184
v -0.0134959 1.29572 0.00935644
v -0.2818 0.983859 0.162731
v -0.72872 0.57815 -0.762621
v -0.337368 1.00842 -1.27204
v -0.635419 0.536959 -0.186287
v -0.552494 0.481648 0.356739
v 0.212663 1.07303 0.426441
v 0.597262 1.3325 0.187423
v 1.06236 1.01106 0.622059
v 1.0247 1.31607 0.238601
v -0.149582 0.561087 0.673442
v 0.393457 0.582743 0.803239
v 1.07284 0.513236 0.957858
v -0.8693 0.0101614 0.0856349
v -0.4538 -0.00674149 0.668285
v -1.05228 -0.521685 -0.136751
v -0.715055 -0.4664 0.451915
v -0.264756 -0.517198 0.902215
v -1.05299 -1.03436 -0.407092
v -0.716844 -1.10656 0.129456
v -0.400361 -1.18169 0.555128
v 0.163639 -1.21778 0.9538
v 0.523364 -1.2854 1.13776
v 1.05677 -0.506639 1.33465
v 1.06639 -1.29209 1.16912
v -1.15043 -0.50519 -0.782587
v -1.01711 -0.0190811 -0.524958
v 0.323911 -0.507153 1.23944
v 1.07253 0.0121425 1.26695
v 0.0892349 0.00796545 1.03528
vt 1.424931 0.534712 0
vt 1.421706 0.462897 0
vt 1.465698 0.504005 0
vt 1.356705 0.410850 0
vt 1.466536 0.379210 0
vt 1.498601 0.431085 0
vt 1.529401 0.475966 0
vt 1.463252 0.567275 0
vt 1.422400 0.609724 0
vt 1.474189 0.664999 0
vt 1.425535 0.661471 0
vt 1.527185 0.530215 0
vt 1.522992 0.589642 0
vt 1.534986 0.665566 0
vt 1.579399 0.421384 0
vt 1.589127 0.493657 0
vt 1.646850 0.386379 0
vt 1.640640 0.455065 0
vt 1.646935 0.520055 0
vt 1.719764 0.367152 0
vt 1.723839 0.433373 0
vt 1.725823 0.491527 0
vt 1.723856 0.565873 0
vt 1.646148 0.662653 0
vt 1.726543 0.607985 0
vt 1.726937 0.664096 0
vt 1.643646 0.321066 0
vt 1.570982 0.357718 0
vt 1.646129 0.588642 0
vt 1.594091 0.664336 0
vt 1.591397 0.561000 0
vt 1.421706 0.462897 0
vt 1.424931 0.534712 0
vt 1.465698 0.504005 0
vt 1.466536 0.379210 0
vt 1.356705 0.410850 0
vt 1.498601 0.431085 0
vt 1.529401 0.475966 0
vt 1.463252 0.567275 0
vt 1.422400 0.609724 0
vt 1.474189 0.664999 0
vt 1.425535 0.661471 0
vt 1.527185 0.530215 0
vt 1.522992 0.589642 0
vt 1.534986 0.665566 0
vt 1.579399 0.421384 0
vt 1.589127 0.493657 0
vt 1.646850 0.386379 0
vt 1.640640 0.455065 0
vt 1.646935 0.520055 0
vt 1.719764 0.367152 0
vt 1.723839 0.433373 0
vt 1.725823 0.491527 0
vt 1.723856 0.565873 0
vt 1.726543 0.607985 0
vt 1.646148 0.662653 0
vt 1.726937 0.664096 0
vt 1.643646 0.321066 0
vt 1.570982 0.357718 0
vt 1.646129 0.588642 0
vt 1.594091 0.664336 0
vt 1.591397 0.561000 0
vn 0.207882 0.955541 -0.209109
vn -0.149194 0.816509 -0.557723
vn -0.0463223 0.960952 -0.27281
vn -0.106211 0.716538 -0.689414
vn -0.194455 0.798928 -0.569123
vn -0.249267 0.844519 -0.473976
vn -0.246041 0.950432 -0.190114
vn 0.295434 0.946394 0.130603
vn 0.466164 0.882371 0.064123
vn 0.373417 0.897759 0.23364
vn 0.519617 0.848082 0.103702
vn 0.0219091 0.986376 0.163039
vn 0.239765 0.913803 0.327836
vn 0.284081 0.899069 0.333125
vn -0.418481 0.87638 -0.238395
vn -0.331068 0.933403 0.138395
vn -0.678706 0.720605 -0.141725
vn -0.626158 0.768685 0.130572
vn -0.488033 0.782331 0.387018
vn -0.778274 0.621059 -0.0926024
vn -0.762879 0.632209 0.13538
vn -0.667088 0.668132 0.329536
vn -0.542035 0.667335 0.510746
vn -0.143201 0.642614 0.752689
vn -0.272886 0.615439 0.739437
vn -0.18774 0.547831 0.815251
vn -0.66089 0.660375 -0.356552
vn -0.392655 0.808628 -0.438113
vn -0.232874 0.77101 0.592718
vn 0.125022 0.882527 0.453338
vn -0.0249141 0.92894 0.369391
vn 0.149194 -0.816509 0.557723
vn -0.207882 -0.955541 0.209109
vn 0.0463223 -0.960952 0.27281
vn 0.194455 -0.798928 0.569123
vn 0.106211 -0.716538 0.689414
vn 0.249267 -0.844519 0.473976
vn 0.246041 -0.950432 0.190114
vn -0.295434 -0.946394 -0.130603
vn -0.466164 -0.882371 -0.064123
vn -0.373417 -0.897759 -0.23364
vn -0.519617 -0.848082 -0.103702
vn -0.0219091 -0.986376 -0.163039
vn -0.239765 -0.913803 -0.327836
vn -0.284081 -0.899069 -0.333125
vn 0.418481 -0.87638 0.238395
vn 0.331068 -0.933403 -0.138395
vn 0.678706 -0.720605 0.141725
vn 0.626158 -0.768685 -0.130572
vn 0.488033 -0.782331 -0.387018
vn 0.778274 -0.621059 0.0926024
vn 0.762879 -0.632209 -0.13538
vn 0.667088 -0.668132 -0.329536
vn 0.542035 -0.667335 -0.510746
vn 0.272886 -0.615439 -0.739437
vn 0.143201 -0.642614 -0.752689
vn 0.18774 -0.547831 -0.815251
vn 0.66089 -0.660375 0.356552
vn 0.392655 -0.808628 0.438113
vn 0.232874 -0.771009 -0.592718
vn -0.125022 -0.882527 -0.453338
vn 0.0249141 -0.92894 -0.369391
g Ball_Paper_piece07
usemtl Ball_Paper_Pieces
f 2/2/2 3/3/3 1/1/1
f 5/5/5 2/2/2 4/4/4
f 5/5/5 6/6/6 2/2/2
f 6/6/6 3/3/3 2/2/2
f 6/6/6 7/7/7 3/3/3
f 3/3/3 8/8/8 1/1/1
f 8/8/8 9/9/9 1/1/1
f 8/8/8 10/10/10 9/9/9
f 10/10/10 11/11/11 9/9/9
f 7/7/7 12/12/12 3/3/3
f 12/12/12 8/8/8 3/3/3
f 12/12/12 13/13/13 8/8/8
f 13/13/13 10/10/10 8/8/8
f 13/13/13 14/14/14 10/10/10
f 15/15/15 16/16/16 7/7/7
f 17/17/17 18/18/18 15/15/15
f 18/18/18 16/16/16 15/15/15
f 18/18/18 19/19/19 16/16/16
f 20/20/20 21/21/21 17/17/17
f 21/21/21 18/18/18 17/17/17
f 21/21/21 22/22/22 18/18/18
f 22/22/22 19/19/19 18/18/18
f 22/22/22 23/23/23 19/19/19
f 25/25/25 26/26/26 24/24/24
f 17/17/17 27/27/27 20/20/20
f 15/15/15 28/28/28 17/17/17
f 28/28/28 27/27/27 17/17/17
f 7/7/7 6/6/6 15/15/15
f 6/6/6 28/28/28 15/15/15
f 6/6/6 5/5/5 28/28/28
f 24/24/24 29/29/29 25/25/25
f 29/29/29 23/23/23 25/25/25
f 29/29/29 19/19/19 23/23/23
f 30/30/30 29/29/29 24/24/24
f 30/30/30 31/31/31 29/29/29
f 31/31/31 19/19/19 29/29/29
f 31/31/31 16/16/16 19/19/19
f 14/14/14 13/13/13 30/30/30
f 13/13/13 31/31/31 30/30/30
f 13/13/13 12/12/12 31/31/31
f 12/12/12 16/16/16 31/31/31
f 12/12/12 7/7/7 16/16/16
f 33/33/33 34/34/34 32/32/32
f 36/36/36 32/32/32 35/35/35
f 32/32/32 37/37/37 35/35/35
f 32/32/32 34/34/34 37/37/37
f 34/34/34 38/38/38 37/37/37
f 33/33/33 39/39/39 34/34/34
f 33/33/33 40/40/40 39/39/39
f 40/40/40 41/41/41 39/39/39
f 40/40/40 42/42/42 41/41/41
f 34/34/34 43/43/43 38/38/38
f 34/34/34 39/39/39 43/43/43
f 39/39/39 44/44/44 43/43/43
f 39/39/39 41/41/41 44/44/44
f 41/41/41 45/45/45 44/44/44
f 38/38/38 47/47/47 46/46/46
f 46/46/46 49/49/49 48/48/48
f 46/46/46 47/47/47 49/49/49
f 47/47/47 50/50/50 49/49/49
f 48/48/48 52/52/52 51/51/51
f 48/48/48 49/49/49 52/52/52
f 49/49/49 53/53/53 52/52/52
f 49/49/49 50/50/50 53/53/53
f 50/50/50 54/54/54 53/53/53
f 56/56/56 57/57/57 55/55/55
f 51/51/51 58/58/58 48/48/48
f 48/48/48 59/59/59 46/46/46
f 48/48/48 58/58/58 59/59/59
f 46/46/46 37/37/37 38/38/38
f 46/46/46 59/59/59 37/37/37
f 59/59/59 35/35/35 37/37/37
f 55/55/55 60/60/60 56/56/56
f 55/55/55 54/54/54 60/60/60
f 54/54/54 50/50/50 60/60/60
f 56/56/56 60/60/60 61/61/61
f 60/60/60 62/62/62 61/61/61
f 60/60/60 50/50/50 62/62/62
f 50/50/50 47/47/47 62/62/62
f 61/61/61 44/44/44 45/45/45
f 61/61/61 62/62/62 44/44/44
f 62/62/62 43/43/43 44/44/44
f 62/62/62 47/47/47 43/43/43
f 47/47/47 38/38/38 43/43/43
