v 0.265541 -0.280574 -1.77837
v -0.502829 -0.284487 -1.61091
v -0.439405 0.314086 -1.16878
v 0.334083 0.366073 -1.30094
v -0.383811 0.709863 -0.513962
v 0.394015 0.792734 -0.59502
v -0.346665 0.825095 0.243573
v 0.43406 0.916957 0.221628
v -0.333621 0.642238 0.988497
v 0.448121 0.719831 1.02468
v -0.345762 0.202755 1.59224
v 0.434963 0.244992 1.67671
v 0.284006 -0.343673 -1.69512
v -0.484365 -0.347587 -1.52766
v -0.502829 -0.284487 -1.61091
v 0.265541 -0.280574 -1.77837
v -0.484365 -0.347587 -1.52766
v -0.422258 0.235881 -1.09919
v -0.439405 0.314086 -1.16878
v -0.502829 -0.284487 -1.61091
v 0.35123 0.287868 -1.23135
v 0.284006 -0.343673 -1.69512
v 0.265541 -0.280574 -1.77837
v 0.334083 0.366073 -1.30094
v -0.369607 0.610715 -0.479022
v -0.383811 0.709863 -0.513962
v 0.408219 0.693585 -0.56008
v 0.394015 0.792734 -0.59502
v -0.334426 0.719849 0.238428
v -0.346665 0.825095 0.243573
v 0.446298 0.811711 0.216482
v 0.43406 0.916957 0.221628
v -0.322073 0.546668 0.943932
v -0.333621 0.642238 0.988497
v 0.45967 0.624262 0.980115
v 0.448121 0.719831 1.02468
v -0.334427 0.117538 1.53009
v -0.345762 0.202755 1.59224
v -0.334427 0.117538 1.53009
v 0.446298 0.159775 1.61456
v 0.434963 0.244992 1.67671
v -0.345762 0.202755 1.59224
v 0.446298 0.159775 1.61456
v 0.434963 0.244992 1.67671
v 0.446298 0.159775 1.61456
v -0.334427 0.117538 1.53009
v -0.322073 0.546668 0.943932
v 0.45967 0.624262 0.980115
v -0.334426 0.719849 0.238428
v 0.446298 0.811711 0.216482
v -0.369607 0.610715 -0.479022
v 0.408219 0.693585 -0.56008
v -0.422258 0.235881 -1.09919
v 0.35123 0.287868 -1.23135
v -0.484365 -0.347587 -1.52766
v 0.284006 -0.343673 -1.69512
vt 1.774965 0.981755 0
vt 1.885767 0.981356 0
vt 1.885697 0.898042 0
vt 1.770371 0.899428 0
vt 1.887202 0.822253 0
vt 1.773506 0.824224 0
vt 1.887590 0.748730 0
vt 1.776788 0.751747 0
vt 1.887590 0.662039 0
vt 1.776788 0.662039 0
vt 1.887535 0.582611 0
vt 1.776733 0.581757 0
vt 1.772047 0.957689 0
vt 1.882849 0.957291 0
vt 1.885767 0.981356 0
vt 1.774965 0.981755 0
vt 1.882849 0.957291 0
vt 1.887498 0.875266 0
vt 1.885697 0.898042 0
vt 1.885767 0.981356 0
vt 1.772172 0.876652 0
vt 1.772047 0.957689 0
vt 1.774965 0.981755 0
vt 1.770371 0.899428 0
vt 1.887899 0.804676 0
vt 1.887202 0.822253 0
vt 1.774203 0.806647 0
vt 1.773506 0.824224 0
vt 1.884617 0.739347 0
vt 1.887590 0.748730 0
vt 1.773815 0.742364 0
vt 1.776788 0.751747 0
vt 1.884617 0.662039 0
vt 1.887590 0.662039 0
vt 1.773815 0.662039 0
vt 1.776788 0.662039 0
vt 1.884617 0.587398 0
vt 1.887535 0.582611 0
vt 1.884617 0.587398 0
vt 1.773815 0.586544 0
vt 1.776733 0.581757 0
vt 1.887535 0.582611 0
vt 1.773815 0.586544 0
vt 1.776733 0.581757 0
vt 1.773815 0.586544 0
vt 1.884617 0.587398 0
vt 1.884617 0.662039 0
vt 1.773815 0.662039 0
vt 1.884617 0.739347 0
vt 1.773815 0.742364 0
vt 1.887899 0.804676 0
vt 1.774203 0.806647 0
vt 1.887498 0.875266 0
vt 1.772172 0.876652 0
vt 1.882849 0.957291 0
vt 1.772047 0.957689 0
vn -0.1738 0.596718 -0.783092
vn -0.173718 0.596871 -0.783147
vn -0.166299 0.693126 -0.701074
vn -0.156009 0.779874 -0.606316
vn -0.137613 0.910603 -0.389561
vn -0.129607 0.954615 -0.26774
vn -0.117288 0.992909 -0.0163748
vn -0.112953 0.987017 0.113194
vn -0.108638 0.926824 0.359607
vn -0.108581 0.87238 0.47651
vn -0.106816 0.804845 0.583848
vn -0.106724 0.80481 0.583945
vn -0.122779 -0.803978 -0.582154
vn -0.122779 -0.803978 -0.582156
vn -0.122779 -0.803978 -0.582154
vn -0.122779 -0.803978 -0.582153
vn -0.980521 -0.0381951 0.193259
vn -0.984416 -0.0747899 0.158498
vn -0.98283 -0.0562048 0.175389
vn -0.981266 -0.0364047 0.190052
vn 0.982863 0.0561524 -0.175356
vn 0.981193 0.0355737 -0.190665
vn 0.980567 0.038116 -0.193209
vn 0.984529 0.0750202 -0.158268
vn -0.989687 -0.109749 0.0909133
vn -0.988149 -0.100971 0.115196
vn 0.988209 0.100977 -0.115205
vn 0.9898 0.109761 -0.0909252
vn -0.993005 -0.116208 0.0149866
vn -0.992199 -0.117376 0.0408141
vn 0.992259 0.117383 -0.040818
vn 0.993118 0.11622 -0.0149898
vn -0.994165 -0.0913473 -0.0559502
vn -0.993945 -0.104273 -0.0339597
vn 0.993984 0.104126 0.0342833
vn 0.994261 0.091393 0.0560201
vn -0.994215 -0.0762496 -0.0767773
vn -0.993917 -0.0794675 -0.0784735
vn -0.054838 -0.593218 0.803399
vn -0.054838 -0.593218 0.803399
vn -0.054838 -0.593218 0.803399
vn -0.0548379 -0.593218 0.803399
vn 0.993494 0.0794879 0.0785391
vn 0.99391 0.07679 0.0759789
vn 0.106874 -0.803487 -0.58599
vn 0.106866 -0.803426 -0.585945
vn 0.108882 -0.901048 -0.420166
vn 0.108865 -0.900901 -0.420097
vn 0.117275 -0.992791 0.0163875
vn 0.112953 -0.987009 -0.113179
vn 0.137597 -0.910489 0.389528
vn 0.129607 -0.954603 0.267752
vn 0.166492 -0.691914 0.702275
vn 0.156051 -0.779208 0.606827
vn 0.174085 -0.594905 0.784874
vn 0.174098 -0.594951 0.784934
g Ball_Wood_piece13
usemtl Ball_Wood_Pieces
f 2/2/2 3/3/3 1/1/1
f 3/3/3 4/4/4 1/1/1
f 3/3/3 5/5/5 4/4/4
f 5/5/5 6/6/6 4/4/4
f 5/5/5 7/7/7 6/6/6
f 7/7/7 8/8/8 6/6/6
f 7/7/7 9/9/9 8/8/8
f 9/9/9 10/10/10 8/8/8
f 9/9/9 11/11/11 10/10/10
f 11/11/11 12/12/12 10/10/10
f 14/14/14 15/15/15 13/13/13
f 16/16/16 13/13/13 15/15/15
f 18/18/18 19/19/19 17/17/17
f 20/20/20 17/17/17 19/19/19
f 22/22/22 23/23/23 21/21/21
f 24/24/24 21/21/21 23/23/23
f 25/25/25 26/26/26 18/18/18
f 19/19/19 18/18/18 26/26/26
f 21/21/21 24/24/24 27/27/27
f 28/28/28 27/27/27 24/24/24
f 29/29/29 30/30/30 25/25/25
f 26/26/26 25/25/25 30/30/30
f 27/27/27 28/28/28 31/31/31
f 32/32/32 31/31/31 28/28/28
f 33/33/33 34/34/34 29/29/29
f 30/30/30 29/29/29 34/34/34
f 31/31/31 32/32/32 35/35/35
f 36/36/36 35/35/35 32/32/32
f 37/37/37 38/38/38 33/33/33
f 34/34/34 33/33/33 38/38/38
f 40/40/40 41/41/41 39/39/39
f 42/42/42 39/39/39 41/41/41
f 35/35/35 36/36/36 43/43/43
f 44/44/44 43/43/43 36/36/36
f 46/46/46 47/47/47 45/45/45
f 47/47/47 48/48/48 45/45/45
f 49/49/49 50/50/50 47/47/47
f 50/50/50 48/48/48 47/47/47
f 51/51/51 52/52/52 49/49/49
f 52/52/52 50/50/50 49/49/49
f 53/53/53 54/54/54 51/51/51
f 54/54/54 52/52/52 51/51/51
f 55/55/55 56/56/56 53/53/53
f 56/56/56 54/54/54 53/53/53
