# 3ds Max Wavefront OBJ Exporter v0.97b - (c)2007 guruware
# 创建的文件:22.06.2022 22:34:49

#
# object P_Box_01
#

v  -2.5000 2.5000 2.5000
v  2.5000 2.5000 -2.5000
v  -2.5000 2.5000 -2.5000
v  2.5000 2.5000 2.5000
v  2.5000 -2.5000 2.5000
v  -2.5000 -2.5000 2.5000
v  2.5000 -2.5000 -2.5000
v  -2.5000 -2.5000 -2.5000
# 8 vertices

vn 0.0000 1.0001 -0.0000
vn 0.0000 0.0000 1.0001
vn 1.0001 0.0000 -0.0000
vn 0.0000 0.0000 -1.0001
vn -1.0001 0.0000 -0.0000
# 5 vertex normals

vt 0.5000 -0.5000 0.0000
# 1 texture coords

o P_Box_01
g P_Box_01
s 1
f 1/1/1 2/1/1 3/1/1 
f 2/1/1 1/1/1 4/1/1 
f 1/1/2 5/1/2 4/1/2 
f 5/1/2 1/1/2 6/1/2 
f 4/1/3 7/1/3 2/1/3 
f 7/1/3 4/1/3 5/1/3 
f 2/1/4 8/1/4 3/1/4 
f 8/1/4 2/1/4 7/1/4 
f 3/1/5 6/1/5 1/1/5 
f 6/1/5 3/1/5 8/1/5 
# 0 polygons - 10 triangles

