# 3ds Max Wavefront OBJ Exporter v0.97b - (c)2007 guruware
# 创建的文件:22.06.2022 22:18:32

#
# object P_Extra_Life_01
#

v  -0.0000 -2.5624 -0.0000
v  -0.0000 -2.3855 0.3940
v  -0.3539 -2.2275 -0.0000
v  -0.5032 -1.8118 0.2965
v  0.5031 -1.8118 0.2965
v  0.3539 -2.2275 -0.0000
v  -0.0000 -0.4793 1.8482
v  -0.3743 -0.0580 1.7151
v  0.3743 -0.0580 1.7151
v  -0.0000 0.3458 1.9838
v  -0.5052 0.2399 1.4747
v  0.5052 0.2399 1.4747
v  0.3743 0.5816 1.6878
v  -0.3743 0.5816 1.6878
v  -0.0000 0.9498 1.7887
v  -0.5052 0.6889 1.3297
v  0.5052 0.6889 1.3297
v  0.3743 0.9693 1.3754
v  -0.3743 0.9693 1.3754
v  -0.0000 1.2058 1.2800
v  -0.5052 0.8792 0.9515
v  0.5052 0.8792 0.9515
v  0.3810 0.9703 0.7209
v  -0.3810 0.9703 0.7209
v  -0.0000 0.9309 0.3652
v  -0.4947 0.7216 0.2885
v  0.4947 0.7216 0.2885
v  0.3480 0.7952 -0.0000
v  -0.3480 0.7952 -0.0000
v  -0.0000 0.9309 -0.3652
v  -0.4947 0.7216 -0.2885
v  0.4947 0.7216 -0.2885
v  -0.0000 1.2058 -1.2800
v  0.3810 0.9703 -0.7209
v  -0.3810 0.9703 -0.7209
v  -0.5052 0.8792 -0.9515
v  0.5052 0.8792 -0.9515
v  -0.0000 0.9498 -1.7887
v  0.3743 0.9693 -1.3754
v  -0.3743 0.9693 -1.3754
v  -0.5052 0.6889 -1.3297
v  0.5052 0.6889 -1.3297
v  0.3743 0.5816 -1.6878
v  -0.3743 0.5816 -1.6878
v  -0.0000 0.3458 -1.9838
v  -0.5052 0.2399 -1.4747
v  0.5052 0.2399 -1.4747
v  0.3743 -0.0580 -1.7151
v  -0.3743 -0.0580 -1.7151
v  -0.0000 -0.4793 -1.8482
v  0.5031 -1.8118 -0.2965
v  -0.5032 -1.8118 -0.2965
v  -0.0000 -2.3855 -0.3940
v  0.6716 -0.0668 -0.0000
v  -0.6716 -0.0668 -0.0000
v  2.5000 -2.5624 2.5000
v  2.5000 -2.5624 -2.5000
v  0.0000 -2.0624 0.0000
v  -2.5000 -2.5624 -2.5000
v  -2.5000 -2.5624 2.5000
# 60 vertices

vn 0.0000 -1.0002 -0.0000
vn -0.0000 -0.7879 0.6159
vn -0.8581 -0.5133 -0.0000
vn -0.8721 -0.3615 0.3294
vn 0.8721 -0.3615 0.3294
vn 0.8581 -0.5133 -0.0000
vn 0.0000 -0.4467 0.8946
vn -0.8300 -0.1517 0.5368
vn 0.8300 -0.1517 0.5368
vn -0.0000 0.0527 0.9986
vn -0.9011 0.0257 0.4331
vn 0.9011 0.0257 0.4331
vn 0.8420 0.1693 0.5124
vn -0.8420 0.1693 0.5124
vn 0.0000 0.6312 0.7756
vn -0.8996 0.2764 0.3381
vn 0.8996 0.2764 0.3381
vn 0.8133 0.5046 0.2895
vn -0.8133 0.5046 0.2895
vn 0.0000 0.9992 0.0412
vn -0.8275 0.5615 0.0147
vn 0.8275 0.5615 0.0147
vn 0.6505 0.7377 -0.1807
vn -0.6505 0.7377 -0.1807
vn -0.0000 0.9671 -0.2544
vn -0.7361 0.6560 -0.1671
vn 0.7361 0.6560 -0.1671
vn 0.5019 0.8649 -0.0000
vn -0.5019 0.8649 -0.0000
vn -0.0000 0.9671 0.2544
vn -0.7361 0.6560 0.1671
vn 0.7361 0.6559 0.1671
vn 0.0000 0.9992 -0.0412
vn 0.6505 0.7377 0.1807
vn -0.6505 0.7377 0.1807
vn -0.8275 0.5615 -0.0147
vn 0.8275 0.5615 -0.0147
vn 0.0000 0.6312 -0.7756
vn 0.8133 0.5046 -0.2895
vn -0.8133 0.5046 -0.2895
vn -0.8996 0.2764 -0.3381
vn 0.8996 0.2764 -0.3381
vn 0.8420 0.1693 -0.5124
vn -0.8420 0.1693 -0.5124
vn -0.0000 0.0527 -0.9986
vn -0.9011 0.0257 -0.4331
vn 0.9011 0.0257 -0.4331
vn 0.8300 -0.1517 -0.5368
vn -0.8300 -0.1517 -0.5368
vn 0.0000 -0.4467 -0.8946
vn 0.8721 -0.3615 -0.3294
vn -0.8721 -0.3615 -0.3294
vn 0.0000 -0.7879 -0.6159
vn 0.9963 0.0853 -0.0000
vn -0.9963 0.0853 0.0000
vn 0.1961 0.9806 -0.0000
vn 0.0000 0.9806 -0.1961
vn -0.1961 0.9805 -0.0000
vn 0.0000 0.9805 0.1961
# 59 vertex normals

vt 0.5000 -0.5000 0.0000
# 1 texture coords

o P_Extra_Life_01
g P_Extra_Life_01
s 1
f 1/1/1 2/1/2 3/1/3 
f 2/1/2 4/1/4 3/1/3 
f 5/1/5 2/1/2 6/1/6 
f 2/1/2 1/1/1 6/1/6 
f 2/1/2 7/1/7 4/1/4 
f 7/1/7 8/1/8 4/1/4 
f 9/1/9 7/1/7 5/1/5 
f 7/1/7 2/1/2 5/1/5 
f 7/1/7 10/1/10 8/1/8 
f 10/1/10 11/1/11 8/1/8 
f 12/1/12 10/1/10 9/1/9 
f 10/1/10 7/1/7 9/1/9 
f 10/1/10 12/1/12 13/1/13 
f 11/1/11 10/1/10 14/1/14 
f 10/1/10 15/1/15 14/1/14 
f 15/1/15 16/1/16 14/1/14 
f 17/1/17 15/1/15 13/1/13 
f 15/1/15 10/1/10 13/1/13 
f 15/1/15 17/1/17 18/1/18 
f 16/1/16 15/1/15 19/1/19 
f 15/1/15 20/1/20 19/1/19 
f 20/1/20 21/1/21 19/1/19 
f 22/1/22 20/1/20 18/1/18 
f 20/1/20 15/1/15 18/1/18 
f 20/1/20 22/1/22 23/1/23 
f 21/1/21 20/1/20 24/1/24 
f 20/1/20 25/1/25 24/1/24 
f 25/1/25 26/1/26 24/1/24 
f 27/1/27 25/1/25 23/1/23 
f 25/1/25 20/1/20 23/1/23 
f 25/1/25 27/1/27 28/1/28 
f 26/1/26 25/1/25 29/1/29 
f 25/1/25 28/1/28 29/1/29 
f 28/1/28 30/1/30 29/1/29 
f 30/1/30 31/1/31 29/1/29 
f 32/1/32 30/1/30 28/1/28 
f 33/1/33 30/1/30 34/1/34 
f 30/1/30 32/1/32 34/1/34 
f 31/1/31 30/1/30 35/1/35 
f 30/1/30 33/1/33 35/1/35 
f 33/1/33 36/1/36 35/1/35 
f 37/1/37 33/1/33 34/1/34 
f 38/1/38 33/1/33 39/1/39 
f 33/1/33 37/1/37 39/1/39 
f 36/1/36 33/1/33 40/1/40 
f 33/1/33 38/1/38 40/1/40 
f 38/1/38 41/1/41 40/1/40 
f 42/1/42 38/1/38 39/1/39 
f 38/1/38 42/1/42 43/1/43 
f 41/1/41 38/1/38 44/1/44 
f 38/1/38 45/1/45 44/1/44 
f 45/1/45 46/1/46 44/1/44 
f 47/1/47 45/1/45 43/1/43 
f 45/1/45 38/1/38 43/1/43 
f 45/1/45 47/1/47 48/1/48 
f 46/1/46 45/1/45 49/1/49 
f 45/1/45 50/1/50 49/1/49 
f 50/1/50 45/1/45 48/1/48 
f 50/1/50 48/1/48 51/1/51 
f 49/1/49 50/1/50 52/1/52 
f 50/1/50 53/1/53 52/1/52 
f 53/1/53 50/1/50 51/1/51 
f 1/1/1 53/1/53 6/1/6 
f 53/1/53 51/1/51 6/1/6 
f 52/1/52 53/1/53 3/1/3 
f 53/1/53 1/1/1 3/1/3 
f 47/1/47 54/1/54 48/1/48 
f 42/1/42 54/1/54 43/1/43 
f 54/1/54 47/1/47 43/1/43 
f 37/1/37 54/1/54 39/1/39 
f 54/1/54 42/1/42 39/1/39 
f 32/1/32 54/1/54 34/1/34 
f 54/1/54 37/1/37 34/1/34 
f 27/1/27 54/1/54 28/1/28 
f 54/1/54 32/1/32 28/1/28 
f 22/1/22 54/1/54 23/1/23 
f 54/1/54 27/1/27 23/1/23 
f 17/1/17 54/1/54 18/1/18 
f 54/1/54 22/1/22 18/1/18 
f 12/1/12 54/1/54 13/1/13 
f 54/1/54 17/1/17 13/1/13 
f 54/1/54 12/1/12 9/1/9 
f 54/1/54 9/1/9 5/1/5 
f 51/1/51 54/1/54 6/1/6 
f 54/1/54 5/1/5 6/1/6 
f 48/1/48 54/1/54 51/1/51 
f 46/1/46 55/1/55 44/1/44 
f 55/1/55 41/1/41 44/1/44 
f 55/1/55 46/1/46 49/1/49 
f 55/1/55 49/1/49 52/1/52 
f 4/1/4 55/1/55 3/1/3 
f 55/1/55 52/1/52 3/1/3 
f 8/1/8 55/1/55 4/1/4 
f 11/1/11 55/1/55 8/1/8 
f 16/1/16 55/1/55 14/1/14 
f 55/1/55 11/1/11 14/1/14 
f 21/1/21 55/1/55 19/1/19 
f 55/1/55 16/1/16 19/1/19 
f 26/1/26 55/1/55 24/1/24 
f 55/1/55 21/1/21 24/1/24 
f 31/1/31 55/1/55 29/1/29 
f 55/1/55 26/1/26 29/1/29 
f 36/1/36 55/1/55 35/1/35 
f 55/1/55 31/1/31 35/1/35 
f 41/1/41 55/1/55 40/1/40 
f 55/1/55 36/1/36 40/1/40 
f 56/1/56 57/1/56 58/1/56 
f 57/1/57 59/1/57 58/1/57 
f 59/1/58 60/1/58 58/1/58 
f 60/1/59 56/1/59 58/1/59 
# 0 polygons - 110 triangles

