mtllib E:\Programming\GameProjects\Ballance\ResourceFactory\P_Ball_Stone_01.mtl
v 0 2 -0
v 0 1.41421 -1.41421
v 1.41421 1.41421 -0
v 1.41421 0 -1.41421
v 2 0 -0
v 0 0 -2
v -1.41421 1.41421 -0
v -1.41421 0 -1.41421
v -2 0 -0
v 0 1.41421 1.41421
v -1.41421 0 1.41421
v 0 0 2
v 1.41421 0 1.41421
v 0 -2 -0
v 1.41421 -1.41421 -0
v 0 -1.41421 -1.41421
v -1.41421 -1.41421 -0
v 0 -1.41421 1.41421
vt 0.500000 -0.500000 0
vt 0.500000 -0.500000 0
vt 0.500000 -0.500000 0
vt 0.500000 -0.500000 0
vt 0.500000 -0.500000 0
vt 0.500000 -0.500000 0
vt 0.500000 -0.500000 0
vt 0.500000 -0.500000 0
vt 0.500000 -0.500000 0
vt 0.500000 -0.500000 0
vt 0.500000 -0.500000 0
vt 0.500000 -0.500000 0
vt 0.500000 -0.500000 0
vt 0.500000 -0.500000 0
vt 0.500000 -0.500000 0
vt 0.500000 -0.500000 0
vt 0.500000 -0.500000 0
vt 0.500000 -0.500000 0
vn 0 0.999916 -0
vn 1.17234e-008 0.707109 -0.707109
vn 0.707109 0.707109 -5.86169e-009
vn 0.707109 5.86169e-009 -0.707109
vn 0.999916 0 -0
vn 0 0 -0.999916
vn -0.707109 0.707109 -1.17234e-008
vn -0.707109 5.86169e-009 -0.707109
vn -0.999916 0 -0
vn -1.17234e-008 0.707109 0.707109
vn -0.707109 5.86169e-009 0.707109
vn 0 0 0.999916
vn 0.707109 5.86169e-009 0.707109
vn 0 -0.999916 -0
vn 0.707109 -0.707109 -1.17234e-008
vn 5.86169e-009 -0.707109 -0.707109
vn -0.707109 -0.707109 -5.86169e-009
vn -5.86169e-009 -0.707109 0.707109
g P_Ball_Stone_01
f 3/3/3 2/2/2 1/1/1
f 5/5/5 4/4/4 3/3/3
f 4/4/4 2/2/2 3/3/3
f 4/4/4 6/6/6 2/2/2
f 2/2/2 7/7/7 1/1/1
f 6/6/6 8/8/8 2/2/2
f 8/8/8 7/7/7 2/2/2
f 8/8/8 9/9/9 7/7/7
f 7/7/7 10/10/10 1/1/1
f 9/9/9 11/11/11 7/7/7
f 11/11/11 10/10/10 7/7/7
f 11/11/11 12/12/12 10/10/10
f 10/10/10 3/3/3 1/1/1
f 12/12/12 13/13/13 10/10/10
f 13/13/13 3/3/3 10/10/10
f 13/13/13 5/5/5 3/3/3
f 16/16/16 15/15/15 14/14/14
f 6/6/6 4/4/4 16/16/16
f 4/4/4 15/15/15 16/16/16
f 4/4/4 5/5/5 15/15/15
f 17/17/17 16/16/16 14/14/14
f 9/9/9 8/8/8 17/17/17
f 8/8/8 16/16/16 17/17/17
f 8/8/8 6/6/6 16/16/16
f 18/18/18 17/17/17 14/14/14
f 12/12/12 11/11/11 18/18/18
f 11/11/11 17/17/17 18/18/18
f 11/11/11 9/9/9 17/17/17
f 15/15/15 18/18/18 14/14/14
f 5/5/5 13/13/13 15/15/15
f 13/13/13 18/18/18 15/15/15
f 13/13/13 12/12/12 18/18/18
